<?xml version="1.0" encoding="utf-8"?>
<svg xmlns="http://www.w3.org/2000/svg" xmlns:xlink="http://www.w3.org/1999/xlink" width="566.25" height="350" viewBox="0 0 2265 1400">
<defs>
  <clipPath id="clip340">
    <rect x="0" y="0" width="2265" height="1400"/>
  </clipPath>
</defs>
<path clip-path="url(#clip340)" d="M0 1400 L2265 1400 L2265 0 L0 0  Z" fill="#ffffff" fill-rule="evenodd" fill-opacity="1"/>
<defs>
  <clipPath id="clip341">
    <rect x="453" y="0" width="1587" height="1400"/>
  </clipPath>
</defs>
<path clip-path="url(#clip340)" d="M280.342 1195.66 L2186.27 1195.66 L2186.27 47.2441 L280.342 47.2441  Z" fill="#ffffff" fill-rule="evenodd" fill-opacity="1"/>
<defs>
  <clipPath id="clip342">
    <rect x="280" y="47" width="1907" height="1149"/>
  </clipPath>
</defs>
<polyline clip-path="url(#clip342)" style="stroke:#000000; stroke-linecap:round; stroke-linejoin:round; stroke-width:2; stroke-opacity:0.1; fill:none" points="315.936,1195.66 315.936,47.2441 "/>
<polyline clip-path="url(#clip342)" style="stroke:#000000; stroke-linecap:round; stroke-linejoin:round; stroke-width:2; stroke-opacity:0.1; fill:none" points="774.62,1195.66 774.62,47.2441 "/>
<polyline clip-path="url(#clip342)" style="stroke:#000000; stroke-linecap:round; stroke-linejoin:round; stroke-width:2; stroke-opacity:0.1; fill:none" points="1233.3,1195.66 1233.3,47.2441 "/>
<polyline clip-path="url(#clip342)" style="stroke:#000000; stroke-linecap:round; stroke-linejoin:round; stroke-width:2; stroke-opacity:0.1; fill:none" points="1691.99,1195.66 1691.99,47.2441 "/>
<polyline clip-path="url(#clip342)" style="stroke:#000000; stroke-linecap:round; stroke-linejoin:round; stroke-width:2; stroke-opacity:0.1; fill:none" points="2150.67,1195.66 2150.67,47.2441 "/>
<polyline clip-path="url(#clip340)" style="stroke:#000000; stroke-linecap:round; stroke-linejoin:round; stroke-width:4; stroke-opacity:1; fill:none" points="280.342,1195.66 2186.27,1195.66 "/>
<polyline clip-path="url(#clip340)" style="stroke:#000000; stroke-linecap:round; stroke-linejoin:round; stroke-width:4; stroke-opacity:1; fill:none" points="280.342,47.2441 2186.27,47.2441 "/>
<polyline clip-path="url(#clip340)" style="stroke:#000000; stroke-linecap:round; stroke-linejoin:round; stroke-width:4; stroke-opacity:1; fill:none" points="315.936,1195.66 315.936,1176.77 "/>
<polyline clip-path="url(#clip340)" style="stroke:#000000; stroke-linecap:round; stroke-linejoin:round; stroke-width:4; stroke-opacity:1; fill:none" points="774.62,1195.66 774.62,1176.77 "/>
<polyline clip-path="url(#clip340)" style="stroke:#000000; stroke-linecap:round; stroke-linejoin:round; stroke-width:4; stroke-opacity:1; fill:none" points="1233.3,1195.66 1233.3,1176.77 "/>
<polyline clip-path="url(#clip340)" style="stroke:#000000; stroke-linecap:round; stroke-linejoin:round; stroke-width:4; stroke-opacity:1; fill:none" points="1691.99,1195.66 1691.99,1176.77 "/>
<polyline clip-path="url(#clip340)" style="stroke:#000000; stroke-linecap:round; stroke-linejoin:round; stroke-width:4; stroke-opacity:1; fill:none" points="2150.67,1195.66 2150.67,1176.77 "/>
<path clip-path="url(#clip340)" d="M262.226 1247.56 Q262.226 1238.27 264.573 1233.2 Q267.845 1225.67 275.565 1225.67 Q277.201 1225.67 278.899 1226.13 Q280.628 1226.56 282.79 1228.26 Q284.982 1229.96 286.31 1232.74 Q288.841 1238.11 288.841 1247.56 Q288.841 1256.79 286.495 1261.83 Q283.068 1269.18 275.503 1269.18 Q272.662 1269.18 269.76 1267.72 Q266.888 1266.27 265.067 1262.78 Q262.226 1257.57 262.226 1247.56 M267.475 1246.79 Q267.475 1256.33 268.154 1260.13 Q268.926 1264.24 271.026 1266.03 Q273.156 1267.79 275.503 1267.79 Q278.035 1267.79 280.134 1265.9 Q282.265 1263.99 282.913 1259.88 Q283.623 1255.84 283.592 1246.79 Q283.592 1237.99 282.975 1234.47 Q282.141 1230.36 279.918 1228.72 Q277.726 1227.06 275.503 1227.06 Q274.669 1227.06 273.774 1227.3 Q272.909 1227.55 271.643 1228.26 Q270.377 1228.97 269.389 1230.73 Q268.432 1232.49 267.969 1235.15 Q267.475 1238.57 267.475 1246.79 Z" fill="#000000" fill-rule="nonzero" fill-opacity="1" /><path clip-path="url(#clip340)" d="M297.703 1266.77 Q296.746 1265.75 296.746 1264.42 Q296.746 1263.09 297.703 1262.14 Q298.66 1261.15 300.111 1261.15 Q301.501 1261.15 302.427 1262.07 Q303.384 1262.97 303.384 1264.45 Q303.384 1265.9 302.365 1266.86 Q301.377 1267.79 300.111 1267.79 Q298.66 1267.79 297.703 1266.77 Z" fill="#000000" fill-rule="nonzero" fill-opacity="1" /><path clip-path="url(#clip340)" d="M311.412 1247.56 Q311.412 1238.27 313.759 1233.2 Q317.032 1225.67 324.751 1225.67 Q326.387 1225.67 328.085 1226.13 Q329.815 1226.56 331.976 1228.26 Q334.168 1229.96 335.496 1232.74 Q338.028 1238.11 338.028 1247.56 Q338.028 1256.79 335.681 1261.83 Q332.254 1269.18 324.689 1269.18 Q321.848 1269.18 318.946 1267.72 Q316.074 1266.27 314.253 1262.78 Q311.412 1257.57 311.412 1247.56 M316.661 1246.79 Q316.661 1256.33 317.34 1260.13 Q318.112 1264.24 320.212 1266.03 Q322.342 1267.79 324.689 1267.79 Q327.221 1267.79 329.321 1265.9 Q331.451 1263.99 332.099 1259.88 Q332.81 1255.84 332.779 1246.79 Q332.779 1237.99 332.161 1234.47 Q331.327 1230.36 329.104 1228.72 Q326.912 1227.06 324.689 1227.06 Q323.855 1227.06 322.96 1227.3 Q322.095 1227.55 320.829 1228.26 Q319.564 1228.97 318.575 1230.73 Q317.618 1232.49 317.155 1235.15 Q316.661 1238.57 316.661 1246.79 Z" fill="#000000" fill-rule="nonzero" fill-opacity="1" /><path clip-path="url(#clip340)" d="M343.03 1247.56 Q343.03 1238.27 345.376 1233.2 Q348.649 1225.67 356.368 1225.67 Q358.005 1225.67 359.703 1226.13 Q361.432 1226.56 363.593 1228.26 Q365.786 1229.96 367.113 1232.74 Q369.645 1238.11 369.645 1247.56 Q369.645 1256.79 367.299 1261.83 Q363.871 1269.18 356.307 1269.18 Q353.466 1269.18 350.564 1267.72 Q347.692 1266.27 345.87 1262.78 Q343.03 1257.57 343.03 1247.56 M348.279 1246.79 Q348.279 1256.33 348.958 1260.13 Q349.73 1264.24 351.829 1266.03 Q353.96 1267.79 356.307 1267.79 Q358.838 1267.79 360.938 1265.9 Q363.068 1263.99 363.717 1259.88 Q364.427 1255.84 364.396 1246.79 Q364.396 1237.99 363.779 1234.47 Q362.945 1230.36 360.722 1228.72 Q358.53 1227.06 356.307 1227.06 Q355.473 1227.06 354.577 1227.3 Q353.713 1227.55 352.447 1228.26 Q351.181 1228.97 350.193 1230.73 Q349.236 1232.49 348.773 1235.15 Q348.279 1238.57 348.279 1246.79 Z" fill="#000000" fill-rule="nonzero" fill-opacity="1" /><path clip-path="url(#clip340)" d="M721.25 1247.56 Q721.25 1238.27 723.597 1233.2 Q726.869 1225.67 734.589 1225.67 Q736.225 1225.67 737.923 1226.13 Q739.652 1226.56 741.814 1228.26 Q744.006 1229.96 745.334 1232.74 Q747.865 1238.11 747.865 1247.56 Q747.865 1256.79 745.519 1261.83 Q742.092 1269.18 734.527 1269.18 Q731.686 1269.18 728.784 1267.72 Q725.912 1266.27 724.091 1262.78 Q721.25 1257.57 721.25 1247.56 M726.499 1246.79 Q726.499 1256.33 727.178 1260.13 Q727.95 1264.24 730.05 1266.03 Q732.18 1267.79 734.527 1267.79 Q737.059 1267.79 739.158 1265.9 Q741.289 1263.99 741.937 1259.88 Q742.647 1255.84 742.616 1246.79 Q742.616 1237.99 741.999 1234.47 Q741.165 1230.36 738.942 1228.72 Q736.75 1227.06 734.527 1227.06 Q733.693 1227.06 732.798 1227.3 Q731.933 1227.55 730.667 1228.26 Q729.401 1228.97 728.413 1230.73 Q727.456 1232.49 726.993 1235.15 Q726.499 1238.57 726.499 1246.79 Z" fill="#000000" fill-rule="nonzero" fill-opacity="1" /><path clip-path="url(#clip340)" d="M756.727 1266.77 Q755.77 1265.75 755.77 1264.42 Q755.77 1263.09 756.727 1262.14 Q757.684 1261.15 759.135 1261.15 Q760.525 1261.15 761.451 1262.07 Q762.408 1262.97 762.408 1264.45 Q762.408 1265.9 761.389 1266.86 Q760.401 1267.79 759.135 1267.79 Q757.684 1267.79 756.727 1266.77 Z" fill="#000000" fill-rule="nonzero" fill-opacity="1" /><path clip-path="url(#clip340)" d="M771.115 1267.79 Q771.115 1266.64 771.208 1266.3 Q771.332 1265.96 771.826 1265.44 L783.96 1251.91 Q790.598 1244.44 790.598 1237.93 Q790.598 1233.7 788.375 1230.67 Q786.183 1227.64 782.138 1227.64 Q779.359 1227.64 777.013 1229.34 Q774.666 1231.04 773.586 1234.07 Q773.771 1234 774.419 1234 Q775.994 1234 776.858 1234.99 Q777.754 1235.98 777.754 1237.31 Q777.754 1239.01 776.642 1239.84 Q775.562 1240.64 774.481 1240.64 Q774.049 1240.64 773.462 1240.55 Q772.906 1240.46 772.011 1239.59 Q771.115 1238.7 771.115 1237.12 Q771.115 1232.71 774.45 1229.19 Q777.816 1225.67 782.941 1225.67 Q788.746 1225.67 792.544 1229.13 Q796.372 1232.55 796.372 1237.93 Q796.372 1239.81 795.786 1241.54 Q795.23 1243.24 794.458 1244.57 Q793.717 1245.89 791.679 1248.02 Q789.641 1250.15 788.005 1251.67 Q786.368 1253.18 782.694 1256.39 L775.994 1262.91 L787.387 1262.91 Q792.945 1262.91 793.377 1262.41 Q793.995 1261.52 794.767 1256.79 L796.372 1256.79 L794.582 1267.79 L771.115 1267.79 Z" fill="#000000" fill-rule="nonzero" fill-opacity="1" /><path clip-path="url(#clip340)" d="M802.733 1257.6 Q802.733 1255.71 803.752 1255 Q804.771 1254.26 805.851 1254.26 Q807.303 1254.26 808.136 1255.19 Q809.001 1256.08 809.001 1257.35 Q809.001 1258.62 808.136 1259.54 Q807.303 1260.44 805.851 1260.44 Q805.141 1260.44 804.771 1260.31 Q805.604 1263.22 808.136 1265.32 Q810.699 1267.42 814.065 1267.42 Q818.295 1267.42 820.827 1263.31 Q822.339 1260.65 822.339 1254.63 Q822.339 1249.32 821.197 1246.67 Q819.437 1242.62 815.825 1242.62 Q810.699 1242.62 807.673 1247.04 Q807.303 1247.59 806.87 1247.62 Q806.253 1247.62 806.098 1247.28 Q805.975 1246.91 805.975 1245.95 L805.975 1227.24 Q805.975 1225.73 806.592 1225.73 Q806.839 1225.73 807.364 1225.91 Q811.347 1227.67 815.763 1227.71 Q820.302 1227.71 824.377 1225.85 Q824.686 1225.67 824.871 1225.67 Q825.489 1225.67 825.52 1226.38 Q825.52 1226.62 824.995 1227.37 Q824.501 1228.08 823.42 1229.03 Q822.339 1229.96 820.95 1230.85 Q819.561 1231.75 817.523 1232.37 Q815.516 1232.95 813.293 1232.95 Q810.637 1232.95 807.92 1232.12 L807.92 1244.44 Q811.193 1241.23 815.948 1241.23 Q821.012 1241.23 824.501 1245.31 Q827.99 1249.38 827.99 1255.06 Q827.99 1261.02 823.852 1265.1 Q819.746 1269.18 814.188 1269.18 Q809.124 1269.18 805.913 1265.56 Q802.733 1261.95 802.733 1257.6 Z" fill="#000000" fill-rule="nonzero" fill-opacity="1" /><path clip-path="url(#clip340)" d="M1179.59 1247.56 Q1179.59 1238.27 1181.94 1233.2 Q1185.21 1225.67 1192.93 1225.67 Q1194.57 1225.67 1196.27 1226.13 Q1198 1226.56 1200.16 1228.26 Q1202.35 1229.96 1203.68 1232.74 Q1206.21 1238.11 1206.21 1247.56 Q1206.21 1256.79 1203.86 1261.83 Q1200.44 1269.18 1192.87 1269.18 Q1190.03 1269.18 1187.13 1267.72 Q1184.26 1266.27 1182.44 1262.78 Q1179.59 1257.57 1179.59 1247.56 M1184.84 1246.79 Q1184.84 1256.33 1185.52 1260.13 Q1186.29 1264.24 1188.39 1266.03 Q1190.52 1267.79 1192.87 1267.79 Q1195.4 1267.79 1197.5 1265.9 Q1199.63 1263.99 1200.28 1259.88 Q1200.99 1255.84 1200.96 1246.79 Q1200.96 1237.99 1200.34 1234.47 Q1199.51 1230.36 1197.29 1228.72 Q1195.09 1227.06 1192.87 1227.06 Q1192.04 1227.06 1191.14 1227.3 Q1190.28 1227.55 1189.01 1228.26 Q1187.75 1228.97 1186.76 1230.73 Q1185.8 1232.49 1185.34 1235.15 Q1184.84 1238.57 1184.84 1246.79 Z" fill="#000000" fill-rule="nonzero" fill-opacity="1" /><path clip-path="url(#clip340)" d="M1215.07 1266.77 Q1214.11 1265.75 1214.11 1264.42 Q1214.11 1263.09 1215.07 1262.14 Q1216.03 1261.15 1217.48 1261.15 Q1218.87 1261.15 1219.8 1262.07 Q1220.75 1262.97 1220.75 1264.45 Q1220.75 1265.9 1219.73 1266.86 Q1218.75 1267.79 1217.48 1267.79 Q1216.03 1267.79 1215.07 1266.77 Z" fill="#000000" fill-rule="nonzero" fill-opacity="1" /><path clip-path="url(#clip340)" d="M1229.46 1257.6 Q1229.46 1255.71 1230.48 1255 Q1231.5 1254.26 1232.58 1254.26 Q1234.03 1254.26 1234.86 1255.19 Q1235.73 1256.08 1235.73 1257.35 Q1235.73 1258.62 1234.86 1259.54 Q1234.03 1260.44 1232.58 1260.44 Q1231.87 1260.44 1231.5 1260.31 Q1232.33 1263.22 1234.86 1265.32 Q1237.43 1267.42 1240.79 1267.42 Q1245.02 1267.42 1247.55 1263.31 Q1249.07 1260.65 1249.07 1254.63 Q1249.07 1249.32 1247.92 1246.67 Q1246.16 1242.62 1242.55 1242.62 Q1237.43 1242.62 1234.4 1247.04 Q1234.03 1247.59 1233.6 1247.62 Q1232.98 1247.62 1232.83 1247.28 Q1232.7 1246.91 1232.7 1245.95 L1232.7 1227.24 Q1232.7 1225.73 1233.32 1225.73 Q1233.57 1225.73 1234.09 1225.91 Q1238.07 1227.67 1242.49 1227.71 Q1247.03 1227.71 1251.1 1225.85 Q1251.41 1225.67 1251.6 1225.67 Q1252.22 1225.67 1252.25 1226.38 Q1252.25 1226.62 1251.72 1227.37 Q1251.23 1228.08 1250.15 1229.03 Q1249.07 1229.96 1247.68 1230.85 Q1246.29 1231.75 1244.25 1232.37 Q1242.24 1232.95 1240.02 1232.95 Q1237.36 1232.95 1234.65 1232.12 L1234.65 1244.44 Q1237.92 1241.23 1242.68 1241.23 Q1247.74 1241.23 1251.23 1245.31 Q1254.72 1249.38 1254.72 1255.06 Q1254.72 1261.02 1250.58 1265.1 Q1246.47 1269.18 1240.92 1269.18 Q1235.85 1269.18 1232.64 1265.56 Q1229.46 1261.95 1229.46 1257.6 Z" fill="#000000" fill-rule="nonzero" fill-opacity="1" /><path clip-path="url(#clip340)" d="M1260.4 1247.56 Q1260.4 1238.27 1262.74 1233.2 Q1266.02 1225.67 1273.74 1225.67 Q1275.37 1225.67 1277.07 1226.13 Q1278.8 1226.56 1280.96 1228.26 Q1283.15 1229.96 1284.48 1232.74 Q1287.01 1238.11 1287.01 1247.56 Q1287.01 1256.79 1284.67 1261.83 Q1281.24 1269.18 1273.68 1269.18 Q1270.83 1269.18 1267.93 1267.72 Q1265.06 1266.27 1263.24 1262.78 Q1260.4 1257.57 1260.4 1247.56 M1265.65 1246.79 Q1265.65 1256.33 1266.33 1260.13 Q1267.1 1264.24 1269.2 1266.03 Q1271.33 1267.79 1273.68 1267.79 Q1276.21 1267.79 1278.31 1265.9 Q1280.44 1263.99 1281.09 1259.88 Q1281.8 1255.84 1281.76 1246.79 Q1281.76 1237.99 1281.15 1234.47 Q1280.31 1230.36 1278.09 1228.72 Q1275.9 1227.06 1273.68 1227.06 Q1272.84 1227.06 1271.95 1227.3 Q1271.08 1227.55 1269.82 1228.26 Q1268.55 1228.97 1267.56 1230.73 Q1266.6 1232.49 1266.14 1235.15 Q1265.65 1238.57 1265.65 1246.79 Z" fill="#000000" fill-rule="nonzero" fill-opacity="1" /><path clip-path="url(#clip340)" d="M1638.62 1247.56 Q1638.62 1238.27 1640.97 1233.2 Q1644.24 1225.67 1651.96 1225.67 Q1653.59 1225.67 1655.29 1226.13 Q1657.02 1226.56 1659.18 1228.26 Q1661.37 1229.96 1662.7 1232.74 Q1665.23 1238.11 1665.23 1247.56 Q1665.23 1256.79 1662.89 1261.83 Q1659.46 1269.18 1651.9 1269.18 Q1649.05 1269.18 1646.15 1267.72 Q1643.28 1266.27 1641.46 1262.78 Q1638.62 1257.57 1638.62 1247.56 M1643.87 1246.79 Q1643.87 1256.33 1644.55 1260.13 Q1645.32 1264.24 1647.42 1266.03 Q1649.55 1267.79 1651.9 1267.79 Q1654.43 1267.79 1656.53 1265.9 Q1658.66 1263.99 1659.31 1259.88 Q1660.02 1255.84 1659.99 1246.79 Q1659.99 1237.99 1659.37 1234.47 Q1658.53 1230.36 1656.31 1228.72 Q1654.12 1227.06 1651.9 1227.06 Q1651.06 1227.06 1650.17 1227.3 Q1649.3 1227.55 1648.04 1228.26 Q1646.77 1228.97 1645.78 1230.73 Q1644.82 1232.49 1644.36 1235.15 Q1643.87 1238.57 1643.87 1246.79 Z" fill="#000000" fill-rule="nonzero" fill-opacity="1" /><path clip-path="url(#clip340)" d="M1674.1 1266.77 Q1673.14 1265.75 1673.14 1264.42 Q1673.14 1263.09 1674.1 1262.14 Q1675.05 1261.15 1676.5 1261.15 Q1677.89 1261.15 1678.82 1262.07 Q1679.78 1262.97 1679.78 1264.45 Q1679.78 1265.9 1678.76 1266.86 Q1677.77 1267.79 1676.5 1267.79 Q1675.05 1267.79 1674.1 1266.77 Z" fill="#000000" fill-rule="nonzero" fill-opacity="1" /><path clip-path="url(#clip340)" d="M1688.89 1238.05 L1690.95 1225.05 L1692.53 1225.05 Q1692.71 1225.82 1693.02 1226.16 Q1693.36 1226.5 1695.15 1226.78 Q1696.98 1227.06 1700.65 1227.06 L1716 1227.06 Q1716 1228.51 1715.44 1229.28 L1706.89 1241.29 Q1704.17 1245.09 1702.97 1252.1 Q1702.25 1256.79 1702.29 1262.48 L1702.29 1265.69 Q1702.29 1269.18 1699.35 1269.18 Q1696.45 1269.18 1696.45 1265.69 Q1696.45 1253.61 1704.23 1241.91 Q1705.06 1240.71 1708.12 1236.41 Q1711.21 1232.12 1711.33 1231.94 L1698.24 1231.94 Q1692.5 1231.94 1692.03 1232.31 Q1691.42 1232.86 1690.46 1238.05 L1688.89 1238.05 Z" fill="#000000" fill-rule="nonzero" fill-opacity="1" /><path clip-path="url(#clip340)" d="M1720.1 1257.6 Q1720.1 1255.71 1721.12 1255 Q1722.14 1254.26 1723.22 1254.26 Q1724.67 1254.26 1725.5 1255.19 Q1726.37 1256.08 1726.37 1257.35 Q1726.37 1258.62 1725.5 1259.54 Q1724.67 1260.44 1723.22 1260.44 Q1722.51 1260.44 1722.14 1260.31 Q1722.97 1263.22 1725.5 1265.32 Q1728.07 1267.42 1731.43 1267.42 Q1735.66 1267.42 1738.2 1263.31 Q1739.71 1260.65 1739.71 1254.63 Q1739.71 1249.32 1738.57 1246.67 Q1736.81 1242.62 1733.19 1242.62 Q1728.07 1242.62 1725.04 1247.04 Q1724.67 1247.59 1724.24 1247.62 Q1723.62 1247.62 1723.47 1247.28 Q1723.34 1246.91 1723.34 1245.95 L1723.34 1227.24 Q1723.34 1225.73 1723.96 1225.73 Q1724.21 1225.73 1724.73 1225.91 Q1728.72 1227.67 1733.13 1227.71 Q1737.67 1227.71 1741.75 1225.85 Q1742.05 1225.67 1742.24 1225.67 Q1742.86 1225.67 1742.89 1226.38 Q1742.89 1226.62 1742.36 1227.37 Q1741.87 1228.08 1740.79 1229.03 Q1739.71 1229.96 1738.32 1230.85 Q1736.93 1231.75 1734.89 1232.37 Q1732.88 1232.95 1730.66 1232.95 Q1728.01 1232.95 1725.29 1232.12 L1725.29 1244.44 Q1728.56 1241.23 1733.32 1241.23 Q1738.38 1241.23 1741.87 1245.31 Q1745.36 1249.38 1745.36 1255.06 Q1745.36 1261.02 1741.22 1265.1 Q1737.11 1269.18 1731.56 1269.18 Q1726.49 1269.18 1723.28 1265.56 Q1720.1 1261.95 1720.1 1257.6 Z" fill="#000000" fill-rule="nonzero" fill-opacity="1" /><path clip-path="url(#clip340)" d="M2098.54 1231.69 L2098.54 1229.71 Q2106.13 1229.71 2110.05 1225.67 Q2111.14 1225.67 2111.32 1225.91 Q2111.51 1226.16 2111.51 1227.3 L2111.51 1262.78 Q2111.51 1264.67 2112.43 1265.25 Q2113.36 1265.84 2117.4 1265.84 L2119.41 1265.84 L2119.41 1267.79 Q2117.19 1267.6 2109.16 1267.6 Q2101.13 1267.6 2098.94 1267.79 L2098.94 1265.84 L2100.95 1265.84 Q2104.93 1265.84 2105.89 1265.29 Q2106.84 1264.7 2106.84 1262.78 L2106.84 1230.02 Q2103.54 1231.69 2098.54 1231.69 Z" fill="#000000" fill-rule="nonzero" fill-opacity="1" /><path clip-path="url(#clip340)" d="M2130.87 1266.77 Q2129.91 1265.75 2129.91 1264.42 Q2129.91 1263.09 2130.87 1262.14 Q2131.82 1261.15 2133.27 1261.15 Q2134.66 1261.15 2135.59 1262.07 Q2136.55 1262.97 2136.55 1264.45 Q2136.55 1265.9 2135.53 1266.86 Q2134.54 1267.79 2133.27 1267.79 Q2131.82 1267.79 2130.87 1266.77 Z" fill="#000000" fill-rule="nonzero" fill-opacity="1" /><path clip-path="url(#clip340)" d="M2144.57 1247.56 Q2144.57 1238.27 2146.92 1233.2 Q2150.19 1225.67 2157.91 1225.67 Q2159.55 1225.67 2161.25 1226.13 Q2162.98 1226.56 2165.14 1228.26 Q2167.33 1229.96 2168.66 1232.74 Q2171.19 1238.11 2171.19 1247.56 Q2171.19 1256.79 2168.84 1261.83 Q2165.42 1269.18 2157.85 1269.18 Q2155.01 1269.18 2152.11 1267.72 Q2149.24 1266.27 2147.42 1262.78 Q2144.57 1257.57 2144.57 1247.56 M2149.82 1246.79 Q2149.82 1256.33 2150.5 1260.13 Q2151.27 1264.24 2153.37 1266.03 Q2155.51 1267.79 2157.85 1267.79 Q2160.38 1267.79 2162.48 1265.9 Q2164.61 1263.99 2165.26 1259.88 Q2165.97 1255.84 2165.94 1246.79 Q2165.94 1237.99 2165.32 1234.47 Q2164.49 1230.36 2162.27 1228.72 Q2160.07 1227.06 2157.85 1227.06 Q2157.02 1227.06 2156.12 1227.3 Q2155.26 1227.55 2153.99 1228.26 Q2152.73 1228.97 2151.74 1230.73 Q2150.78 1232.49 2150.32 1235.15 Q2149.82 1238.57 2149.82 1246.79 Z" fill="#000000" fill-rule="nonzero" fill-opacity="1" /><path clip-path="url(#clip340)" d="M2176.19 1247.56 Q2176.19 1238.27 2178.54 1233.2 Q2181.81 1225.67 2189.53 1225.67 Q2191.17 1225.67 2192.87 1226.13 Q2194.59 1226.56 2196.76 1228.26 Q2198.95 1229.96 2200.28 1232.74 Q2202.81 1238.11 2202.81 1247.56 Q2202.81 1256.79 2200.46 1261.83 Q2197.03 1269.18 2189.47 1269.18 Q2186.63 1269.18 2183.73 1267.72 Q2180.85 1266.27 2179.03 1262.78 Q2176.19 1257.57 2176.19 1247.56 M2181.44 1246.79 Q2181.44 1256.33 2182.12 1260.13 Q2182.89 1264.24 2184.99 1266.03 Q2187.12 1267.79 2189.47 1267.79 Q2192 1267.79 2194.1 1265.9 Q2196.23 1263.99 2196.88 1259.88 Q2197.59 1255.84 2197.56 1246.79 Q2197.56 1237.99 2196.94 1234.47 Q2196.11 1230.36 2193.88 1228.72 Q2191.69 1227.06 2189.47 1227.06 Q2188.64 1227.06 2187.74 1227.3 Q2186.88 1227.55 2185.61 1228.26 Q2184.34 1228.97 2183.36 1230.73 Q2182.4 1232.49 2181.94 1235.15 Q2181.44 1238.57 2181.44 1246.79 Z" fill="#000000" fill-rule="nonzero" fill-opacity="1" /><path clip-path="url(#clip340)" d="M1031.87 1346.28 L1031.87 1344.34 L1033.38 1344.34 Q1036.81 1344.34 1037.58 1343.78 Q1038.38 1343.19 1038.38 1341.34 L1038.38 1308.02 Q1038.38 1306.2 1037.58 1305.65 Q1036.78 1305.06 1033.38 1305.06 L1031.87 1305.06 L1031.87 1303.08 L1054.19 1303.08 Q1060.58 1303.08 1064.84 1306.6 Q1069.1 1310.12 1069.1 1314.85 Q1069.1 1319.54 1064.75 1322.94 Q1060.43 1326.3 1054.68 1326.3 L1044 1326.3 L1044 1341.34 Q1044 1343.16 1044.77 1343.75 Q1045.58 1344.34 1049 1344.34 L1050.52 1344.34 L1050.52 1346.28 Q1048.29 1346.1 1041.16 1346.1 Q1034.09 1346.1 1031.87 1346.28 M1043.82 1324.67 L1052.52 1324.67 Q1055.36 1324.67 1057.43 1323.86 Q1059.5 1323.06 1060.43 1322.1 Q1061.38 1321.12 1061.91 1319.54 Q1062.46 1317.94 1062.53 1317.07 Q1062.59 1316.18 1062.59 1314.85 Q1062.59 1313.46 1062.53 1312.59 Q1062.46 1311.7 1061.91 1310.12 Q1061.38 1308.52 1060.43 1307.56 Q1059.5 1306.57 1057.43 1305.83 Q1055.39 1305.06 1052.52 1305.06 L1046.9 1305.06 Q1044.74 1305.06 1044.28 1305.49 Q1043.82 1305.92 1043.82 1307.59 L1043.82 1324.67 Z" fill="#000000" fill-rule="nonzero" fill-opacity="1" /><path clip-path="url(#clip340)" d="M1074.38 1346.28 L1074.38 1344.34 Q1077.75 1344.34 1078.52 1343.94 Q1079.32 1343.5 1079.32 1341.47 L1079.32 1324.51 Q1079.32 1322.17 1078.49 1321.58 Q1077.69 1320.99 1074.38 1320.99 L1074.38 1319.02 L1083.18 1318.34 L1083.18 1325.29 Q1084.08 1322.57 1085.96 1320.47 Q1087.88 1318.34 1090.96 1318.34 Q1093 1318.34 1094.3 1319.48 Q1095.63 1320.62 1095.63 1322.2 Q1095.63 1323.59 1094.76 1324.3 Q1093.93 1324.98 1092.91 1324.98 Q1091.77 1324.98 1090.96 1324.27 Q1090.19 1323.52 1090.19 1322.26 Q1090.19 1321.49 1090.53 1320.9 Q1090.9 1320.28 1091.18 1320.07 Q1091.46 1319.85 1091.64 1319.79 Q1091.52 1319.73 1090.96 1319.73 Q1087.47 1319.73 1085.47 1323.22 Q1083.49 1326.67 1083.49 1331.62 L1083.49 1341.34 Q1083.49 1343.16 1084.23 1343.75 Q1085 1344.34 1088.31 1344.34 L1089.64 1344.34 L1089.64 1346.28 Q1087.1 1346.1 1081.61 1346.1 Q1080.84 1346.1 1079.63 1346.13 Q1078.43 1346.16 1076.85 1346.22 Q1075.28 1346.28 1074.38 1346.28 Z" fill="#000000" fill-rule="nonzero" fill-opacity="1" /><path clip-path="url(#clip340)" d="M1103.25 1342.89 Q1099.08 1338.75 1099.08 1332.76 Q1099.08 1326.74 1103.16 1322.35 Q1107.27 1317.94 1113.13 1317.94 Q1118.88 1317.94 1122.98 1322.32 Q1127.12 1326.67 1127.12 1332.76 Q1127.12 1338.72 1122.95 1342.86 Q1118.81 1346.99 1113.07 1346.99 Q1107.45 1346.99 1103.25 1342.89 M1104.33 1332.23 Q1104.33 1338.38 1105.94 1341.16 Q1108.41 1345.39 1113.13 1345.39 Q1115.48 1345.39 1117.42 1344.12 Q1119.4 1342.86 1120.48 1340.72 Q1121.87 1337.95 1121.87 1332.23 Q1121.87 1326.15 1120.2 1323.46 Q1117.73 1319.36 1113.07 1319.36 Q1111.03 1319.36 1109.03 1320.44 Q1107.05 1321.49 1105.85 1323.59 Q1104.33 1326.37 1104.33 1332.23 Z" fill="#000000" fill-rule="nonzero" fill-opacity="1" /><path clip-path="url(#clip340)" d="M1130.7 1305.06 L1130.7 1303.08 L1139.81 1302.4 L1139.81 1322.44 Q1143.48 1318.34 1148.49 1318.34 Q1153.92 1318.34 1157.9 1322.51 Q1161.89 1326.67 1161.89 1332.63 Q1161.89 1338.66 1157.72 1342.82 Q1153.55 1346.99 1147.78 1346.99 Q1142.53 1346.99 1139.5 1342.36 Q1137.28 1346.22 1137.22 1346.28 L1135.64 1346.28 L1135.64 1308.58 Q1135.64 1306.23 1134.81 1305.65 Q1133.97 1305.06 1130.7 1305.06 M1140 1339.09 Q1140 1340.42 1140.89 1341.74 Q1143.39 1345.57 1147.47 1345.57 Q1147.5 1345.57 1147.53 1345.57 Q1151.94 1345.57 1154.69 1341.53 Q1156.64 1338.5 1156.64 1332.57 Q1156.64 1326.71 1154.82 1323.77 Q1152.28 1319.73 1148.18 1319.73 Q1143.55 1319.73 1140.71 1323.77 Q1140 1324.79 1140 1326.06 L1140 1339.09 Z" fill="#000000" fill-rule="nonzero" fill-opacity="1" /><path clip-path="url(#clip340)" d="M1166.67 1340.26 Q1166.67 1334.89 1173 1332.05 Q1176.8 1330.23 1184.64 1329.76 L1184.64 1327.45 Q1184.64 1323.52 1182.57 1321.46 Q1180.54 1319.36 1177.94 1319.36 Q1173.31 1319.36 1171.09 1322.26 Q1172.97 1322.32 1173.65 1323.28 Q1174.33 1324.2 1174.33 1325.16 Q1174.33 1326.43 1173.53 1327.26 Q1172.76 1328.06 1171.43 1328.06 Q1170.16 1328.06 1169.33 1327.29 Q1168.49 1326.49 1168.49 1325.1 Q1168.49 1322.01 1171.27 1319.97 Q1174.08 1317.94 1178.07 1317.94 Q1183.25 1317.94 1186.71 1321.43 Q1187.79 1322.51 1188.32 1323.9 Q1188.87 1325.29 1188.93 1326.21 Q1189 1327.11 1189 1328.9 L1189 1341.53 Q1189 1341.9 1189.12 1342.52 Q1189.24 1343.13 1189.8 1343.94 Q1190.39 1344.71 1191.34 1344.71 Q1193.63 1344.71 1193.6 1340.66 L1193.6 1337.11 L1195.2 1337.11 L1195.2 1340.66 Q1195.2 1344.03 1193.41 1345.36 Q1191.65 1346.65 1190.02 1346.65 Q1187.92 1346.65 1186.59 1345.11 Q1185.26 1343.57 1185.08 1341.47 Q1184.12 1343.87 1181.93 1345.45 Q1179.76 1346.99 1176.8 1346.99 Q1174.52 1346.99 1172.35 1346.41 Q1170.22 1345.85 1168.43 1344.28 Q1166.67 1342.67 1166.67 1340.26 M1171.55 1340.2 Q1171.55 1342.55 1173.22 1344.06 Q1174.89 1345.57 1177.23 1345.57 Q1179.89 1345.57 1182.27 1343.53 Q1184.64 1341.47 1184.64 1337.42 L1184.64 1331.09 Q1177.63 1331.34 1174.58 1334.15 Q1171.55 1336.93 1171.55 1340.2 Z" fill="#000000" fill-rule="nonzero" fill-opacity="1" /><path clip-path="url(#clip340)" d="M1197.39 1305.06 L1197.39 1303.08 L1206.5 1302.4 L1206.5 1322.44 Q1210.18 1318.34 1215.18 1318.34 Q1220.61 1318.34 1224.6 1322.51 Q1228.58 1326.67 1228.58 1332.63 Q1228.58 1338.66 1224.41 1342.82 Q1220.24 1346.99 1214.47 1346.99 Q1209.22 1346.99 1206.19 1342.36 Q1203.97 1346.22 1203.91 1346.28 L1202.34 1346.28 L1202.34 1308.58 Q1202.34 1306.23 1201.5 1305.65 Q1200.67 1305.06 1197.39 1305.06 M1206.69 1339.09 Q1206.69 1340.42 1207.58 1341.74 Q1210.09 1345.57 1214.16 1345.57 Q1214.19 1345.57 1214.22 1345.57 Q1218.64 1345.57 1221.39 1341.53 Q1223.33 1338.5 1223.33 1332.57 Q1223.33 1326.71 1221.51 1323.77 Q1218.98 1319.73 1214.87 1319.73 Q1210.24 1319.73 1207.4 1323.77 Q1206.69 1324.79 1206.69 1326.06 L1206.69 1339.09 Z" fill="#000000" fill-rule="nonzero" fill-opacity="1" /><path clip-path="url(#clip340)" d="M1232.81 1346.28 L1232.81 1344.34 Q1236.18 1344.34 1236.95 1343.94 Q1237.72 1343.5 1237.72 1341.47 L1237.72 1324.45 Q1237.72 1322.1 1236.92 1321.55 Q1236.14 1320.99 1233.06 1320.99 L1233.06 1319.02 L1241.89 1318.34 L1241.89 1341.53 Q1241.89 1343.41 1242.57 1343.87 Q1243.25 1344.34 1246.33 1344.34 L1246.33 1346.28 Q1239.88 1346.1 1239.76 1346.1 Q1238.89 1346.1 1232.81 1346.28 M1235.47 1307.31 Q1235.47 1306.05 1236.42 1305.03 Q1237.41 1303.98 1238.8 1303.98 Q1240.19 1303.98 1241.18 1304.94 Q1242.17 1305.86 1242.17 1307.34 Q1242.17 1308.8 1241.18 1309.75 Q1240.19 1310.68 1238.8 1310.68 Q1237.35 1310.68 1236.39 1309.66 Q1235.47 1308.64 1235.47 1307.31 Z" fill="#000000" fill-rule="nonzero" fill-opacity="1" /><path clip-path="url(#clip340)" d="M1250.32 1346.28 L1250.32 1344.34 Q1253.68 1344.34 1254.45 1343.94 Q1255.23 1343.5 1255.23 1341.47 L1255.23 1308.58 Q1255.23 1306.23 1254.39 1305.65 Q1253.59 1305.06 1250.32 1305.06 L1250.32 1303.08 L1259.39 1302.4 L1259.39 1341.47 Q1259.39 1343.5 1260.2 1343.94 Q1261 1344.34 1264.34 1344.34 L1264.34 1346.28 Q1263.56 1346.28 1261.96 1346.22 Q1260.35 1346.16 1259.18 1346.13 Q1258.01 1346.1 1257.33 1346.1 Q1256.59 1346.1 1250.32 1346.28 Z" fill="#000000" fill-rule="nonzero" fill-opacity="1" /><path clip-path="url(#clip340)" d="M1267.82 1346.28 L1267.82 1344.34 Q1271.19 1344.34 1271.96 1343.94 Q1272.73 1343.5 1272.73 1341.47 L1272.73 1324.45 Q1272.73 1322.1 1271.93 1321.55 Q1271.16 1320.99 1268.07 1320.99 L1268.07 1319.02 L1276.9 1318.34 L1276.9 1341.53 Q1276.9 1343.41 1277.58 1343.87 Q1278.26 1344.34 1281.35 1344.34 L1281.35 1346.28 Q1274.89 1346.1 1274.77 1346.1 Q1273.91 1346.1 1267.82 1346.28 M1270.48 1307.31 Q1270.48 1306.05 1271.44 1305.03 Q1272.42 1303.98 1273.81 1303.98 Q1275.2 1303.98 1276.19 1304.94 Q1277.18 1305.86 1277.18 1307.34 Q1277.18 1308.8 1276.19 1309.75 Q1275.2 1310.68 1273.81 1310.68 Q1272.36 1310.68 1271.41 1309.66 Q1270.48 1308.64 1270.48 1307.31 Z" fill="#000000" fill-rule="nonzero" fill-opacity="1" /><path clip-path="url(#clip340)" d="M1284.44 1320.99 L1284.44 1319.6 Q1287.34 1319.48 1289.25 1317.44 Q1291.2 1315.37 1291.85 1312.84 Q1292.53 1310.31 1292.59 1307.38 L1294.16 1307.38 L1294.16 1319.02 L1303.21 1319.02 L1303.21 1320.99 L1294.16 1320.99 L1294.16 1338.56 Q1294.16 1345.39 1298.42 1345.39 Q1300.24 1345.39 1301.45 1343.53 Q1302.65 1341.65 1302.65 1338.32 L1302.65 1334.83 L1304.23 1334.83 L1304.23 1338.44 Q1304.23 1341.87 1302.65 1344.43 Q1301.08 1346.99 1297.96 1346.99 Q1296.82 1346.99 1295.67 1346.68 Q1294.56 1346.41 1293.08 1345.67 Q1291.63 1344.89 1290.7 1343.04 Q1289.81 1341.16 1289.81 1338.44 L1289.81 1320.99 L1284.44 1320.99 Z" fill="#000000" fill-rule="nonzero" fill-opacity="1" /><path clip-path="url(#clip340)" d="M1307.19 1354.13 Q1307.19 1352.8 1307.96 1352.09 Q1308.77 1351.41 1309.85 1351.41 Q1310.99 1351.41 1311.73 1352.12 Q1312.5 1352.86 1312.5 1354.06 Q1312.5 1356.41 1310.03 1356.72 Q1311.24 1357.86 1313 1357.86 Q1314.88 1357.86 1316.39 1356.47 Q1317.94 1355.08 1318.59 1353.76 Q1319.26 1352.43 1320.22 1350.02 Q1321.12 1348.14 1321.8 1346.28 L1312.32 1323.19 Q1311.7 1321.67 1310.74 1321.33 Q1309.79 1320.99 1307.19 1320.99 L1307.19 1319.02 Q1310.03 1319.2 1313.34 1319.2 Q1315.28 1319.2 1320.22 1319.02 L1320.22 1320.99 Q1316.67 1320.99 1316.67 1322.63 Q1316.67 1322.81 1317.04 1323.77 L1324.08 1340.79 L1330.47 1325.22 Q1330.84 1324.33 1330.84 1323.71 Q1330.84 1321.12 1327.88 1320.99 L1327.88 1319.02 Q1332.05 1319.2 1333.37 1319.2 Q1335.97 1319.2 1338.1 1319.02 L1338.1 1320.99 Q1333.87 1320.99 1332.23 1325.04 L1321.09 1352.03 Q1318.06 1359.22 1313 1359.25 Q1310.59 1359.25 1308.89 1357.77 Q1307.19 1356.29 1307.19 1354.13 Z" fill="#000000" fill-rule="nonzero" fill-opacity="1" /><path clip-path="url(#clip340)" d="M1366.6 1330.47 Q1366.6 1319.79 1370.58 1311.17 Q1372.28 1307.56 1374.66 1304.53 Q1377.03 1301.51 1378.61 1300.18 Q1380.18 1298.85 1380.62 1298.85 Q1381.23 1298.85 1381.26 1299.47 Q1381.26 1299.78 1380.43 1300.55 Q1370.24 1310.93 1370.27 1330.47 Q1370.27 1350.08 1380.18 1360.06 Q1381.26 1361.14 1381.26 1361.48 Q1381.26 1362.09 1380.62 1362.09 Q1380.18 1362.09 1378.67 1360.83 Q1377.16 1359.56 1374.81 1356.66 Q1372.46 1353.76 1370.77 1350.2 Q1366.6 1341.59 1366.6 1330.47 Z" fill="#000000" fill-rule="nonzero" fill-opacity="1" /><path clip-path="url(#clip340)" d="M1387.44 1332.7 Q1387.44 1326.61 1390.28 1322.51 Q1393.12 1318.4 1397.04 1318.4 Q1398.62 1318.4 1399.91 1319.2 Q1401.21 1319.97 1402.08 1321.02 Q1402.94 1322.07 1403.74 1323.93 Q1404.58 1325.78 1405.01 1327.11 Q1405.47 1328.43 1406.09 1330.72 Q1407.17 1327.94 1407.94 1325.44 Q1408.74 1322.94 1408.99 1321.8 Q1409.27 1320.62 1409.61 1319.73 Q1409.95 1318.83 1410.29 1318.62 Q1410.66 1318.4 1411.34 1318.4 L1413.1 1318.4 Q1414.49 1318.4 1414.52 1319.2 Q1414.52 1319.63 1413.65 1322.6 Q1412.79 1325.53 1411.28 1329.79 Q1409.76 1334.02 1408.44 1336.8 Q1408.19 1337.57 1408.19 1337.67 Q1408.19 1338.04 1408.65 1339.18 Q1409.11 1340.32 1410.32 1341.59 Q1411.52 1342.86 1413.04 1342.86 Q1414.18 1342.86 1414.77 1342.21 Q1415.38 1341.53 1415.63 1341.53 Q1416.46 1341.53 1416.46 1342.55 Q1416.46 1344.06 1415.48 1345.48 Q1414.52 1346.9 1412.85 1346.9 Q1409.3 1346.9 1406.98 1339.71 Q1404.33 1343.57 1402.41 1345.08 Q1399.94 1346.96 1397.1 1346.99 Q1392.94 1346.99 1390.19 1342.73 Q1387.44 1338.44 1387.44 1332.7 M1389.08 1332.7 Q1389.08 1337.17 1391.21 1340.01 Q1393.37 1342.86 1396.92 1342.86 Q1400.96 1342.86 1404.7 1334.21 Q1404.95 1333.44 1404.95 1333.25 Q1404.95 1332.7 1404.55 1331.18 Q1404.14 1329.64 1403.28 1327.6 Q1402.41 1325.53 1400.75 1324.02 Q1399.08 1322.51 1396.92 1322.51 Q1393.37 1322.51 1391.21 1325.35 Q1389.08 1328.16 1389.08 1332.7 Z" fill="#000000" fill-rule="nonzero" fill-opacity="1" /><path clip-path="url(#clip340)" d="M1420.08 1361.48 Q1420.08 1361.17 1420.88 1360.39 Q1431.07 1350.02 1431.07 1330.47 Q1431.07 1310.86 1421.28 1300.95 Q1420.08 1299.81 1420.08 1299.47 Q1420.08 1298.85 1420.69 1298.85 Q1421.13 1298.85 1422.64 1300.12 Q1424.18 1301.38 1426.5 1304.29 Q1428.84 1307.19 1430.57 1310.74 Q1434.74 1319.36 1434.74 1330.47 Q1434.74 1341.16 1430.76 1349.77 Q1429.06 1353.39 1426.68 1356.41 Q1424.31 1359.44 1422.73 1360.77 Q1421.16 1362.09 1420.69 1362.09 Q1420.08 1362.09 1420.08 1361.48 Z" fill="#000000" fill-rule="nonzero" fill-opacity="1" /><polyline clip-path="url(#clip342)" style="stroke:#000000; stroke-linecap:round; stroke-linejoin:round; stroke-width:2; stroke-opacity:0.1; fill:none" points="280.342,1188.34 2186.27,1188.34 "/>
<polyline clip-path="url(#clip342)" style="stroke:#000000; stroke-linecap:round; stroke-linejoin:round; stroke-width:2; stroke-opacity:0.1; fill:none" points="280.342,926.498 2186.27,926.498 "/>
<polyline clip-path="url(#clip342)" style="stroke:#000000; stroke-linecap:round; stroke-linejoin:round; stroke-width:2; stroke-opacity:0.1; fill:none" points="280.342,664.653 2186.27,664.653 "/>
<polyline clip-path="url(#clip342)" style="stroke:#000000; stroke-linecap:round; stroke-linejoin:round; stroke-width:2; stroke-opacity:0.1; fill:none" points="280.342,402.808 2186.27,402.808 "/>
<polyline clip-path="url(#clip342)" style="stroke:#000000; stroke-linecap:round; stroke-linejoin:round; stroke-width:2; stroke-opacity:0.1; fill:none" points="280.342,140.963 2186.27,140.963 "/>
<polyline clip-path="url(#clip340)" style="stroke:#000000; stroke-linecap:round; stroke-linejoin:round; stroke-width:4; stroke-opacity:1; fill:none" points="280.342,1195.66 280.342,47.2441 "/>
<polyline clip-path="url(#clip340)" style="stroke:#000000; stroke-linecap:round; stroke-linejoin:round; stroke-width:4; stroke-opacity:1; fill:none" points="2186.27,1195.66 2186.27,47.2441 "/>
<polyline clip-path="url(#clip340)" style="stroke:#000000; stroke-linecap:round; stroke-linejoin:round; stroke-width:4; stroke-opacity:1; fill:none" points="280.342,1188.34 299.238,1188.34 "/>
<polyline clip-path="url(#clip340)" style="stroke:#000000; stroke-linecap:round; stroke-linejoin:round; stroke-width:4; stroke-opacity:1; fill:none" points="280.342,926.498 299.238,926.498 "/>
<polyline clip-path="url(#clip340)" style="stroke:#000000; stroke-linecap:round; stroke-linejoin:round; stroke-width:4; stroke-opacity:1; fill:none" points="280.342,664.653 299.238,664.653 "/>
<polyline clip-path="url(#clip340)" style="stroke:#000000; stroke-linecap:round; stroke-linejoin:round; stroke-width:4; stroke-opacity:1; fill:none" points="280.342,402.808 299.238,402.808 "/>
<polyline clip-path="url(#clip340)" style="stroke:#000000; stroke-linecap:round; stroke-linejoin:round; stroke-width:4; stroke-opacity:1; fill:none" points="280.342,140.963 299.238,140.963 "/>
<path clip-path="url(#clip340)" d="M138.947 1189.72 Q138.947 1180.42 141.294 1175.36 Q144.567 1167.82 152.286 1167.82 Q153.922 1167.82 155.621 1168.29 Q157.35 1168.72 159.511 1170.42 Q161.703 1172.12 163.031 1174.89 Q165.563 1180.27 165.563 1189.72 Q165.563 1198.95 163.216 1203.98 Q159.789 1211.33 152.224 1211.33 Q149.384 1211.33 146.481 1209.88 Q143.61 1208.43 141.788 1204.94 Q138.947 1199.72 138.947 1189.72 M144.196 1188.94 Q144.196 1198.49 144.876 1202.28 Q145.648 1206.39 147.747 1208.18 Q149.878 1209.94 152.224 1209.94 Q154.756 1209.94 156.856 1208.06 Q158.986 1206.14 159.635 1202.04 Q160.345 1197.99 160.314 1188.94 Q160.314 1180.14 159.696 1176.62 Q158.863 1172.52 156.64 1170.88 Q154.447 1169.21 152.224 1169.21 Q151.391 1169.21 150.495 1169.46 Q149.631 1169.71 148.365 1170.42 Q147.099 1171.13 146.111 1172.89 Q145.154 1174.65 144.69 1177.3 Q144.196 1180.73 144.196 1188.94 Z" fill="#000000" fill-rule="nonzero" fill-opacity="1" /><path clip-path="url(#clip340)" d="M174.424 1208.92 Q173.467 1207.9 173.467 1206.58 Q173.467 1205.25 174.424 1204.29 Q175.382 1203.3 176.833 1203.3 Q178.222 1203.3 179.149 1204.23 Q180.106 1205.13 180.106 1206.61 Q180.106 1208.06 179.087 1209.02 Q178.099 1209.94 176.833 1209.94 Q175.382 1209.94 174.424 1208.92 Z" fill="#000000" fill-rule="nonzero" fill-opacity="1" /><path clip-path="url(#clip340)" d="M188.134 1189.72 Q188.134 1180.42 190.48 1175.36 Q193.753 1167.82 201.472 1167.82 Q203.109 1167.82 204.807 1168.29 Q206.536 1168.72 208.697 1170.42 Q210.89 1172.12 212.217 1174.89 Q214.749 1180.27 214.749 1189.72 Q214.749 1198.95 212.403 1203.98 Q208.975 1211.33 201.411 1211.33 Q198.57 1211.33 195.667 1209.88 Q192.796 1208.43 190.974 1204.94 Q188.134 1199.72 188.134 1189.72 M193.383 1188.94 Q193.383 1198.49 194.062 1202.28 Q194.834 1206.39 196.933 1208.18 Q199.064 1209.94 201.411 1209.94 Q203.942 1209.94 206.042 1208.06 Q208.172 1206.14 208.821 1202.04 Q209.531 1197.99 209.5 1188.94 Q209.5 1180.14 208.883 1176.62 Q208.049 1172.52 205.826 1170.88 Q203.634 1169.21 201.411 1169.21 Q200.577 1169.21 199.681 1169.46 Q198.817 1169.71 197.551 1170.42 Q196.285 1171.13 195.297 1172.89 Q194.34 1174.65 193.877 1177.3 Q193.383 1180.73 193.383 1188.94 Z" fill="#000000" fill-rule="nonzero" fill-opacity="1" /><path clip-path="url(#clip340)" d="M219.751 1189.72 Q219.751 1180.42 222.098 1175.36 Q225.371 1167.82 233.09 1167.82 Q234.726 1167.82 236.424 1168.29 Q238.154 1168.72 240.315 1170.42 Q242.507 1172.12 243.835 1174.89 Q246.367 1180.27 246.367 1189.72 Q246.367 1198.95 244.02 1203.98 Q240.593 1211.33 233.028 1211.33 Q230.187 1211.33 227.285 1209.88 Q224.413 1208.43 222.592 1204.94 Q219.751 1199.72 219.751 1189.72 M225 1188.94 Q225 1198.49 225.679 1202.28 Q226.451 1206.39 228.551 1208.18 Q230.681 1209.94 233.028 1209.94 Q235.56 1209.94 237.659 1208.06 Q239.79 1206.14 240.438 1202.04 Q241.149 1197.99 241.118 1188.94 Q241.118 1180.14 240.5 1176.62 Q239.666 1172.52 237.443 1170.88 Q235.251 1169.21 233.028 1169.21 Q232.194 1169.21 231.299 1169.46 Q230.434 1169.71 229.168 1170.42 Q227.903 1171.13 226.914 1172.89 Q225.957 1174.65 225.494 1177.3 Q225 1180.73 225 1188.94 Z" fill="#000000" fill-rule="nonzero" fill-opacity="1" /><path clip-path="url(#clip340)" d="M139.627 927.872 Q139.627 918.577 141.973 913.513 Q145.246 905.979 152.965 905.979 Q154.602 905.979 156.3 906.442 Q158.029 906.874 160.19 908.572 Q162.383 910.271 163.71 913.05 Q166.242 918.423 166.242 927.872 Q166.242 937.105 163.896 942.138 Q160.468 949.487 152.904 949.487 Q150.063 949.487 147.161 948.036 Q144.289 946.585 142.467 943.095 Q139.627 937.877 139.627 927.872 M144.876 927.1 Q144.876 936.642 145.555 940.44 Q146.327 944.547 148.426 946.338 Q150.557 948.098 152.904 948.098 Q155.435 948.098 157.535 946.214 Q159.666 944.3 160.314 940.193 Q161.024 936.147 160.993 927.1 Q160.993 918.299 160.376 914.779 Q159.542 910.672 157.319 909.036 Q155.127 907.368 152.904 907.368 Q152.07 907.368 151.174 907.615 Q150.31 907.862 149.044 908.572 Q147.778 909.283 146.79 911.043 Q145.833 912.803 145.37 915.458 Q144.876 918.886 144.876 927.1 Z" fill="#000000" fill-rule="nonzero" fill-opacity="1" /><path clip-path="url(#clip340)" d="M175.104 947.079 Q174.147 946.06 174.147 944.732 Q174.147 943.404 175.104 942.447 Q176.061 941.459 177.512 941.459 Q178.902 941.459 179.828 942.385 Q180.785 943.281 180.785 944.763 Q180.785 946.214 179.766 947.171 Q178.778 948.098 177.512 948.098 Q176.061 948.098 175.104 947.079 Z" fill="#000000" fill-rule="nonzero" fill-opacity="1" /><path clip-path="url(#clip340)" d="M189.492 948.098 Q189.492 946.955 189.585 946.616 Q189.708 946.276 190.202 945.751 L202.337 932.226 Q208.975 924.753 208.975 918.238 Q208.975 914.007 206.752 910.981 Q204.56 907.955 200.515 907.955 Q197.736 907.955 195.39 909.653 Q193.043 911.351 191.962 914.378 Q192.148 914.316 192.796 914.316 Q194.371 914.316 195.235 915.304 Q196.131 916.292 196.131 917.62 Q196.131 919.318 195.019 920.152 Q193.938 920.955 192.858 920.955 Q192.425 920.955 191.839 920.862 Q191.283 920.77 190.388 919.905 Q189.492 919.01 189.492 917.435 Q189.492 913.019 192.827 909.499 Q196.192 905.979 201.318 905.979 Q207.123 905.979 210.92 909.437 Q214.749 912.865 214.749 918.238 Q214.749 920.121 214.162 921.85 Q213.607 923.549 212.835 924.877 Q212.094 926.204 210.056 928.335 Q208.018 930.466 206.382 931.979 Q204.745 933.492 201.071 936.703 L194.371 943.219 L205.764 943.219 Q211.322 943.219 211.754 942.725 Q212.372 941.829 213.144 937.105 L214.749 937.105 L212.958 948.098 L189.492 948.098 Z" fill="#000000" fill-rule="nonzero" fill-opacity="1" /><path clip-path="url(#clip340)" d="M221.11 937.908 Q221.11 936.024 222.129 935.314 Q223.148 934.573 224.228 934.573 Q225.679 934.573 226.513 935.499 Q227.378 936.395 227.378 937.661 Q227.378 938.927 226.513 939.853 Q225.679 940.748 224.228 940.748 Q223.518 940.748 223.148 940.625 Q223.981 943.528 226.513 945.627 Q229.076 947.727 232.441 947.727 Q236.671 947.727 239.203 943.62 Q240.716 940.965 240.716 934.943 Q240.716 929.632 239.574 926.976 Q237.814 922.931 234.201 922.931 Q229.076 922.931 226.05 927.347 Q225.679 927.903 225.247 927.934 Q224.63 927.934 224.475 927.594 Q224.352 927.223 224.352 926.266 L224.352 907.553 Q224.352 906.04 224.969 906.04 Q225.216 906.04 225.741 906.226 Q229.724 907.986 234.14 908.017 Q238.678 908.017 242.754 906.164 Q243.063 905.979 243.248 905.979 Q243.866 905.979 243.897 906.689 Q243.897 906.936 243.372 907.677 Q242.878 908.387 241.797 909.344 Q240.716 910.271 239.327 911.166 Q237.937 912.062 235.9 912.679 Q233.893 913.266 231.669 913.266 Q229.014 913.266 226.297 912.432 L226.297 924.753 Q229.57 921.542 234.325 921.542 Q239.389 921.542 242.878 925.618 Q246.367 929.694 246.367 935.376 Q246.367 941.335 242.229 945.411 Q238.123 949.487 232.565 949.487 Q227.501 949.487 224.29 945.874 Q221.11 942.262 221.11 937.908 Z" fill="#000000" fill-rule="nonzero" fill-opacity="1" /><path clip-path="url(#clip340)" d="M138.947 666.027 Q138.947 656.732 141.294 651.668 Q144.567 644.134 152.286 644.134 Q153.922 644.134 155.621 644.597 Q157.35 645.029 159.511 646.728 Q161.703 648.426 163.031 651.205 Q165.563 656.578 165.563 666.027 Q165.563 675.26 163.216 680.293 Q159.789 687.642 152.224 687.642 Q149.384 687.642 146.481 686.191 Q143.61 684.74 141.788 681.25 Q138.947 676.032 138.947 666.027 M144.196 665.255 Q144.196 674.797 144.876 678.595 Q145.648 682.702 147.747 684.493 Q149.878 686.253 152.224 686.253 Q154.756 686.253 156.856 684.369 Q158.986 682.455 159.635 678.348 Q160.345 674.303 160.314 665.255 Q160.314 656.454 159.696 652.934 Q158.863 648.827 156.64 647.191 Q154.447 645.523 152.224 645.523 Q151.391 645.523 150.495 645.77 Q149.631 646.017 148.365 646.728 Q147.099 647.438 146.111 649.198 Q145.154 650.958 144.69 653.614 Q144.196 657.041 144.196 665.255 Z" fill="#000000" fill-rule="nonzero" fill-opacity="1" /><path clip-path="url(#clip340)" d="M174.424 685.234 Q173.467 684.215 173.467 682.887 Q173.467 681.559 174.424 680.602 Q175.382 679.614 176.833 679.614 Q178.222 679.614 179.149 680.54 Q180.106 681.436 180.106 682.918 Q180.106 684.369 179.087 685.327 Q178.099 686.253 176.833 686.253 Q175.382 686.253 174.424 685.234 Z" fill="#000000" fill-rule="nonzero" fill-opacity="1" /><path clip-path="url(#clip340)" d="M188.813 676.063 Q188.813 674.179 189.832 673.469 Q190.851 672.728 191.931 672.728 Q193.383 672.728 194.216 673.654 Q195.081 674.55 195.081 675.816 Q195.081 677.082 194.216 678.008 Q193.383 678.904 191.931 678.904 Q191.221 678.904 190.851 678.78 Q191.684 681.683 194.216 683.783 Q196.779 685.882 200.145 685.882 Q204.375 685.882 206.907 681.775 Q208.419 679.12 208.419 673.098 Q208.419 667.787 207.277 665.132 Q205.517 661.086 201.905 661.086 Q196.779 661.086 193.753 665.502 Q193.383 666.058 192.95 666.089 Q192.333 666.089 192.178 665.749 Q192.055 665.379 192.055 664.421 L192.055 645.709 Q192.055 644.195 192.672 644.195 Q192.919 644.195 193.444 644.381 Q197.427 646.141 201.843 646.172 Q206.382 646.172 210.457 644.319 Q210.766 644.134 210.951 644.134 Q211.569 644.134 211.6 644.844 Q211.6 645.091 211.075 645.832 Q210.581 646.542 209.5 647.5 Q208.419 648.426 207.03 649.321 Q205.641 650.217 203.603 650.834 Q201.596 651.421 199.373 651.421 Q196.717 651.421 194 650.587 L194 662.908 Q197.273 659.697 202.028 659.697 Q207.092 659.697 210.581 663.773 Q214.07 667.849 214.07 673.531 Q214.07 679.49 209.932 683.566 Q205.826 687.642 200.268 687.642 Q195.204 687.642 191.993 684.03 Q188.813 680.417 188.813 676.063 Z" fill="#000000" fill-rule="nonzero" fill-opacity="1" /><path clip-path="url(#clip340)" d="M219.751 666.027 Q219.751 656.732 222.098 651.668 Q225.371 644.134 233.09 644.134 Q234.726 644.134 236.424 644.597 Q238.154 645.029 240.315 646.728 Q242.507 648.426 243.835 651.205 Q246.367 656.578 246.367 666.027 Q246.367 675.26 244.02 680.293 Q240.593 687.642 233.028 687.642 Q230.187 687.642 227.285 686.191 Q224.413 684.74 222.592 681.25 Q219.751 676.032 219.751 666.027 M225 665.255 Q225 674.797 225.679 678.595 Q226.451 682.702 228.551 684.493 Q230.681 686.253 233.028 686.253 Q235.56 686.253 237.659 684.369 Q239.79 682.455 240.438 678.348 Q241.149 674.303 241.118 665.255 Q241.118 656.454 240.5 652.934 Q239.666 648.827 237.443 647.191 Q235.251 645.523 233.028 645.523 Q232.194 645.523 231.299 645.77 Q230.434 646.017 229.168 646.728 Q227.903 647.438 226.914 649.198 Q225.957 650.958 225.494 653.614 Q225 657.041 225 665.255 Z" fill="#000000" fill-rule="nonzero" fill-opacity="1" /><path clip-path="url(#clip340)" d="M139.627 404.182 Q139.627 394.888 141.973 389.823 Q145.246 382.289 152.965 382.289 Q154.602 382.289 156.3 382.752 Q158.029 383.184 160.19 384.883 Q162.383 386.581 163.71 389.36 Q166.242 394.733 166.242 404.182 Q166.242 413.415 163.896 418.448 Q160.468 425.798 152.904 425.798 Q150.063 425.798 147.161 424.346 Q144.289 422.895 142.467 419.406 Q139.627 414.187 139.627 404.182 M144.876 403.41 Q144.876 412.952 145.555 416.75 Q146.327 420.857 148.426 422.648 Q150.557 424.408 152.904 424.408 Q155.435 424.408 157.535 422.524 Q159.666 420.61 160.314 416.503 Q161.024 412.458 160.993 403.41 Q160.993 394.61 160.376 391.089 Q159.542 386.982 157.319 385.346 Q155.127 383.678 152.904 383.678 Q152.07 383.678 151.174 383.925 Q150.31 384.172 149.044 384.883 Q147.778 385.593 146.79 387.353 Q145.833 389.113 145.37 391.769 Q144.876 395.196 144.876 403.41 Z" fill="#000000" fill-rule="nonzero" fill-opacity="1" /><path clip-path="url(#clip340)" d="M175.104 423.389 Q174.147 422.37 174.147 421.042 Q174.147 419.714 175.104 418.757 Q176.061 417.769 177.512 417.769 Q178.902 417.769 179.828 418.695 Q180.785 419.591 180.785 421.073 Q180.785 422.524 179.766 423.482 Q178.778 424.408 177.512 424.408 Q176.061 424.408 175.104 423.389 Z" fill="#000000" fill-rule="nonzero" fill-opacity="1" /><path clip-path="url(#clip340)" d="M189.894 394.671 L191.962 381.671 L193.537 381.671 Q193.722 382.443 194.031 382.783 Q194.371 383.123 196.161 383.4 Q197.983 383.678 201.658 383.678 L217.003 383.678 Q217.003 385.13 216.447 385.902 L207.895 397.914 Q205.177 401.712 203.973 408.721 Q203.263 413.415 203.294 419.097 L203.294 422.308 Q203.294 425.798 200.361 425.798 Q197.458 425.798 197.458 422.308 Q197.458 410.235 205.239 398.531 Q206.073 397.327 209.13 393.035 Q212.217 388.743 212.341 388.557 L199.249 388.557 Q193.506 388.557 193.043 388.928 Q192.425 389.484 191.468 394.671 L189.894 394.671 Z" fill="#000000" fill-rule="nonzero" fill-opacity="1" /><path clip-path="url(#clip340)" d="M221.11 414.218 Q221.11 412.334 222.129 411.624 Q223.148 410.883 224.228 410.883 Q225.679 410.883 226.513 411.809 Q227.378 412.705 227.378 413.971 Q227.378 415.237 226.513 416.163 Q225.679 417.059 224.228 417.059 Q223.518 417.059 223.148 416.935 Q223.981 419.838 226.513 421.938 Q229.076 424.038 232.441 424.038 Q236.671 424.038 239.203 419.931 Q240.716 417.275 240.716 411.254 Q240.716 405.942 239.574 403.287 Q237.814 399.242 234.201 399.242 Q229.076 399.242 226.05 403.657 Q225.679 404.213 225.247 404.244 Q224.63 404.244 224.475 403.904 Q224.352 403.534 224.352 402.576 L224.352 383.864 Q224.352 382.351 224.969 382.351 Q225.216 382.351 225.741 382.536 Q229.724 384.296 234.14 384.327 Q238.678 384.327 242.754 382.474 Q243.063 382.289 243.248 382.289 Q243.866 382.289 243.897 382.999 Q243.897 383.246 243.372 383.987 Q242.878 384.697 241.797 385.655 Q240.716 386.581 239.327 387.477 Q237.937 388.372 235.9 388.99 Q233.893 389.576 231.669 389.576 Q229.014 389.576 226.297 388.743 L226.297 401.063 Q229.57 397.852 234.325 397.852 Q239.389 397.852 242.878 401.928 Q246.367 406.004 246.367 411.686 Q246.367 417.646 242.229 421.722 Q238.123 425.798 232.565 425.798 Q227.501 425.798 224.29 422.185 Q221.11 418.572 221.11 414.218 Z" fill="#000000" fill-rule="nonzero" fill-opacity="1" /><path clip-path="url(#clip340)" d="M142.097 126.465 L142.097 124.489 Q149.692 124.489 153.614 120.444 Q154.694 120.444 154.88 120.691 Q155.065 120.938 155.065 122.081 L155.065 157.561 Q155.065 159.444 155.991 160.031 Q156.918 160.618 160.962 160.618 L162.969 160.618 L162.969 162.563 Q160.746 162.378 152.718 162.378 Q144.69 162.378 142.498 162.563 L142.498 160.618 L144.505 160.618 Q148.488 160.618 149.445 160.062 Q150.403 159.475 150.403 157.561 L150.403 124.798 Q147.099 126.465 142.097 126.465 Z" fill="#000000" fill-rule="nonzero" fill-opacity="1" /><path clip-path="url(#clip340)" d="M174.424 161.544 Q173.467 160.525 173.467 159.197 Q173.467 157.87 174.424 156.912 Q175.382 155.924 176.833 155.924 Q178.222 155.924 179.149 156.851 Q180.106 157.746 180.106 159.228 Q180.106 160.68 179.087 161.637 Q178.099 162.563 176.833 162.563 Q175.382 162.563 174.424 161.544 Z" fill="#000000" fill-rule="nonzero" fill-opacity="1" /><path clip-path="url(#clip340)" d="M188.134 142.337 Q188.134 133.043 190.48 127.979 Q193.753 120.444 201.472 120.444 Q203.109 120.444 204.807 120.907 Q206.536 121.339 208.697 123.038 Q210.89 124.736 212.217 127.515 Q214.749 132.888 214.749 142.337 Q214.749 151.57 212.403 156.604 Q208.975 163.953 201.411 163.953 Q198.57 163.953 195.667 162.501 Q192.796 161.05 190.974 157.561 Q188.134 152.342 188.134 142.337 M193.383 141.565 Q193.383 151.107 194.062 154.905 Q194.834 159.012 196.933 160.803 Q199.064 162.563 201.411 162.563 Q203.942 162.563 206.042 160.68 Q208.172 158.765 208.821 154.658 Q209.531 150.613 209.5 141.565 Q209.5 132.765 208.883 129.245 Q208.049 125.138 205.826 123.501 Q203.634 121.834 201.411 121.834 Q200.577 121.834 199.681 122.081 Q198.817 122.328 197.551 123.038 Q196.285 123.748 195.297 125.508 Q194.34 127.268 193.877 129.924 Q193.383 133.352 193.383 141.565 Z" fill="#000000" fill-rule="nonzero" fill-opacity="1" /><path clip-path="url(#clip340)" d="M219.751 142.337 Q219.751 133.043 222.098 127.979 Q225.371 120.444 233.09 120.444 Q234.726 120.444 236.424 120.907 Q238.154 121.339 240.315 123.038 Q242.507 124.736 243.835 127.515 Q246.367 132.888 246.367 142.337 Q246.367 151.57 244.02 156.604 Q240.593 163.953 233.028 163.953 Q230.187 163.953 227.285 162.501 Q224.413 161.05 222.592 157.561 Q219.751 152.342 219.751 142.337 M225 141.565 Q225 151.107 225.679 154.905 Q226.451 159.012 228.551 160.803 Q230.681 162.563 233.028 162.563 Q235.56 162.563 237.659 160.68 Q239.79 158.765 240.438 154.658 Q241.149 150.613 241.118 141.565 Q241.118 132.765 240.5 129.245 Q239.666 125.138 237.443 123.501 Q235.251 121.834 233.028 121.834 Q232.194 121.834 231.299 122.081 Q230.434 122.328 229.168 123.038 Q227.903 123.748 226.914 125.508 Q225.957 127.268 225.494 129.924 Q225 133.352 225 141.565 Z" fill="#000000" fill-rule="nonzero" fill-opacity="1" /><path clip-path="url(#clip340)" d="M92.0135 777.008 L90.0683 777.008 L90.0683 775.495 Q90.0683 772.068 89.5125 771.296 Q88.9259 770.493 87.0733 770.493 L53.7576 770.493 Q51.9359 770.493 51.3801 771.296 Q50.7934 772.099 50.7934 775.495 L50.7934 777.008 L48.8174 777.008 L48.8174 754.683 Q48.8174 748.291 52.3373 744.029 Q55.8572 739.768 60.5813 739.768 Q65.2745 739.768 68.6709 744.122 Q72.0365 748.445 72.0365 754.189 L72.0365 764.873 L87.0733 764.873 Q88.895 764.873 89.4817 764.101 Q90.0683 763.298 90.0683 759.871 L90.0683 758.357 L92.0135 758.357 Q91.8283 760.581 91.8283 767.714 Q91.8283 774.785 92.0135 777.008 M70.4 765.058 L70.4 756.35 Q70.4 753.509 69.5972 751.44 Q68.7944 749.372 67.8373 748.445 Q66.8492 747.488 65.2745 746.963 Q63.6689 746.407 62.8044 746.345 Q61.909 746.284 60.5813 746.284 Q59.1918 746.284 58.3273 746.345 Q57.4319 746.407 55.8572 746.963 Q54.2516 747.488 53.2944 748.445 Q52.3064 749.372 51.5654 751.44 Q50.7934 753.479 50.7934 756.35 L50.7934 761.97 Q50.7934 764.132 51.2257 764.595 Q51.658 765.058 53.3253 765.058 L70.4 765.058 Z" fill="#000000" fill-rule="nonzero" fill-opacity="1" /><path clip-path="url(#clip340)" d="M92.0135 734.148 L90.0683 734.148 Q90.0683 730.782 89.6669 730.01 Q89.2347 729.238 87.1968 729.238 L70.1839 729.238 Q67.8373 729.238 67.2815 730.041 Q66.7257 730.813 66.7257 733.901 L64.7496 733.901 L64.0703 725.07 L87.2586 725.07 Q89.142 725.07 89.6052 724.39 Q90.0683 723.711 90.0683 720.623 L92.0135 720.623 Q91.8283 727.077 91.8283 727.2 Q91.8283 728.065 92.0135 734.148 M53.0474 731.493 Q51.7815 731.493 50.7626 730.535 Q49.7128 729.547 49.7128 728.158 Q49.7128 726.768 50.6699 725.78 Q51.5962 724.792 53.0783 724.792 Q54.5295 724.792 55.4867 725.78 Q56.413 726.768 56.413 728.158 Q56.413 729.609 55.394 730.566 Q54.3751 731.493 53.0474 731.493 Z" fill="#000000" fill-rule="nonzero" fill-opacity="1" /><path clip-path="url(#clip340)" d="M92.0135 716.701 L90.0683 716.701 Q90.0683 713.336 89.6669 712.564 Q89.2347 711.792 87.1968 711.792 L70.2456 711.792 Q67.899 711.792 67.3124 712.625 Q66.7257 713.428 66.7257 716.701 L64.7496 716.701 L64.0703 707.808 L70.7088 707.808 Q64.0703 704.844 64.0703 698.452 Q64.0703 693.696 66.4169 691.813 Q67.9916 690.423 69.7516 690.145 Q71.5116 689.836 76.0813 689.836 L88.154 689.836 Q89.4817 689.775 89.7904 688.756 Q90.0683 687.737 90.0683 684.896 L92.0135 684.896 Q91.8283 691.35 91.8283 691.998 Q91.8283 692.492 92.0135 699.131 L90.0683 699.131 Q90.0683 695.765 89.6669 694.993 Q89.2347 694.19 87.1968 694.19 L72.4687 694.19 Q69.2576 694.19 67.3741 695.179 Q65.4598 696.167 65.4598 698.884 Q65.4598 702.157 68.2078 704.782 Q70.9558 707.407 75.5873 707.407 L87.1968 707.407 Q89.2347 707.407 89.6669 706.635 Q90.0683 705.832 90.0683 702.497 L92.0135 702.497 Q91.8283 708.951 91.8283 709.568 Q91.8283 710.062 92.0135 716.701 Z" fill="#000000" fill-rule="nonzero" fill-opacity="1" /><path clip-path="url(#clip340)" d="M50.7934 683.661 L48.8174 683.661 L48.1381 674.551 L68.1769 674.551 Q64.0703 670.877 64.0703 665.874 Q64.0703 660.439 68.2387 656.456 Q72.407 652.473 78.3661 652.473 Q84.3871 652.473 88.5554 656.641 Q92.7237 660.81 92.7237 666.584 Q92.7237 671.834 88.0922 674.86 Q91.9518 677.083 92.0135 677.145 L92.0135 678.72 L54.3134 678.72 Q51.9668 678.72 51.3801 679.554 Q50.7934 680.387 50.7934 683.661 M84.8193 674.366 Q86.147 674.366 87.4747 673.471 Q91.3034 670.969 91.3034 666.893 Q91.3034 666.862 91.3034 666.831 Q91.3034 662.416 87.2586 659.668 Q84.2327 657.722 78.3044 657.722 Q72.4379 657.722 69.5046 659.544 Q65.4598 662.076 65.4598 666.183 Q65.4598 670.815 69.5046 673.656 Q70.5235 674.366 71.7894 674.366 L84.8193 674.366 Z" fill="#000000" fill-rule="nonzero" fill-opacity="1" /><path clip-path="url(#clip340)" d="M85.9926 647.686 Q80.6201 647.686 77.7795 641.356 Q75.9578 637.558 75.4946 629.715 L73.1789 629.715 Q69.2576 629.715 67.1889 631.784 Q65.0893 633.822 65.0893 636.415 Q65.0893 641.047 67.9916 643.271 Q68.0534 641.387 69.0106 640.708 Q69.9369 640.028 70.894 640.028 Q72.16 640.028 72.9936 640.831 Q73.7964 641.603 73.7964 642.931 Q73.7964 644.197 73.0245 645.031 Q72.2217 645.865 70.8323 645.865 Q67.7446 645.865 65.7068 643.085 Q63.6689 640.275 63.6689 636.292 Q63.6689 631.104 67.158 627.646 Q68.2387 626.565 69.6281 626.04 Q71.0175 625.484 71.9438 625.422 Q72.8392 625.361 74.6301 625.361 L87.2586 625.361 Q87.6291 625.361 88.2466 625.237 Q88.8641 625.114 89.6669 624.558 Q90.4388 623.971 90.4388 623.014 Q90.4388 620.729 86.394 620.76 L82.8432 620.76 L82.8432 619.154 L86.394 619.154 Q89.7596 619.154 91.0872 620.945 Q92.3841 622.705 92.3841 624.342 Q92.3841 626.441 90.8402 627.769 Q89.2964 629.097 87.1968 629.282 Q89.6052 630.24 91.1799 632.432 Q92.7237 634.594 92.7237 637.558 Q92.7237 639.843 92.137 642.005 Q91.5813 644.135 90.0066 645.926 Q88.401 647.686 85.9926 647.686 M85.9309 642.807 Q88.2775 642.807 89.7904 641.14 Q91.3034 639.473 91.3034 637.126 Q91.3034 634.47 89.2655 632.092 Q87.1968 629.715 83.152 629.715 L76.8223 629.715 Q77.0693 636.724 79.8791 639.781 Q82.658 642.807 85.9309 642.807 Z" fill="#000000" fill-rule="nonzero" fill-opacity="1" /><path clip-path="url(#clip340)" d="M92.0135 616.622 L90.0683 616.622 Q90.0683 613.256 89.6669 612.484 Q89.2347 611.712 87.1968 611.712 L54.3134 611.712 Q51.9668 611.712 51.3801 612.546 Q50.7934 613.349 50.7934 616.622 L48.8174 616.622 L48.1381 607.543 L87.1968 607.543 Q89.2347 607.543 89.6669 606.741 Q90.0683 605.938 90.0683 602.603 L92.0135 602.603 Q92.0135 603.375 91.9518 604.98 Q91.89 606.586 91.8592 607.76 Q91.8283 608.933 91.8283 609.612 Q91.8283 610.353 92.0135 616.622 Z" fill="#000000" fill-rule="nonzero" fill-opacity="1" /><path clip-path="url(#clip340)" d="M92.0135 599.113 L90.0683 599.113 Q90.0683 595.748 89.6669 594.976 Q89.2347 594.204 87.1968 594.204 L54.3134 594.204 Q51.9668 594.204 51.3801 595.037 Q50.7934 595.84 50.7934 599.113 L48.8174 599.113 L48.1381 590.035 L87.1968 590.035 Q89.2347 590.035 89.6669 589.232 Q90.0683 588.429 90.0683 585.094 L92.0135 585.094 Q92.0135 585.866 91.9518 587.472 Q91.89 589.078 91.8592 590.251 Q91.8283 591.424 91.8283 592.104 Q91.8283 592.845 92.0135 599.113 Z" fill="#000000" fill-rule="nonzero" fill-opacity="1" /><path clip-path="url(#clip340)" d="M92.0135 560.576 L90.0683 560.576 Q90.0683 557.21 89.6669 556.438 Q89.2347 555.666 87.1968 555.666 L54.3134 555.666 Q51.9668 555.666 51.3801 556.5 Q50.7934 557.303 50.7934 560.576 L48.8174 560.576 L48.1381 551.498 L87.1968 551.498 Q89.2347 551.498 89.6669 550.695 Q90.0683 549.892 90.0683 546.557 L92.0135 546.557 Q92.0135 547.329 91.9518 548.935 Q91.89 550.54 91.8592 551.714 Q91.8283 552.887 91.8283 553.567 Q91.8283 554.308 92.0135 560.576 Z" fill="#000000" fill-rule="nonzero" fill-opacity="1" /><path clip-path="url(#clip340)" d="M88.6171 539.239 Q84.4797 543.407 78.4896 543.407 Q72.4687 543.407 68.0843 539.331 Q63.6689 535.224 63.6689 529.357 Q63.6689 523.614 68.0534 519.507 Q72.407 515.369 78.4896 515.369 Q84.4488 515.369 88.5863 519.538 Q92.7237 523.676 92.7237 529.419 Q92.7237 535.039 88.6171 539.239 M77.9647 538.158 Q84.1092 538.158 86.888 536.552 Q91.1181 534.082 91.1181 529.357 Q91.1181 527.01 89.8522 525.065 Q88.5863 523.089 86.4558 522.008 Q83.6769 520.618 77.9647 520.618 Q71.8821 520.618 69.1958 522.286 Q65.0893 524.756 65.0893 529.419 Q65.0893 531.457 66.1699 533.464 Q67.2197 535.44 69.3193 536.645 Q72.0982 538.158 77.9647 538.158 Z" fill="#000000" fill-rule="nonzero" fill-opacity="1" /><path clip-path="url(#clip340)" d="M91.1799 511.447 L82.8432 511.447 Q82.1331 511.447 81.8861 511.416 Q81.639 511.386 81.4538 511.2 Q81.2685 511.015 81.2685 510.644 Q81.2685 510.212 81.4538 510.058 Q81.639 509.873 82.3492 509.749 Q86.7028 508.792 89.0185 506.754 Q91.3034 504.685 91.3034 500.948 Q91.3034 497.397 89.7287 495.606 Q88.154 493.815 85.5604 493.815 Q80.9289 493.815 79.7556 500.393 Q78.9837 504.191 78.4896 505.766 Q77.9647 507.34 76.8223 508.73 Q74.5992 511.447 71.4498 511.447 Q68.3004 511.447 65.9847 509.07 Q63.6689 506.661 63.6689 501.35 Q63.6689 497.799 65.4598 495.39 Q64.904 494.68 64.4408 494.309 Q63.6689 493.476 63.6689 493.043 Q63.6689 492.549 64.0086 492.457 Q64.3173 492.364 65.2128 492.364 L71.5733 492.364 Q72.2835 492.364 72.5305 492.395 Q72.7775 492.426 72.9628 492.611 Q73.1171 492.796 73.1171 493.198 Q73.1171 493.908 72.5305 493.939 Q64.8731 494.433 64.8731 501.35 Q64.8731 505.086 66.3243 506.754 Q67.7446 508.421 69.6898 508.421 Q70.7705 508.421 71.6042 507.927 Q72.407 507.402 72.901 506.754 Q73.3641 506.074 73.8273 504.839 Q74.2596 503.604 74.4139 502.863 Q74.5683 502.091 74.8771 500.64 Q75.8343 495.575 77.903 493.445 Q80.5584 490.789 83.9239 490.789 Q87.66 490.789 90.1918 493.321 Q92.7237 495.853 92.7237 500.948 Q92.7237 505.055 89.9757 507.927 Q90.3462 508.298 90.6859 508.576 Q90.9946 508.853 91.1181 508.977 Q91.2416 509.07 91.3343 509.101 Q91.396 509.131 91.4578 509.193 Q92.7237 510.459 92.7237 510.768 Q92.7237 511.262 92.3841 511.355 Q92.0753 511.447 91.1799 511.447 Z" fill="#000000" fill-rule="nonzero" fill-opacity="1" /><path clip-path="url(#clip340)" d="M91.1799 486.559 L82.8432 486.559 Q82.1331 486.559 81.8861 486.528 Q81.639 486.497 81.4538 486.312 Q81.2685 486.126 81.2685 485.756 Q81.2685 485.324 81.4538 485.169 Q81.639 484.984 82.3492 484.86 Q86.7028 483.903 89.0185 481.865 Q91.3034 479.796 91.3034 476.06 Q91.3034 472.509 89.7287 470.718 Q88.154 468.927 85.5604 468.927 Q80.9289 468.927 79.7556 475.504 Q78.9837 479.302 78.4896 480.877 Q77.9647 482.452 76.8223 483.841 Q74.5992 486.559 71.4498 486.559 Q68.3004 486.559 65.9847 484.181 Q63.6689 481.772 63.6689 476.461 Q63.6689 472.91 65.4598 470.502 Q64.904 469.791 64.4408 469.421 Q63.6689 468.587 63.6689 468.155 Q63.6689 467.661 64.0086 467.568 Q64.3173 467.475 65.2128 467.475 L71.5733 467.475 Q72.2835 467.475 72.5305 467.506 Q72.7775 467.537 72.9628 467.722 Q73.1171 467.908 73.1171 468.309 Q73.1171 469.019 72.5305 469.05 Q64.8731 469.544 64.8731 476.461 Q64.8731 480.198 66.3243 481.865 Q67.7446 483.533 69.6898 483.533 Q70.7705 483.533 71.6042 483.038 Q72.407 482.514 72.901 481.865 Q73.3641 481.186 73.8273 479.951 Q74.2596 478.715 74.4139 477.974 Q74.5683 477.202 74.8771 475.751 Q75.8343 470.687 77.903 468.556 Q80.5584 465.901 83.9239 465.901 Q87.66 465.901 90.1918 468.433 Q92.7237 470.965 92.7237 476.06 Q92.7237 480.167 89.9757 483.038 Q90.3462 483.409 90.6859 483.687 Q90.9946 483.965 91.1181 484.088 Q91.2416 484.181 91.3343 484.212 Q91.396 484.243 91.4578 484.305 Q92.7237 485.571 92.7237 485.879 Q92.7237 486.373 92.3841 486.466 Q92.0753 486.559 91.1799 486.559 Z" fill="#000000" fill-rule="nonzero" fill-opacity="1" /><polyline clip-path="url(#clip342)" style="stroke:#0173b2; stroke-linecap:round; stroke-linejoin:round; stroke-width:4; stroke-opacity:1; fill:none" points="334.283,1044.09 352.63,953.657 370.978,891.527 389.325,826.174 407.672,764.838 426.02,706.697 444.367,652.996 462.715,604.473 481.062,560.561 499.409,520.746 517.757,484.892 536.104,452.735 554.451,424.336 572.799,399.994 591.146,380.277 609.494,365.321 627.841,354.918 646.188,348.805 664.536,346.663 682.883,348.225 701.23,353.439 719.578,361.741 737.925,372.901 756.273,387.317 774.62,403.98 792.967,423.157 811.315,445.187 829.662,468.682 848.009,495.271 866.357,522.907 884.704,553.465 903.051,585.082 921.399,619.493 939.746,653.778 958.094,690.302 976.441,726.552 994.788,764.302 1013.14,802.504 1031.48,841.447 1049.83,881.792 1068.18,923.829 1086.53,967.259 1104.87,1011.94 1123.22,1058.92 1141.57,1107.56 1159.91,1157.91 1178.26,1163.16 1196.61,1104.7 1214.96,1048.63 1233.3,994.648 1251.65,942.496 1270,892.223 1288.35,844.094 1306.69,797.366 1325.04,751.951 1343.39,708.773 1361.74,666.425 1380.08,624.988 1398.43,585.936 1416.78,546.292 1435.13,507.898 1453.47,471.407 1471.82,431.95 1490.17,395.418 1508.51,357.178 1526.86,321.01 1545.21,286.857 1563.56,255.598 1581.9,226.377 1600.25,200.21 1618.6,175.952 1636.95,154.804 1655.29,135.827 1673.64,119.66 1691.99,106.351 1710.34,95.3267 1728.68,87.3347 1747.03,82.3576 1765.38,79.7466 1783.73,80.4108 1802.07,83.9677 1820.42,91.0311 1838.77,100.882 1857.11,114.134 1875.46,130.923 1893.81,151.058 1912.16,175.013 1930.5,202.955 1948.85,234.784 1967.2,271.057 1985.55,311.373 2003.89,354.373 2022.24,397.073 2040.59,446.488 2058.94,506.079 2077.28,577.183 2095.63,660.467 2113.98,747.973 2132.33,816.007 "/>
<path clip-path="url(#clip340)" d="M343.872 215.125 L593.069 215.125 L593.069 85.5248 L343.872 85.5248  Z" fill="#ffffff" fill-rule="evenodd" fill-opacity="1"/>
<polyline clip-path="url(#clip340)" style="stroke:#000000; stroke-linecap:round; stroke-linejoin:round; stroke-width:4; stroke-opacity:1; fill:none" points="343.872,215.125 593.069,215.125 593.069,85.5248 343.872,85.5248 343.872,215.125 "/>
<polyline clip-path="url(#clip340)" style="stroke:#0173b2; stroke-linecap:round; stroke-linejoin:round; stroke-width:5; stroke-opacity:1; fill:none" points="365.049,150.325 492.111,150.325 "/>
<path clip-path="url(#clip340)" d="M513.288 179.768 Q513.288 178.44 514.06 177.73 Q514.863 177.051 515.943 177.051 Q517.086 177.051 517.827 177.761 Q518.599 178.502 518.599 179.706 Q518.599 182.053 516.129 182.362 Q517.333 183.504 519.093 183.504 Q520.976 183.504 522.489 182.115 Q524.033 180.725 524.681 179.398 Q525.361 178.07 526.318 175.661 Q527.213 173.778 527.893 171.925 L518.414 148.827 Q517.796 147.314 516.839 146.974 Q515.882 146.635 513.288 146.635 L513.288 144.658 Q516.129 144.844 519.432 144.844 Q521.378 144.844 526.318 144.658 L526.318 146.635 Q522.767 146.635 522.767 148.271 Q522.767 148.457 523.138 149.414 L530.177 166.428 L536.569 150.865 Q536.939 149.97 536.939 149.352 Q536.939 146.758 533.975 146.635 L533.975 144.658 Q538.144 144.844 539.471 144.844 Q542.065 144.844 544.195 144.658 L544.195 146.635 Q539.965 146.635 538.329 150.68 L527.182 177.668 Q524.157 184.863 519.093 184.894 Q516.684 184.894 514.986 183.412 Q513.288 181.93 513.288 179.768 Z" fill="#000000" fill-rule="nonzero" fill-opacity="1" /><path clip-path="url(#clip340)" d="M551.019 135.827 L551.019 133.851 Q558.615 133.851 562.536 129.806 Q563.617 129.806 563.802 130.053 Q563.987 130.3 563.987 131.442 L563.987 166.922 Q563.987 168.806 564.914 169.393 Q565.84 169.979 569.885 169.979 L571.892 169.979 L571.892 171.925 Q569.668 171.74 561.641 171.74 Q553.613 171.74 551.42 171.925 L551.42 169.979 L553.427 169.979 Q557.411 169.979 558.368 169.424 Q559.325 168.837 559.325 166.922 L559.325 134.16 Q556.021 135.827 551.019 135.827 Z" fill="#000000" fill-rule="nonzero" fill-opacity="1" /></svg>
