<?xml version="1.0" encoding="utf-8"?>
<svg xmlns="http://www.w3.org/2000/svg" xmlns:xlink="http://www.w3.org/1999/xlink" width="566.25" height="350" viewBox="0 0 2265 1400">
<defs>
  <clipPath id="clip000">
    <rect x="0" y="0" width="2265" height="1400"/>
  </clipPath>
</defs>
<path clip-path="url(#clip000)" d="M0 1400 L2265 1400 L2265 0 L0 0  Z" fill="#ffffff" fill-rule="evenodd" fill-opacity="1"/>
<defs>
  <clipPath id="clip001">
    <rect x="453" y="0" width="1587" height="1400"/>
  </clipPath>
</defs>
<path clip-path="url(#clip000)" d="M280.342 1195.66 L2186.27 1195.66 L2186.27 103.042 L280.342 103.042  Z" fill="#ffffff" fill-rule="evenodd" fill-opacity="1"/>
<defs>
  <clipPath id="clip002">
    <rect x="280" y="103" width="1907" height="1094"/>
  </clipPath>
</defs>
<polyline clip-path="url(#clip002)" style="stroke:#000000; stroke-linecap:round; stroke-linejoin:round; stroke-width:2; stroke-opacity:0.1; fill:none" points="574.022,1195.66 574.022,103.042 "/>
<polyline clip-path="url(#clip002)" style="stroke:#000000; stroke-linecap:round; stroke-linejoin:round; stroke-width:2; stroke-opacity:0.1; fill:none" points="873.696,1195.66 873.696,103.042 "/>
<polyline clip-path="url(#clip002)" style="stroke:#000000; stroke-linecap:round; stroke-linejoin:round; stroke-width:2; stroke-opacity:0.1; fill:none" points="1173.37,1195.66 1173.37,103.042 "/>
<polyline clip-path="url(#clip002)" style="stroke:#000000; stroke-linecap:round; stroke-linejoin:round; stroke-width:2; stroke-opacity:0.1; fill:none" points="1473.04,1195.66 1473.04,103.042 "/>
<polyline clip-path="url(#clip002)" style="stroke:#000000; stroke-linecap:round; stroke-linejoin:round; stroke-width:2; stroke-opacity:0.1; fill:none" points="1772.72,1195.66 1772.72,103.042 "/>
<polyline clip-path="url(#clip002)" style="stroke:#000000; stroke-linecap:round; stroke-linejoin:round; stroke-width:2; stroke-opacity:0.1; fill:none" points="2072.39,1195.66 2072.39,103.042 "/>
<polyline clip-path="url(#clip000)" style="stroke:#000000; stroke-linecap:round; stroke-linejoin:round; stroke-width:4; stroke-opacity:1; fill:none" points="280.342,1195.66 2186.27,1195.66 "/>
<polyline clip-path="url(#clip000)" style="stroke:#000000; stroke-linecap:round; stroke-linejoin:round; stroke-width:4; stroke-opacity:1; fill:none" points="280.342,103.042 2186.27,103.042 "/>
<polyline clip-path="url(#clip000)" style="stroke:#000000; stroke-linecap:round; stroke-linejoin:round; stroke-width:4; stroke-opacity:1; fill:none" points="574.022,1195.66 574.022,1176.77 "/>
<polyline clip-path="url(#clip000)" style="stroke:#000000; stroke-linecap:round; stroke-linejoin:round; stroke-width:4; stroke-opacity:1; fill:none" points="873.696,1195.66 873.696,1176.77 "/>
<polyline clip-path="url(#clip000)" style="stroke:#000000; stroke-linecap:round; stroke-linejoin:round; stroke-width:4; stroke-opacity:1; fill:none" points="1173.37,1195.66 1173.37,1176.77 "/>
<polyline clip-path="url(#clip000)" style="stroke:#000000; stroke-linecap:round; stroke-linejoin:round; stroke-width:4; stroke-opacity:1; fill:none" points="1473.04,1195.66 1473.04,1176.77 "/>
<polyline clip-path="url(#clip000)" style="stroke:#000000; stroke-linecap:round; stroke-linejoin:round; stroke-width:4; stroke-opacity:1; fill:none" points="1772.72,1195.66 1772.72,1176.77 "/>
<polyline clip-path="url(#clip000)" style="stroke:#000000; stroke-linecap:round; stroke-linejoin:round; stroke-width:4; stroke-opacity:1; fill:none" points="2072.39,1195.66 2072.39,1176.77 "/>
<path clip-path="url(#clip000)" d="M561.393 1257.6 Q561.393 1255.71 562.412 1255 Q563.431 1254.26 564.512 1254.26 Q565.963 1254.26 566.797 1255.19 Q567.661 1256.08 567.661 1257.35 Q567.661 1258.62 566.797 1259.54 Q565.963 1260.44 564.512 1260.44 Q563.802 1260.44 563.431 1260.31 Q564.265 1263.22 566.797 1265.32 Q569.36 1267.42 572.725 1267.42 Q576.955 1267.42 579.487 1263.31 Q581 1260.65 581 1254.63 Q581 1249.32 579.858 1246.67 Q578.098 1242.62 574.485 1242.62 Q569.36 1242.62 566.334 1247.04 Q565.963 1247.59 565.531 1247.62 Q564.913 1247.62 564.759 1247.28 Q564.635 1246.91 564.635 1245.95 L564.635 1227.24 Q564.635 1225.73 565.253 1225.73 Q565.5 1225.73 566.025 1225.91 Q570.008 1227.67 574.423 1227.71 Q578.962 1227.71 583.038 1225.85 Q583.347 1225.67 583.532 1225.67 Q584.149 1225.67 584.18 1226.38 Q584.18 1226.62 583.655 1227.37 Q583.161 1228.08 582.081 1229.03 Q581 1229.96 579.611 1230.85 Q578.221 1231.75 576.183 1232.37 Q574.176 1232.95 571.953 1232.95 Q569.298 1232.95 566.581 1232.12 L566.581 1244.44 Q569.854 1241.23 574.609 1241.23 Q579.672 1241.23 583.161 1245.31 Q586.65 1249.38 586.65 1255.06 Q586.65 1261.02 582.513 1265.1 Q578.406 1269.18 572.849 1269.18 Q567.785 1269.18 564.574 1265.56 Q561.393 1261.95 561.393 1257.6 Z" fill="#000000" fill-rule="nonzero" fill-opacity="1" /><path clip-path="url(#clip000)" d="M846.154 1231.69 L846.154 1229.71 Q853.749 1229.71 857.671 1225.67 Q858.751 1225.67 858.937 1225.91 Q859.122 1226.16 859.122 1227.3 L859.122 1262.78 Q859.122 1264.67 860.048 1265.25 Q860.975 1265.84 865.019 1265.84 L867.026 1265.84 L867.026 1267.79 Q864.803 1267.6 856.775 1267.6 Q848.748 1267.6 846.555 1267.79 L846.555 1265.84 L848.562 1265.84 Q852.545 1265.84 853.502 1265.29 Q854.46 1264.7 854.46 1262.78 L854.46 1230.02 Q851.156 1231.69 846.154 1231.69 Z" fill="#000000" fill-rule="nonzero" fill-opacity="1" /><path clip-path="url(#clip000)" d="M874.622 1247.56 Q874.622 1238.27 876.969 1233.2 Q880.242 1225.67 887.961 1225.67 Q889.597 1225.67 891.295 1226.13 Q893.024 1226.56 895.186 1228.26 Q897.378 1229.96 898.706 1232.74 Q901.238 1238.11 901.238 1247.56 Q901.238 1256.79 898.891 1261.83 Q895.464 1269.18 887.899 1269.18 Q885.058 1269.18 882.156 1267.72 Q879.284 1266.27 877.463 1262.78 Q874.622 1257.57 874.622 1247.56 M879.871 1246.79 Q879.871 1256.33 880.55 1260.13 Q881.322 1264.24 883.422 1266.03 Q885.552 1267.79 887.899 1267.79 Q890.431 1267.79 892.53 1265.9 Q894.661 1263.99 895.309 1259.88 Q896.019 1255.84 895.989 1246.79 Q895.989 1237.99 895.371 1234.47 Q894.537 1230.36 892.314 1228.72 Q890.122 1227.06 887.899 1227.06 Q887.065 1227.06 886.17 1227.3 Q885.305 1227.55 884.039 1228.26 Q882.773 1228.97 881.785 1230.73 Q880.828 1232.49 880.365 1235.15 Q879.871 1238.57 879.871 1246.79 Z" fill="#000000" fill-rule="nonzero" fill-opacity="1" /><path clip-path="url(#clip000)" d="M1146.17 1231.69 L1146.17 1229.71 Q1153.76 1229.71 1157.68 1225.67 Q1158.76 1225.67 1158.95 1225.91 Q1159.14 1226.16 1159.14 1227.3 L1159.14 1262.78 Q1159.14 1264.67 1160.06 1265.25 Q1160.99 1265.84 1165.03 1265.84 L1167.04 1265.84 L1167.04 1267.79 Q1164.82 1267.6 1156.79 1267.6 Q1148.76 1267.6 1146.57 1267.79 L1146.57 1265.84 L1148.58 1265.84 Q1152.56 1265.84 1153.52 1265.29 Q1154.47 1264.7 1154.47 1262.78 L1154.47 1230.02 Q1151.17 1231.69 1146.17 1231.69 Z" fill="#000000" fill-rule="nonzero" fill-opacity="1" /><path clip-path="url(#clip000)" d="M1175.31 1257.6 Q1175.31 1255.71 1176.33 1255 Q1177.35 1254.26 1178.43 1254.26 Q1179.88 1254.26 1180.72 1255.19 Q1181.58 1256.08 1181.58 1257.35 Q1181.58 1258.62 1180.72 1259.54 Q1179.88 1260.44 1178.43 1260.44 Q1177.72 1260.44 1177.35 1260.31 Q1178.19 1263.22 1180.72 1265.32 Q1183.28 1267.42 1186.65 1267.42 Q1190.88 1267.42 1193.41 1263.31 Q1194.92 1260.65 1194.92 1254.63 Q1194.92 1249.32 1193.78 1246.67 Q1192.02 1242.62 1188.41 1242.62 Q1183.28 1242.62 1180.25 1247.04 Q1179.88 1247.59 1179.45 1247.62 Q1178.83 1247.62 1178.68 1247.28 Q1178.56 1246.91 1178.56 1245.95 L1178.56 1227.24 Q1178.56 1225.73 1179.17 1225.73 Q1179.42 1225.73 1179.95 1225.91 Q1183.93 1227.67 1188.34 1227.71 Q1192.88 1227.71 1196.96 1225.85 Q1197.27 1225.67 1197.45 1225.67 Q1198.07 1225.67 1198.1 1226.38 Q1198.1 1226.62 1197.58 1227.37 Q1197.08 1228.08 1196 1229.03 Q1194.92 1229.96 1193.53 1230.85 Q1192.14 1231.75 1190.1 1232.37 Q1188.1 1232.95 1185.87 1232.95 Q1183.22 1232.95 1180.5 1232.12 L1180.5 1244.44 Q1183.77 1241.23 1188.53 1241.23 Q1193.59 1241.23 1197.08 1245.31 Q1200.57 1249.38 1200.57 1255.06 Q1200.57 1261.02 1196.43 1265.1 Q1192.33 1269.18 1186.77 1269.18 Q1181.71 1269.18 1178.49 1265.56 Q1175.31 1261.95 1175.31 1257.6 Z" fill="#000000" fill-rule="nonzero" fill-opacity="1" /><path clip-path="url(#clip000)" d="M1444.27 1267.79 Q1444.27 1266.64 1444.36 1266.3 Q1444.48 1265.96 1444.98 1265.44 L1457.11 1251.91 Q1463.75 1244.44 1463.75 1237.93 Q1463.75 1233.7 1461.53 1230.67 Q1459.33 1227.64 1455.29 1227.64 Q1452.51 1227.64 1450.16 1229.34 Q1447.82 1231.04 1446.74 1234.07 Q1446.92 1234 1447.57 1234 Q1449.14 1234 1450.01 1234.99 Q1450.9 1235.98 1450.9 1237.31 Q1450.9 1239.01 1449.79 1239.84 Q1448.71 1240.64 1447.63 1240.64 Q1447.2 1240.64 1446.61 1240.55 Q1446.06 1240.46 1445.16 1239.59 Q1444.27 1238.7 1444.27 1237.12 Q1444.27 1232.71 1447.6 1229.19 Q1450.97 1225.67 1456.09 1225.67 Q1461.9 1225.67 1465.69 1229.13 Q1469.52 1232.55 1469.52 1237.93 Q1469.52 1239.81 1468.94 1241.54 Q1468.38 1243.24 1467.61 1244.57 Q1466.87 1245.89 1464.83 1248.02 Q1462.79 1250.15 1461.16 1251.67 Q1459.52 1253.18 1455.85 1256.39 L1449.14 1262.91 L1460.54 1262.91 Q1466.1 1262.91 1466.53 1262.41 Q1467.15 1261.52 1467.92 1256.79 L1469.52 1256.79 L1467.73 1267.79 L1444.27 1267.79 Z" fill="#000000" fill-rule="nonzero" fill-opacity="1" /><path clip-path="url(#clip000)" d="M1475.2 1247.56 Q1475.2 1238.27 1477.55 1233.2 Q1480.82 1225.67 1488.54 1225.67 Q1490.18 1225.67 1491.88 1226.13 Q1493.61 1226.56 1495.77 1228.26 Q1497.96 1229.96 1499.29 1232.74 Q1501.82 1238.11 1501.82 1247.56 Q1501.82 1256.79 1499.47 1261.83 Q1496.05 1269.18 1488.48 1269.18 Q1485.64 1269.18 1482.74 1267.72 Q1479.87 1266.27 1478.05 1262.78 Q1475.2 1257.57 1475.2 1247.56 M1480.45 1246.79 Q1480.45 1256.33 1481.13 1260.13 Q1481.9 1264.24 1484 1266.03 Q1486.13 1267.79 1488.48 1267.79 Q1491.01 1267.79 1493.11 1265.9 Q1495.24 1263.99 1495.89 1259.88 Q1496.6 1255.84 1496.57 1246.79 Q1496.57 1237.99 1495.95 1234.47 Q1495.12 1230.36 1492.9 1228.72 Q1490.7 1227.06 1488.48 1227.06 Q1487.65 1227.06 1486.75 1227.3 Q1485.89 1227.55 1484.62 1228.26 Q1483.36 1228.97 1482.37 1230.73 Q1481.41 1232.49 1480.95 1235.15 Q1480.45 1238.57 1480.45 1246.79 Z" fill="#000000" fill-rule="nonzero" fill-opacity="1" /><path clip-path="url(#clip000)" d="M1744.28 1267.79 Q1744.28 1266.64 1744.37 1266.3 Q1744.5 1265.96 1744.99 1265.44 L1757.12 1251.91 Q1763.76 1244.44 1763.76 1237.93 Q1763.76 1233.7 1761.54 1230.67 Q1759.35 1227.64 1755.3 1227.64 Q1752.52 1227.64 1750.18 1229.34 Q1747.83 1231.04 1746.75 1234.07 Q1746.94 1234 1747.58 1234 Q1749.16 1234 1750.02 1234.99 Q1750.92 1235.98 1750.92 1237.31 Q1750.92 1239.01 1749.81 1239.84 Q1748.73 1240.64 1747.65 1240.64 Q1747.21 1240.64 1746.63 1240.55 Q1746.07 1240.46 1745.18 1239.59 Q1744.28 1238.7 1744.28 1237.12 Q1744.28 1232.71 1747.61 1229.19 Q1750.98 1225.67 1756.11 1225.67 Q1761.91 1225.67 1765.71 1229.13 Q1769.54 1232.55 1769.54 1237.93 Q1769.54 1239.81 1768.95 1241.54 Q1768.39 1243.24 1767.62 1244.57 Q1766.88 1245.89 1764.84 1248.02 Q1762.81 1250.15 1761.17 1251.67 Q1759.53 1253.18 1755.86 1256.39 L1749.16 1262.91 L1760.55 1262.91 Q1766.11 1262.91 1766.54 1262.41 Q1767.16 1261.52 1767.93 1256.79 L1769.54 1256.79 L1767.75 1267.79 L1744.28 1267.79 Z" fill="#000000" fill-rule="nonzero" fill-opacity="1" /><path clip-path="url(#clip000)" d="M1775.9 1257.6 Q1775.9 1255.71 1776.92 1255 Q1777.94 1254.26 1779.02 1254.26 Q1780.47 1254.26 1781.3 1255.19 Q1782.17 1256.08 1782.17 1257.35 Q1782.17 1258.62 1781.3 1259.54 Q1780.47 1260.44 1779.02 1260.44 Q1778.31 1260.44 1777.94 1260.31 Q1778.77 1263.22 1781.3 1265.32 Q1783.86 1267.42 1787.23 1267.42 Q1791.46 1267.42 1793.99 1263.31 Q1795.5 1260.65 1795.5 1254.63 Q1795.5 1249.32 1794.36 1246.67 Q1792.6 1242.62 1788.99 1242.62 Q1783.86 1242.62 1780.84 1247.04 Q1780.47 1247.59 1780.03 1247.62 Q1779.42 1247.62 1779.26 1247.28 Q1779.14 1246.91 1779.14 1245.95 L1779.14 1227.24 Q1779.14 1225.73 1779.76 1225.73 Q1780 1225.73 1780.53 1225.91 Q1784.51 1227.67 1788.93 1227.71 Q1793.47 1227.71 1797.54 1225.85 Q1797.85 1225.67 1798.04 1225.67 Q1798.65 1225.67 1798.68 1226.38 Q1798.68 1226.62 1798.16 1227.37 Q1797.67 1228.08 1796.58 1229.03 Q1795.5 1229.96 1794.11 1230.85 Q1792.72 1231.75 1790.69 1232.37 Q1788.68 1232.95 1786.46 1232.95 Q1783.8 1232.95 1781.08 1232.12 L1781.08 1244.44 Q1784.36 1241.23 1789.11 1241.23 Q1794.18 1241.23 1797.67 1245.31 Q1801.15 1249.38 1801.15 1255.06 Q1801.15 1261.02 1797.02 1265.1 Q1792.91 1269.18 1787.35 1269.18 Q1782.29 1269.18 1779.08 1265.56 Q1775.9 1261.95 1775.9 1257.6 Z" fill="#000000" fill-rule="nonzero" fill-opacity="1" /><path clip-path="url(#clip000)" d="M2043.37 1259.26 Q2043.37 1257.38 2044.45 1256.48 Q2045.53 1255.59 2046.92 1255.59 Q2048.37 1255.59 2049.39 1256.55 Q2050.44 1257.47 2050.44 1259.11 Q2050.44 1260.87 2049.2 1261.86 Q2048 1262.85 2046.27 1262.6 Q2047.78 1265.13 2050.56 1266.27 Q2053.37 1267.42 2055.96 1267.42 Q2058.68 1267.42 2060.87 1265.07 Q2063.1 1262.72 2063.1 1256.98 Q2063.1 1252.1 2061.18 1249.29 Q2059.3 1246.48 2055.56 1246.48 L2052.78 1246.48 Q2051.83 1246.48 2051.55 1246.39 Q2051.27 1246.29 2051.27 1245.77 Q2051.27 1245.15 2052.23 1245.03 Q2053.19 1245.03 2054.7 1244.84 Q2058.37 1244.72 2060.32 1241.54 Q2062.08 1238.57 2062.08 1234.34 Q2062.08 1230.48 2060.23 1228.88 Q2058.4 1227.24 2056.03 1227.24 Q2053.8 1227.24 2051.36 1228.17 Q2048.92 1229.09 2047.6 1231.16 Q2051.52 1231.16 2051.52 1234.34 Q2051.52 1235.73 2050.62 1236.66 Q2049.76 1237.56 2048.31 1237.56 Q2046.92 1237.56 2045.99 1236.69 Q2045.07 1235.8 2045.07 1234.28 Q2045.07 1230.67 2048.28 1228.17 Q2051.52 1225.67 2056.27 1225.67 Q2060.97 1225.67 2064.42 1228.14 Q2067.91 1230.61 2067.91 1234.41 Q2067.91 1238.14 2065.44 1241.2 Q2062.97 1244.26 2059.05 1245.52 Q2063.87 1246.48 2066.74 1249.75 Q2069.61 1253 2069.61 1256.98 Q2069.61 1261.92 2065.72 1265.56 Q2061.83 1269.18 2056.15 1269.18 Q2050.9 1269.18 2047.13 1266.34 Q2043.37 1263.49 2043.37 1259.26 Z" fill="#000000" fill-rule="nonzero" fill-opacity="1" /><path clip-path="url(#clip000)" d="M2074.8 1247.56 Q2074.8 1238.27 2077.15 1233.2 Q2080.42 1225.67 2088.14 1225.67 Q2089.77 1225.67 2091.47 1226.13 Q2093.2 1226.56 2095.36 1228.26 Q2097.56 1229.96 2098.88 1232.74 Q2101.41 1238.11 2101.41 1247.56 Q2101.41 1256.79 2099.07 1261.83 Q2095.64 1269.18 2088.08 1269.18 Q2085.24 1269.18 2082.33 1267.72 Q2079.46 1266.27 2077.64 1262.78 Q2074.8 1257.57 2074.8 1247.56 M2080.05 1246.79 Q2080.05 1256.33 2080.73 1260.13 Q2081.5 1264.24 2083.6 1266.03 Q2085.73 1267.79 2088.08 1267.79 Q2090.61 1267.79 2092.71 1265.9 Q2094.84 1263.99 2095.49 1259.88 Q2096.2 1255.84 2096.17 1246.79 Q2096.17 1237.99 2095.55 1234.47 Q2094.71 1230.36 2092.49 1228.72 Q2090.3 1227.06 2088.08 1227.06 Q2087.24 1227.06 2086.35 1227.3 Q2085.48 1227.55 2084.22 1228.26 Q2082.95 1228.97 2081.96 1230.73 Q2081.01 1232.49 2080.54 1235.15 Q2080.05 1238.57 2080.05 1246.79 Z" fill="#000000" fill-rule="nonzero" fill-opacity="1" /><path clip-path="url(#clip000)" d="M1156.78 1354.19 Q1156.78 1352.92 1157.58 1352.09 Q1158.35 1351.29 1159.68 1351.29 Q1161.01 1351.29 1161.78 1352.09 Q1162.58 1352.92 1162.58 1354.19 Q1162.58 1355.33 1161.9 1356.04 Q1161.25 1356.78 1160.39 1357.03 Q1162.03 1357.86 1163.79 1357.86 Q1165.24 1357.86 1166.23 1357 Q1167.21 1356.13 1167.65 1354.71 Q1168.11 1353.29 1168.26 1352.09 Q1168.42 1350.91 1168.42 1349.56 L1168.42 1324.51 Q1168.42 1322.17 1167.49 1321.58 Q1166.6 1320.99 1162.98 1320.99 L1162.98 1319.02 L1172.59 1318.34 L1172.59 1349.43 Q1172.59 1353.66 1170.05 1356.44 Q1167.52 1359.25 1163.94 1359.25 Q1161.04 1359.25 1158.91 1357.89 Q1156.78 1356.53 1156.78 1354.19 M1166.87 1309.72 Q1165.89 1308.73 1165.89 1307.34 Q1165.89 1305.95 1166.87 1304.97 Q1167.86 1303.98 1169.25 1303.98 Q1170.64 1303.98 1171.63 1304.97 Q1172.62 1305.95 1172.62 1307.34 Q1172.62 1308.73 1171.63 1309.72 Q1170.64 1310.68 1169.25 1310.68 Q1167.86 1310.68 1166.87 1309.72 Z" fill="#000000" fill-rule="nonzero" fill-opacity="1" /><path clip-path="url(#clip000)" d="M1182.19 1336.68 Q1182.25 1335.91 1183.45 1335.91 L1222.2 1335.91 Q1224.03 1335.91 1224.06 1336.62 Q1224.06 1337.39 1222.33 1337.36 L1183.89 1337.36 Q1182.19 1337.39 1182.19 1336.68 M1182.19 1324.33 Q1182.19 1323.56 1183.52 1323.59 L1222.14 1323.59 Q1224.03 1323.59 1224.06 1324.33 Q1224.06 1325.04 1222.45 1325.04 L1183.45 1325.04 Q1182.19 1325.04 1182.19 1324.33 Z" fill="#000000" fill-rule="nonzero" fill-opacity="1" /><path clip-path="url(#clip000)" d="M1233.38 1310.19 L1233.38 1308.21 Q1240.98 1308.21 1244.9 1304.16 Q1245.98 1304.16 1246.16 1304.41 Q1246.35 1304.66 1246.35 1305.8 L1246.35 1341.28 Q1246.35 1343.16 1247.28 1343.75 Q1248.2 1344.34 1252.25 1344.34 L1254.25 1344.34 L1254.25 1346.28 Q1252.03 1346.1 1244 1346.1 Q1235.98 1346.1 1233.78 1346.28 L1233.78 1344.34 L1235.79 1344.34 Q1239.77 1344.34 1240.73 1343.78 Q1241.69 1343.19 1241.69 1341.28 L1241.69 1308.52 Q1238.38 1310.19 1233.38 1310.19 Z" fill="#000000" fill-rule="nonzero" fill-opacity="1" /><path clip-path="url(#clip000)" d="M1265.8 1345.33 Q1264.81 1344.34 1264.81 1342.95 Q1264.81 1341.56 1265.8 1340.57 Q1266.79 1339.58 1268.18 1339.58 Q1269.57 1339.58 1270.56 1340.57 Q1271.54 1341.56 1271.54 1342.95 Q1271.54 1344.34 1270.56 1345.33 Q1269.57 1346.28 1268.18 1346.28 Q1266.79 1346.28 1265.8 1345.33 M1265.8 1324.76 Q1264.81 1323.77 1264.81 1322.38 Q1264.81 1320.99 1265.8 1320 Q1266.79 1319.02 1268.18 1319.02 Q1269.57 1319.02 1270.56 1320 Q1271.54 1320.99 1271.54 1322.38 Q1271.54 1323.77 1270.56 1324.76 Q1269.57 1325.72 1268.18 1325.72 Q1266.79 1325.72 1265.8 1324.76 Z" fill="#000000" fill-rule="nonzero" fill-opacity="1" /><path clip-path="url(#clip000)" d="M1278.65 1356.6 Q1282.01 1356.6 1282.78 1356.16 Q1283.59 1355.76 1283.59 1353.76 L1283.59 1324.14 Q1283.59 1322.04 1282.78 1321.52 Q1282.01 1320.99 1278.65 1320.99 L1278.65 1319.02 L1287.75 1318.34 L1287.75 1322.51 Q1291.55 1318.34 1296.62 1318.34 Q1301.99 1318.34 1305.91 1322.51 Q1309.83 1326.67 1309.83 1332.63 Q1309.83 1338.66 1305.66 1342.82 Q1301.49 1346.99 1295.72 1346.99 Q1292.57 1346.99 1290.44 1345.39 Q1288.34 1343.75 1287.94 1342.55 L1287.94 1343.13 L1287.94 1353.76 Q1287.94 1355.79 1288.74 1356.2 Q1289.55 1356.6 1292.88 1356.6 L1292.88 1358.54 Q1286.24 1358.36 1285.75 1358.36 Q1285.13 1358.36 1278.65 1358.54 L1278.65 1356.6 M1287.94 1339.09 Q1287.94 1340.05 1288.06 1340.38 Q1288.22 1340.72 1288.84 1341.74 Q1291.34 1345.57 1295.41 1345.57 Q1295.44 1345.57 1295.47 1345.57 Q1299.09 1345.57 1301.83 1341.9 Q1304.58 1338.19 1304.58 1332.63 Q1304.58 1327.32 1302.08 1323.62 Q1299.58 1319.91 1296.12 1319.91 Q1293.65 1319.91 1291.49 1321.24 Q1289.33 1322.57 1287.94 1324.98 L1287.94 1339.09 Z" fill="#000000" fill-rule="nonzero" fill-opacity="1" /><polyline clip-path="url(#clip002)" style="stroke:#000000; stroke-linecap:round; stroke-linejoin:round; stroke-width:2; stroke-opacity:0.1; fill:none" points="280.342,1167.16 2186.27,1167.16 "/>
<polyline clip-path="url(#clip002)" style="stroke:#000000; stroke-linecap:round; stroke-linejoin:round; stroke-width:2; stroke-opacity:0.1; fill:none" points="280.342,907.71 2186.27,907.71 "/>
<polyline clip-path="url(#clip002)" style="stroke:#000000; stroke-linecap:round; stroke-linejoin:round; stroke-width:2; stroke-opacity:0.1; fill:none" points="280.342,648.26 2186.27,648.26 "/>
<polyline clip-path="url(#clip002)" style="stroke:#000000; stroke-linecap:round; stroke-linejoin:round; stroke-width:2; stroke-opacity:0.1; fill:none" points="280.342,388.811 2186.27,388.811 "/>
<polyline clip-path="url(#clip002)" style="stroke:#000000; stroke-linecap:round; stroke-linejoin:round; stroke-width:2; stroke-opacity:0.1; fill:none" points="280.342,129.361 2186.27,129.361 "/>
<polyline clip-path="url(#clip000)" style="stroke:#000000; stroke-linecap:round; stroke-linejoin:round; stroke-width:4; stroke-opacity:1; fill:none" points="280.342,1195.66 280.342,103.042 "/>
<polyline clip-path="url(#clip000)" style="stroke:#000000; stroke-linecap:round; stroke-linejoin:round; stroke-width:4; stroke-opacity:1; fill:none" points="2186.27,1195.66 2186.27,103.042 "/>
<polyline clip-path="url(#clip000)" style="stroke:#000000; stroke-linecap:round; stroke-linejoin:round; stroke-width:4; stroke-opacity:1; fill:none" points="280.342,1167.16 299.238,1167.16 "/>
<polyline clip-path="url(#clip000)" style="stroke:#000000; stroke-linecap:round; stroke-linejoin:round; stroke-width:4; stroke-opacity:1; fill:none" points="280.342,907.71 299.238,907.71 "/>
<polyline clip-path="url(#clip000)" style="stroke:#000000; stroke-linecap:round; stroke-linejoin:round; stroke-width:4; stroke-opacity:1; fill:none" points="280.342,648.26 299.238,648.26 "/>
<polyline clip-path="url(#clip000)" style="stroke:#000000; stroke-linecap:round; stroke-linejoin:round; stroke-width:4; stroke-opacity:1; fill:none" points="280.342,388.811 299.238,388.811 "/>
<polyline clip-path="url(#clip000)" style="stroke:#000000; stroke-linecap:round; stroke-linejoin:round; stroke-width:4; stroke-opacity:1; fill:none" points="280.342,129.361 299.238,129.361 "/>
<path clip-path="url(#clip000)" d="M138.947 1168.53 Q138.947 1159.24 141.294 1154.17 Q144.567 1146.64 152.286 1146.64 Q153.922 1146.64 155.621 1147.1 Q157.35 1147.54 159.511 1149.23 Q161.703 1150.93 163.031 1153.71 Q165.563 1159.08 165.563 1168.53 Q165.563 1177.77 163.216 1182.8 Q159.789 1190.15 152.224 1190.15 Q149.384 1190.15 146.481 1188.7 Q143.61 1187.25 141.788 1183.76 Q138.947 1178.54 138.947 1168.53 M144.196 1167.76 Q144.196 1177.3 144.876 1181.1 Q145.648 1185.21 147.747 1187 Q149.878 1188.76 152.224 1188.76 Q154.756 1188.76 156.856 1186.88 Q158.986 1184.96 159.635 1180.85 Q160.345 1176.81 160.314 1167.76 Q160.314 1158.96 159.696 1155.44 Q158.863 1151.33 156.64 1149.7 Q154.447 1148.03 152.224 1148.03 Q151.391 1148.03 150.495 1148.28 Q149.631 1148.52 148.365 1149.23 Q147.099 1149.94 146.111 1151.7 Q145.154 1153.46 144.69 1156.12 Q144.196 1159.55 144.196 1167.76 Z" fill="#000000" fill-rule="nonzero" fill-opacity="1" /><path clip-path="url(#clip000)" d="M174.424 1187.74 Q173.467 1186.72 173.467 1185.39 Q173.467 1184.07 174.424 1183.11 Q175.382 1182.12 176.833 1182.12 Q178.222 1182.12 179.149 1183.05 Q180.106 1183.94 180.106 1185.42 Q180.106 1186.88 179.087 1187.83 Q178.099 1188.76 176.833 1188.76 Q175.382 1188.76 174.424 1187.74 Z" fill="#000000" fill-rule="nonzero" fill-opacity="1" /><path clip-path="url(#clip000)" d="M188.134 1168.53 Q188.134 1159.24 190.48 1154.17 Q193.753 1146.64 201.472 1146.64 Q203.109 1146.64 204.807 1147.1 Q206.536 1147.54 208.697 1149.23 Q210.89 1150.93 212.217 1153.71 Q214.749 1159.08 214.749 1168.53 Q214.749 1177.77 212.403 1182.8 Q208.975 1190.15 201.411 1190.15 Q198.57 1190.15 195.667 1188.7 Q192.796 1187.25 190.974 1183.76 Q188.134 1178.54 188.134 1168.53 M193.383 1167.76 Q193.383 1177.3 194.062 1181.1 Q194.834 1185.21 196.933 1187 Q199.064 1188.76 201.411 1188.76 Q203.942 1188.76 206.042 1186.88 Q208.172 1184.96 208.821 1180.85 Q209.531 1176.81 209.5 1167.76 Q209.5 1158.96 208.883 1155.44 Q208.049 1151.33 205.826 1149.7 Q203.634 1148.03 201.411 1148.03 Q200.577 1148.03 199.681 1148.28 Q198.817 1148.52 197.551 1149.23 Q196.285 1149.94 195.297 1151.7 Q194.34 1153.46 193.877 1156.12 Q193.383 1159.55 193.383 1167.76 Z" fill="#000000" fill-rule="nonzero" fill-opacity="1" /><path clip-path="url(#clip000)" d="M219.751 1168.53 Q219.751 1159.24 222.098 1154.17 Q225.371 1146.64 233.09 1146.64 Q234.726 1146.64 236.424 1147.1 Q238.154 1147.54 240.315 1149.23 Q242.507 1150.93 243.835 1153.71 Q246.367 1159.08 246.367 1168.53 Q246.367 1177.77 244.02 1182.8 Q240.593 1190.15 233.028 1190.15 Q230.187 1190.15 227.285 1188.7 Q224.413 1187.25 222.592 1183.76 Q219.751 1178.54 219.751 1168.53 M225 1167.76 Q225 1177.3 225.679 1181.1 Q226.451 1185.21 228.551 1187 Q230.681 1188.76 233.028 1188.76 Q235.56 1188.76 237.659 1186.88 Q239.79 1184.96 240.438 1180.85 Q241.149 1176.81 241.118 1167.76 Q241.118 1158.96 240.5 1155.44 Q239.666 1151.33 237.443 1149.7 Q235.251 1148.03 233.028 1148.03 Q232.194 1148.03 231.299 1148.28 Q230.434 1148.52 229.168 1149.23 Q227.903 1149.94 226.914 1151.7 Q225.957 1153.46 225.494 1156.12 Q225 1159.55 225 1167.76 Z" fill="#000000" fill-rule="nonzero" fill-opacity="1" /><path clip-path="url(#clip000)" d="M139.627 909.084 Q139.627 899.789 141.973 894.725 Q145.246 887.191 152.965 887.191 Q154.602 887.191 156.3 887.654 Q158.029 888.086 160.19 889.784 Q162.383 891.483 163.71 894.262 Q166.242 899.635 166.242 909.084 Q166.242 918.317 163.896 923.35 Q160.468 930.699 152.904 930.699 Q150.063 930.699 147.161 929.248 Q144.289 927.797 142.467 924.307 Q139.627 919.089 139.627 909.084 M144.876 908.312 Q144.876 917.854 145.555 921.652 Q146.327 925.759 148.426 927.55 Q150.557 929.31 152.904 929.31 Q155.435 929.31 157.535 927.426 Q159.666 925.512 160.314 921.405 Q161.024 917.36 160.993 908.312 Q160.993 899.511 160.376 895.991 Q159.542 891.884 157.319 890.248 Q155.127 888.58 152.904 888.58 Q152.07 888.58 151.174 888.827 Q150.31 889.074 149.044 889.784 Q147.778 890.495 146.79 892.255 Q145.833 894.015 145.37 896.67 Q144.876 900.098 144.876 908.312 Z" fill="#000000" fill-rule="nonzero" fill-opacity="1" /><path clip-path="url(#clip000)" d="M175.104 928.291 Q174.147 927.272 174.147 925.944 Q174.147 924.616 175.104 923.659 Q176.061 922.671 177.512 922.671 Q178.902 922.671 179.828 923.597 Q180.785 924.493 180.785 925.975 Q180.785 927.426 179.766 928.383 Q178.778 929.31 177.512 929.31 Q176.061 929.31 175.104 928.291 Z" fill="#000000" fill-rule="nonzero" fill-opacity="1" /><path clip-path="url(#clip000)" d="M189.492 929.31 Q189.492 928.167 189.585 927.828 Q189.708 927.488 190.202 926.963 L202.337 913.438 Q208.975 905.965 208.975 899.45 Q208.975 895.219 206.752 892.193 Q204.56 889.167 200.515 889.167 Q197.736 889.167 195.39 890.865 Q193.043 892.564 191.962 895.59 Q192.148 895.528 192.796 895.528 Q194.371 895.528 195.235 896.516 Q196.131 897.504 196.131 898.832 Q196.131 900.53 195.019 901.364 Q193.938 902.167 192.858 902.167 Q192.425 902.167 191.839 902.074 Q191.283 901.982 190.388 901.117 Q189.492 900.222 189.492 898.647 Q189.492 894.231 192.827 890.711 Q196.192 887.191 201.318 887.191 Q207.123 887.191 210.92 890.649 Q214.749 894.077 214.749 899.45 Q214.749 901.333 214.162 903.062 Q213.607 904.761 212.835 906.089 Q212.094 907.416 210.056 909.547 Q208.018 911.678 206.382 913.191 Q204.745 914.704 201.071 917.915 L194.371 924.431 L205.764 924.431 Q211.322 924.431 211.754 923.937 Q212.372 923.041 213.144 918.317 L214.749 918.317 L212.958 929.31 L189.492 929.31 Z" fill="#000000" fill-rule="nonzero" fill-opacity="1" /><path clip-path="url(#clip000)" d="M221.11 919.12 Q221.11 917.236 222.129 916.526 Q223.148 915.785 224.228 915.785 Q225.679 915.785 226.513 916.711 Q227.378 917.607 227.378 918.873 Q227.378 920.139 226.513 921.065 Q225.679 921.961 224.228 921.961 Q223.518 921.961 223.148 921.837 Q223.981 924.74 226.513 926.839 Q229.076 928.939 232.441 928.939 Q236.671 928.939 239.203 924.832 Q240.716 922.177 240.716 916.155 Q240.716 910.844 239.574 908.188 Q237.814 904.143 234.201 904.143 Q229.076 904.143 226.05 908.559 Q225.679 909.115 225.247 909.146 Q224.63 909.146 224.475 908.806 Q224.352 908.435 224.352 907.478 L224.352 888.765 Q224.352 887.252 224.969 887.252 Q225.216 887.252 225.741 887.438 Q229.724 889.198 234.14 889.229 Q238.678 889.229 242.754 887.376 Q243.063 887.191 243.248 887.191 Q243.866 887.191 243.897 887.901 Q243.897 888.148 243.372 888.889 Q242.878 889.599 241.797 890.556 Q240.716 891.483 239.327 892.378 Q237.937 893.274 235.9 893.891 Q233.893 894.478 231.669 894.478 Q229.014 894.478 226.297 893.644 L226.297 905.965 Q229.57 902.754 234.325 902.754 Q239.389 902.754 242.878 906.83 Q246.367 910.906 246.367 916.588 Q246.367 922.547 242.229 926.623 Q238.123 930.699 232.565 930.699 Q227.501 930.699 224.29 927.086 Q221.11 923.474 221.11 919.12 Z" fill="#000000" fill-rule="nonzero" fill-opacity="1" /><path clip-path="url(#clip000)" d="M138.947 649.634 Q138.947 640.34 141.294 635.276 Q144.567 627.741 152.286 627.741 Q153.922 627.741 155.621 628.204 Q157.35 628.637 159.511 630.335 Q161.703 632.033 163.031 634.812 Q165.563 640.185 165.563 649.634 Q165.563 658.867 163.216 663.901 Q159.789 671.25 152.224 671.25 Q149.384 671.25 146.481 669.798 Q143.61 668.347 141.788 664.858 Q138.947 659.639 138.947 649.634 M144.196 648.862 Q144.196 658.404 144.876 662.202 Q145.648 666.309 147.747 668.1 Q149.878 669.86 152.224 669.86 Q154.756 669.86 156.856 667.977 Q158.986 666.062 159.635 661.955 Q160.345 657.91 160.314 648.862 Q160.314 640.062 159.696 636.542 Q158.863 632.435 156.64 630.798 Q154.447 629.131 152.224 629.131 Q151.391 629.131 150.495 629.378 Q149.631 629.625 148.365 630.335 Q147.099 631.045 146.111 632.805 Q145.154 634.565 144.69 637.221 Q144.196 640.649 144.196 648.862 Z" fill="#000000" fill-rule="nonzero" fill-opacity="1" /><path clip-path="url(#clip000)" d="M174.424 668.841 Q173.467 667.822 173.467 666.494 Q173.467 665.167 174.424 664.209 Q175.382 663.221 176.833 663.221 Q178.222 663.221 179.149 664.148 Q180.106 665.043 180.106 666.525 Q180.106 667.977 179.087 668.934 Q178.099 669.86 176.833 669.86 Q175.382 669.86 174.424 668.841 Z" fill="#000000" fill-rule="nonzero" fill-opacity="1" /><path clip-path="url(#clip000)" d="M188.813 659.67 Q188.813 657.786 189.832 657.076 Q190.851 656.335 191.931 656.335 Q193.383 656.335 194.216 657.262 Q195.081 658.157 195.081 659.423 Q195.081 660.689 194.216 661.616 Q193.383 662.511 191.931 662.511 Q191.221 662.511 190.851 662.387 Q191.684 665.29 194.216 667.39 Q196.779 669.49 200.145 669.49 Q204.375 669.49 206.907 665.383 Q208.419 662.727 208.419 656.706 Q208.419 651.394 207.277 648.739 Q205.517 644.694 201.905 644.694 Q196.779 644.694 193.753 649.109 Q193.383 649.665 192.95 649.696 Q192.333 649.696 192.178 649.356 Q192.055 648.986 192.055 648.029 L192.055 629.316 Q192.055 627.803 192.672 627.803 Q192.919 627.803 193.444 627.988 Q197.427 629.748 201.843 629.779 Q206.382 629.779 210.457 627.926 Q210.766 627.741 210.951 627.741 Q211.569 627.741 211.6 628.451 Q211.6 628.698 211.075 629.439 Q210.581 630.15 209.5 631.107 Q208.419 632.033 207.03 632.929 Q205.641 633.824 203.603 634.442 Q201.596 635.029 199.373 635.029 Q196.717 635.029 194 634.195 L194 646.516 Q197.273 643.304 202.028 643.304 Q207.092 643.304 210.581 647.38 Q214.07 651.456 214.07 657.138 Q214.07 663.098 209.932 667.174 Q205.826 671.25 200.268 671.25 Q195.204 671.25 191.993 667.637 Q188.813 664.024 188.813 659.67 Z" fill="#000000" fill-rule="nonzero" fill-opacity="1" /><path clip-path="url(#clip000)" d="M219.751 649.634 Q219.751 640.34 222.098 635.276 Q225.371 627.741 233.09 627.741 Q234.726 627.741 236.424 628.204 Q238.154 628.637 240.315 630.335 Q242.507 632.033 243.835 634.812 Q246.367 640.185 246.367 649.634 Q246.367 658.867 244.02 663.901 Q240.593 671.25 233.028 671.25 Q230.187 671.25 227.285 669.798 Q224.413 668.347 222.592 664.858 Q219.751 659.639 219.751 649.634 M225 648.862 Q225 658.404 225.679 662.202 Q226.451 666.309 228.551 668.1 Q230.681 669.86 233.028 669.86 Q235.56 669.86 237.659 667.977 Q239.79 666.062 240.438 661.955 Q241.149 657.91 241.118 648.862 Q241.118 640.062 240.5 636.542 Q239.666 632.435 237.443 630.798 Q235.251 629.131 233.028 629.131 Q232.194 629.131 231.299 629.378 Q230.434 629.625 229.168 630.335 Q227.903 631.045 226.914 632.805 Q225.957 634.565 225.494 637.221 Q225 640.649 225 648.862 Z" fill="#000000" fill-rule="nonzero" fill-opacity="1" /><path clip-path="url(#clip000)" d="M139.627 390.185 Q139.627 380.89 141.973 375.826 Q145.246 368.291 152.965 368.291 Q154.602 368.291 156.3 368.755 Q158.029 369.187 160.19 370.885 Q162.383 372.584 163.71 375.363 Q166.242 380.736 166.242 390.185 Q166.242 399.418 163.896 404.451 Q160.468 411.8 152.904 411.8 Q150.063 411.8 147.161 410.349 Q144.289 408.898 142.467 405.408 Q139.627 400.19 139.627 390.185 M144.876 389.413 Q144.876 398.955 145.555 402.753 Q146.327 406.86 148.426 408.651 Q150.557 410.411 152.904 410.411 Q155.435 410.411 157.535 408.527 Q159.666 406.613 160.314 402.506 Q161.024 398.46 160.993 389.413 Q160.993 380.612 160.376 377.092 Q159.542 372.985 157.319 371.349 Q155.127 369.681 152.904 369.681 Q152.07 369.681 151.174 369.928 Q150.31 370.175 149.044 370.885 Q147.778 371.596 146.79 373.356 Q145.833 375.116 145.37 377.771 Q144.876 381.199 144.876 389.413 Z" fill="#000000" fill-rule="nonzero" fill-opacity="1" /><path clip-path="url(#clip000)" d="M175.104 409.392 Q174.147 408.373 174.147 407.045 Q174.147 405.717 175.104 404.76 Q176.061 403.772 177.512 403.772 Q178.902 403.772 179.828 404.698 Q180.785 405.594 180.785 407.076 Q180.785 408.527 179.766 409.484 Q178.778 410.411 177.512 410.411 Q176.061 410.411 175.104 409.392 Z" fill="#000000" fill-rule="nonzero" fill-opacity="1" /><path clip-path="url(#clip000)" d="M189.894 380.674 L191.962 367.674 L193.537 367.674 Q193.722 368.446 194.031 368.786 Q194.371 369.125 196.161 369.403 Q197.983 369.681 201.658 369.681 L217.003 369.681 Q217.003 371.132 216.447 371.904 L207.895 383.916 Q205.177 387.715 203.973 394.724 Q203.263 399.418 203.294 405.099 L203.294 408.311 Q203.294 411.8 200.361 411.8 Q197.458 411.8 197.458 408.311 Q197.458 396.237 205.239 384.534 Q206.073 383.33 209.13 379.037 Q212.217 374.745 212.341 374.56 L199.249 374.56 Q193.506 374.56 193.043 374.931 Q192.425 375.486 191.468 380.674 L189.894 380.674 Z" fill="#000000" fill-rule="nonzero" fill-opacity="1" /><path clip-path="url(#clip000)" d="M221.11 400.221 Q221.11 398.337 222.129 397.627 Q223.148 396.886 224.228 396.886 Q225.679 396.886 226.513 397.812 Q227.378 398.708 227.378 399.974 Q227.378 401.24 226.513 402.166 Q225.679 403.061 224.228 403.061 Q223.518 403.061 223.148 402.938 Q223.981 405.841 226.513 407.94 Q229.076 410.04 232.441 410.04 Q236.671 410.04 239.203 405.933 Q240.716 403.278 240.716 397.256 Q240.716 391.945 239.574 389.289 Q237.814 385.244 234.201 385.244 Q229.076 385.244 226.05 389.66 Q225.679 390.216 225.247 390.247 Q224.63 390.247 224.475 389.907 Q224.352 389.536 224.352 388.579 L224.352 369.866 Q224.352 368.353 224.969 368.353 Q225.216 368.353 225.741 368.539 Q229.724 370.299 234.14 370.33 Q238.678 370.33 242.754 368.477 Q243.063 368.291 243.248 368.291 Q243.866 368.291 243.897 369.002 Q243.897 369.249 243.372 369.99 Q242.878 370.7 241.797 371.657 Q240.716 372.584 239.327 373.479 Q237.937 374.375 235.9 374.992 Q233.893 375.579 231.669 375.579 Q229.014 375.579 226.297 374.745 L226.297 387.066 Q229.57 383.855 234.325 383.855 Q239.389 383.855 242.878 387.931 Q246.367 392.007 246.367 397.688 Q246.367 403.648 242.229 407.724 Q238.123 411.8 232.565 411.8 Q227.501 411.8 224.29 408.187 Q221.11 404.575 221.11 400.221 Z" fill="#000000" fill-rule="nonzero" fill-opacity="1" /><path clip-path="url(#clip000)" d="M142.097 114.863 L142.097 112.887 Q149.692 112.887 153.614 108.842 Q154.694 108.842 154.88 109.089 Q155.065 109.336 155.065 110.479 L155.065 145.959 Q155.065 147.842 155.991 148.429 Q156.918 149.016 160.962 149.016 L162.969 149.016 L162.969 150.961 Q160.746 150.776 152.718 150.776 Q144.69 150.776 142.498 150.961 L142.498 149.016 L144.505 149.016 Q148.488 149.016 149.445 148.46 Q150.403 147.873 150.403 145.959 L150.403 113.196 Q147.099 114.863 142.097 114.863 Z" fill="#000000" fill-rule="nonzero" fill-opacity="1" /><path clip-path="url(#clip000)" d="M174.424 149.942 Q173.467 148.923 173.467 147.595 Q173.467 146.268 174.424 145.31 Q175.382 144.322 176.833 144.322 Q178.222 144.322 179.149 145.249 Q180.106 146.144 180.106 147.626 Q180.106 149.078 179.087 150.035 Q178.099 150.961 176.833 150.961 Q175.382 150.961 174.424 149.942 Z" fill="#000000" fill-rule="nonzero" fill-opacity="1" /><path clip-path="url(#clip000)" d="M188.134 130.735 Q188.134 121.441 190.48 116.376 Q193.753 108.842 201.472 108.842 Q203.109 108.842 204.807 109.305 Q206.536 109.737 208.697 111.436 Q210.89 113.134 212.217 115.913 Q214.749 121.286 214.749 130.735 Q214.749 139.968 212.403 145.001 Q208.975 152.351 201.411 152.351 Q198.57 152.351 195.667 150.899 Q192.796 149.448 190.974 145.959 Q188.134 140.74 188.134 130.735 M193.383 129.963 Q193.383 139.505 194.062 143.303 Q194.834 147.41 196.933 149.201 Q199.064 150.961 201.411 150.961 Q203.942 150.961 206.042 149.078 Q208.172 147.163 208.821 143.056 Q209.531 139.011 209.5 129.963 Q209.5 121.163 208.883 117.643 Q208.049 113.536 205.826 111.899 Q203.634 110.232 201.411 110.232 Q200.577 110.232 199.681 110.479 Q198.817 110.726 197.551 111.436 Q196.285 112.146 195.297 113.906 Q194.34 115.666 193.877 118.322 Q193.383 121.749 193.383 129.963 Z" fill="#000000" fill-rule="nonzero" fill-opacity="1" /><path clip-path="url(#clip000)" d="M219.751 130.735 Q219.751 121.441 222.098 116.376 Q225.371 108.842 233.09 108.842 Q234.726 108.842 236.424 109.305 Q238.154 109.737 240.315 111.436 Q242.507 113.134 243.835 115.913 Q246.367 121.286 246.367 130.735 Q246.367 139.968 244.02 145.001 Q240.593 152.351 233.028 152.351 Q230.187 152.351 227.285 150.899 Q224.413 149.448 222.592 145.959 Q219.751 140.74 219.751 130.735 M225 129.963 Q225 139.505 225.679 143.303 Q226.451 147.41 228.551 149.201 Q230.681 150.961 233.028 150.961 Q235.56 150.961 237.659 149.078 Q239.79 147.163 240.438 143.056 Q241.149 139.011 241.118 129.963 Q241.118 121.163 240.5 117.643 Q239.666 113.536 237.443 111.899 Q235.251 110.232 233.028 110.232 Q232.194 110.232 231.299 110.479 Q230.434 110.726 229.168 111.436 Q227.903 112.146 226.914 113.906 Q225.957 115.666 225.494 118.322 Q225 121.749 225 129.963 Z" fill="#000000" fill-rule="nonzero" fill-opacity="1" /><path clip-path="url(#clip000)" d="M92.0135 963.595 L90.0683 963.595 L90.0683 962.082 Q90.0683 958.655 89.5125 957.883 Q88.9259 957.08 87.0733 957.08 L53.7576 957.08 Q51.9359 957.08 51.3801 957.883 Q50.7934 958.686 50.7934 962.082 L50.7934 963.595 L48.8174 963.595 L48.8174 941.27 Q48.8174 934.878 52.3373 930.616 Q55.8572 926.355 60.5813 926.355 Q65.2745 926.355 68.6709 930.709 Q72.0365 935.032 72.0365 940.776 L72.0365 951.46 L87.0733 951.46 Q88.895 951.46 89.4817 950.688 Q90.0683 949.885 90.0683 946.457 L90.0683 944.944 L92.0135 944.944 Q91.8283 947.168 91.8283 954.301 Q91.8283 961.372 92.0135 963.595 M70.4 951.645 L70.4 942.937 Q70.4 940.096 69.5972 938.027 Q68.7944 935.959 67.8373 935.032 Q66.8492 934.075 65.2745 933.55 Q63.6689 932.994 62.8044 932.932 Q61.909 932.871 60.5813 932.871 Q59.1918 932.871 58.3273 932.932 Q57.4319 932.994 55.8572 933.55 Q54.2516 934.075 53.2944 935.032 Q52.3064 935.959 51.5654 938.027 Q50.7934 940.065 50.7934 942.937 L50.7934 948.557 Q50.7934 950.719 51.2257 951.182 Q51.658 951.645 53.3253 951.645 L70.4 951.645 Z" fill="#000000" fill-rule="nonzero" fill-opacity="1" /><path clip-path="url(#clip000)" d="M92.0135 921.075 L90.0683 921.075 Q90.0683 917.709 89.6669 916.937 Q89.2347 916.134 87.1968 916.134 L70.2456 916.134 Q67.899 916.134 67.3124 916.968 Q66.7257 917.771 66.7257 921.075 L64.7496 921.075 L64.0703 912.274 L71.0175 912.274 Q68.3004 911.379 66.2008 909.495 Q64.0703 907.581 64.0703 904.493 Q64.0703 902.455 65.2128 901.158 Q66.3552 899.83 67.9299 899.83 Q69.3193 899.83 70.0295 900.694 Q70.7088 901.528 70.7088 902.547 Q70.7088 903.69 69.9986 904.493 Q69.2576 905.265 67.9916 905.265 Q67.2197 905.265 66.6331 904.925 Q66.0155 904.554 65.7994 904.276 Q65.5833 903.999 65.5215 903.813 Q65.4598 903.937 65.4598 904.493 Q65.4598 907.982 68.9488 909.989 Q72.407 911.965 77.3472 911.965 L87.0733 911.965 Q88.895 911.965 89.4817 911.224 Q90.0683 910.452 90.0683 907.148 L90.0683 905.82 L92.0135 905.82 Q91.8283 908.353 91.8283 913.849 Q91.8283 914.621 91.8592 915.825 Q91.89 917.03 91.9518 918.604 Q92.0135 920.179 92.0135 921.075 Z" fill="#000000" fill-rule="nonzero" fill-opacity="1" /><path clip-path="url(#clip000)" d="M88.6171 892.203 Q84.4797 896.371 78.4896 896.371 Q72.4687 896.371 68.0843 892.295 Q63.6689 888.188 63.6689 882.321 Q63.6689 876.578 68.0534 872.471 Q72.407 868.333 78.4896 868.333 Q84.4488 868.333 88.5863 872.502 Q92.7237 876.64 92.7237 882.383 Q92.7237 888.003 88.6171 892.203 M77.9647 891.122 Q84.1092 891.122 86.888 889.516 Q91.1181 887.046 91.1181 882.321 Q91.1181 879.975 89.8522 878.029 Q88.5863 876.053 86.4558 874.972 Q83.6769 873.583 77.9647 873.583 Q71.8821 873.583 69.1958 875.25 Q65.0893 877.72 65.0893 882.383 Q65.0893 884.421 66.1699 886.428 Q67.2197 888.405 69.3193 889.609 Q72.0982 891.122 77.9647 891.122 Z" fill="#000000" fill-rule="nonzero" fill-opacity="1" /><path clip-path="url(#clip000)" d="M50.7934 864.751 L48.8174 864.751 L48.1381 855.642 L68.1769 855.642 Q64.0703 851.967 64.0703 846.965 Q64.0703 841.53 68.2387 837.547 Q72.407 833.563 78.3661 833.563 Q84.3871 833.563 88.5554 837.732 Q92.7237 841.9 92.7237 847.675 Q92.7237 852.924 88.0922 855.951 Q91.9518 858.174 92.0135 858.236 L92.0135 859.81 L54.3134 859.81 Q51.9668 859.81 51.3801 860.644 Q50.7934 861.478 50.7934 864.751 M84.8193 855.456 Q86.147 855.456 87.4747 854.561 Q91.3034 852.06 91.3034 847.984 Q91.3034 847.953 91.3034 847.922 Q91.3034 843.506 87.2586 840.758 Q84.2327 838.813 78.3044 838.813 Q72.4379 838.813 69.5046 840.634 Q65.4598 843.167 65.4598 847.273 Q65.4598 851.905 69.5046 854.746 Q70.5235 855.456 71.7894 855.456 L84.8193 855.456 Z" fill="#000000" fill-rule="nonzero" fill-opacity="1" /><path clip-path="url(#clip000)" d="M85.9926 828.777 Q80.6201 828.777 77.7795 822.447 Q75.9578 818.648 75.4946 810.805 L73.1789 810.805 Q69.2576 810.805 67.1889 812.874 Q65.0893 814.912 65.0893 817.506 Q65.0893 822.138 67.9916 824.361 Q68.0534 822.477 69.0106 821.798 Q69.9369 821.119 70.894 821.119 Q72.16 821.119 72.9936 821.922 Q73.7964 822.694 73.7964 824.021 Q73.7964 825.287 73.0245 826.121 Q72.2217 826.955 70.8323 826.955 Q67.7446 826.955 65.7068 824.176 Q63.6689 821.366 63.6689 817.382 Q63.6689 812.195 67.158 808.736 Q68.2387 807.655 69.6281 807.131 Q71.0175 806.575 71.9438 806.513 Q72.8392 806.451 74.6301 806.451 L87.2586 806.451 Q87.6291 806.451 88.2466 806.328 Q88.8641 806.204 89.6669 805.648 Q90.4388 805.062 90.4388 804.104 Q90.4388 801.819 86.394 801.85 L82.8432 801.85 L82.8432 800.244 L86.394 800.244 Q89.7596 800.244 91.0872 802.035 Q92.3841 803.796 92.3841 805.432 Q92.3841 807.532 90.8402 808.86 Q89.2964 810.188 87.1968 810.373 Q89.6052 811.33 91.1799 813.522 Q92.7237 815.684 92.7237 818.648 Q92.7237 820.934 92.137 823.095 Q91.5813 825.226 90.0066 827.017 Q88.401 828.777 85.9926 828.777 M85.9309 823.898 Q88.2775 823.898 89.7904 822.23 Q91.3034 820.563 91.3034 818.216 Q91.3034 815.561 89.2655 813.183 Q87.1968 810.805 83.152 810.805 L76.8223 810.805 Q77.0693 817.815 79.8791 820.872 Q82.658 823.898 85.9309 823.898 Z" fill="#000000" fill-rule="nonzero" fill-opacity="1" /><path clip-path="url(#clip000)" d="M50.7934 798.052 L48.8174 798.052 L48.1381 788.943 L68.1769 788.943 Q64.0703 785.268 64.0703 780.266 Q64.0703 774.831 68.2387 770.847 Q72.407 766.864 78.3661 766.864 Q84.3871 766.864 88.5554 771.033 Q92.7237 775.201 92.7237 780.976 Q92.7237 786.225 88.0922 789.251 Q91.9518 791.475 92.0135 791.537 L92.0135 793.111 L54.3134 793.111 Q51.9668 793.111 51.3801 793.945 Q50.7934 794.779 50.7934 798.052 M84.8193 788.757 Q86.147 788.757 87.4747 787.862 Q91.3034 785.361 91.3034 781.285 Q91.3034 781.254 91.3034 781.223 Q91.3034 776.807 87.2586 774.059 Q84.2327 772.113 78.3044 772.113 Q72.4379 772.113 69.5046 773.935 Q65.4598 776.467 65.4598 780.574 Q65.4598 785.206 69.5046 788.047 Q70.5235 788.757 71.7894 788.757 L84.8193 788.757 Z" fill="#000000" fill-rule="nonzero" fill-opacity="1" /><path clip-path="url(#clip000)" d="M92.0135 762.634 L90.0683 762.634 Q90.0683 759.268 89.6669 758.496 Q89.2347 757.724 87.1968 757.724 L70.1839 757.724 Q67.8373 757.724 67.2815 758.527 Q66.7257 759.299 66.7257 762.387 L64.7496 762.387 L64.0703 753.555 L87.2586 753.555 Q89.142 753.555 89.6052 752.876 Q90.0683 752.196 90.0683 749.108 L92.0135 749.108 Q91.8283 755.562 91.8283 755.686 Q91.8283 756.55 92.0135 762.634 M53.0474 759.978 Q51.7815 759.978 50.7626 759.021 Q49.7128 758.033 49.7128 756.643 Q49.7128 755.253 50.6699 754.265 Q51.5962 753.277 53.0783 753.277 Q54.5295 753.277 55.4867 754.265 Q56.413 755.253 56.413 756.643 Q56.413 758.094 55.394 759.052 Q54.3751 759.978 53.0474 759.978 Z" fill="#000000" fill-rule="nonzero" fill-opacity="1" /><path clip-path="url(#clip000)" d="M92.0135 745.125 L90.0683 745.125 Q90.0683 741.759 89.6669 740.987 Q89.2347 740.215 87.1968 740.215 L54.3134 740.215 Q51.9668 740.215 51.3801 741.049 Q50.7934 741.852 50.7934 745.125 L48.8174 745.125 L48.1381 736.047 L87.1968 736.047 Q89.2347 736.047 89.6669 735.244 Q90.0683 734.441 90.0683 731.106 L92.0135 731.106 Q92.0135 731.878 91.9518 733.484 Q91.89 735.089 91.8592 736.263 Q91.8283 737.436 91.8283 738.115 Q91.8283 738.857 92.0135 745.125 Z" fill="#000000" fill-rule="nonzero" fill-opacity="1" /><path clip-path="url(#clip000)" d="M92.0135 727.617 L90.0683 727.617 Q90.0683 724.251 89.6669 723.479 Q89.2347 722.707 87.1968 722.707 L70.1839 722.707 Q67.8373 722.707 67.2815 723.51 Q66.7257 724.282 66.7257 727.37 L64.7496 727.37 L64.0703 718.538 L87.2586 718.538 Q89.142 718.538 89.6052 717.859 Q90.0683 717.179 90.0683 714.091 L92.0135 714.091 Q91.8283 720.545 91.8283 720.669 Q91.8283 721.533 92.0135 727.617 M53.0474 724.961 Q51.7815 724.961 50.7626 724.004 Q49.7128 723.016 49.7128 721.626 Q49.7128 720.236 50.6699 719.248 Q51.5962 718.26 53.0783 718.26 Q54.5295 718.26 55.4867 719.248 Q56.413 720.236 56.413 721.626 Q56.413 723.077 55.394 724.035 Q54.3751 724.961 53.0474 724.961 Z" fill="#000000" fill-rule="nonzero" fill-opacity="1" /><path clip-path="url(#clip000)" d="M66.7257 711.004 L65.3363 711.004 Q65.2128 708.101 63.1749 706.186 Q61.1062 704.241 58.5743 703.593 Q56.0424 702.913 53.1092 702.851 L53.1092 701.277 L64.7496 701.277 L64.7496 692.229 L66.7257 692.229 L66.7257 701.277 L84.2944 701.277 Q91.1181 701.277 91.1181 697.015 Q91.1181 695.193 89.2655 693.989 Q87.3821 692.785 84.0474 692.785 L80.5584 692.785 L80.5584 691.21 L84.1709 691.21 Q87.5982 691.21 90.161 692.785 Q92.7237 694.36 92.7237 697.478 Q92.7237 698.621 92.4149 699.764 Q92.137 700.875 91.396 702.357 Q90.6241 703.809 88.7715 704.735 Q86.888 705.631 84.1709 705.631 L66.7257 705.631 L66.7257 711.004 Z" fill="#000000" fill-rule="nonzero" fill-opacity="1" /><path clip-path="url(#clip000)" d="M99.8562 688.246 Q98.5285 688.246 97.8183 687.474 Q97.139 686.671 97.139 685.59 Q97.139 684.447 97.8492 683.706 Q98.5902 682.934 99.7944 682.934 Q102.141 682.934 102.45 685.405 Q103.592 684.2 103.592 682.44 Q103.592 680.557 102.203 679.044 Q100.813 677.5 99.4856 676.851 Q98.158 676.172 95.7496 675.215 Q93.8661 674.319 92.0135 673.64 L68.9179 683.12 Q67.405 683.737 67.0653 684.694 Q66.7257 685.652 66.7257 688.246 L64.7496 688.246 Q64.9349 685.405 64.9349 682.101 Q64.9349 680.155 64.7496 675.215 L66.7257 675.215 Q66.7257 678.766 68.3622 678.766 Q68.5474 678.766 69.5046 678.395 L86.5175 671.355 L70.9558 664.963 Q70.0604 664.592 69.4428 664.592 Q66.8492 664.592 66.7257 667.557 L64.7496 667.557 Q64.9349 663.388 64.9349 662.06 Q64.9349 659.466 64.7496 657.336 L66.7257 657.336 Q66.7257 661.566 70.7705 663.203 L97.7566 674.35 Q104.951 677.376 104.982 682.44 Q104.982 684.849 103.5 686.547 Q102.018 688.246 99.8562 688.246 Z" fill="#000000" fill-rule="nonzero" fill-opacity="1" /><path clip-path="url(#clip000)" d="M102.326 633.342 Q102.326 629.977 101.894 629.205 Q101.493 628.402 99.4856 628.402 L69.8751 628.402 Q67.7755 628.402 67.2506 629.205 Q66.7257 629.977 66.7257 633.342 L64.7496 633.342 L64.0703 624.233 L68.2387 624.233 Q64.0703 620.435 64.0703 615.371 Q64.0703 609.998 68.2387 606.076 Q72.407 602.154 78.3661 602.154 Q84.3871 602.154 88.5554 606.323 Q92.7237 610.492 92.7237 616.266 Q92.7237 619.416 91.1181 621.547 Q89.4817 623.646 88.2775 624.048 L88.8641 624.048 L99.4856 624.048 Q101.523 624.048 101.925 623.245 Q102.326 622.442 102.326 619.107 L104.271 619.107 Q104.086 625.746 104.086 626.24 Q104.086 626.858 104.271 633.342 L102.326 633.342 M84.8193 624.048 Q85.7765 624.048 86.1161 623.924 Q86.4558 623.77 87.4747 623.152 Q91.3034 620.651 91.3034 616.575 Q91.3034 616.544 91.3034 616.513 Q91.3034 612.9 87.6291 610.152 Q83.9239 607.404 78.3661 607.404 Q73.0554 607.404 69.3502 609.905 Q65.645 612.406 65.645 615.865 Q65.645 618.335 66.9727 620.497 Q68.3004 622.658 70.7088 624.048 L84.8193 624.048 Z" fill="#000000" fill-rule="nonzero" fill-opacity="1" /><path clip-path="url(#clip000)" d="M92.0135 598.264 L90.0683 598.264 Q90.0683 594.898 89.6669 594.126 Q89.2347 593.323 87.1968 593.323 L70.2456 593.323 Q67.899 593.323 67.3124 594.157 Q66.7257 594.96 66.7257 598.264 L64.7496 598.264 L64.0703 589.463 L71.0175 589.463 Q68.3004 588.568 66.2008 586.684 Q64.0703 584.769 64.0703 581.681 Q64.0703 579.643 65.2128 578.347 Q66.3552 577.019 67.9299 577.019 Q69.3193 577.019 70.0295 577.883 Q70.7088 578.717 70.7088 579.736 Q70.7088 580.879 69.9986 581.681 Q69.2576 582.453 67.9916 582.453 Q67.2197 582.453 66.6331 582.114 Q66.0155 581.743 65.7994 581.465 Q65.5833 581.187 65.5215 581.002 Q65.4598 581.126 65.4598 581.681 Q65.4598 585.171 68.9488 587.178 Q72.407 589.154 77.3472 589.154 L87.0733 589.154 Q88.895 589.154 89.4817 588.413 Q90.0683 587.641 90.0683 584.337 L90.0683 583.009 L92.0135 583.009 Q91.8283 585.541 91.8283 591.038 Q91.8283 591.81 91.8592 593.014 Q91.89 594.218 91.9518 595.793 Q92.0135 597.368 92.0135 598.264 Z" fill="#000000" fill-rule="nonzero" fill-opacity="1" /><path clip-path="url(#clip000)" d="M78.0883 573.56 Q72.1291 573.56 67.899 569.731 Q63.6689 565.902 63.6689 560.406 Q63.6689 554.847 67.2815 551.976 Q70.894 549.073 76.0813 549.073 Q77.0384 549.073 77.2237 549.32 Q77.409 549.567 77.409 550.648 L77.409 568.311 Q83.8622 568.311 86.888 566.396 Q91.1181 563.741 91.1181 559.263 Q91.1181 558.646 90.9946 557.904 Q90.8711 557.163 90.3462 555.65 Q89.7904 554.137 88.3392 552.809 Q86.888 551.482 84.6032 550.71 Q83.7078 550.524 83.7386 549.907 Q83.7386 549.073 84.4797 549.073 Q85.0355 549.073 86.3014 549.691 Q87.5365 550.277 89.0185 551.42 Q90.5006 552.562 91.6121 554.786 Q92.7237 556.978 92.7237 559.634 Q92.7237 565.192 88.5245 569.392 Q84.2944 573.56 78.0883 573.56 M76.0813 568.249 L76.0813 553.242 Q74.7536 553.242 73.2715 553.489 Q71.7894 553.705 69.7516 554.384 Q67.6829 555.033 66.3861 556.577 Q65.0893 558.121 65.0893 560.406 Q65.0893 561.425 65.5215 562.536 Q65.9538 563.617 67.0036 564.945 Q68.0534 566.273 70.4309 567.199 Q72.8084 568.125 76.0813 568.249 Z" fill="#000000" fill-rule="nonzero" fill-opacity="1" /><path clip-path="url(#clip000)" d="M78.4279 545.09 Q72.407 545.09 68.2387 540.89 Q64.0703 536.69 64.0703 531.009 Q64.0703 526.192 67.9916 523.042 L54.3134 523.042 Q51.9668 523.042 51.3801 523.876 Q50.7934 524.678 50.7934 527.952 L48.8174 527.952 L48.1381 518.842 L86.5175 518.842 Q88.8641 518.842 89.4817 518.039 Q90.0683 517.206 90.0683 513.933 L92.0135 513.933 L92.7237 523.227 L88.5245 523.227 Q92.6928 526.5 92.7237 531.688 Q92.7237 537.123 88.5554 541.106 Q84.3871 545.09 78.4279 545.09 M78.4896 539.84 Q84.3562 539.84 87.2586 538.018 Q91.3034 535.486 91.3034 531.379 Q91.3034 526.686 86.888 523.906 Q85.8074 523.196 84.5414 523.227 L71.5733 523.227 Q70.3074 523.227 69.2576 523.906 Q65.4598 526.5 65.4598 530.731 Q65.4598 535.147 69.5046 537.895 Q72.5305 539.84 78.4896 539.84 Z" fill="#000000" fill-rule="nonzero" fill-opacity="1" /><path clip-path="url(#clip000)" d="M92.0135 510.073 L90.0683 510.073 Q90.0683 506.707 89.6669 505.935 Q89.2347 505.163 87.1968 505.163 L70.1839 505.163 Q67.8373 505.163 67.2815 505.966 Q66.7257 506.738 66.7257 509.826 L64.7496 509.826 L64.0703 500.994 L87.2586 500.994 Q89.142 500.994 89.6052 500.315 Q90.0683 499.635 90.0683 496.548 L92.0135 496.548 Q91.8283 503.001 91.8283 503.125 Q91.8283 503.989 92.0135 510.073 M53.0474 507.417 Q51.7815 507.417 50.7626 506.46 Q49.7128 505.472 49.7128 504.082 Q49.7128 502.692 50.6699 501.704 Q51.5962 500.716 53.0783 500.716 Q54.5295 500.716 55.4867 501.704 Q56.413 502.692 56.413 504.082 Q56.413 505.533 55.394 506.491 Q54.3751 507.417 53.0474 507.417 Z" fill="#000000" fill-rule="nonzero" fill-opacity="1" /><path clip-path="url(#clip000)" d="M88.5554 488.488 Q84.3562 492.502 78.3661 492.502 Q72.3452 492.502 68.0225 488.55 Q63.6689 484.597 63.6689 478.792 Q63.6689 474.932 65.5215 472.029 Q67.3432 469.127 70.4618 469.127 Q71.8512 469.127 72.654 469.961 Q73.4259 470.763 73.4259 472.029 Q73.4259 473.357 72.6231 474.16 Q71.7894 474.932 70.5235 474.932 Q69.9677 474.932 69.412 474.747 Q68.8562 474.562 68.2695 473.882 Q67.6829 473.172 67.5902 471.968 Q65.2745 474.222 65.2745 478.607 Q65.2745 478.668 65.2745 478.73 Q65.2745 481.942 68.3004 484.597 Q71.3263 487.253 78.2426 487.253 Q81.8552 487.253 84.5106 486.388 Q87.1351 485.493 88.4936 484.041 Q89.8522 482.59 90.5006 481.17 Q91.1181 479.749 91.1181 478.36 Q91.1181 472.153 84.4797 470.053 Q83.8622 469.868 83.8622 469.25 Q83.8622 468.417 84.4797 468.417 Q84.7884 468.417 85.5912 468.664 Q86.394 468.911 87.66 469.683 Q88.9259 470.455 90.0374 471.566 Q91.1181 472.647 91.9209 474.592 Q92.7237 476.507 92.7237 478.915 Q92.7237 484.474 88.5554 488.488 Z" fill="#000000" fill-rule="nonzero" fill-opacity="1" /><path clip-path="url(#clip000)" d="M66.7257 465.39 L65.3363 465.39 Q65.2128 462.488 63.1749 460.573 Q61.1062 458.628 58.5743 457.979 Q56.0424 457.3 53.1092 457.238 L53.1092 455.663 L64.7496 455.663 L64.7496 446.616 L66.7257 446.616 L66.7257 455.663 L84.2944 455.663 Q91.1181 455.663 91.1181 451.402 Q91.1181 449.58 89.2655 448.376 Q87.3821 447.172 84.0474 447.172 L80.5584 447.172 L80.5584 445.597 L84.1709 445.597 Q87.5982 445.597 90.161 447.172 Q92.7237 448.747 92.7237 451.865 Q92.7237 453.008 92.4149 454.15 Q92.137 455.262 91.396 456.744 Q90.6241 458.196 88.7715 459.122 Q86.888 460.017 84.1709 460.017 L66.7257 460.017 L66.7257 465.39 Z" fill="#000000" fill-rule="nonzero" fill-opacity="1" /><path clip-path="url(#clip000)" d="M92.0135 439.977 L90.0683 439.977 Q90.0683 436.611 89.6669 435.839 Q89.2347 435.067 87.1968 435.067 L70.1839 435.067 Q67.8373 435.067 67.2815 435.87 Q66.7257 436.642 66.7257 439.73 L64.7496 439.73 L64.0703 430.898 L87.2586 430.898 Q89.142 430.898 89.6052 430.219 Q90.0683 429.54 90.0683 426.452 L92.0135 426.452 Q91.8283 432.905 91.8283 433.029 Q91.8283 433.894 92.0135 439.977 M53.0474 437.321 Q51.7815 437.321 50.7626 436.364 Q49.7128 435.376 49.7128 433.986 Q49.7128 432.597 50.6699 431.609 Q51.5962 430.62 53.0783 430.62 Q54.5295 430.62 55.4867 431.609 Q56.413 432.597 56.413 433.986 Q56.413 435.438 55.394 436.395 Q54.3751 437.321 53.0474 437.321 Z" fill="#000000" fill-rule="nonzero" fill-opacity="1" /><path clip-path="url(#clip000)" d="M88.6171 418.639 Q84.4797 422.808 78.4896 422.808 Q72.4687 422.808 68.0843 418.732 Q63.6689 414.625 63.6689 408.758 Q63.6689 403.014 68.0534 398.907 Q72.407 394.77 78.4896 394.77 Q84.4488 394.77 88.5863 398.938 Q92.7237 403.076 92.7237 408.82 Q92.7237 414.44 88.6171 418.639 M77.9647 417.559 Q84.1092 417.559 86.888 415.953 Q91.1181 413.482 91.1181 408.758 Q91.1181 406.411 89.8522 404.466 Q88.5863 402.489 86.4558 401.409 Q83.6769 400.019 77.9647 400.019 Q71.8821 400.019 69.1958 401.687 Q65.0893 404.157 65.0893 408.82 Q65.0893 410.858 66.1699 412.865 Q67.2197 414.841 69.3193 416.045 Q72.0982 417.559 77.9647 417.559 Z" fill="#000000" fill-rule="nonzero" fill-opacity="1" /><path clip-path="url(#clip000)" d="M92.0135 390.91 L90.0683 390.91 Q90.0683 387.544 89.6669 386.772 Q89.2347 386 87.1968 386 L70.2456 386 Q67.899 386 67.3124 386.834 Q66.7257 387.637 66.7257 390.91 L64.7496 390.91 L64.0703 382.017 L70.7088 382.017 Q64.0703 379.052 64.0703 372.66 Q64.0703 367.905 66.4169 366.021 Q67.9916 364.632 69.7516 364.354 Q71.5116 364.045 76.0813 364.045 L88.154 364.045 Q89.4817 363.983 89.7904 362.964 Q90.0683 361.945 90.0683 359.104 L92.0135 359.104 Q91.8283 365.558 91.8283 366.206 Q91.8283 366.7 92.0135 373.34 L90.0683 373.34 Q90.0683 369.974 89.6669 369.202 Q89.2347 368.399 87.1968 368.399 L72.4687 368.399 Q69.2576 368.399 67.3741 369.387 Q65.4598 370.375 65.4598 373.092 Q65.4598 376.366 68.2078 378.99 Q70.9558 381.615 75.5873 381.615 L87.1968 381.615 Q89.2347 381.615 89.6669 380.843 Q90.0683 380.04 90.0683 376.705 L92.0135 376.705 Q91.8283 383.159 91.8283 383.777 Q91.8283 384.271 92.0135 390.91 Z" fill="#000000" fill-rule="nonzero" fill-opacity="1" /><path clip-path="url(#clip000)" d="M91.1799 355.769 L82.8432 355.769 Q82.1331 355.769 81.8861 355.738 Q81.639 355.707 81.4538 355.522 Q81.2685 355.337 81.2685 354.966 Q81.2685 354.534 81.4538 354.38 Q81.639 354.194 82.3492 354.071 Q86.7028 353.114 89.0185 351.076 Q91.3034 349.007 91.3034 345.27 Q91.3034 341.719 89.7287 339.928 Q88.154 338.137 85.5604 338.137 Q80.9289 338.137 79.7556 344.714 Q78.9837 348.513 78.4896 350.087 Q77.9647 351.662 76.8223 353.052 Q74.5992 355.769 71.4498 355.769 Q68.3004 355.769 65.9847 353.392 Q63.6689 350.983 63.6689 345.672 Q63.6689 342.121 65.4598 339.712 Q64.904 339.002 64.4408 338.631 Q63.6689 337.798 63.6689 337.365 Q63.6689 336.871 64.0086 336.779 Q64.3173 336.686 65.2128 336.686 L71.5733 336.686 Q72.2835 336.686 72.5305 336.717 Q72.7775 336.748 72.9628 336.933 Q73.1171 337.118 73.1171 337.52 Q73.1171 338.23 72.5305 338.261 Q64.8731 338.755 64.8731 345.672 Q64.8731 349.408 66.3243 351.076 Q67.7446 352.743 69.6898 352.743 Q70.7705 352.743 71.6042 352.249 Q72.407 351.724 72.901 351.076 Q73.3641 350.396 73.8273 349.161 Q74.2596 347.926 74.4139 347.185 Q74.5683 346.413 74.8771 344.962 Q75.8343 339.897 77.903 337.767 Q80.5584 335.111 83.9239 335.111 Q87.66 335.111 90.1918 337.643 Q92.7237 340.175 92.7237 345.27 Q92.7237 349.377 89.9757 352.249 Q90.3462 352.62 90.6859 352.897 Q90.9946 353.175 91.1181 353.299 Q91.2416 353.392 91.3343 353.422 Q91.396 353.453 91.4578 353.515 Q92.7237 354.781 92.7237 355.09 Q92.7237 355.584 92.3841 355.677 Q92.0753 355.769 91.1799 355.769 Z" fill="#000000" fill-rule="nonzero" fill-opacity="1" /><path clip-path="url(#clip000)" d="M869.518 30.2246 Q869.518 20.6829 876.033 13.9821 Q882.547 7.25044 891.502 7.25044 Q894.281 7.25044 896.751 8.26945 Q899.221 9.28846 900.363 10.184 Q901.506 11.0486 903.142 12.6852 L906.322 8.02242 Q906.816 7.25044 907.31 7.25044 Q907.835 7.25044 907.928 7.55923 Q908.021 7.83714 908.021 8.76352 L908.021 23.7708 Q908.021 24.7898 907.897 25.0369 Q907.774 25.2839 907.002 25.2839 Q906.384 25.2839 906.23 25.0986 Q906.106 24.9133 905.983 24.2031 Q905.026 17.3788 901.228 13.3028 Q897.461 9.2267 892.212 9.2267 Q890.699 9.2267 889.001 9.56638 Q887.333 9.90605 884.894 11.203 Q882.486 12.4999 880.602 14.6614 Q878.75 16.7921 877.391 20.8682 Q876.033 24.9133 876.033 30.2863 Q876.033 35.5975 877.391 39.6736 Q878.75 43.7496 880.602 45.8803 Q882.486 47.9801 884.894 49.277 Q887.333 50.574 889.032 50.9445 Q890.761 51.2842 892.274 51.2842 Q897.708 51.2842 901.876 47.4243 Q906.044 43.5644 906.446 37.0489 Q906.508 36.7401 906.508 36.6166 Q906.508 36.4622 906.569 36.3078 Q906.631 36.1534 906.786 36.0916 Q906.94 36.0298 907.187 36.0298 Q908.021 36.0298 908.021 37.1106 Q908.021 43.1321 903.389 48.1963 Q898.789 53.2296 891.502 53.2296 Q882.517 53.2296 876.002 46.5597 Q869.518 39.8897 869.518 30.2246 Z" fill="#000000" fill-rule="nonzero" fill-opacity="1" /><path clip-path="url(#clip000)" d="M913.825 51.84 L913.825 49.8946 L915.338 49.8946 Q918.766 49.8946 919.538 49.3388 Q920.34 48.7521 920.34 46.8993 L920.34 13.5807 Q920.34 11.7588 919.538 11.203 Q918.735 10.6163 915.338 10.6163 L913.825 10.6163 L913.825 8.64 L936.952 8.64 Q945.041 8.64 950.661 15.0938 Q956.311 21.5475 956.311 30.5951 Q956.311 39.4574 950.63 45.6642 Q944.98 51.84 936.952 51.84 L913.825 51.84 M925.775 47.3625 Q925.775 48.9991 926.238 49.4623 Q926.701 49.8946 928.862 49.8946 L935.254 49.8946 Q939.422 49.8946 942.232 48.1963 Q945.041 46.467 946.493 44.4908 Q949.982 39.7354 949.982 30.5951 Q949.982 20.9917 946.709 16.4833 Q942.479 10.6163 935.192 10.6163 L928.862 10.6163 Q926.701 10.6163 926.238 11.0486 Q925.775 11.4809 925.775 13.1484 L925.775 47.3625 Z" fill="#000000" fill-rule="nonzero" fill-opacity="1" /><path clip-path="url(#clip000)" d="M961.931 51.84 L961.931 49.8946 L963.444 49.8946 Q966.871 49.8946 967.643 49.3388 Q968.446 48.7521 968.446 46.8993 L968.446 13.7659 Q968.446 11.9441 967.643 11.3882 Q966.84 10.8015 963.444 10.8015 L961.931 10.8015 L961.931 8.82528 L996.636 8.82528 L998.396 23.0606 L996.821 23.0606 Q996.389 19.4477 995.802 17.4097 Q995.247 15.3408 993.95 13.7042 Q992.653 12.0676 990.461 11.45 Q988.299 10.8015 984.749 10.8015 L977.153 10.8015 Q974.992 10.8015 974.528 11.2647 Q974.065 11.697 974.065 13.3336 L974.065 29.3291 L979.5 29.3291 Q983.791 29.3291 984.996 27.7851 Q986.2 26.2411 986.2 21.9181 L987.775 21.9181 L987.775 38.6855 L986.2 38.6855 Q986.2 34.3315 984.996 32.8184 Q983.791 31.2745 979.5 31.2745 L974.065 31.2745 L974.065 46.8376 Q974.065 48.1654 974.281 48.6903 Q974.498 49.1844 975.825 49.5549 Q977.153 49.8946 980.055 49.8946 L982.155 49.8946 L982.155 51.84 Q979.87 51.6547 971.533 51.6547 Q964.154 51.6547 961.931 51.84 Z" fill="#000000" fill-rule="nonzero" fill-opacity="1" /><path clip-path="url(#clip000)" d="M997.902 51.0063 L997.902 42.6689 Q997.902 41.9587 997.933 41.7116 Q997.964 41.4646 998.149 41.2793 Q998.334 41.094 998.705 41.094 Q999.137 41.094 999.291 41.2793 Q999.477 41.4646 999.6 42.1748 Q1000.56 46.5288 1002.6 48.8447 Q1004.66 51.1298 1008.4 51.1298 Q1011.95 51.1298 1013.74 49.5549 Q1015.53 47.9801 1015.53 45.3862 Q1015.53 40.7544 1008.96 39.581 Q1005.16 38.809 1003.58 38.3149 Q1002.01 37.79 1000.62 36.6474 Q997.902 34.4241 997.902 31.2745 Q997.902 28.1248 1000.28 25.8088 Q1002.69 23.4929 1008 23.4929 Q1011.55 23.4929 1013.96 25.2839 Q1014.67 24.7281 1015.04 24.2649 Q1015.87 23.4929 1016.3 23.4929 Q1016.8 23.4929 1016.89 23.8326 Q1016.98 24.1414 1016.98 25.0369 L1016.98 31.398 Q1016.98 32.1082 1016.95 32.3552 Q1016.92 32.6023 1016.74 32.7875 Q1016.55 32.9419 1016.15 32.9419 Q1015.44 32.9419 1015.41 32.3552 Q1014.91 24.6972 1008 24.6972 Q1004.26 24.6972 1002.6 26.1485 Q1000.93 27.5689 1000.93 29.5143 Q1000.93 30.5951 1001.42 31.4288 Q1001.95 32.2317 1002.6 32.7258 Q1003.27 33.189 1004.51 33.6522 Q1005.74 34.0845 1006.49 34.2389 Q1007.26 34.3933 1008.71 34.702 Q1013.77 35.6593 1015.9 37.7282 Q1018.56 40.3838 1018.56 43.7496 Q1018.56 47.486 1016.03 50.0181 Q1013.49 52.5502 1008.4 52.5502 Q1004.29 52.5502 1001.42 49.802 Q1001.05 50.1725 1000.77 50.5122 Q1000.5 50.821 1000.37 50.9445 Q1000.28 51.068 1000.25 51.1607 Q1000.22 51.2224 1000.16 51.2842 Q998.89 52.5502 998.581 52.5502 Q998.087 52.5502 997.995 52.2106 Q997.902 51.9018 997.902 51.0063 Z" fill="#000000" fill-rule="nonzero" fill-opacity="1" /><path clip-path="url(#clip000)" d="M1042.92 26.5499 L1042.92 24.5737 Q1045.76 24.7589 1049.06 24.7589 Q1050.27 24.7589 1055.95 24.5737 L1055.95 26.5499 Q1052.34 26.5499 1052.34 28.1865 Q1052.34 28.4336 1052.71 29.2673 L1059.81 46.8993 L1066.26 30.7804 Q1066.63 29.6996 1066.63 29.2673 Q1066.63 28.1865 1065.89 27.4146 Q1065.18 26.6117 1063.61 26.5499 L1063.61 24.5737 Q1066.82 24.7589 1069.1 24.7589 Q1071.7 24.7589 1073.83 24.5737 L1073.83 26.5499 Q1071.94 26.5499 1070.62 27.4146 Q1069.29 28.2483 1068.86 28.9894 Q1068.45 29.6996 1068.02 30.7804 L1059.75 51.3459 Q1059.25 52.5502 1058.42 52.5502 Q1057.86 52.5502 1057.62 52.3032 Q1057.4 52.087 1057.09 51.3459 L1047.98 28.8968 Q1047.37 27.3219 1046.56 26.9514 Q1045.76 26.5499 1042.92 26.5499 Z" fill="#000000" fill-rule="nonzero" fill-opacity="1" /><path clip-path="url(#clip000)" d="M1077.13 51.0063 L1077.13 42.6689 Q1077.13 41.9587 1077.16 41.7116 Q1077.19 41.4646 1077.38 41.2793 Q1077.56 41.094 1077.93 41.094 Q1078.37 41.094 1078.52 41.2793 Q1078.71 41.4646 1078.83 42.1748 Q1079.79 46.5288 1081.82 48.8447 Q1083.89 51.1298 1087.63 51.1298 Q1091.18 51.1298 1092.97 49.5549 Q1094.76 47.9801 1094.76 45.3862 Q1094.76 40.7544 1088.18 39.581 Q1084.39 38.809 1082.81 38.3149 Q1081.24 37.79 1079.85 36.6474 Q1077.13 34.4241 1077.13 31.2745 Q1077.13 28.1248 1079.51 25.8088 Q1081.92 23.4929 1087.23 23.4929 Q1090.78 23.4929 1093.19 25.2839 Q1093.9 24.7281 1094.27 24.2649 Q1095.1 23.4929 1095.53 23.4929 Q1096.03 23.4929 1096.12 23.8326 Q1096.21 24.1414 1096.21 25.0369 L1096.21 31.398 Q1096.21 32.1082 1096.18 32.3552 Q1096.15 32.6023 1095.97 32.7875 Q1095.78 32.9419 1095.38 32.9419 Q1094.67 32.9419 1094.64 32.3552 Q1094.14 24.6972 1087.23 24.6972 Q1083.49 24.6972 1081.82 26.1485 Q1080.16 27.5689 1080.16 29.5143 Q1080.16 30.5951 1080.65 31.4288 Q1081.18 32.2317 1081.82 32.7258 Q1082.5 33.189 1083.74 33.6522 Q1084.97 34.0845 1085.71 34.2389 Q1086.49 34.3933 1087.94 34.702 Q1093 35.6593 1095.13 37.7282 Q1097.79 40.3838 1097.79 43.7496 Q1097.79 47.486 1095.26 50.0181 Q1092.72 52.5502 1087.63 52.5502 Q1083.52 52.5502 1080.65 49.802 Q1080.28 50.1725 1080 50.5122 Q1079.72 50.821 1079.6 50.9445 Q1079.51 51.068 1079.48 51.1607 Q1079.45 51.2224 1079.39 51.2842 Q1078.12 52.5502 1077.81 52.5502 Q1077.32 52.5502 1077.22 52.2106 Q1077.13 51.9018 1077.13 51.0063 Z" fill="#000000" fill-rule="nonzero" fill-opacity="1" /><path clip-path="url(#clip000)" d="M1123.17 51.84 L1123.17 49.8946 L1124.68 49.8946 Q1128.11 49.8946 1128.88 49.3388 Q1129.68 48.7521 1129.68 46.8993 L1129.68 13.5807 Q1129.68 11.7588 1128.88 11.203 Q1128.08 10.6163 1124.68 10.6163 L1123.17 10.6163 L1123.17 8.64 L1145.49 8.64 Q1151.88 8.64 1156.14 12.1602 Q1160.4 15.6805 1160.4 20.405 Q1160.4 25.0986 1156.05 28.4953 Q1151.73 31.8612 1145.99 31.8612 L1135.3 31.8612 L1135.3 46.8993 Q1135.3 48.7212 1136.07 49.3079 Q1136.88 49.8946 1140.3 49.8946 L1141.82 49.8946 L1141.82 51.84 Q1139.59 51.6547 1132.46 51.6547 Q1125.39 51.6547 1123.17 51.84 M1135.12 30.2246 L1143.82 30.2246 Q1146.66 30.2246 1148.73 29.4217 Q1150.8 28.6188 1151.73 27.6616 Q1152.69 26.6735 1153.21 25.0986 Q1153.77 23.4929 1153.83 22.6283 Q1153.89 21.7328 1153.89 20.405 Q1153.89 19.0154 1153.83 18.1508 Q1153.77 17.2553 1153.21 15.6805 Q1152.69 14.0747 1151.73 13.1175 Q1150.8 12.1293 1148.73 11.3882 Q1146.7 10.6163 1143.82 10.6163 L1138.2 10.6163 Q1136.04 10.6163 1135.58 11.0486 Q1135.12 11.4809 1135.12 13.1484 L1135.12 30.2246 Z" fill="#000000" fill-rule="nonzero" fill-opacity="1" /><path clip-path="url(#clip000)" d="M1165.68 51.84 L1165.68 49.8946 Q1169.05 49.8946 1169.82 49.4932 Q1170.62 49.0609 1170.62 47.0228 L1170.62 30.0702 Q1170.62 27.7233 1169.79 27.1366 Q1168.99 26.5499 1165.68 26.5499 L1165.68 24.5737 L1174.48 23.8943 L1174.48 30.8421 Q1175.38 28.1248 1177.26 26.025 Q1179.18 23.8943 1182.27 23.8943 Q1184.3 23.8943 1185.6 25.0369 Q1186.93 26.1794 1186.93 27.7542 Q1186.93 29.1438 1186.06 29.854 Q1185.23 30.5334 1184.21 30.5334 Q1183.07 30.5334 1182.27 29.8231 Q1181.49 29.082 1181.49 27.816 Q1181.49 27.044 1181.83 26.4573 Q1182.2 25.8397 1182.48 25.6236 Q1182.76 25.4074 1182.94 25.3456 Q1182.82 25.2839 1182.27 25.2839 Q1178.78 25.2839 1176.77 28.7732 Q1174.79 32.2317 1174.79 37.1724 L1174.79 46.8993 Q1174.79 48.7212 1175.53 49.3079 Q1176.31 49.8946 1179.61 49.8946 L1180.94 49.8946 L1180.94 51.84 Q1178.41 51.6547 1172.91 51.6547 Q1172.14 51.6547 1170.93 51.6856 Q1169.73 51.7165 1168.15 51.7782 Q1166.58 51.84 1165.68 51.84 Z" fill="#000000" fill-rule="nonzero" fill-opacity="1" /><path clip-path="url(#clip000)" d="M1194.55 48.4433 Q1190.39 44.3055 1190.39 38.3149 Q1190.39 32.2935 1194.46 27.9086 Q1198.57 23.4929 1204.43 23.4929 Q1210.18 23.4929 1214.28 27.8777 Q1218.42 32.2317 1218.42 38.3149 Q1218.42 44.2746 1214.25 48.4124 Q1210.12 52.5502 1204.37 52.5502 Q1198.75 52.5502 1194.55 48.4433 M1195.63 37.79 Q1195.63 43.9349 1197.24 46.7141 Q1199.71 50.9445 1204.43 50.9445 Q1206.78 50.9445 1208.73 49.6785 Q1210.7 48.4124 1211.78 46.2817 Q1213.17 43.5026 1213.17 37.79 Q1213.17 31.7068 1211.51 29.0203 Q1209.04 24.9133 1204.37 24.9133 Q1202.34 24.9133 1200.33 25.9941 Q1198.35 27.044 1197.15 29.1438 Q1195.63 31.9229 1195.63 37.79 Z" fill="#000000" fill-rule="nonzero" fill-opacity="1" /><path clip-path="url(#clip000)" d="M1222 10.6163 L1222 8.64 L1231.11 7.96066 L1231.11 28.0013 Q1234.79 23.8943 1239.79 23.8943 Q1245.22 23.8943 1249.21 28.063 Q1253.19 32.2317 1253.19 38.1914 Q1253.19 44.2128 1249.02 48.3815 Q1244.85 52.5502 1239.08 52.5502 Q1233.83 52.5502 1230.8 47.9183 Q1228.58 51.7782 1228.52 51.84 L1226.94 51.84 L1226.94 14.1365 Q1226.94 11.7897 1226.11 11.203 Q1225.28 10.6163 1222 10.6163 M1231.3 44.6451 Q1231.3 45.973 1232.19 47.3008 Q1234.69 51.1298 1238.77 51.1298 Q1238.8 51.1298 1238.83 51.1298 Q1243.25 51.1298 1245.99 47.0846 Q1247.94 44.0584 1247.94 38.1296 Q1247.94 32.2626 1246.12 29.3291 Q1243.59 25.2839 1239.48 25.2839 Q1234.85 25.2839 1232.01 29.3291 Q1231.3 30.3481 1231.3 31.6141 L1231.3 44.6451 Z" fill="#000000" fill-rule="nonzero" fill-opacity="1" /><path clip-path="url(#clip000)" d="M1257.97 45.8186 Q1257.97 40.4456 1264.3 37.6047 Q1268.1 35.7828 1275.94 35.3196 L1275.94 33.0037 Q1275.94 29.082 1273.88 27.0131 Q1271.84 24.9133 1269.24 24.9133 Q1264.61 24.9133 1262.39 27.816 Q1264.27 27.8777 1264.95 28.835 Q1265.63 29.7614 1265.63 30.7186 Q1265.63 31.9847 1264.83 32.8184 Q1264.06 33.6213 1262.73 33.6213 Q1261.46 33.6213 1260.63 32.8493 Q1259.8 32.0464 1259.8 30.6569 Q1259.8 27.5689 1262.58 25.5309 Q1265.38 23.4929 1269.37 23.4929 Q1274.56 23.4929 1278.01 26.9822 Q1279.09 28.063 1279.62 29.4526 Q1280.17 30.8421 1280.24 31.7685 Q1280.3 32.664 1280.3 34.455 L1280.3 47.0846 Q1280.3 47.4552 1280.42 48.0727 Q1280.55 48.6903 1281.1 49.4932 Q1281.69 50.2652 1282.64 50.2652 Q1284.93 50.2652 1284.9 46.22 L1284.9 42.6689 L1286.5 42.6689 L1286.5 46.22 Q1286.5 49.5858 1284.71 50.9136 Q1282.95 52.2106 1281.32 52.2106 Q1279.22 52.2106 1277.89 50.6666 Q1276.56 49.1226 1276.38 47.0228 Q1275.42 49.4314 1273.23 51.0063 Q1271.07 52.5502 1268.1 52.5502 Q1265.82 52.5502 1263.66 51.9635 Q1261.53 51.4077 1259.73 49.8329 Q1257.97 48.2271 1257.97 45.8186 M1262.85 45.7568 Q1262.85 48.1036 1264.52 49.6167 Q1266.19 51.1298 1268.53 51.1298 Q1271.19 51.1298 1273.57 49.0918 Q1275.94 47.0228 1275.94 42.9777 L1275.94 36.6474 Q1268.94 36.8945 1265.88 39.7045 Q1262.85 42.4836 1262.85 45.7568 Z" fill="#000000" fill-rule="nonzero" fill-opacity="1" /><path clip-path="url(#clip000)" d="M1288.7 10.6163 L1288.7 8.64 L1297.81 7.96066 L1297.81 28.0013 Q1301.48 23.8943 1306.48 23.8943 Q1311.92 23.8943 1315.9 28.063 Q1319.88 32.2317 1319.88 38.1914 Q1319.88 44.2128 1315.71 48.3815 Q1311.55 52.5502 1305.77 52.5502 Q1300.52 52.5502 1297.5 47.9183 Q1295.27 51.7782 1295.21 51.84 L1293.64 51.84 L1293.64 14.1365 Q1293.64 11.7897 1292.8 11.203 Q1291.97 10.6163 1288.7 10.6163 M1297.99 44.6451 Q1297.99 45.973 1298.89 47.3008 Q1301.39 51.1298 1305.46 51.1298 Q1305.49 51.1298 1305.52 51.1298 Q1309.94 51.1298 1312.69 47.0846 Q1314.63 44.0584 1314.63 38.1296 Q1314.63 32.2626 1312.81 29.3291 Q1310.28 25.2839 1306.17 25.2839 Q1301.54 25.2839 1298.7 29.3291 Q1297.99 30.3481 1297.99 31.6141 L1297.99 44.6451 Z" fill="#000000" fill-rule="nonzero" fill-opacity="1" /><path clip-path="url(#clip000)" d="M1324.11 51.84 L1324.11 49.8946 Q1327.48 49.8946 1328.25 49.4932 Q1329.02 49.0609 1329.02 47.0228 L1329.02 30.0084 Q1329.02 27.6616 1328.22 27.1058 Q1327.45 26.5499 1324.36 26.5499 L1324.36 24.5737 L1333.19 23.8943 L1333.19 47.0846 Q1333.19 48.9682 1333.87 49.4314 Q1334.55 49.8946 1337.64 49.8946 L1337.64 51.84 Q1331.18 51.6547 1331.06 51.6547 Q1330.19 51.6547 1324.11 51.84 M1326.77 12.8705 Q1326.77 11.6044 1327.72 10.5854 Q1328.71 9.5355 1330.1 9.5355 Q1331.49 9.5355 1332.48 10.4928 Q1333.47 11.4191 1333.47 12.9013 Q1333.47 14.3527 1332.48 15.3099 Q1331.49 16.2363 1330.1 16.2363 Q1328.65 16.2363 1327.69 15.2173 Q1326.77 14.1983 1326.77 12.8705 Z" fill="#000000" fill-rule="nonzero" fill-opacity="1" /><path clip-path="url(#clip000)" d="M1341.62 51.84 L1341.62 49.8946 Q1344.98 49.8946 1345.76 49.4932 Q1346.53 49.0609 1346.53 47.0228 L1346.53 14.1365 Q1346.53 11.7897 1345.69 11.203 Q1344.89 10.6163 1341.62 10.6163 L1341.62 8.64 L1350.7 7.96066 L1350.7 47.0228 Q1350.7 49.0609 1351.5 49.4932 Q1352.3 49.8946 1355.64 49.8946 L1355.64 51.84 Q1354.86 51.84 1353.26 51.7782 Q1351.65 51.7165 1350.48 51.6856 Q1349.31 51.6547 1348.63 51.6547 Q1347.89 51.6547 1341.62 51.84 Z" fill="#000000" fill-rule="nonzero" fill-opacity="1" /><path clip-path="url(#clip000)" d="M1359.13 51.84 L1359.13 49.8946 Q1362.49 49.8946 1363.26 49.4932 Q1364.04 49.0609 1364.04 47.0228 L1364.04 30.0084 Q1364.04 27.6616 1363.23 27.1058 Q1362.46 26.5499 1359.37 26.5499 L1359.37 24.5737 L1368.2 23.8943 L1368.2 47.0846 Q1368.2 48.9682 1368.88 49.4314 Q1369.56 49.8946 1372.65 49.8946 L1372.65 51.84 Q1366.2 51.6547 1366.07 51.6547 Q1365.21 51.6547 1359.13 51.84 M1361.78 12.8705 Q1361.78 11.6044 1362.74 10.5854 Q1363.73 9.5355 1365.12 9.5355 Q1366.51 9.5355 1367.49 10.4928 Q1368.48 11.4191 1368.48 12.9013 Q1368.48 14.3527 1367.49 15.3099 Q1366.51 16.2363 1365.12 16.2363 Q1363.66 16.2363 1362.71 15.2173 Q1361.78 14.1983 1361.78 12.8705 Z" fill="#000000" fill-rule="nonzero" fill-opacity="1" /><path clip-path="url(#clip000)" d="M1375.74 26.5499 L1375.74 25.1604 Q1378.64 25.0369 1380.55 22.9988 Q1382.5 20.9299 1383.15 18.3978 Q1383.83 15.8657 1383.89 12.9322 L1385.46 12.9322 L1385.46 24.5737 L1394.51 24.5737 L1394.51 26.5499 L1385.46 26.5499 L1385.46 44.1202 Q1385.46 50.9445 1389.72 50.9445 Q1391.55 50.9445 1392.75 49.0918 Q1393.95 47.2081 1393.95 43.8732 L1393.95 40.3838 L1395.53 40.3838 L1395.53 43.9967 Q1395.53 47.4243 1393.95 49.9872 Q1392.38 52.5502 1389.26 52.5502 Q1388.12 52.5502 1386.98 52.2414 Q1385.86 51.9635 1384.38 51.2224 Q1382.93 50.4504 1382.01 48.5977 Q1381.11 46.7141 1381.11 43.9967 L1381.11 26.5499 L1375.74 26.5499 Z" fill="#000000" fill-rule="nonzero" fill-opacity="1" /><path clip-path="url(#clip000)" d="M1398.49 59.6833 Q1398.49 58.3555 1399.27 57.6453 Q1400.07 56.9659 1401.15 56.9659 Q1402.29 56.9659 1403.03 57.6762 Q1403.8 58.4173 1403.8 59.6216 Q1403.8 61.9684 1401.33 62.2772 Q1402.54 63.4197 1404.3 63.4197 Q1406.18 63.4197 1407.69 62.0301 Q1409.24 60.6406 1409.89 59.3128 Q1410.57 57.985 1411.52 55.5764 Q1412.42 53.6928 1413.1 51.84 L1403.62 28.7424 Q1403 27.2293 1402.04 26.8896 Q1401.09 26.5499 1398.49 26.5499 L1398.49 24.5737 Q1401.33 24.7589 1404.64 24.7589 Q1406.58 24.7589 1411.52 24.5737 L1411.52 26.5499 Q1407.97 26.5499 1407.97 28.1865 Q1407.97 28.3718 1408.34 29.3291 L1415.38 46.3435 L1421.77 30.7804 Q1422.14 29.8849 1422.14 29.2673 Q1422.14 26.6735 1419.18 26.5499 L1419.18 24.5737 Q1423.35 24.7589 1424.68 24.7589 Q1427.27 24.7589 1429.4 24.5737 L1429.4 26.5499 Q1425.17 26.5499 1423.53 30.5951 L1412.39 57.5835 Q1409.36 64.7784 1404.3 64.8093 Q1401.89 64.8093 1400.19 63.3271 Q1398.49 61.8449 1398.49 59.6833 Z" fill="#000000" fill-rule="nonzero" fill-opacity="1" /><path clip-path="url(#clip000)" d="M1453.73 51.84 L1453.73 49.8946 Q1457.1 49.8946 1457.87 49.4932 Q1458.64 49.0609 1458.64 47.0228 L1458.64 14.1365 Q1458.64 11.7897 1457.81 11.203 Q1457 10.6163 1453.73 10.6163 L1453.73 8.64 L1462.81 7.96066 L1462.81 47.0228 Q1462.81 49.0609 1463.61 49.4932 Q1464.41 49.8946 1467.75 49.8946 L1467.75 51.84 Q1466.98 51.84 1465.37 51.7782 Q1463.77 51.7165 1462.59 51.6856 Q1461.42 51.6547 1460.74 51.6547 Q1460 51.6547 1453.73 51.84 Z" fill="#000000" fill-rule="nonzero" fill-opacity="1" /><path clip-path="url(#clip000)" d="M1470.9 37.9135 Q1470.9 31.9538 1474.73 27.7233 Q1478.56 23.4929 1484.05 23.4929 Q1489.61 23.4929 1492.48 27.1058 Q1495.38 30.7186 1495.38 35.9063 Q1495.38 36.8636 1495.14 37.0489 Q1494.89 37.2341 1493.81 37.2341 L1476.15 37.2341 Q1476.15 43.6879 1478.06 46.7141 Q1480.72 50.9445 1485.19 50.9445 Q1485.81 50.9445 1486.55 50.821 Q1487.29 50.6975 1488.81 50.1725 Q1490.32 49.6167 1491.65 48.1654 Q1492.98 46.7141 1493.75 44.429 Q1493.93 43.5335 1494.55 43.5644 Q1495.38 43.5644 1495.38 44.3055 Q1495.38 44.8613 1494.77 46.1273 Q1494.18 47.3625 1493.04 48.8447 Q1491.89 50.3269 1489.67 51.4386 Q1487.48 52.5502 1484.82 52.5502 Q1479.27 52.5502 1475.07 48.3507 Q1470.9 44.1202 1470.9 37.9135 M1476.21 35.9063 L1491.22 35.9063 Q1491.22 34.5785 1490.97 33.0963 Q1490.75 31.6141 1490.07 29.5761 Q1489.42 27.5072 1487.88 26.2103 Q1486.34 24.9133 1484.05 24.9133 Q1483.03 24.9133 1481.92 25.3456 Q1480.84 25.778 1479.51 26.8278 Q1478.19 27.8777 1477.26 30.2554 Q1476.33 32.6331 1476.21 35.9063 Z" fill="#000000" fill-rule="nonzero" fill-opacity="1" /><path clip-path="url(#clip000)" d="M1498.41 26.5499 L1498.41 24.5737 Q1501.25 24.7589 1504.55 24.7589 Q1505.76 24.7589 1511.44 24.5737 L1511.44 26.5499 Q1507.83 26.5499 1507.83 28.1865 Q1507.83 28.4336 1508.2 29.2673 L1515.3 46.8993 L1521.75 30.7804 Q1522.12 29.6996 1522.12 29.2673 Q1522.12 28.1865 1521.38 27.4146 Q1520.67 26.6117 1519.1 26.5499 L1519.1 24.5737 Q1522.31 24.7589 1524.59 24.7589 Q1527.19 24.7589 1529.32 24.5737 L1529.32 26.5499 Q1527.43 26.5499 1526.11 27.4146 Q1524.78 28.2483 1524.35 28.9894 Q1523.94 29.6996 1523.51 30.7804 L1515.24 51.3459 Q1514.74 52.5502 1513.91 52.5502 Q1513.35 52.5502 1513.11 52.3032 Q1512.89 52.087 1512.58 51.3459 L1503.47 28.8968 Q1502.86 27.3219 1502.05 26.9514 Q1501.25 26.5499 1498.41 26.5499 Z" fill="#000000" fill-rule="nonzero" fill-opacity="1" /><path clip-path="url(#clip000)" d="M1530.52 37.9135 Q1530.52 31.9538 1534.35 27.7233 Q1538.18 23.4929 1543.67 23.4929 Q1549.23 23.4929 1552.1 27.1058 Q1555.01 30.7186 1555.01 35.9063 Q1555.01 36.8636 1554.76 37.0489 Q1554.51 37.2341 1553.43 37.2341 L1535.77 37.2341 Q1535.77 43.6879 1537.68 46.7141 Q1540.34 50.9445 1544.82 50.9445 Q1545.43 50.9445 1546.18 50.821 Q1546.92 50.6975 1548.43 50.1725 Q1549.94 49.6167 1551.27 48.1654 Q1552.6 46.7141 1553.37 44.429 Q1553.55 43.5335 1554.17 43.5644 Q1555.01 43.5644 1555.01 44.3055 Q1555.01 44.8613 1554.39 46.1273 Q1553.8 47.3625 1552.66 48.8447 Q1551.52 50.3269 1549.29 51.4386 Q1547.1 52.5502 1544.45 52.5502 Q1538.89 52.5502 1534.69 48.3507 Q1530.52 44.1202 1530.52 37.9135 M1535.83 35.9063 L1550.84 35.9063 Q1550.84 34.5785 1550.59 33.0963 Q1550.37 31.6141 1549.7 29.5761 Q1549.05 27.5072 1547.5 26.2103 Q1545.96 24.9133 1543.67 24.9133 Q1542.66 24.9133 1541.54 25.3456 Q1540.46 25.778 1539.14 26.8278 Q1537.81 27.8777 1536.88 30.2554 Q1535.96 32.6331 1535.83 35.9063 Z" fill="#000000" fill-rule="nonzero" fill-opacity="1" /><path clip-path="url(#clip000)" d="M1558.93 51.84 L1558.93 49.8946 Q1562.29 49.8946 1563.06 49.4932 Q1563.84 49.0609 1563.84 47.0228 L1563.84 14.1365 Q1563.84 11.7897 1563 11.203 Q1562.2 10.6163 1558.93 10.6163 L1558.93 8.64 L1568.01 7.96066 L1568.01 47.0228 Q1568.01 49.0609 1568.81 49.4932 Q1569.61 49.8946 1572.95 49.8946 L1572.95 51.84 Q1572.17 51.84 1570.57 51.7782 Q1568.96 51.7165 1567.79 51.6856 Q1566.62 51.6547 1565.94 51.6547 Q1565.2 51.6547 1558.93 51.84 Z" fill="#000000" fill-rule="nonzero" fill-opacity="1" /><path clip-path="url(#clip000)" d="M1576.43 51.0063 L1576.43 42.6689 Q1576.43 41.9587 1576.47 41.7116 Q1576.5 41.4646 1576.68 41.2793 Q1576.87 41.094 1577.24 41.094 Q1577.67 41.094 1577.82 41.2793 Q1578.01 41.4646 1578.13 42.1748 Q1579.09 46.5288 1581.13 48.8447 Q1583.2 51.1298 1586.93 51.1298 Q1590.48 51.1298 1592.27 49.5549 Q1594.06 47.9801 1594.06 45.3862 Q1594.06 40.7544 1587.49 39.581 Q1583.69 38.809 1582.12 38.3149 Q1580.54 37.79 1579.15 36.6474 Q1576.43 34.4241 1576.43 31.2745 Q1576.43 28.1248 1578.81 25.8088 Q1581.22 23.4929 1586.53 23.4929 Q1590.08 23.4929 1592.49 25.2839 Q1593.2 24.7281 1593.57 24.2649 Q1594.4 23.4929 1594.84 23.4929 Q1595.33 23.4929 1595.42 23.8326 Q1595.52 24.1414 1595.52 25.0369 L1595.52 31.398 Q1595.52 32.1082 1595.49 32.3552 Q1595.45 32.6023 1595.27 32.7875 Q1595.08 32.9419 1594.68 32.9419 Q1593.97 32.9419 1593.94 32.3552 Q1593.45 24.6972 1586.53 24.6972 Q1582.8 24.6972 1581.13 26.1485 Q1579.46 27.5689 1579.46 29.5143 Q1579.46 30.5951 1579.95 31.4288 Q1580.48 32.2317 1581.13 32.7258 Q1581.81 33.189 1583.04 33.6522 Q1584.28 34.0845 1585.02 34.2389 Q1585.79 34.3933 1587.24 34.702 Q1592.3 35.6593 1594.44 37.7282 Q1597.09 40.3838 1597.09 43.7496 Q1597.09 47.486 1594.56 50.0181 Q1592.03 52.5502 1586.93 52.5502 Q1582.83 52.5502 1579.95 49.802 Q1579.58 50.1725 1579.31 50.5122 Q1579.03 50.821 1578.9 50.9445 Q1578.81 51.068 1578.78 51.1607 Q1578.75 51.2224 1578.69 51.2842 Q1577.42 52.5502 1577.11 52.5502 Q1576.62 52.5502 1576.53 52.2106 Q1576.43 51.9018 1576.43 51.0063 Z" fill="#000000" fill-rule="nonzero" fill-opacity="1" /><polyline clip-path="url(#clip002)" style="stroke:#0173b2; stroke-linecap:round; stroke-linejoin:round; stroke-width:4; stroke-opacity:1; fill:none" points="334.283,1164.74 394.218,1156.69 454.152,1150.79 514.087,1148.2 574.022,1133.83 633.957,1122.88 693.891,1113.33 753.826,1029.89 813.761,987.284 873.696,954.547 933.63,884.921 993.565,821.73 1053.5,775.828 1113.43,705.318 1173.37,608.54 1233.3,525.739 1293.24,449.656 1353.17,369.084 1413.11,317.379 1473.04,269.537 1532.98,233.769 1592.91,216.253 1652.85,197.163 1712.78,181.216 1772.72,171.341 1832.65,162.189 1892.59,154.738 1952.52,151.831 2012.46,147.275 2072.39,142.997 2132.33,138.783 "/>
<circle clip-path="url(#clip002)" cx="334.283" cy="1164.74" r="7.2" fill="#0173b2" fill-rule="evenodd" fill-opacity="1" stroke="none"/>
<circle clip-path="url(#clip002)" cx="394.218" cy="1156.69" r="7.2" fill="#0173b2" fill-rule="evenodd" fill-opacity="1" stroke="none"/>
<circle clip-path="url(#clip002)" cx="454.152" cy="1150.79" r="7.2" fill="#0173b2" fill-rule="evenodd" fill-opacity="1" stroke="none"/>
<circle clip-path="url(#clip002)" cx="514.087" cy="1148.2" r="7.2" fill="#0173b2" fill-rule="evenodd" fill-opacity="1" stroke="none"/>
<circle clip-path="url(#clip002)" cx="574.022" cy="1133.83" r="7.2" fill="#0173b2" fill-rule="evenodd" fill-opacity="1" stroke="none"/>
<circle clip-path="url(#clip002)" cx="633.957" cy="1122.88" r="7.2" fill="#0173b2" fill-rule="evenodd" fill-opacity="1" stroke="none"/>
<circle clip-path="url(#clip002)" cx="693.891" cy="1113.33" r="7.2" fill="#0173b2" fill-rule="evenodd" fill-opacity="1" stroke="none"/>
<circle clip-path="url(#clip002)" cx="753.826" cy="1029.89" r="7.2" fill="#0173b2" fill-rule="evenodd" fill-opacity="1" stroke="none"/>
<circle clip-path="url(#clip002)" cx="813.761" cy="987.284" r="7.2" fill="#0173b2" fill-rule="evenodd" fill-opacity="1" stroke="none"/>
<circle clip-path="url(#clip002)" cx="873.696" cy="954.547" r="7.2" fill="#0173b2" fill-rule="evenodd" fill-opacity="1" stroke="none"/>
<circle clip-path="url(#clip002)" cx="933.63" cy="884.921" r="7.2" fill="#0173b2" fill-rule="evenodd" fill-opacity="1" stroke="none"/>
<circle clip-path="url(#clip002)" cx="993.565" cy="821.73" r="7.2" fill="#0173b2" fill-rule="evenodd" fill-opacity="1" stroke="none"/>
<circle clip-path="url(#clip002)" cx="1053.5" cy="775.828" r="7.2" fill="#0173b2" fill-rule="evenodd" fill-opacity="1" stroke="none"/>
<circle clip-path="url(#clip002)" cx="1113.43" cy="705.318" r="7.2" fill="#0173b2" fill-rule="evenodd" fill-opacity="1" stroke="none"/>
<circle clip-path="url(#clip002)" cx="1173.37" cy="608.54" r="7.2" fill="#0173b2" fill-rule="evenodd" fill-opacity="1" stroke="none"/>
<circle clip-path="url(#clip002)" cx="1233.3" cy="525.739" r="7.2" fill="#0173b2" fill-rule="evenodd" fill-opacity="1" stroke="none"/>
<circle clip-path="url(#clip002)" cx="1293.24" cy="449.656" r="7.2" fill="#0173b2" fill-rule="evenodd" fill-opacity="1" stroke="none"/>
<circle clip-path="url(#clip002)" cx="1353.17" cy="369.084" r="7.2" fill="#0173b2" fill-rule="evenodd" fill-opacity="1" stroke="none"/>
<circle clip-path="url(#clip002)" cx="1413.11" cy="317.379" r="7.2" fill="#0173b2" fill-rule="evenodd" fill-opacity="1" stroke="none"/>
<circle clip-path="url(#clip002)" cx="1473.04" cy="269.537" r="7.2" fill="#0173b2" fill-rule="evenodd" fill-opacity="1" stroke="none"/>
<circle clip-path="url(#clip002)" cx="1532.98" cy="233.769" r="7.2" fill="#0173b2" fill-rule="evenodd" fill-opacity="1" stroke="none"/>
<circle clip-path="url(#clip002)" cx="1592.91" cy="216.253" r="7.2" fill="#0173b2" fill-rule="evenodd" fill-opacity="1" stroke="none"/>
<circle clip-path="url(#clip002)" cx="1652.85" cy="197.163" r="7.2" fill="#0173b2" fill-rule="evenodd" fill-opacity="1" stroke="none"/>
<circle clip-path="url(#clip002)" cx="1712.78" cy="181.216" r="7.2" fill="#0173b2" fill-rule="evenodd" fill-opacity="1" stroke="none"/>
<circle clip-path="url(#clip002)" cx="1772.72" cy="171.341" r="7.2" fill="#0173b2" fill-rule="evenodd" fill-opacity="1" stroke="none"/>
<circle clip-path="url(#clip002)" cx="1832.65" cy="162.189" r="7.2" fill="#0173b2" fill-rule="evenodd" fill-opacity="1" stroke="none"/>
<circle clip-path="url(#clip002)" cx="1892.59" cy="154.738" r="7.2" fill="#0173b2" fill-rule="evenodd" fill-opacity="1" stroke="none"/>
<circle clip-path="url(#clip002)" cx="1952.52" cy="151.831" r="7.2" fill="#0173b2" fill-rule="evenodd" fill-opacity="1" stroke="none"/>
<circle clip-path="url(#clip002)" cx="2012.46" cy="147.275" r="7.2" fill="#0173b2" fill-rule="evenodd" fill-opacity="1" stroke="none"/>
<circle clip-path="url(#clip002)" cx="2072.39" cy="142.997" r="7.2" fill="#0173b2" fill-rule="evenodd" fill-opacity="1" stroke="none"/>
<circle clip-path="url(#clip002)" cx="2132.33" cy="138.783" r="7.2" fill="#0173b2" fill-rule="evenodd" fill-opacity="1" stroke="none"/>
<polyline clip-path="url(#clip002)" style="stroke:#de8f05; stroke-linecap:round; stroke-linejoin:round; stroke-width:4; stroke-opacity:1; fill:none" points="334.283,1157.6 394.218,1150.18 454.152,1140.33 514.087,1133.8 574.022,1120.84 633.957,1110.24 693.891,1086.15 753.826,1052.28 813.761,1028.07 873.696,974.185 933.63,927.563 993.565,864.365 1053.5,779.268 1113.43,704.012 1173.37,622.354 1233.3,541.393 1293.24,448.992 1353.17,366.638 1413.11,314.567 1473.04,270.935 1532.98,233.746 1592.91,206.569 1652.85,182.726 1712.78,172.208 1772.72,165.33 1832.65,155.818 1892.59,148.794 1952.52,145.938 2012.46,144.166 2072.39,141.863 2132.33,133.965 "/>
<circle clip-path="url(#clip002)" cx="334.283" cy="1157.6" r="7.2" fill="#de8f05" fill-rule="evenodd" fill-opacity="1" stroke="none"/>
<circle clip-path="url(#clip002)" cx="394.218" cy="1150.18" r="7.2" fill="#de8f05" fill-rule="evenodd" fill-opacity="1" stroke="none"/>
<circle clip-path="url(#clip002)" cx="454.152" cy="1140.33" r="7.2" fill="#de8f05" fill-rule="evenodd" fill-opacity="1" stroke="none"/>
<circle clip-path="url(#clip002)" cx="514.087" cy="1133.8" r="7.2" fill="#de8f05" fill-rule="evenodd" fill-opacity="1" stroke="none"/>
<circle clip-path="url(#clip002)" cx="574.022" cy="1120.84" r="7.2" fill="#de8f05" fill-rule="evenodd" fill-opacity="1" stroke="none"/>
<circle clip-path="url(#clip002)" cx="633.957" cy="1110.24" r="7.2" fill="#de8f05" fill-rule="evenodd" fill-opacity="1" stroke="none"/>
<circle clip-path="url(#clip002)" cx="693.891" cy="1086.15" r="7.2" fill="#de8f05" fill-rule="evenodd" fill-opacity="1" stroke="none"/>
<circle clip-path="url(#clip002)" cx="753.826" cy="1052.28" r="7.2" fill="#de8f05" fill-rule="evenodd" fill-opacity="1" stroke="none"/>
<circle clip-path="url(#clip002)" cx="813.761" cy="1028.07" r="7.2" fill="#de8f05" fill-rule="evenodd" fill-opacity="1" stroke="none"/>
<circle clip-path="url(#clip002)" cx="873.696" cy="974.185" r="7.2" fill="#de8f05" fill-rule="evenodd" fill-opacity="1" stroke="none"/>
<circle clip-path="url(#clip002)" cx="933.63" cy="927.563" r="7.2" fill="#de8f05" fill-rule="evenodd" fill-opacity="1" stroke="none"/>
<circle clip-path="url(#clip002)" cx="993.565" cy="864.365" r="7.2" fill="#de8f05" fill-rule="evenodd" fill-opacity="1" stroke="none"/>
<circle clip-path="url(#clip002)" cx="1053.5" cy="779.268" r="7.2" fill="#de8f05" fill-rule="evenodd" fill-opacity="1" stroke="none"/>
<circle clip-path="url(#clip002)" cx="1113.43" cy="704.012" r="7.2" fill="#de8f05" fill-rule="evenodd" fill-opacity="1" stroke="none"/>
<circle clip-path="url(#clip002)" cx="1173.37" cy="622.354" r="7.2" fill="#de8f05" fill-rule="evenodd" fill-opacity="1" stroke="none"/>
<circle clip-path="url(#clip002)" cx="1233.3" cy="541.393" r="7.2" fill="#de8f05" fill-rule="evenodd" fill-opacity="1" stroke="none"/>
<circle clip-path="url(#clip002)" cx="1293.24" cy="448.992" r="7.2" fill="#de8f05" fill-rule="evenodd" fill-opacity="1" stroke="none"/>
<circle clip-path="url(#clip002)" cx="1353.17" cy="366.638" r="7.2" fill="#de8f05" fill-rule="evenodd" fill-opacity="1" stroke="none"/>
<circle clip-path="url(#clip002)" cx="1413.11" cy="314.567" r="7.2" fill="#de8f05" fill-rule="evenodd" fill-opacity="1" stroke="none"/>
<circle clip-path="url(#clip002)" cx="1473.04" cy="270.935" r="7.2" fill="#de8f05" fill-rule="evenodd" fill-opacity="1" stroke="none"/>
<circle clip-path="url(#clip002)" cx="1532.98" cy="233.746" r="7.2" fill="#de8f05" fill-rule="evenodd" fill-opacity="1" stroke="none"/>
<circle clip-path="url(#clip002)" cx="1592.91" cy="206.569" r="7.2" fill="#de8f05" fill-rule="evenodd" fill-opacity="1" stroke="none"/>
<circle clip-path="url(#clip002)" cx="1652.85" cy="182.726" r="7.2" fill="#de8f05" fill-rule="evenodd" fill-opacity="1" stroke="none"/>
<circle clip-path="url(#clip002)" cx="1712.78" cy="172.208" r="7.2" fill="#de8f05" fill-rule="evenodd" fill-opacity="1" stroke="none"/>
<circle clip-path="url(#clip002)" cx="1772.72" cy="165.33" r="7.2" fill="#de8f05" fill-rule="evenodd" fill-opacity="1" stroke="none"/>
<circle clip-path="url(#clip002)" cx="1832.65" cy="155.818" r="7.2" fill="#de8f05" fill-rule="evenodd" fill-opacity="1" stroke="none"/>
<circle clip-path="url(#clip002)" cx="1892.59" cy="148.794" r="7.2" fill="#de8f05" fill-rule="evenodd" fill-opacity="1" stroke="none"/>
<circle clip-path="url(#clip002)" cx="1952.52" cy="145.938" r="7.2" fill="#de8f05" fill-rule="evenodd" fill-opacity="1" stroke="none"/>
<circle clip-path="url(#clip002)" cx="2012.46" cy="144.166" r="7.2" fill="#de8f05" fill-rule="evenodd" fill-opacity="1" stroke="none"/>
<circle clip-path="url(#clip002)" cx="2072.39" cy="141.863" r="7.2" fill="#de8f05" fill-rule="evenodd" fill-opacity="1" stroke="none"/>
<circle clip-path="url(#clip002)" cx="2132.33" cy="133.965" r="7.2" fill="#de8f05" fill-rule="evenodd" fill-opacity="1" stroke="none"/>
</svg>
