<?xml version="1.0" encoding="utf-8"?>
<svg xmlns="http://www.w3.org/2000/svg" xmlns:xlink="http://www.w3.org/1999/xlink" width="566.25" height="350" viewBox="0 0 2265 1400">
<defs>
  <clipPath id="clip260">
    <rect x="0" y="0" width="2265" height="1400"/>
  </clipPath>
</defs>
<path clip-path="url(#clip260)" d="M0 1400 L2265 1400 L2265 0 L0 0  Z" fill="#ffffff" fill-rule="evenodd" fill-opacity="1"/>
<defs>
  <clipPath id="clip261">
    <rect x="453" y="0" width="1587" height="1400"/>
  </clipPath>
</defs>
<path clip-path="url(#clip260)" d="M280.342 1195.66 L2186.27 1195.66 L2186.27 103.042 L280.342 103.042  Z" fill="#ffffff" fill-rule="evenodd" fill-opacity="1"/>
<defs>
  <clipPath id="clip262">
    <rect x="280" y="103" width="1907" height="1094"/>
  </clipPath>
</defs>
<polyline clip-path="url(#clip262)" style="stroke:#000000; stroke-linecap:round; stroke-linejoin:round; stroke-width:2; stroke-opacity:0.1; fill:none" points="693.891,1195.66 693.891,103.042 "/>
<polyline clip-path="url(#clip262)" style="stroke:#000000; stroke-linecap:round; stroke-linejoin:round; stroke-width:2; stroke-opacity:0.1; fill:none" points="1143.4,1195.66 1143.4,103.042 "/>
<polyline clip-path="url(#clip262)" style="stroke:#000000; stroke-linecap:round; stroke-linejoin:round; stroke-width:2; stroke-opacity:0.1; fill:none" points="1592.91,1195.66 1592.91,103.042 "/>
<polyline clip-path="url(#clip262)" style="stroke:#000000; stroke-linecap:round; stroke-linejoin:round; stroke-width:2; stroke-opacity:0.1; fill:none" points="2042.42,1195.66 2042.42,103.042 "/>
<polyline clip-path="url(#clip260)" style="stroke:#000000; stroke-linecap:round; stroke-linejoin:round; stroke-width:4; stroke-opacity:1; fill:none" points="280.342,1195.66 2186.27,1195.66 "/>
<polyline clip-path="url(#clip260)" style="stroke:#000000; stroke-linecap:round; stroke-linejoin:round; stroke-width:4; stroke-opacity:1; fill:none" points="280.342,103.042 2186.27,103.042 "/>
<polyline clip-path="url(#clip260)" style="stroke:#000000; stroke-linecap:round; stroke-linejoin:round; stroke-width:4; stroke-opacity:1; fill:none" points="693.891,1195.66 693.891,1176.77 "/>
<polyline clip-path="url(#clip260)" style="stroke:#000000; stroke-linecap:round; stroke-linejoin:round; stroke-width:4; stroke-opacity:1; fill:none" points="1143.4,1195.66 1143.4,1176.77 "/>
<polyline clip-path="url(#clip260)" style="stroke:#000000; stroke-linecap:round; stroke-linejoin:round; stroke-width:4; stroke-opacity:1; fill:none" points="1592.91,1195.66 1592.91,1176.77 "/>
<polyline clip-path="url(#clip260)" style="stroke:#000000; stroke-linecap:round; stroke-linejoin:round; stroke-width:4; stroke-opacity:1; fill:none" points="2042.42,1195.66 2042.42,1176.77 "/>
<path clip-path="url(#clip260)" d="M681.263 1257.6 Q681.263 1255.71 682.282 1255 Q683.301 1254.26 684.381 1254.26 Q685.833 1254.26 686.666 1255.19 Q687.531 1256.08 687.531 1257.35 Q687.531 1258.62 686.666 1259.54 Q685.833 1260.44 684.381 1260.44 Q683.671 1260.44 683.301 1260.31 Q684.134 1263.22 686.666 1265.32 Q689.229 1267.42 692.595 1267.42 Q696.825 1267.42 699.357 1263.31 Q700.87 1260.65 700.87 1254.63 Q700.87 1249.32 699.727 1246.67 Q697.967 1242.62 694.355 1242.62 Q689.229 1242.62 686.203 1247.04 Q685.833 1247.59 685.4 1247.62 Q684.783 1247.62 684.628 1247.28 Q684.505 1246.91 684.505 1245.95 L684.505 1227.24 Q684.505 1225.73 685.123 1225.73 Q685.37 1225.73 685.894 1225.91 Q689.877 1227.67 694.293 1227.71 Q698.832 1227.71 702.907 1225.85 Q703.216 1225.67 703.401 1225.67 Q704.019 1225.67 704.05 1226.38 Q704.05 1226.62 703.525 1227.37 Q703.031 1228.08 701.95 1229.03 Q700.87 1229.96 699.48 1230.85 Q698.091 1231.75 696.053 1232.37 Q694.046 1232.95 691.823 1232.95 Q689.167 1232.95 686.45 1232.12 L686.45 1244.44 Q689.723 1241.23 694.478 1241.23 Q699.542 1241.23 703.031 1245.31 Q706.52 1249.38 706.52 1255.06 Q706.52 1261.02 702.382 1265.1 Q698.276 1269.18 692.718 1269.18 Q687.654 1269.18 684.443 1265.56 Q681.263 1261.95 681.263 1257.6 Z" fill="#000000" fill-rule="nonzero" fill-opacity="1" /><path clip-path="url(#clip260)" d="M1115.86 1231.69 L1115.86 1229.71 Q1123.46 1229.71 1127.38 1225.67 Q1128.46 1225.67 1128.64 1225.91 Q1128.83 1226.16 1128.83 1227.3 L1128.83 1262.78 Q1128.83 1264.67 1129.75 1265.25 Q1130.68 1265.84 1134.73 1265.84 L1136.73 1265.84 L1136.73 1267.79 Q1134.51 1267.6 1126.48 1267.6 Q1118.45 1267.6 1116.26 1267.79 L1116.26 1265.84 L1118.27 1265.84 Q1122.25 1265.84 1123.21 1265.29 Q1124.17 1264.7 1124.17 1262.78 L1124.17 1230.02 Q1120.86 1231.69 1115.86 1231.69 Z" fill="#000000" fill-rule="nonzero" fill-opacity="1" /><path clip-path="url(#clip260)" d="M1144.33 1247.56 Q1144.33 1238.27 1146.67 1233.2 Q1149.95 1225.67 1157.67 1225.67 Q1159.3 1225.67 1161 1226.13 Q1162.73 1226.56 1164.89 1228.26 Q1167.08 1229.96 1168.41 1232.74 Q1170.94 1238.11 1170.94 1247.56 Q1170.94 1256.79 1168.6 1261.83 Q1165.17 1269.18 1157.61 1269.18 Q1154.76 1269.18 1151.86 1267.72 Q1148.99 1266.27 1147.17 1262.78 Q1144.33 1257.57 1144.33 1247.56 M1149.58 1246.79 Q1149.58 1256.33 1150.26 1260.13 Q1151.03 1264.24 1153.13 1266.03 Q1155.26 1267.79 1157.61 1267.79 Q1160.14 1267.79 1162.24 1265.9 Q1164.37 1263.99 1165.02 1259.88 Q1165.73 1255.84 1165.69 1246.79 Q1165.69 1237.99 1165.08 1234.47 Q1164.24 1230.36 1162.02 1228.72 Q1159.83 1227.06 1157.61 1227.06 Q1156.77 1227.06 1155.88 1227.3 Q1155.01 1227.55 1153.75 1228.26 Q1152.48 1228.97 1151.49 1230.73 Q1150.53 1232.49 1150.07 1235.15 Q1149.58 1238.57 1149.58 1246.79 Z" fill="#000000" fill-rule="nonzero" fill-opacity="1" /><path clip-path="url(#clip260)" d="M1565.71 1231.69 L1565.71 1229.71 Q1573.31 1229.71 1577.23 1225.67 Q1578.31 1225.67 1578.49 1225.91 Q1578.68 1226.16 1578.68 1227.3 L1578.68 1262.78 Q1578.68 1264.67 1579.6 1265.25 Q1580.53 1265.84 1584.58 1265.84 L1586.58 1265.84 L1586.58 1267.79 Q1584.36 1267.6 1576.33 1267.6 Q1568.3 1267.6 1566.11 1267.79 L1566.11 1265.84 L1568.12 1265.84 Q1572.1 1265.84 1573.06 1265.29 Q1574.02 1264.7 1574.02 1262.78 L1574.02 1230.02 Q1570.71 1231.69 1565.71 1231.69 Z" fill="#000000" fill-rule="nonzero" fill-opacity="1" /><path clip-path="url(#clip260)" d="M1594.86 1257.6 Q1594.86 1255.71 1595.88 1255 Q1596.9 1254.26 1597.98 1254.26 Q1599.43 1254.26 1600.26 1255.19 Q1601.13 1256.08 1601.13 1257.35 Q1601.13 1258.62 1600.26 1259.54 Q1599.43 1260.44 1597.98 1260.44 Q1597.27 1260.44 1596.9 1260.31 Q1597.73 1263.22 1600.26 1265.32 Q1602.82 1267.42 1606.19 1267.42 Q1610.42 1267.42 1612.95 1263.31 Q1614.46 1260.65 1614.46 1254.63 Q1614.46 1249.32 1613.32 1246.67 Q1611.56 1242.62 1607.95 1242.62 Q1602.82 1242.62 1599.8 1247.04 Q1599.43 1247.59 1599 1247.62 Q1598.38 1247.62 1598.22 1247.28 Q1598.1 1246.91 1598.1 1245.95 L1598.1 1227.24 Q1598.1 1225.73 1598.72 1225.73 Q1598.96 1225.73 1599.49 1225.91 Q1603.47 1227.67 1607.89 1227.71 Q1612.43 1227.71 1616.5 1225.85 Q1616.81 1225.67 1617 1225.67 Q1617.61 1225.67 1617.64 1226.38 Q1617.64 1226.62 1617.12 1227.37 Q1616.63 1228.08 1615.55 1229.03 Q1614.46 1229.96 1613.08 1230.85 Q1611.69 1231.75 1609.65 1232.37 Q1607.64 1232.95 1605.42 1232.95 Q1602.76 1232.95 1600.05 1232.12 L1600.05 1244.44 Q1603.32 1241.23 1608.07 1241.23 Q1613.14 1241.23 1616.63 1245.31 Q1620.11 1249.38 1620.11 1255.06 Q1620.11 1261.02 1615.98 1265.1 Q1611.87 1269.18 1606.31 1269.18 Q1601.25 1269.18 1598.04 1265.56 Q1594.86 1261.95 1594.86 1257.6 Z" fill="#000000" fill-rule="nonzero" fill-opacity="1" /><path clip-path="url(#clip260)" d="M2013.65 1267.79 Q2013.65 1266.64 2013.74 1266.3 Q2013.86 1265.96 2014.36 1265.44 L2026.49 1251.91 Q2033.13 1244.44 2033.13 1237.93 Q2033.13 1233.7 2030.91 1230.67 Q2028.71 1227.64 2024.67 1227.64 Q2021.89 1227.64 2019.54 1229.34 Q2017.2 1231.04 2016.12 1234.07 Q2016.3 1234 2016.95 1234 Q2018.52 1234 2019.39 1234.99 Q2020.28 1235.98 2020.28 1237.31 Q2020.28 1239.01 2019.17 1239.84 Q2018.09 1240.64 2017.01 1240.64 Q2016.58 1240.64 2015.99 1240.55 Q2015.44 1240.46 2014.54 1239.59 Q2013.65 1238.7 2013.65 1237.12 Q2013.65 1232.71 2016.98 1229.19 Q2020.35 1225.67 2025.47 1225.67 Q2031.28 1225.67 2035.07 1229.13 Q2038.9 1232.55 2038.9 1237.93 Q2038.9 1239.81 2038.32 1241.54 Q2037.76 1243.24 2036.99 1244.57 Q2036.25 1245.89 2034.21 1248.02 Q2032.17 1250.15 2030.54 1251.67 Q2028.9 1253.18 2025.23 1256.39 L2018.52 1262.91 L2029.92 1262.91 Q2035.48 1262.91 2035.91 1262.41 Q2036.53 1261.52 2037.3 1256.79 L2038.9 1256.79 L2037.11 1267.79 L2013.65 1267.79 Z" fill="#000000" fill-rule="nonzero" fill-opacity="1" /><path clip-path="url(#clip260)" d="M2044.58 1247.56 Q2044.58 1238.27 2046.93 1233.2 Q2050.2 1225.67 2057.92 1225.67 Q2059.56 1225.67 2061.26 1226.13 Q2062.99 1226.56 2065.15 1228.26 Q2067.34 1229.96 2068.67 1232.74 Q2071.2 1238.11 2071.2 1247.56 Q2071.2 1256.79 2068.85 1261.83 Q2065.43 1269.18 2057.86 1269.18 Q2055.02 1269.18 2052.12 1267.72 Q2049.25 1266.27 2047.43 1262.78 Q2044.58 1257.57 2044.58 1247.56 M2049.83 1246.79 Q2049.83 1256.33 2050.51 1260.13 Q2051.28 1264.24 2053.38 1266.03 Q2055.52 1267.79 2057.86 1267.79 Q2060.39 1267.79 2062.49 1265.9 Q2064.62 1263.99 2065.27 1259.88 Q2065.98 1255.84 2065.95 1246.79 Q2065.95 1237.99 2065.33 1234.47 Q2064.5 1230.36 2062.28 1228.72 Q2060.08 1227.06 2057.86 1227.06 Q2057.03 1227.06 2056.13 1227.3 Q2055.27 1227.55 2054 1228.26 Q2052.74 1228.97 2051.75 1230.73 Q2050.79 1232.49 2050.33 1235.15 Q2049.83 1238.57 2049.83 1246.79 Z" fill="#000000" fill-rule="nonzero" fill-opacity="1" /><path clip-path="url(#clip260)" d="M1156.78 1354.19 Q1156.78 1352.92 1157.58 1352.09 Q1158.35 1351.29 1159.68 1351.29 Q1161.01 1351.29 1161.78 1352.09 Q1162.58 1352.92 1162.58 1354.19 Q1162.58 1355.33 1161.9 1356.04 Q1161.25 1356.78 1160.39 1357.03 Q1162.03 1357.86 1163.79 1357.86 Q1165.24 1357.86 1166.23 1357 Q1167.21 1356.13 1167.65 1354.71 Q1168.11 1353.29 1168.26 1352.09 Q1168.42 1350.91 1168.42 1349.56 L1168.42 1324.51 Q1168.42 1322.17 1167.49 1321.58 Q1166.6 1320.99 1162.98 1320.99 L1162.98 1319.02 L1172.59 1318.34 L1172.59 1349.43 Q1172.59 1353.66 1170.05 1356.44 Q1167.52 1359.25 1163.94 1359.25 Q1161.04 1359.25 1158.91 1357.89 Q1156.78 1356.53 1156.78 1354.19 M1166.87 1309.72 Q1165.89 1308.73 1165.89 1307.34 Q1165.89 1305.95 1166.87 1304.97 Q1167.86 1303.98 1169.25 1303.98 Q1170.64 1303.98 1171.63 1304.97 Q1172.62 1305.95 1172.62 1307.34 Q1172.62 1308.73 1171.63 1309.72 Q1170.64 1310.68 1169.25 1310.68 Q1167.86 1310.68 1166.87 1309.72 Z" fill="#000000" fill-rule="nonzero" fill-opacity="1" /><path clip-path="url(#clip260)" d="M1182.19 1336.68 Q1182.25 1335.91 1183.45 1335.91 L1222.2 1335.91 Q1224.03 1335.91 1224.06 1336.62 Q1224.06 1337.39 1222.33 1337.36 L1183.89 1337.36 Q1182.19 1337.39 1182.19 1336.68 M1182.19 1324.33 Q1182.19 1323.56 1183.52 1323.59 L1222.14 1323.59 Q1224.03 1323.59 1224.06 1324.33 Q1224.06 1325.04 1222.45 1325.04 L1183.45 1325.04 Q1182.19 1325.04 1182.19 1324.33 Z" fill="#000000" fill-rule="nonzero" fill-opacity="1" /><path clip-path="url(#clip260)" d="M1233.38 1310.19 L1233.38 1308.21 Q1240.98 1308.21 1244.9 1304.16 Q1245.98 1304.16 1246.16 1304.41 Q1246.35 1304.66 1246.35 1305.8 L1246.35 1341.28 Q1246.35 1343.16 1247.28 1343.75 Q1248.2 1344.34 1252.25 1344.34 L1254.25 1344.34 L1254.25 1346.28 Q1252.03 1346.1 1244 1346.1 Q1235.98 1346.1 1233.78 1346.28 L1233.78 1344.34 L1235.79 1344.34 Q1239.77 1344.34 1240.73 1343.78 Q1241.69 1343.19 1241.69 1341.28 L1241.69 1308.52 Q1238.38 1310.19 1233.38 1310.19 Z" fill="#000000" fill-rule="nonzero" fill-opacity="1" /><path clip-path="url(#clip260)" d="M1265.8 1345.33 Q1264.81 1344.34 1264.81 1342.95 Q1264.81 1341.56 1265.8 1340.57 Q1266.79 1339.58 1268.18 1339.58 Q1269.57 1339.58 1270.56 1340.57 Q1271.54 1341.56 1271.54 1342.95 Q1271.54 1344.34 1270.56 1345.33 Q1269.57 1346.28 1268.18 1346.28 Q1266.79 1346.28 1265.8 1345.33 M1265.8 1324.76 Q1264.81 1323.77 1264.81 1322.38 Q1264.81 1320.99 1265.8 1320 Q1266.79 1319.02 1268.18 1319.02 Q1269.57 1319.02 1270.56 1320 Q1271.54 1320.99 1271.54 1322.38 Q1271.54 1323.77 1270.56 1324.76 Q1269.57 1325.72 1268.18 1325.72 Q1266.79 1325.72 1265.8 1324.76 Z" fill="#000000" fill-rule="nonzero" fill-opacity="1" /><path clip-path="url(#clip260)" d="M1278.65 1356.6 Q1282.01 1356.6 1282.78 1356.16 Q1283.59 1355.76 1283.59 1353.76 L1283.59 1324.14 Q1283.59 1322.04 1282.78 1321.52 Q1282.01 1320.99 1278.65 1320.99 L1278.65 1319.02 L1287.75 1318.34 L1287.75 1322.51 Q1291.55 1318.34 1296.62 1318.34 Q1301.99 1318.34 1305.91 1322.51 Q1309.83 1326.67 1309.83 1332.63 Q1309.83 1338.66 1305.66 1342.82 Q1301.49 1346.99 1295.72 1346.99 Q1292.57 1346.99 1290.44 1345.39 Q1288.34 1343.75 1287.94 1342.55 L1287.94 1343.13 L1287.94 1353.76 Q1287.94 1355.79 1288.74 1356.2 Q1289.55 1356.6 1292.88 1356.6 L1292.88 1358.54 Q1286.24 1358.36 1285.75 1358.36 Q1285.13 1358.36 1278.65 1358.54 L1278.65 1356.6 M1287.94 1339.09 Q1287.94 1340.05 1288.06 1340.38 Q1288.22 1340.72 1288.84 1341.74 Q1291.34 1345.57 1295.41 1345.57 Q1295.44 1345.57 1295.47 1345.57 Q1299.09 1345.57 1301.83 1341.9 Q1304.58 1338.19 1304.58 1332.63 Q1304.58 1327.32 1302.08 1323.62 Q1299.58 1319.91 1296.12 1319.91 Q1293.65 1319.91 1291.49 1321.24 Q1289.33 1322.57 1287.94 1324.98 L1287.94 1339.09 Z" fill="#000000" fill-rule="nonzero" fill-opacity="1" /><polyline clip-path="url(#clip262)" style="stroke:#000000; stroke-linecap:round; stroke-linejoin:round; stroke-width:2; stroke-opacity:0.1; fill:none" points="280.342,1164.93 2186.27,1164.93 "/>
<polyline clip-path="url(#clip262)" style="stroke:#000000; stroke-linecap:round; stroke-linejoin:round; stroke-width:2; stroke-opacity:0.1; fill:none" points="280.342,904.183 2186.27,904.183 "/>
<polyline clip-path="url(#clip262)" style="stroke:#000000; stroke-linecap:round; stroke-linejoin:round; stroke-width:2; stroke-opacity:0.1; fill:none" points="280.342,643.44 2186.27,643.44 "/>
<polyline clip-path="url(#clip262)" style="stroke:#000000; stroke-linecap:round; stroke-linejoin:round; stroke-width:2; stroke-opacity:0.1; fill:none" points="280.342,382.697 2186.27,382.697 "/>
<polyline clip-path="url(#clip262)" style="stroke:#000000; stroke-linecap:round; stroke-linejoin:round; stroke-width:2; stroke-opacity:0.1; fill:none" points="280.342,121.954 2186.27,121.954 "/>
<polyline clip-path="url(#clip260)" style="stroke:#000000; stroke-linecap:round; stroke-linejoin:round; stroke-width:4; stroke-opacity:1; fill:none" points="280.342,1195.66 280.342,103.042 "/>
<polyline clip-path="url(#clip260)" style="stroke:#000000; stroke-linecap:round; stroke-linejoin:round; stroke-width:4; stroke-opacity:1; fill:none" points="2186.27,1195.66 2186.27,103.042 "/>
<polyline clip-path="url(#clip260)" style="stroke:#000000; stroke-linecap:round; stroke-linejoin:round; stroke-width:4; stroke-opacity:1; fill:none" points="280.342,1164.93 299.238,1164.93 "/>
<polyline clip-path="url(#clip260)" style="stroke:#000000; stroke-linecap:round; stroke-linejoin:round; stroke-width:4; stroke-opacity:1; fill:none" points="280.342,904.183 299.238,904.183 "/>
<polyline clip-path="url(#clip260)" style="stroke:#000000; stroke-linecap:round; stroke-linejoin:round; stroke-width:4; stroke-opacity:1; fill:none" points="280.342,643.44 299.238,643.44 "/>
<polyline clip-path="url(#clip260)" style="stroke:#000000; stroke-linecap:round; stroke-linejoin:round; stroke-width:4; stroke-opacity:1; fill:none" points="280.342,382.697 299.238,382.697 "/>
<polyline clip-path="url(#clip260)" style="stroke:#000000; stroke-linecap:round; stroke-linejoin:round; stroke-width:4; stroke-opacity:1; fill:none" points="280.342,121.954 299.238,121.954 "/>
<path clip-path="url(#clip260)" d="M138.947 1166.3 Q138.947 1157.01 141.294 1151.94 Q144.567 1144.41 152.286 1144.41 Q153.922 1144.41 155.621 1144.87 Q157.35 1145.3 159.511 1147 Q161.703 1148.7 163.031 1151.48 Q165.563 1156.85 165.563 1166.3 Q165.563 1175.53 163.216 1180.57 Q159.789 1187.92 152.224 1187.92 Q149.384 1187.92 146.481 1186.46 Q143.61 1185.01 141.788 1181.52 Q138.947 1176.3 138.947 1166.3 M144.196 1165.53 Q144.196 1175.07 144.876 1178.87 Q145.648 1182.97 147.747 1184.77 Q149.878 1186.53 152.224 1186.53 Q154.756 1186.53 156.856 1184.64 Q158.986 1182.73 159.635 1178.62 Q160.345 1174.58 160.314 1165.53 Q160.314 1156.73 159.696 1153.21 Q158.863 1149.1 156.64 1147.46 Q154.447 1145.8 152.224 1145.8 Q151.391 1145.8 150.495 1146.04 Q149.631 1146.29 148.365 1147 Q147.099 1147.71 146.111 1149.47 Q145.154 1151.23 144.69 1153.89 Q144.196 1157.31 144.196 1165.53 Z" fill="#000000" fill-rule="nonzero" fill-opacity="1" /><path clip-path="url(#clip260)" d="M174.424 1185.51 Q173.467 1184.49 173.467 1183.16 Q173.467 1181.83 174.424 1180.88 Q175.382 1179.89 176.833 1179.89 Q178.222 1179.89 179.149 1180.81 Q180.106 1181.71 180.106 1183.19 Q180.106 1184.64 179.087 1185.6 Q178.099 1186.53 176.833 1186.53 Q175.382 1186.53 174.424 1185.51 Z" fill="#000000" fill-rule="nonzero" fill-opacity="1" /><path clip-path="url(#clip260)" d="M188.134 1166.3 Q188.134 1157.01 190.48 1151.94 Q193.753 1144.41 201.472 1144.41 Q203.109 1144.41 204.807 1144.87 Q206.536 1145.3 208.697 1147 Q210.89 1148.7 212.217 1151.48 Q214.749 1156.85 214.749 1166.3 Q214.749 1175.53 212.403 1180.57 Q208.975 1187.92 201.411 1187.92 Q198.57 1187.92 195.667 1186.46 Q192.796 1185.01 190.974 1181.52 Q188.134 1176.3 188.134 1166.3 M193.383 1165.53 Q193.383 1175.07 194.062 1178.87 Q194.834 1182.97 196.933 1184.77 Q199.064 1186.53 201.411 1186.53 Q203.942 1186.53 206.042 1184.64 Q208.172 1182.73 208.821 1178.62 Q209.531 1174.58 209.5 1165.53 Q209.5 1156.73 208.883 1153.21 Q208.049 1149.1 205.826 1147.46 Q203.634 1145.8 201.411 1145.8 Q200.577 1145.8 199.681 1146.04 Q198.817 1146.29 197.551 1147 Q196.285 1147.71 195.297 1149.47 Q194.34 1151.23 193.877 1153.89 Q193.383 1157.31 193.383 1165.53 Z" fill="#000000" fill-rule="nonzero" fill-opacity="1" /><path clip-path="url(#clip260)" d="M219.751 1166.3 Q219.751 1157.01 222.098 1151.94 Q225.371 1144.41 233.09 1144.41 Q234.726 1144.41 236.424 1144.87 Q238.154 1145.3 240.315 1147 Q242.507 1148.7 243.835 1151.48 Q246.367 1156.85 246.367 1166.3 Q246.367 1175.53 244.02 1180.57 Q240.593 1187.92 233.028 1187.92 Q230.187 1187.92 227.285 1186.46 Q224.413 1185.01 222.592 1181.52 Q219.751 1176.3 219.751 1166.3 M225 1165.53 Q225 1175.07 225.679 1178.87 Q226.451 1182.97 228.551 1184.77 Q230.681 1186.53 233.028 1186.53 Q235.56 1186.53 237.659 1184.64 Q239.79 1182.73 240.438 1178.62 Q241.149 1174.58 241.118 1165.53 Q241.118 1156.73 240.5 1153.21 Q239.666 1149.1 237.443 1147.46 Q235.251 1145.8 233.028 1145.8 Q232.194 1145.8 231.299 1146.04 Q230.434 1146.29 229.168 1147 Q227.903 1147.71 226.914 1149.47 Q225.957 1151.23 225.494 1153.89 Q225 1157.31 225 1165.53 Z" fill="#000000" fill-rule="nonzero" fill-opacity="1" /><path clip-path="url(#clip260)" d="M139.627 905.557 Q139.627 896.263 141.973 891.198 Q145.246 883.664 152.965 883.664 Q154.602 883.664 156.3 884.127 Q158.029 884.559 160.19 886.258 Q162.383 887.956 163.71 890.735 Q166.242 896.108 166.242 905.557 Q166.242 914.79 163.896 919.823 Q160.468 927.173 152.904 927.173 Q150.063 927.173 147.161 925.721 Q144.289 924.27 142.467 920.781 Q139.627 915.562 139.627 905.557 M144.876 904.785 Q144.876 914.327 145.555 918.125 Q146.327 922.232 148.426 924.023 Q150.557 925.783 152.904 925.783 Q155.435 925.783 157.535 923.899 Q159.666 921.985 160.314 917.878 Q161.024 913.833 160.993 904.785 Q160.993 895.985 160.376 892.464 Q159.542 888.357 157.319 886.721 Q155.127 885.053 152.904 885.053 Q152.07 885.053 151.174 885.3 Q150.31 885.547 149.044 886.258 Q147.778 886.968 146.79 888.728 Q145.833 890.488 145.37 893.144 Q144.876 896.571 144.876 904.785 Z" fill="#000000" fill-rule="nonzero" fill-opacity="1" /><path clip-path="url(#clip260)" d="M175.104 924.764 Q174.147 923.745 174.147 922.417 Q174.147 921.089 175.104 920.132 Q176.061 919.144 177.512 919.144 Q178.902 919.144 179.828 920.07 Q180.785 920.966 180.785 922.448 Q180.785 923.899 179.766 924.857 Q178.778 925.783 177.512 925.783 Q176.061 925.783 175.104 924.764 Z" fill="#000000" fill-rule="nonzero" fill-opacity="1" /><path clip-path="url(#clip260)" d="M189.492 925.783 Q189.492 924.64 189.585 924.301 Q189.708 923.961 190.202 923.436 L202.337 909.911 Q208.975 902.438 208.975 895.923 Q208.975 891.692 206.752 888.666 Q204.56 885.64 200.515 885.64 Q197.736 885.64 195.39 887.338 Q193.043 889.037 191.962 892.063 Q192.148 892.001 192.796 892.001 Q194.371 892.001 195.235 892.989 Q196.131 893.977 196.131 895.305 Q196.131 897.004 195.019 897.837 Q193.938 898.64 192.858 898.64 Q192.425 898.64 191.839 898.548 Q191.283 898.455 190.388 897.59 Q189.492 896.695 189.492 895.12 Q189.492 890.704 192.827 887.184 Q196.192 883.664 201.318 883.664 Q207.123 883.664 210.92 887.122 Q214.749 890.55 214.749 895.923 Q214.749 897.806 214.162 899.536 Q213.607 901.234 212.835 902.562 Q212.094 903.89 210.056 906.02 Q208.018 908.151 206.382 909.664 Q204.745 911.177 201.071 914.389 L194.371 920.904 L205.764 920.904 Q211.322 920.904 211.754 920.41 Q212.372 919.515 213.144 914.79 L214.749 914.79 L212.958 925.783 L189.492 925.783 Z" fill="#000000" fill-rule="nonzero" fill-opacity="1" /><path clip-path="url(#clip260)" d="M221.11 915.593 Q221.11 913.709 222.129 912.999 Q223.148 912.258 224.228 912.258 Q225.679 912.258 226.513 913.184 Q227.378 914.08 227.378 915.346 Q227.378 916.612 226.513 917.538 Q225.679 918.434 224.228 918.434 Q223.518 918.434 223.148 918.31 Q223.981 921.213 226.513 923.313 Q229.076 925.412 232.441 925.412 Q236.671 925.412 239.203 921.306 Q240.716 918.65 240.716 912.628 Q240.716 907.317 239.574 904.662 Q237.814 900.616 234.201 900.616 Q229.076 900.616 226.05 905.032 Q225.679 905.588 225.247 905.619 Q224.63 905.619 224.475 905.279 Q224.352 904.909 224.352 903.951 L224.352 885.239 Q224.352 883.726 224.969 883.726 Q225.216 883.726 225.741 883.911 Q229.724 885.671 234.14 885.702 Q238.678 885.702 242.754 883.849 Q243.063 883.664 243.248 883.664 Q243.866 883.664 243.897 884.374 Q243.897 884.621 243.372 885.362 Q242.878 886.072 241.797 887.03 Q240.716 887.956 239.327 888.852 Q237.937 889.747 235.9 890.365 Q233.893 890.951 231.669 890.951 Q229.014 890.951 226.297 890.118 L226.297 902.438 Q229.57 899.227 234.325 899.227 Q239.389 899.227 242.878 903.303 Q246.367 907.379 246.367 913.061 Q246.367 919.02 242.229 923.097 Q238.123 927.173 232.565 927.173 Q227.501 927.173 224.29 923.56 Q221.11 919.947 221.11 915.593 Z" fill="#000000" fill-rule="nonzero" fill-opacity="1" /><path clip-path="url(#clip260)" d="M138.947 644.814 Q138.947 635.52 141.294 630.455 Q144.567 622.921 152.286 622.921 Q153.922 622.921 155.621 623.384 Q157.35 623.816 159.511 625.515 Q161.703 627.213 163.031 629.992 Q165.563 635.365 165.563 644.814 Q165.563 654.047 163.216 659.08 Q159.789 666.43 152.224 666.43 Q149.384 666.43 146.481 664.978 Q143.61 663.527 141.788 660.038 Q138.947 654.819 138.947 644.814 M144.196 644.042 Q144.196 653.584 144.876 657.382 Q145.648 661.489 147.747 663.28 Q149.878 665.04 152.224 665.04 Q154.756 665.04 156.856 663.156 Q158.986 661.242 159.635 657.135 Q160.345 653.09 160.314 644.042 Q160.314 635.242 159.696 631.721 Q158.863 627.614 156.64 625.978 Q154.447 624.31 152.224 624.31 Q151.391 624.31 150.495 624.557 Q149.631 624.804 148.365 625.515 Q147.099 626.225 146.111 627.985 Q145.154 629.745 144.69 632.401 Q144.196 635.828 144.196 644.042 Z" fill="#000000" fill-rule="nonzero" fill-opacity="1" /><path clip-path="url(#clip260)" d="M174.424 664.021 Q173.467 663.002 173.467 661.674 Q173.467 660.346 174.424 659.389 Q175.382 658.401 176.833 658.401 Q178.222 658.401 179.149 659.327 Q180.106 660.223 180.106 661.705 Q180.106 663.156 179.087 664.114 Q178.099 665.04 176.833 665.04 Q175.382 665.04 174.424 664.021 Z" fill="#000000" fill-rule="nonzero" fill-opacity="1" /><path clip-path="url(#clip260)" d="M188.813 654.85 Q188.813 652.966 189.832 652.256 Q190.851 651.515 191.931 651.515 Q193.383 651.515 194.216 652.441 Q195.081 653.337 195.081 654.603 Q195.081 655.869 194.216 656.795 Q193.383 657.691 191.931 657.691 Q191.221 657.691 190.851 657.567 Q191.684 660.47 194.216 662.57 Q196.779 664.669 200.145 664.669 Q204.375 664.669 206.907 660.563 Q208.419 657.907 208.419 651.886 Q208.419 646.574 207.277 643.919 Q205.517 639.874 201.905 639.874 Q196.779 639.874 193.753 644.289 Q193.383 644.845 192.95 644.876 Q192.333 644.876 192.178 644.536 Q192.055 644.166 192.055 643.208 L192.055 624.496 Q192.055 622.983 192.672 622.983 Q192.919 622.983 193.444 623.168 Q197.427 624.928 201.843 624.959 Q206.382 624.959 210.457 623.106 Q210.766 622.921 210.951 622.921 Q211.569 622.921 211.6 623.631 Q211.6 623.878 211.075 624.619 Q210.581 625.329 209.5 626.287 Q208.419 627.213 207.03 628.109 Q205.641 629.004 203.603 629.622 Q201.596 630.208 199.373 630.208 Q196.717 630.208 194 629.375 L194 641.695 Q197.273 638.484 202.028 638.484 Q207.092 638.484 210.581 642.56 Q214.07 646.636 214.07 652.318 Q214.07 658.278 209.932 662.354 Q205.826 666.43 200.268 666.43 Q195.204 666.43 191.993 662.817 Q188.813 659.204 188.813 654.85 Z" fill="#000000" fill-rule="nonzero" fill-opacity="1" /><path clip-path="url(#clip260)" d="M219.751 644.814 Q219.751 635.52 222.098 630.455 Q225.371 622.921 233.09 622.921 Q234.726 622.921 236.424 623.384 Q238.154 623.816 240.315 625.515 Q242.507 627.213 243.835 629.992 Q246.367 635.365 246.367 644.814 Q246.367 654.047 244.02 659.08 Q240.593 666.43 233.028 666.43 Q230.187 666.43 227.285 664.978 Q224.413 663.527 222.592 660.038 Q219.751 654.819 219.751 644.814 M225 644.042 Q225 653.584 225.679 657.382 Q226.451 661.489 228.551 663.28 Q230.681 665.04 233.028 665.04 Q235.56 665.04 237.659 663.156 Q239.79 661.242 240.438 657.135 Q241.149 653.09 241.118 644.042 Q241.118 635.242 240.5 631.721 Q239.666 627.614 237.443 625.978 Q235.251 624.31 233.028 624.31 Q232.194 624.31 231.299 624.557 Q230.434 624.804 229.168 625.515 Q227.903 626.225 226.914 627.985 Q225.957 629.745 225.494 632.401 Q225 635.828 225 644.042 Z" fill="#000000" fill-rule="nonzero" fill-opacity="1" /><path clip-path="url(#clip260)" d="M139.627 384.071 Q139.627 374.777 141.973 369.712 Q145.246 362.178 152.965 362.178 Q154.602 362.178 156.3 362.641 Q158.029 363.073 160.19 364.772 Q162.383 366.47 163.71 369.249 Q166.242 374.622 166.242 384.071 Q166.242 393.304 163.896 398.337 Q160.468 405.687 152.904 405.687 Q150.063 405.687 147.161 404.235 Q144.289 402.784 142.467 399.295 Q139.627 394.076 139.627 384.071 M144.876 383.299 Q144.876 392.841 145.555 396.639 Q146.327 400.746 148.426 402.537 Q150.557 404.297 152.904 404.297 Q155.435 404.297 157.535 402.413 Q159.666 400.499 160.314 396.392 Q161.024 392.347 160.993 383.299 Q160.993 374.499 160.376 370.978 Q159.542 366.871 157.319 365.235 Q155.127 363.567 152.904 363.567 Q152.07 363.567 151.174 363.814 Q150.31 364.061 149.044 364.772 Q147.778 365.482 146.79 367.242 Q145.833 369.002 145.37 371.658 Q144.876 375.085 144.876 383.299 Z" fill="#000000" fill-rule="nonzero" fill-opacity="1" /><path clip-path="url(#clip260)" d="M175.104 403.278 Q174.147 402.259 174.147 400.931 Q174.147 399.603 175.104 398.646 Q176.061 397.658 177.512 397.658 Q178.902 397.658 179.828 398.584 Q180.785 399.48 180.785 400.962 Q180.785 402.413 179.766 403.371 Q178.778 404.297 177.512 404.297 Q176.061 404.297 175.104 403.278 Z" fill="#000000" fill-rule="nonzero" fill-opacity="1" /><path clip-path="url(#clip260)" d="M189.894 374.56 L191.962 361.56 L193.537 361.56 Q193.722 362.332 194.031 362.672 Q194.371 363.012 196.161 363.289 Q197.983 363.567 201.658 363.567 L217.003 363.567 Q217.003 365.019 216.447 365.791 L207.895 377.803 Q205.177 381.601 203.973 388.61 Q203.263 393.304 203.294 398.986 L203.294 402.197 Q203.294 405.687 200.361 405.687 Q197.458 405.687 197.458 402.197 Q197.458 390.124 205.239 378.42 Q206.073 377.216 209.13 372.924 Q212.217 368.632 212.341 368.446 L199.249 368.446 Q193.506 368.446 193.043 368.817 Q192.425 369.373 191.468 374.56 L189.894 374.56 Z" fill="#000000" fill-rule="nonzero" fill-opacity="1" /><path clip-path="url(#clip260)" d="M221.11 394.107 Q221.11 392.223 222.129 391.513 Q223.148 390.772 224.228 390.772 Q225.679 390.772 226.513 391.698 Q227.378 392.594 227.378 393.86 Q227.378 395.126 226.513 396.052 Q225.679 396.948 224.228 396.948 Q223.518 396.948 223.148 396.824 Q223.981 399.727 226.513 401.827 Q229.076 403.927 232.441 403.927 Q236.671 403.927 239.203 399.82 Q240.716 397.164 240.716 391.143 Q240.716 385.831 239.574 383.176 Q237.814 379.131 234.201 379.131 Q229.076 379.131 226.05 383.546 Q225.679 384.102 225.247 384.133 Q224.63 384.133 224.475 383.793 Q224.352 383.423 224.352 382.465 L224.352 363.753 Q224.352 362.24 224.969 362.24 Q225.216 362.24 225.741 362.425 Q229.724 364.185 234.14 364.216 Q238.678 364.216 242.754 362.363 Q243.063 362.178 243.248 362.178 Q243.866 362.178 243.897 362.888 Q243.897 363.135 243.372 363.876 Q242.878 364.586 241.797 365.544 Q240.716 366.47 239.327 367.366 Q237.937 368.261 235.9 368.879 Q233.893 369.465 231.669 369.465 Q229.014 369.465 226.297 368.632 L226.297 380.952 Q229.57 377.741 234.325 377.741 Q239.389 377.741 242.878 381.817 Q246.367 385.893 246.367 391.575 Q246.367 397.535 242.229 401.611 Q238.123 405.687 232.565 405.687 Q227.501 405.687 224.29 402.074 Q221.11 398.461 221.11 394.107 Z" fill="#000000" fill-rule="nonzero" fill-opacity="1" /><path clip-path="url(#clip260)" d="M142.097 107.456 L142.097 105.48 Q149.692 105.48 153.614 101.435 Q154.694 101.435 154.88 101.682 Q155.065 101.929 155.065 103.071 L155.065 138.552 Q155.065 140.435 155.991 141.022 Q156.918 141.609 160.962 141.609 L162.969 141.609 L162.969 143.554 Q160.746 143.369 152.718 143.369 Q144.69 143.369 142.498 143.554 L142.498 141.609 L144.505 141.609 Q148.488 141.609 149.445 141.053 Q150.403 140.466 150.403 138.552 L150.403 105.789 Q147.099 107.456 142.097 107.456 Z" fill="#000000" fill-rule="nonzero" fill-opacity="1" /><path clip-path="url(#clip260)" d="M174.424 142.535 Q173.467 141.516 173.467 140.188 Q173.467 138.86 174.424 137.903 Q175.382 136.915 176.833 136.915 Q178.222 136.915 179.149 137.841 Q180.106 138.737 180.106 140.219 Q180.106 141.67 179.087 142.628 Q178.099 143.554 176.833 143.554 Q175.382 143.554 174.424 142.535 Z" fill="#000000" fill-rule="nonzero" fill-opacity="1" /><path clip-path="url(#clip260)" d="M188.134 123.328 Q188.134 114.034 190.48 108.969 Q193.753 101.435 201.472 101.435 Q203.109 101.435 204.807 101.898 Q206.536 102.33 208.697 104.029 Q210.89 105.727 212.217 108.506 Q214.749 113.879 214.749 123.328 Q214.749 132.561 212.403 137.594 Q208.975 144.944 201.411 144.944 Q198.57 144.944 195.667 143.492 Q192.796 142.041 190.974 138.552 Q188.134 133.333 188.134 123.328 M193.383 122.556 Q193.383 132.098 194.062 135.896 Q194.834 140.003 196.933 141.794 Q199.064 143.554 201.411 143.554 Q203.942 143.554 206.042 141.67 Q208.172 139.756 208.821 135.649 Q209.531 131.604 209.5 122.556 Q209.5 113.756 208.883 110.235 Q208.049 106.129 205.826 104.492 Q203.634 102.824 201.411 102.824 Q200.577 102.824 199.681 103.071 Q198.817 103.318 197.551 104.029 Q196.285 104.739 195.297 106.499 Q194.34 108.259 193.877 110.915 Q193.383 114.342 193.383 122.556 Z" fill="#000000" fill-rule="nonzero" fill-opacity="1" /><path clip-path="url(#clip260)" d="M219.751 123.328 Q219.751 114.034 222.098 108.969 Q225.371 101.435 233.09 101.435 Q234.726 101.435 236.424 101.898 Q238.154 102.33 240.315 104.029 Q242.507 105.727 243.835 108.506 Q246.367 113.879 246.367 123.328 Q246.367 132.561 244.02 137.594 Q240.593 144.944 233.028 144.944 Q230.187 144.944 227.285 143.492 Q224.413 142.041 222.592 138.552 Q219.751 133.333 219.751 123.328 M225 122.556 Q225 132.098 225.679 135.896 Q226.451 140.003 228.551 141.794 Q230.681 143.554 233.028 143.554 Q235.56 143.554 237.659 141.67 Q239.79 139.756 240.438 135.649 Q241.149 131.604 241.118 122.556 Q241.118 113.756 240.5 110.235 Q239.666 106.129 237.443 104.492 Q235.251 102.824 233.028 102.824 Q232.194 102.824 231.299 103.071 Q230.434 103.318 229.168 104.029 Q227.903 104.739 226.914 106.499 Q225.957 108.259 225.494 110.915 Q225 114.342 225 122.556 Z" fill="#000000" fill-rule="nonzero" fill-opacity="1" /><path clip-path="url(#clip260)" d="M92.0135 963.595 L90.0683 963.595 L90.0683 962.082 Q90.0683 958.655 89.5125 957.883 Q88.9259 957.08 87.0733 957.08 L53.7576 957.08 Q51.9359 957.08 51.3801 957.883 Q50.7934 958.686 50.7934 962.082 L50.7934 963.595 L48.8174 963.595 L48.8174 941.27 Q48.8174 934.878 52.3373 930.616 Q55.8572 926.355 60.5813 926.355 Q65.2745 926.355 68.6709 930.709 Q72.0365 935.032 72.0365 940.776 L72.0365 951.46 L87.0733 951.46 Q88.895 951.46 89.4817 950.688 Q90.0683 949.885 90.0683 946.457 L90.0683 944.944 L92.0135 944.944 Q91.8283 947.168 91.8283 954.301 Q91.8283 961.372 92.0135 963.595 M70.4 951.645 L70.4 942.937 Q70.4 940.096 69.5972 938.027 Q68.7944 935.959 67.8373 935.032 Q66.8492 934.075 65.2745 933.55 Q63.6689 932.994 62.8044 932.932 Q61.909 932.871 60.5813 932.871 Q59.1918 932.871 58.3273 932.932 Q57.4319 932.994 55.8572 933.55 Q54.2516 934.075 53.2944 935.032 Q52.3064 935.959 51.5654 938.027 Q50.7934 940.065 50.7934 942.937 L50.7934 948.557 Q50.7934 950.719 51.2257 951.182 Q51.658 951.645 53.3253 951.645 L70.4 951.645 Z" fill="#000000" fill-rule="nonzero" fill-opacity="1" /><path clip-path="url(#clip260)" d="M92.0135 921.075 L90.0683 921.075 Q90.0683 917.709 89.6669 916.937 Q89.2347 916.134 87.1968 916.134 L70.2456 916.134 Q67.899 916.134 67.3124 916.968 Q66.7257 917.771 66.7257 921.075 L64.7496 921.075 L64.0703 912.274 L71.0175 912.274 Q68.3004 911.379 66.2008 909.495 Q64.0703 907.581 64.0703 904.493 Q64.0703 902.455 65.2128 901.158 Q66.3552 899.83 67.9299 899.83 Q69.3193 899.83 70.0295 900.694 Q70.7088 901.528 70.7088 902.547 Q70.7088 903.69 69.9986 904.493 Q69.2576 905.265 67.9916 905.265 Q67.2197 905.265 66.6331 904.925 Q66.0155 904.554 65.7994 904.276 Q65.5833 903.999 65.5215 903.813 Q65.4598 903.937 65.4598 904.493 Q65.4598 907.982 68.9488 909.989 Q72.407 911.965 77.3472 911.965 L87.0733 911.965 Q88.895 911.965 89.4817 911.224 Q90.0683 910.452 90.0683 907.148 L90.0683 905.82 L92.0135 905.82 Q91.8283 908.353 91.8283 913.849 Q91.8283 914.621 91.8592 915.825 Q91.89 917.03 91.9518 918.604 Q92.0135 920.179 92.0135 921.075 Z" fill="#000000" fill-rule="nonzero" fill-opacity="1" /><path clip-path="url(#clip260)" d="M88.6171 892.203 Q84.4797 896.371 78.4896 896.371 Q72.4687 896.371 68.0843 892.295 Q63.6689 888.188 63.6689 882.321 Q63.6689 876.578 68.0534 872.471 Q72.407 868.333 78.4896 868.333 Q84.4488 868.333 88.5863 872.502 Q92.7237 876.64 92.7237 882.383 Q92.7237 888.003 88.6171 892.203 M77.9647 891.122 Q84.1092 891.122 86.888 889.516 Q91.1181 887.046 91.1181 882.321 Q91.1181 879.975 89.8522 878.029 Q88.5863 876.053 86.4558 874.972 Q83.6769 873.583 77.9647 873.583 Q71.8821 873.583 69.1958 875.25 Q65.0893 877.72 65.0893 882.383 Q65.0893 884.421 66.1699 886.428 Q67.2197 888.405 69.3193 889.609 Q72.0982 891.122 77.9647 891.122 Z" fill="#000000" fill-rule="nonzero" fill-opacity="1" /><path clip-path="url(#clip260)" d="M50.7934 864.751 L48.8174 864.751 L48.1381 855.642 L68.1769 855.642 Q64.0703 851.967 64.0703 846.965 Q64.0703 841.53 68.2387 837.547 Q72.407 833.563 78.3661 833.563 Q84.3871 833.563 88.5554 837.732 Q92.7237 841.9 92.7237 847.675 Q92.7237 852.924 88.0922 855.951 Q91.9518 858.174 92.0135 858.236 L92.0135 859.81 L54.3134 859.81 Q51.9668 859.81 51.3801 860.644 Q50.7934 861.478 50.7934 864.751 M84.8193 855.456 Q86.147 855.456 87.4747 854.561 Q91.3034 852.06 91.3034 847.984 Q91.3034 847.953 91.3034 847.922 Q91.3034 843.506 87.2586 840.758 Q84.2327 838.813 78.3044 838.813 Q72.4379 838.813 69.5046 840.634 Q65.4598 843.167 65.4598 847.273 Q65.4598 851.905 69.5046 854.746 Q70.5235 855.456 71.7894 855.456 L84.8193 855.456 Z" fill="#000000" fill-rule="nonzero" fill-opacity="1" /><path clip-path="url(#clip260)" d="M85.9926 828.777 Q80.6201 828.777 77.7795 822.447 Q75.9578 818.648 75.4946 810.805 L73.1789 810.805 Q69.2576 810.805 67.1889 812.874 Q65.0893 814.912 65.0893 817.506 Q65.0893 822.138 67.9916 824.361 Q68.0534 822.477 69.0106 821.798 Q69.9369 821.119 70.894 821.119 Q72.16 821.119 72.9936 821.922 Q73.7964 822.694 73.7964 824.021 Q73.7964 825.287 73.0245 826.121 Q72.2217 826.955 70.8323 826.955 Q67.7446 826.955 65.7068 824.176 Q63.6689 821.366 63.6689 817.382 Q63.6689 812.195 67.158 808.736 Q68.2387 807.655 69.6281 807.131 Q71.0175 806.575 71.9438 806.513 Q72.8392 806.451 74.6301 806.451 L87.2586 806.451 Q87.6291 806.451 88.2466 806.328 Q88.8641 806.204 89.6669 805.648 Q90.4388 805.062 90.4388 804.104 Q90.4388 801.819 86.394 801.85 L82.8432 801.85 L82.8432 800.244 L86.394 800.244 Q89.7596 800.244 91.0872 802.035 Q92.3841 803.796 92.3841 805.432 Q92.3841 807.532 90.8402 808.86 Q89.2964 810.188 87.1968 810.373 Q89.6052 811.33 91.1799 813.522 Q92.7237 815.684 92.7237 818.648 Q92.7237 820.934 92.137 823.095 Q91.5813 825.226 90.0066 827.017 Q88.401 828.777 85.9926 828.777 M85.9309 823.898 Q88.2775 823.898 89.7904 822.23 Q91.3034 820.563 91.3034 818.216 Q91.3034 815.561 89.2655 813.183 Q87.1968 810.805 83.152 810.805 L76.8223 810.805 Q77.0693 817.815 79.8791 820.872 Q82.658 823.898 85.9309 823.898 Z" fill="#000000" fill-rule="nonzero" fill-opacity="1" /><path clip-path="url(#clip260)" d="M50.7934 798.052 L48.8174 798.052 L48.1381 788.943 L68.1769 788.943 Q64.0703 785.268 64.0703 780.266 Q64.0703 774.831 68.2387 770.847 Q72.407 766.864 78.3661 766.864 Q84.3871 766.864 88.5554 771.033 Q92.7237 775.201 92.7237 780.976 Q92.7237 786.225 88.0922 789.251 Q91.9518 791.475 92.0135 791.537 L92.0135 793.111 L54.3134 793.111 Q51.9668 793.111 51.3801 793.945 Q50.7934 794.779 50.7934 798.052 M84.8193 788.757 Q86.147 788.757 87.4747 787.862 Q91.3034 785.361 91.3034 781.285 Q91.3034 781.254 91.3034 781.223 Q91.3034 776.807 87.2586 774.059 Q84.2327 772.113 78.3044 772.113 Q72.4379 772.113 69.5046 773.935 Q65.4598 776.467 65.4598 780.574 Q65.4598 785.206 69.5046 788.047 Q70.5235 788.757 71.7894 788.757 L84.8193 788.757 Z" fill="#000000" fill-rule="nonzero" fill-opacity="1" /><path clip-path="url(#clip260)" d="M92.0135 762.634 L90.0683 762.634 Q90.0683 759.268 89.6669 758.496 Q89.2347 757.724 87.1968 757.724 L70.1839 757.724 Q67.8373 757.724 67.2815 758.527 Q66.7257 759.299 66.7257 762.387 L64.7496 762.387 L64.0703 753.555 L87.2586 753.555 Q89.142 753.555 89.6052 752.876 Q90.0683 752.196 90.0683 749.108 L92.0135 749.108 Q91.8283 755.562 91.8283 755.686 Q91.8283 756.55 92.0135 762.634 M53.0474 759.978 Q51.7815 759.978 50.7626 759.021 Q49.7128 758.033 49.7128 756.643 Q49.7128 755.253 50.6699 754.265 Q51.5962 753.277 53.0783 753.277 Q54.5295 753.277 55.4867 754.265 Q56.413 755.253 56.413 756.643 Q56.413 758.094 55.394 759.052 Q54.3751 759.978 53.0474 759.978 Z" fill="#000000" fill-rule="nonzero" fill-opacity="1" /><path clip-path="url(#clip260)" d="M92.0135 745.125 L90.0683 745.125 Q90.0683 741.759 89.6669 740.987 Q89.2347 740.215 87.1968 740.215 L54.3134 740.215 Q51.9668 740.215 51.3801 741.049 Q50.7934 741.852 50.7934 745.125 L48.8174 745.125 L48.1381 736.047 L87.1968 736.047 Q89.2347 736.047 89.6669 735.244 Q90.0683 734.441 90.0683 731.106 L92.0135 731.106 Q92.0135 731.878 91.9518 733.484 Q91.89 735.089 91.8592 736.263 Q91.8283 737.436 91.8283 738.115 Q91.8283 738.857 92.0135 745.125 Z" fill="#000000" fill-rule="nonzero" fill-opacity="1" /><path clip-path="url(#clip260)" d="M92.0135 727.617 L90.0683 727.617 Q90.0683 724.251 89.6669 723.479 Q89.2347 722.707 87.1968 722.707 L70.1839 722.707 Q67.8373 722.707 67.2815 723.51 Q66.7257 724.282 66.7257 727.37 L64.7496 727.37 L64.0703 718.538 L87.2586 718.538 Q89.142 718.538 89.6052 717.859 Q90.0683 717.179 90.0683 714.091 L92.0135 714.091 Q91.8283 720.545 91.8283 720.669 Q91.8283 721.533 92.0135 727.617 M53.0474 724.961 Q51.7815 724.961 50.7626 724.004 Q49.7128 723.016 49.7128 721.626 Q49.7128 720.236 50.6699 719.248 Q51.5962 718.26 53.0783 718.26 Q54.5295 718.26 55.4867 719.248 Q56.413 720.236 56.413 721.626 Q56.413 723.077 55.394 724.035 Q54.3751 724.961 53.0474 724.961 Z" fill="#000000" fill-rule="nonzero" fill-opacity="1" /><path clip-path="url(#clip260)" d="M66.7257 711.004 L65.3363 711.004 Q65.2128 708.101 63.1749 706.186 Q61.1062 704.241 58.5743 703.593 Q56.0424 702.913 53.1092 702.851 L53.1092 701.277 L64.7496 701.277 L64.7496 692.229 L66.7257 692.229 L66.7257 701.277 L84.2944 701.277 Q91.1181 701.277 91.1181 697.015 Q91.1181 695.193 89.2655 693.989 Q87.3821 692.785 84.0474 692.785 L80.5584 692.785 L80.5584 691.21 L84.1709 691.21 Q87.5982 691.21 90.161 692.785 Q92.7237 694.36 92.7237 697.478 Q92.7237 698.621 92.4149 699.764 Q92.137 700.875 91.396 702.357 Q90.6241 703.809 88.7715 704.735 Q86.888 705.631 84.1709 705.631 L66.7257 705.631 L66.7257 711.004 Z" fill="#000000" fill-rule="nonzero" fill-opacity="1" /><path clip-path="url(#clip260)" d="M99.8562 688.246 Q98.5285 688.246 97.8183 687.474 Q97.139 686.671 97.139 685.59 Q97.139 684.447 97.8492 683.706 Q98.5902 682.934 99.7944 682.934 Q102.141 682.934 102.45 685.405 Q103.592 684.2 103.592 682.44 Q103.592 680.557 102.203 679.044 Q100.813 677.5 99.4856 676.851 Q98.158 676.172 95.7496 675.215 Q93.8661 674.319 92.0135 673.64 L68.9179 683.12 Q67.405 683.737 67.0653 684.694 Q66.7257 685.652 66.7257 688.246 L64.7496 688.246 Q64.9349 685.405 64.9349 682.101 Q64.9349 680.155 64.7496 675.215 L66.7257 675.215 Q66.7257 678.766 68.3622 678.766 Q68.5474 678.766 69.5046 678.395 L86.5175 671.355 L70.9558 664.963 Q70.0604 664.592 69.4428 664.592 Q66.8492 664.592 66.7257 667.557 L64.7496 667.557 Q64.9349 663.388 64.9349 662.06 Q64.9349 659.466 64.7496 657.336 L66.7257 657.336 Q66.7257 661.566 70.7705 663.203 L97.7566 674.35 Q104.951 677.376 104.982 682.44 Q104.982 684.849 103.5 686.547 Q102.018 688.246 99.8562 688.246 Z" fill="#000000" fill-rule="nonzero" fill-opacity="1" /><path clip-path="url(#clip260)" d="M102.326 633.342 Q102.326 629.977 101.894 629.205 Q101.493 628.402 99.4856 628.402 L69.8751 628.402 Q67.7755 628.402 67.2506 629.205 Q66.7257 629.977 66.7257 633.342 L64.7496 633.342 L64.0703 624.233 L68.2387 624.233 Q64.0703 620.435 64.0703 615.371 Q64.0703 609.998 68.2387 606.076 Q72.407 602.154 78.3661 602.154 Q84.3871 602.154 88.5554 606.323 Q92.7237 610.492 92.7237 616.266 Q92.7237 619.416 91.1181 621.547 Q89.4817 623.646 88.2775 624.048 L88.8641 624.048 L99.4856 624.048 Q101.523 624.048 101.925 623.245 Q102.326 622.442 102.326 619.107 L104.271 619.107 Q104.086 625.746 104.086 626.24 Q104.086 626.858 104.271 633.342 L102.326 633.342 M84.8193 624.048 Q85.7765 624.048 86.1161 623.924 Q86.4558 623.77 87.4747 623.152 Q91.3034 620.651 91.3034 616.575 Q91.3034 616.544 91.3034 616.513 Q91.3034 612.9 87.6291 610.152 Q83.9239 607.404 78.3661 607.404 Q73.0554 607.404 69.3502 609.905 Q65.645 612.406 65.645 615.865 Q65.645 618.335 66.9727 620.497 Q68.3004 622.658 70.7088 624.048 L84.8193 624.048 Z" fill="#000000" fill-rule="nonzero" fill-opacity="1" /><path clip-path="url(#clip260)" d="M92.0135 598.264 L90.0683 598.264 Q90.0683 594.898 89.6669 594.126 Q89.2347 593.323 87.1968 593.323 L70.2456 593.323 Q67.899 593.323 67.3124 594.157 Q66.7257 594.96 66.7257 598.264 L64.7496 598.264 L64.0703 589.463 L71.0175 589.463 Q68.3004 588.568 66.2008 586.684 Q64.0703 584.769 64.0703 581.681 Q64.0703 579.643 65.2128 578.347 Q66.3552 577.019 67.9299 577.019 Q69.3193 577.019 70.0295 577.883 Q70.7088 578.717 70.7088 579.736 Q70.7088 580.879 69.9986 581.681 Q69.2576 582.453 67.9916 582.453 Q67.2197 582.453 66.6331 582.114 Q66.0155 581.743 65.7994 581.465 Q65.5833 581.187 65.5215 581.002 Q65.4598 581.126 65.4598 581.681 Q65.4598 585.171 68.9488 587.178 Q72.407 589.154 77.3472 589.154 L87.0733 589.154 Q88.895 589.154 89.4817 588.413 Q90.0683 587.641 90.0683 584.337 L90.0683 583.009 L92.0135 583.009 Q91.8283 585.541 91.8283 591.038 Q91.8283 591.81 91.8592 593.014 Q91.89 594.218 91.9518 595.793 Q92.0135 597.368 92.0135 598.264 Z" fill="#000000" fill-rule="nonzero" fill-opacity="1" /><path clip-path="url(#clip260)" d="M78.0883 573.56 Q72.1291 573.56 67.899 569.731 Q63.6689 565.902 63.6689 560.406 Q63.6689 554.847 67.2815 551.976 Q70.894 549.073 76.0813 549.073 Q77.0384 549.073 77.2237 549.32 Q77.409 549.567 77.409 550.648 L77.409 568.311 Q83.8622 568.311 86.888 566.396 Q91.1181 563.741 91.1181 559.263 Q91.1181 558.646 90.9946 557.904 Q90.8711 557.163 90.3462 555.65 Q89.7904 554.137 88.3392 552.809 Q86.888 551.482 84.6032 550.71 Q83.7078 550.524 83.7386 549.907 Q83.7386 549.073 84.4797 549.073 Q85.0355 549.073 86.3014 549.691 Q87.5365 550.277 89.0185 551.42 Q90.5006 552.562 91.6121 554.786 Q92.7237 556.978 92.7237 559.634 Q92.7237 565.192 88.5245 569.392 Q84.2944 573.56 78.0883 573.56 M76.0813 568.249 L76.0813 553.242 Q74.7536 553.242 73.2715 553.489 Q71.7894 553.705 69.7516 554.384 Q67.6829 555.033 66.3861 556.577 Q65.0893 558.121 65.0893 560.406 Q65.0893 561.425 65.5215 562.536 Q65.9538 563.617 67.0036 564.945 Q68.0534 566.273 70.4309 567.199 Q72.8084 568.125 76.0813 568.249 Z" fill="#000000" fill-rule="nonzero" fill-opacity="1" /><path clip-path="url(#clip260)" d="M78.4279 545.09 Q72.407 545.09 68.2387 540.89 Q64.0703 536.69 64.0703 531.009 Q64.0703 526.192 67.9916 523.042 L54.3134 523.042 Q51.9668 523.042 51.3801 523.876 Q50.7934 524.678 50.7934 527.952 L48.8174 527.952 L48.1381 518.842 L86.5175 518.842 Q88.8641 518.842 89.4817 518.039 Q90.0683 517.206 90.0683 513.933 L92.0135 513.933 L92.7237 523.227 L88.5245 523.227 Q92.6928 526.5 92.7237 531.688 Q92.7237 537.123 88.5554 541.106 Q84.3871 545.09 78.4279 545.09 M78.4896 539.84 Q84.3562 539.84 87.2586 538.018 Q91.3034 535.486 91.3034 531.379 Q91.3034 526.686 86.888 523.906 Q85.8074 523.196 84.5414 523.227 L71.5733 523.227 Q70.3074 523.227 69.2576 523.906 Q65.4598 526.5 65.4598 530.731 Q65.4598 535.147 69.5046 537.895 Q72.5305 539.84 78.4896 539.84 Z" fill="#000000" fill-rule="nonzero" fill-opacity="1" /><path clip-path="url(#clip260)" d="M92.0135 510.073 L90.0683 510.073 Q90.0683 506.707 89.6669 505.935 Q89.2347 505.163 87.1968 505.163 L70.1839 505.163 Q67.8373 505.163 67.2815 505.966 Q66.7257 506.738 66.7257 509.826 L64.7496 509.826 L64.0703 500.994 L87.2586 500.994 Q89.142 500.994 89.6052 500.315 Q90.0683 499.635 90.0683 496.548 L92.0135 496.548 Q91.8283 503.001 91.8283 503.125 Q91.8283 503.989 92.0135 510.073 M53.0474 507.417 Q51.7815 507.417 50.7626 506.46 Q49.7128 505.472 49.7128 504.082 Q49.7128 502.692 50.6699 501.704 Q51.5962 500.716 53.0783 500.716 Q54.5295 500.716 55.4867 501.704 Q56.413 502.692 56.413 504.082 Q56.413 505.533 55.394 506.491 Q54.3751 507.417 53.0474 507.417 Z" fill="#000000" fill-rule="nonzero" fill-opacity="1" /><path clip-path="url(#clip260)" d="M88.5554 488.488 Q84.3562 492.502 78.3661 492.502 Q72.3452 492.502 68.0225 488.55 Q63.6689 484.597 63.6689 478.792 Q63.6689 474.932 65.5215 472.029 Q67.3432 469.127 70.4618 469.127 Q71.8512 469.127 72.654 469.961 Q73.4259 470.763 73.4259 472.029 Q73.4259 473.357 72.6231 474.16 Q71.7894 474.932 70.5235 474.932 Q69.9677 474.932 69.412 474.747 Q68.8562 474.562 68.2695 473.882 Q67.6829 473.172 67.5902 471.968 Q65.2745 474.222 65.2745 478.607 Q65.2745 478.668 65.2745 478.73 Q65.2745 481.942 68.3004 484.597 Q71.3263 487.253 78.2426 487.253 Q81.8552 487.253 84.5106 486.388 Q87.1351 485.493 88.4936 484.041 Q89.8522 482.59 90.5006 481.17 Q91.1181 479.749 91.1181 478.36 Q91.1181 472.153 84.4797 470.053 Q83.8622 469.868 83.8622 469.25 Q83.8622 468.417 84.4797 468.417 Q84.7884 468.417 85.5912 468.664 Q86.394 468.911 87.66 469.683 Q88.9259 470.455 90.0374 471.566 Q91.1181 472.647 91.9209 474.592 Q92.7237 476.507 92.7237 478.915 Q92.7237 484.474 88.5554 488.488 Z" fill="#000000" fill-rule="nonzero" fill-opacity="1" /><path clip-path="url(#clip260)" d="M66.7257 465.39 L65.3363 465.39 Q65.2128 462.488 63.1749 460.573 Q61.1062 458.628 58.5743 457.979 Q56.0424 457.3 53.1092 457.238 L53.1092 455.663 L64.7496 455.663 L64.7496 446.616 L66.7257 446.616 L66.7257 455.663 L84.2944 455.663 Q91.1181 455.663 91.1181 451.402 Q91.1181 449.58 89.2655 448.376 Q87.3821 447.172 84.0474 447.172 L80.5584 447.172 L80.5584 445.597 L84.1709 445.597 Q87.5982 445.597 90.161 447.172 Q92.7237 448.747 92.7237 451.865 Q92.7237 453.008 92.4149 454.15 Q92.137 455.262 91.396 456.744 Q90.6241 458.196 88.7715 459.122 Q86.888 460.017 84.1709 460.017 L66.7257 460.017 L66.7257 465.39 Z" fill="#000000" fill-rule="nonzero" fill-opacity="1" /><path clip-path="url(#clip260)" d="M92.0135 439.977 L90.0683 439.977 Q90.0683 436.611 89.6669 435.839 Q89.2347 435.067 87.1968 435.067 L70.1839 435.067 Q67.8373 435.067 67.2815 435.87 Q66.7257 436.642 66.7257 439.73 L64.7496 439.73 L64.0703 430.898 L87.2586 430.898 Q89.142 430.898 89.6052 430.219 Q90.0683 429.54 90.0683 426.452 L92.0135 426.452 Q91.8283 432.905 91.8283 433.029 Q91.8283 433.894 92.0135 439.977 M53.0474 437.321 Q51.7815 437.321 50.7626 436.364 Q49.7128 435.376 49.7128 433.986 Q49.7128 432.597 50.6699 431.609 Q51.5962 430.62 53.0783 430.62 Q54.5295 430.62 55.4867 431.609 Q56.413 432.597 56.413 433.986 Q56.413 435.438 55.394 436.395 Q54.3751 437.321 53.0474 437.321 Z" fill="#000000" fill-rule="nonzero" fill-opacity="1" /><path clip-path="url(#clip260)" d="M88.6171 418.639 Q84.4797 422.808 78.4896 422.808 Q72.4687 422.808 68.0843 418.732 Q63.6689 414.625 63.6689 408.758 Q63.6689 403.014 68.0534 398.907 Q72.407 394.77 78.4896 394.77 Q84.4488 394.77 88.5863 398.938 Q92.7237 403.076 92.7237 408.82 Q92.7237 414.44 88.6171 418.639 M77.9647 417.559 Q84.1092 417.559 86.888 415.953 Q91.1181 413.482 91.1181 408.758 Q91.1181 406.411 89.8522 404.466 Q88.5863 402.489 86.4558 401.409 Q83.6769 400.019 77.9647 400.019 Q71.8821 400.019 69.1958 401.687 Q65.0893 404.157 65.0893 408.82 Q65.0893 410.858 66.1699 412.865 Q67.2197 414.841 69.3193 416.045 Q72.0982 417.559 77.9647 417.559 Z" fill="#000000" fill-rule="nonzero" fill-opacity="1" /><path clip-path="url(#clip260)" d="M92.0135 390.91 L90.0683 390.91 Q90.0683 387.544 89.6669 386.772 Q89.2347 386 87.1968 386 L70.2456 386 Q67.899 386 67.3124 386.834 Q66.7257 387.637 66.7257 390.91 L64.7496 390.91 L64.0703 382.017 L70.7088 382.017 Q64.0703 379.052 64.0703 372.66 Q64.0703 367.905 66.4169 366.021 Q67.9916 364.632 69.7516 364.354 Q71.5116 364.045 76.0813 364.045 L88.154 364.045 Q89.4817 363.983 89.7904 362.964 Q90.0683 361.945 90.0683 359.104 L92.0135 359.104 Q91.8283 365.558 91.8283 366.206 Q91.8283 366.7 92.0135 373.34 L90.0683 373.34 Q90.0683 369.974 89.6669 369.202 Q89.2347 368.399 87.1968 368.399 L72.4687 368.399 Q69.2576 368.399 67.3741 369.387 Q65.4598 370.375 65.4598 373.092 Q65.4598 376.366 68.2078 378.99 Q70.9558 381.615 75.5873 381.615 L87.1968 381.615 Q89.2347 381.615 89.6669 380.843 Q90.0683 380.04 90.0683 376.705 L92.0135 376.705 Q91.8283 383.159 91.8283 383.777 Q91.8283 384.271 92.0135 390.91 Z" fill="#000000" fill-rule="nonzero" fill-opacity="1" /><path clip-path="url(#clip260)" d="M91.1799 355.769 L82.8432 355.769 Q82.1331 355.769 81.8861 355.738 Q81.639 355.707 81.4538 355.522 Q81.2685 355.337 81.2685 354.966 Q81.2685 354.534 81.4538 354.38 Q81.639 354.194 82.3492 354.071 Q86.7028 353.114 89.0185 351.076 Q91.3034 349.007 91.3034 345.27 Q91.3034 341.719 89.7287 339.928 Q88.154 338.137 85.5604 338.137 Q80.9289 338.137 79.7556 344.714 Q78.9837 348.513 78.4896 350.087 Q77.9647 351.662 76.8223 353.052 Q74.5992 355.769 71.4498 355.769 Q68.3004 355.769 65.9847 353.392 Q63.6689 350.983 63.6689 345.672 Q63.6689 342.121 65.4598 339.712 Q64.904 339.002 64.4408 338.631 Q63.6689 337.798 63.6689 337.365 Q63.6689 336.871 64.0086 336.779 Q64.3173 336.686 65.2128 336.686 L71.5733 336.686 Q72.2835 336.686 72.5305 336.717 Q72.7775 336.748 72.9628 336.933 Q73.1171 337.118 73.1171 337.52 Q73.1171 338.23 72.5305 338.261 Q64.8731 338.755 64.8731 345.672 Q64.8731 349.408 66.3243 351.076 Q67.7446 352.743 69.6898 352.743 Q70.7705 352.743 71.6042 352.249 Q72.407 351.724 72.901 351.076 Q73.3641 350.396 73.8273 349.161 Q74.2596 347.926 74.4139 347.185 Q74.5683 346.413 74.8771 344.962 Q75.8343 339.897 77.903 337.767 Q80.5584 335.111 83.9239 335.111 Q87.66 335.111 90.1918 337.643 Q92.7237 340.175 92.7237 345.27 Q92.7237 349.377 89.9757 352.249 Q90.3462 352.62 90.6859 352.897 Q90.9946 353.175 91.1181 353.299 Q91.2416 353.392 91.3343 353.422 Q91.396 353.453 91.4578 353.515 Q92.7237 354.781 92.7237 355.09 Q92.7237 355.584 92.3841 355.677 Q92.0753 355.769 91.1799 355.769 Z" fill="#000000" fill-rule="nonzero" fill-opacity="1" /><path clip-path="url(#clip260)" d="M869.518 30.2246 Q869.518 20.6829 876.033 13.9821 Q882.547 7.25044 891.502 7.25044 Q894.281 7.25044 896.751 8.26945 Q899.221 9.28846 900.363 10.184 Q901.506 11.0486 903.142 12.6852 L906.322 8.02242 Q906.816 7.25044 907.31 7.25044 Q907.835 7.25044 907.928 7.55923 Q908.021 7.83714 908.021 8.76352 L908.021 23.7708 Q908.021 24.7898 907.897 25.0369 Q907.774 25.2839 907.002 25.2839 Q906.384 25.2839 906.23 25.0986 Q906.106 24.9133 905.983 24.2031 Q905.026 17.3788 901.228 13.3028 Q897.461 9.2267 892.212 9.2267 Q890.699 9.2267 889.001 9.56638 Q887.333 9.90605 884.894 11.203 Q882.486 12.4999 880.602 14.6614 Q878.75 16.7921 877.391 20.8682 Q876.033 24.9133 876.033 30.2863 Q876.033 35.5975 877.391 39.6736 Q878.75 43.7496 880.602 45.8803 Q882.486 47.9801 884.894 49.277 Q887.333 50.574 889.032 50.9445 Q890.761 51.2842 892.274 51.2842 Q897.708 51.2842 901.876 47.4243 Q906.044 43.5644 906.446 37.0489 Q906.508 36.7401 906.508 36.6166 Q906.508 36.4622 906.569 36.3078 Q906.631 36.1534 906.786 36.0916 Q906.94 36.0298 907.187 36.0298 Q908.021 36.0298 908.021 37.1106 Q908.021 43.1321 903.389 48.1963 Q898.789 53.2296 891.502 53.2296 Q882.517 53.2296 876.002 46.5597 Q869.518 39.8897 869.518 30.2246 Z" fill="#000000" fill-rule="nonzero" fill-opacity="1" /><path clip-path="url(#clip260)" d="M913.825 51.84 L913.825 49.8946 L915.338 49.8946 Q918.766 49.8946 919.538 49.3388 Q920.34 48.7521 920.34 46.8993 L920.34 13.5807 Q920.34 11.7588 919.538 11.203 Q918.735 10.6163 915.338 10.6163 L913.825 10.6163 L913.825 8.64 L936.952 8.64 Q945.041 8.64 950.661 15.0938 Q956.311 21.5475 956.311 30.5951 Q956.311 39.4574 950.63 45.6642 Q944.98 51.84 936.952 51.84 L913.825 51.84 M925.775 47.3625 Q925.775 48.9991 926.238 49.4623 Q926.701 49.8946 928.862 49.8946 L935.254 49.8946 Q939.422 49.8946 942.232 48.1963 Q945.041 46.467 946.493 44.4908 Q949.982 39.7354 949.982 30.5951 Q949.982 20.9917 946.709 16.4833 Q942.479 10.6163 935.192 10.6163 L928.862 10.6163 Q926.701 10.6163 926.238 11.0486 Q925.775 11.4809 925.775 13.1484 L925.775 47.3625 Z" fill="#000000" fill-rule="nonzero" fill-opacity="1" /><path clip-path="url(#clip260)" d="M961.931 51.84 L961.931 49.8946 L963.444 49.8946 Q966.871 49.8946 967.643 49.3388 Q968.446 48.7521 968.446 46.8993 L968.446 13.7659 Q968.446 11.9441 967.643 11.3882 Q966.84 10.8015 963.444 10.8015 L961.931 10.8015 L961.931 8.82528 L996.636 8.82528 L998.396 23.0606 L996.821 23.0606 Q996.389 19.4477 995.802 17.4097 Q995.247 15.3408 993.95 13.7042 Q992.653 12.0676 990.461 11.45 Q988.299 10.8015 984.749 10.8015 L977.153 10.8015 Q974.992 10.8015 974.528 11.2647 Q974.065 11.697 974.065 13.3336 L974.065 29.3291 L979.5 29.3291 Q983.791 29.3291 984.996 27.7851 Q986.2 26.2411 986.2 21.9181 L987.775 21.9181 L987.775 38.6855 L986.2 38.6855 Q986.2 34.3315 984.996 32.8184 Q983.791 31.2745 979.5 31.2745 L974.065 31.2745 L974.065 46.8376 Q974.065 48.1654 974.281 48.6903 Q974.498 49.1844 975.825 49.5549 Q977.153 49.8946 980.055 49.8946 L982.155 49.8946 L982.155 51.84 Q979.87 51.6547 971.533 51.6547 Q964.154 51.6547 961.931 51.84 Z" fill="#000000" fill-rule="nonzero" fill-opacity="1" /><path clip-path="url(#clip260)" d="M997.902 51.0063 L997.902 42.6689 Q997.902 41.9587 997.933 41.7116 Q997.964 41.4646 998.149 41.2793 Q998.334 41.094 998.705 41.094 Q999.137 41.094 999.291 41.2793 Q999.477 41.4646 999.6 42.1748 Q1000.56 46.5288 1002.6 48.8447 Q1004.66 51.1298 1008.4 51.1298 Q1011.95 51.1298 1013.74 49.5549 Q1015.53 47.9801 1015.53 45.3862 Q1015.53 40.7544 1008.96 39.581 Q1005.16 38.809 1003.58 38.3149 Q1002.01 37.79 1000.62 36.6474 Q997.902 34.4241 997.902 31.2745 Q997.902 28.1248 1000.28 25.8088 Q1002.69 23.4929 1008 23.4929 Q1011.55 23.4929 1013.96 25.2839 Q1014.67 24.7281 1015.04 24.2649 Q1015.87 23.4929 1016.3 23.4929 Q1016.8 23.4929 1016.89 23.8326 Q1016.98 24.1414 1016.98 25.0369 L1016.98 31.398 Q1016.98 32.1082 1016.95 32.3552 Q1016.92 32.6023 1016.74 32.7875 Q1016.55 32.9419 1016.15 32.9419 Q1015.44 32.9419 1015.41 32.3552 Q1014.91 24.6972 1008 24.6972 Q1004.26 24.6972 1002.6 26.1485 Q1000.93 27.5689 1000.93 29.5143 Q1000.93 30.5951 1001.42 31.4288 Q1001.95 32.2317 1002.6 32.7258 Q1003.27 33.189 1004.51 33.6522 Q1005.74 34.0845 1006.49 34.2389 Q1007.26 34.3933 1008.71 34.702 Q1013.77 35.6593 1015.9 37.7282 Q1018.56 40.3838 1018.56 43.7496 Q1018.56 47.486 1016.03 50.0181 Q1013.49 52.5502 1008.4 52.5502 Q1004.29 52.5502 1001.42 49.802 Q1001.05 50.1725 1000.77 50.5122 Q1000.5 50.821 1000.37 50.9445 Q1000.28 51.068 1000.25 51.1607 Q1000.22 51.2224 1000.16 51.2842 Q998.89 52.5502 998.581 52.5502 Q998.087 52.5502 997.995 52.2106 Q997.902 51.9018 997.902 51.0063 Z" fill="#000000" fill-rule="nonzero" fill-opacity="1" /><path clip-path="url(#clip260)" d="M1042.92 26.5499 L1042.92 24.5737 Q1045.76 24.7589 1049.06 24.7589 Q1050.27 24.7589 1055.95 24.5737 L1055.95 26.5499 Q1052.34 26.5499 1052.34 28.1865 Q1052.34 28.4336 1052.71 29.2673 L1059.81 46.8993 L1066.26 30.7804 Q1066.63 29.6996 1066.63 29.2673 Q1066.63 28.1865 1065.89 27.4146 Q1065.18 26.6117 1063.61 26.5499 L1063.61 24.5737 Q1066.82 24.7589 1069.1 24.7589 Q1071.7 24.7589 1073.83 24.5737 L1073.83 26.5499 Q1071.94 26.5499 1070.62 27.4146 Q1069.29 28.2483 1068.86 28.9894 Q1068.45 29.6996 1068.02 30.7804 L1059.75 51.3459 Q1059.25 52.5502 1058.42 52.5502 Q1057.86 52.5502 1057.62 52.3032 Q1057.4 52.087 1057.09 51.3459 L1047.98 28.8968 Q1047.37 27.3219 1046.56 26.9514 Q1045.76 26.5499 1042.92 26.5499 Z" fill="#000000" fill-rule="nonzero" fill-opacity="1" /><path clip-path="url(#clip260)" d="M1077.13 51.0063 L1077.13 42.6689 Q1077.13 41.9587 1077.16 41.7116 Q1077.19 41.4646 1077.38 41.2793 Q1077.56 41.094 1077.93 41.094 Q1078.37 41.094 1078.52 41.2793 Q1078.71 41.4646 1078.83 42.1748 Q1079.79 46.5288 1081.82 48.8447 Q1083.89 51.1298 1087.63 51.1298 Q1091.18 51.1298 1092.97 49.5549 Q1094.76 47.9801 1094.76 45.3862 Q1094.76 40.7544 1088.18 39.581 Q1084.39 38.809 1082.81 38.3149 Q1081.24 37.79 1079.85 36.6474 Q1077.13 34.4241 1077.13 31.2745 Q1077.13 28.1248 1079.51 25.8088 Q1081.92 23.4929 1087.23 23.4929 Q1090.78 23.4929 1093.19 25.2839 Q1093.9 24.7281 1094.27 24.2649 Q1095.1 23.4929 1095.53 23.4929 Q1096.03 23.4929 1096.12 23.8326 Q1096.21 24.1414 1096.21 25.0369 L1096.21 31.398 Q1096.21 32.1082 1096.18 32.3552 Q1096.15 32.6023 1095.97 32.7875 Q1095.78 32.9419 1095.38 32.9419 Q1094.67 32.9419 1094.64 32.3552 Q1094.14 24.6972 1087.23 24.6972 Q1083.49 24.6972 1081.82 26.1485 Q1080.16 27.5689 1080.16 29.5143 Q1080.16 30.5951 1080.65 31.4288 Q1081.18 32.2317 1081.82 32.7258 Q1082.5 33.189 1083.74 33.6522 Q1084.97 34.0845 1085.71 34.2389 Q1086.49 34.3933 1087.94 34.702 Q1093 35.6593 1095.13 37.7282 Q1097.79 40.3838 1097.79 43.7496 Q1097.79 47.486 1095.26 50.0181 Q1092.72 52.5502 1087.63 52.5502 Q1083.52 52.5502 1080.65 49.802 Q1080.28 50.1725 1080 50.5122 Q1079.72 50.821 1079.6 50.9445 Q1079.51 51.068 1079.48 51.1607 Q1079.45 51.2224 1079.39 51.2842 Q1078.12 52.5502 1077.81 52.5502 Q1077.32 52.5502 1077.22 52.2106 Q1077.13 51.9018 1077.13 51.0063 Z" fill="#000000" fill-rule="nonzero" fill-opacity="1" /><path clip-path="url(#clip260)" d="M1123.17 51.84 L1123.17 49.8946 L1124.68 49.8946 Q1128.11 49.8946 1128.88 49.3388 Q1129.68 48.7521 1129.68 46.8993 L1129.68 13.5807 Q1129.68 11.7588 1128.88 11.203 Q1128.08 10.6163 1124.68 10.6163 L1123.17 10.6163 L1123.17 8.64 L1145.49 8.64 Q1151.88 8.64 1156.14 12.1602 Q1160.4 15.6805 1160.4 20.405 Q1160.4 25.0986 1156.05 28.4953 Q1151.73 31.8612 1145.99 31.8612 L1135.3 31.8612 L1135.3 46.8993 Q1135.3 48.7212 1136.07 49.3079 Q1136.88 49.8946 1140.3 49.8946 L1141.82 49.8946 L1141.82 51.84 Q1139.59 51.6547 1132.46 51.6547 Q1125.39 51.6547 1123.17 51.84 M1135.12 30.2246 L1143.82 30.2246 Q1146.66 30.2246 1148.73 29.4217 Q1150.8 28.6188 1151.73 27.6616 Q1152.69 26.6735 1153.21 25.0986 Q1153.77 23.4929 1153.83 22.6283 Q1153.89 21.7328 1153.89 20.405 Q1153.89 19.0154 1153.83 18.1508 Q1153.77 17.2553 1153.21 15.6805 Q1152.69 14.0747 1151.73 13.1175 Q1150.8 12.1293 1148.73 11.3882 Q1146.7 10.6163 1143.82 10.6163 L1138.2 10.6163 Q1136.04 10.6163 1135.58 11.0486 Q1135.12 11.4809 1135.12 13.1484 L1135.12 30.2246 Z" fill="#000000" fill-rule="nonzero" fill-opacity="1" /><path clip-path="url(#clip260)" d="M1165.68 51.84 L1165.68 49.8946 Q1169.05 49.8946 1169.82 49.4932 Q1170.62 49.0609 1170.62 47.0228 L1170.62 30.0702 Q1170.62 27.7233 1169.79 27.1366 Q1168.99 26.5499 1165.68 26.5499 L1165.68 24.5737 L1174.48 23.8943 L1174.48 30.8421 Q1175.38 28.1248 1177.26 26.025 Q1179.18 23.8943 1182.27 23.8943 Q1184.3 23.8943 1185.6 25.0369 Q1186.93 26.1794 1186.93 27.7542 Q1186.93 29.1438 1186.06 29.854 Q1185.23 30.5334 1184.21 30.5334 Q1183.07 30.5334 1182.27 29.8231 Q1181.49 29.082 1181.49 27.816 Q1181.49 27.044 1181.83 26.4573 Q1182.2 25.8397 1182.48 25.6236 Q1182.76 25.4074 1182.94 25.3456 Q1182.82 25.2839 1182.27 25.2839 Q1178.78 25.2839 1176.77 28.7732 Q1174.79 32.2317 1174.79 37.1724 L1174.79 46.8993 Q1174.79 48.7212 1175.53 49.3079 Q1176.31 49.8946 1179.61 49.8946 L1180.94 49.8946 L1180.94 51.84 Q1178.41 51.6547 1172.91 51.6547 Q1172.14 51.6547 1170.93 51.6856 Q1169.73 51.7165 1168.15 51.7782 Q1166.58 51.84 1165.68 51.84 Z" fill="#000000" fill-rule="nonzero" fill-opacity="1" /><path clip-path="url(#clip260)" d="M1194.55 48.4433 Q1190.39 44.3055 1190.39 38.3149 Q1190.39 32.2935 1194.46 27.9086 Q1198.57 23.4929 1204.43 23.4929 Q1210.18 23.4929 1214.28 27.8777 Q1218.42 32.2317 1218.42 38.3149 Q1218.42 44.2746 1214.25 48.4124 Q1210.12 52.5502 1204.37 52.5502 Q1198.75 52.5502 1194.55 48.4433 M1195.63 37.79 Q1195.63 43.9349 1197.24 46.7141 Q1199.71 50.9445 1204.43 50.9445 Q1206.78 50.9445 1208.73 49.6785 Q1210.7 48.4124 1211.78 46.2817 Q1213.17 43.5026 1213.17 37.79 Q1213.17 31.7068 1211.51 29.0203 Q1209.04 24.9133 1204.37 24.9133 Q1202.34 24.9133 1200.33 25.9941 Q1198.35 27.044 1197.15 29.1438 Q1195.63 31.9229 1195.63 37.79 Z" fill="#000000" fill-rule="nonzero" fill-opacity="1" /><path clip-path="url(#clip260)" d="M1222 10.6163 L1222 8.64 L1231.11 7.96066 L1231.11 28.0013 Q1234.79 23.8943 1239.79 23.8943 Q1245.22 23.8943 1249.21 28.063 Q1253.19 32.2317 1253.19 38.1914 Q1253.19 44.2128 1249.02 48.3815 Q1244.85 52.5502 1239.08 52.5502 Q1233.83 52.5502 1230.8 47.9183 Q1228.58 51.7782 1228.52 51.84 L1226.94 51.84 L1226.94 14.1365 Q1226.94 11.7897 1226.11 11.203 Q1225.28 10.6163 1222 10.6163 M1231.3 44.6451 Q1231.3 45.973 1232.19 47.3008 Q1234.69 51.1298 1238.77 51.1298 Q1238.8 51.1298 1238.83 51.1298 Q1243.25 51.1298 1245.99 47.0846 Q1247.94 44.0584 1247.94 38.1296 Q1247.94 32.2626 1246.12 29.3291 Q1243.59 25.2839 1239.48 25.2839 Q1234.85 25.2839 1232.01 29.3291 Q1231.3 30.3481 1231.3 31.6141 L1231.3 44.6451 Z" fill="#000000" fill-rule="nonzero" fill-opacity="1" /><path clip-path="url(#clip260)" d="M1257.97 45.8186 Q1257.97 40.4456 1264.3 37.6047 Q1268.1 35.7828 1275.94 35.3196 L1275.94 33.0037 Q1275.94 29.082 1273.88 27.0131 Q1271.84 24.9133 1269.24 24.9133 Q1264.61 24.9133 1262.39 27.816 Q1264.27 27.8777 1264.95 28.835 Q1265.63 29.7614 1265.63 30.7186 Q1265.63 31.9847 1264.83 32.8184 Q1264.06 33.6213 1262.73 33.6213 Q1261.46 33.6213 1260.63 32.8493 Q1259.8 32.0464 1259.8 30.6569 Q1259.8 27.5689 1262.58 25.5309 Q1265.38 23.4929 1269.37 23.4929 Q1274.56 23.4929 1278.01 26.9822 Q1279.09 28.063 1279.62 29.4526 Q1280.17 30.8421 1280.24 31.7685 Q1280.3 32.664 1280.3 34.455 L1280.3 47.0846 Q1280.3 47.4552 1280.42 48.0727 Q1280.55 48.6903 1281.1 49.4932 Q1281.69 50.2652 1282.64 50.2652 Q1284.93 50.2652 1284.9 46.22 L1284.9 42.6689 L1286.5 42.6689 L1286.5 46.22 Q1286.5 49.5858 1284.71 50.9136 Q1282.95 52.2106 1281.32 52.2106 Q1279.22 52.2106 1277.89 50.6666 Q1276.56 49.1226 1276.38 47.0228 Q1275.42 49.4314 1273.23 51.0063 Q1271.07 52.5502 1268.1 52.5502 Q1265.82 52.5502 1263.66 51.9635 Q1261.53 51.4077 1259.73 49.8329 Q1257.97 48.2271 1257.97 45.8186 M1262.85 45.7568 Q1262.85 48.1036 1264.52 49.6167 Q1266.19 51.1298 1268.53 51.1298 Q1271.19 51.1298 1273.57 49.0918 Q1275.94 47.0228 1275.94 42.9777 L1275.94 36.6474 Q1268.94 36.8945 1265.88 39.7045 Q1262.85 42.4836 1262.85 45.7568 Z" fill="#000000" fill-rule="nonzero" fill-opacity="1" /><path clip-path="url(#clip260)" d="M1288.7 10.6163 L1288.7 8.64 L1297.81 7.96066 L1297.81 28.0013 Q1301.48 23.8943 1306.48 23.8943 Q1311.92 23.8943 1315.9 28.063 Q1319.88 32.2317 1319.88 38.1914 Q1319.88 44.2128 1315.71 48.3815 Q1311.55 52.5502 1305.77 52.5502 Q1300.52 52.5502 1297.5 47.9183 Q1295.27 51.7782 1295.21 51.84 L1293.64 51.84 L1293.64 14.1365 Q1293.64 11.7897 1292.8 11.203 Q1291.97 10.6163 1288.7 10.6163 M1297.99 44.6451 Q1297.99 45.973 1298.89 47.3008 Q1301.39 51.1298 1305.46 51.1298 Q1305.49 51.1298 1305.52 51.1298 Q1309.94 51.1298 1312.69 47.0846 Q1314.63 44.0584 1314.63 38.1296 Q1314.63 32.2626 1312.81 29.3291 Q1310.28 25.2839 1306.17 25.2839 Q1301.54 25.2839 1298.7 29.3291 Q1297.99 30.3481 1297.99 31.6141 L1297.99 44.6451 Z" fill="#000000" fill-rule="nonzero" fill-opacity="1" /><path clip-path="url(#clip260)" d="M1324.11 51.84 L1324.11 49.8946 Q1327.48 49.8946 1328.25 49.4932 Q1329.02 49.0609 1329.02 47.0228 L1329.02 30.0084 Q1329.02 27.6616 1328.22 27.1058 Q1327.45 26.5499 1324.36 26.5499 L1324.36 24.5737 L1333.19 23.8943 L1333.19 47.0846 Q1333.19 48.9682 1333.87 49.4314 Q1334.55 49.8946 1337.64 49.8946 L1337.64 51.84 Q1331.18 51.6547 1331.06 51.6547 Q1330.19 51.6547 1324.11 51.84 M1326.77 12.8705 Q1326.77 11.6044 1327.72 10.5854 Q1328.71 9.5355 1330.1 9.5355 Q1331.49 9.5355 1332.48 10.4928 Q1333.47 11.4191 1333.47 12.9013 Q1333.47 14.3527 1332.48 15.3099 Q1331.49 16.2363 1330.1 16.2363 Q1328.65 16.2363 1327.69 15.2173 Q1326.77 14.1983 1326.77 12.8705 Z" fill="#000000" fill-rule="nonzero" fill-opacity="1" /><path clip-path="url(#clip260)" d="M1341.62 51.84 L1341.62 49.8946 Q1344.98 49.8946 1345.76 49.4932 Q1346.53 49.0609 1346.53 47.0228 L1346.53 14.1365 Q1346.53 11.7897 1345.69 11.203 Q1344.89 10.6163 1341.62 10.6163 L1341.62 8.64 L1350.7 7.96066 L1350.7 47.0228 Q1350.7 49.0609 1351.5 49.4932 Q1352.3 49.8946 1355.64 49.8946 L1355.64 51.84 Q1354.86 51.84 1353.26 51.7782 Q1351.65 51.7165 1350.48 51.6856 Q1349.31 51.6547 1348.63 51.6547 Q1347.89 51.6547 1341.62 51.84 Z" fill="#000000" fill-rule="nonzero" fill-opacity="1" /><path clip-path="url(#clip260)" d="M1359.13 51.84 L1359.13 49.8946 Q1362.49 49.8946 1363.26 49.4932 Q1364.04 49.0609 1364.04 47.0228 L1364.04 30.0084 Q1364.04 27.6616 1363.23 27.1058 Q1362.46 26.5499 1359.37 26.5499 L1359.37 24.5737 L1368.2 23.8943 L1368.2 47.0846 Q1368.2 48.9682 1368.88 49.4314 Q1369.56 49.8946 1372.65 49.8946 L1372.65 51.84 Q1366.2 51.6547 1366.07 51.6547 Q1365.21 51.6547 1359.13 51.84 M1361.78 12.8705 Q1361.78 11.6044 1362.74 10.5854 Q1363.73 9.5355 1365.12 9.5355 Q1366.51 9.5355 1367.49 10.4928 Q1368.48 11.4191 1368.48 12.9013 Q1368.48 14.3527 1367.49 15.3099 Q1366.51 16.2363 1365.12 16.2363 Q1363.66 16.2363 1362.71 15.2173 Q1361.78 14.1983 1361.78 12.8705 Z" fill="#000000" fill-rule="nonzero" fill-opacity="1" /><path clip-path="url(#clip260)" d="M1375.74 26.5499 L1375.74 25.1604 Q1378.64 25.0369 1380.55 22.9988 Q1382.5 20.9299 1383.15 18.3978 Q1383.83 15.8657 1383.89 12.9322 L1385.46 12.9322 L1385.46 24.5737 L1394.51 24.5737 L1394.51 26.5499 L1385.46 26.5499 L1385.46 44.1202 Q1385.46 50.9445 1389.72 50.9445 Q1391.55 50.9445 1392.75 49.0918 Q1393.95 47.2081 1393.95 43.8732 L1393.95 40.3838 L1395.53 40.3838 L1395.53 43.9967 Q1395.53 47.4243 1393.95 49.9872 Q1392.38 52.5502 1389.26 52.5502 Q1388.12 52.5502 1386.98 52.2414 Q1385.86 51.9635 1384.38 51.2224 Q1382.93 50.4504 1382.01 48.5977 Q1381.11 46.7141 1381.11 43.9967 L1381.11 26.5499 L1375.74 26.5499 Z" fill="#000000" fill-rule="nonzero" fill-opacity="1" /><path clip-path="url(#clip260)" d="M1398.49 59.6833 Q1398.49 58.3555 1399.27 57.6453 Q1400.07 56.9659 1401.15 56.9659 Q1402.29 56.9659 1403.03 57.6762 Q1403.8 58.4173 1403.8 59.6216 Q1403.8 61.9684 1401.33 62.2772 Q1402.54 63.4197 1404.3 63.4197 Q1406.18 63.4197 1407.69 62.0301 Q1409.24 60.6406 1409.89 59.3128 Q1410.57 57.985 1411.52 55.5764 Q1412.42 53.6928 1413.1 51.84 L1403.62 28.7424 Q1403 27.2293 1402.04 26.8896 Q1401.09 26.5499 1398.49 26.5499 L1398.49 24.5737 Q1401.33 24.7589 1404.64 24.7589 Q1406.58 24.7589 1411.52 24.5737 L1411.52 26.5499 Q1407.97 26.5499 1407.97 28.1865 Q1407.97 28.3718 1408.34 29.3291 L1415.38 46.3435 L1421.77 30.7804 Q1422.14 29.8849 1422.14 29.2673 Q1422.14 26.6735 1419.18 26.5499 L1419.18 24.5737 Q1423.35 24.7589 1424.68 24.7589 Q1427.27 24.7589 1429.4 24.5737 L1429.4 26.5499 Q1425.17 26.5499 1423.53 30.5951 L1412.39 57.5835 Q1409.36 64.7784 1404.3 64.8093 Q1401.89 64.8093 1400.19 63.3271 Q1398.49 61.8449 1398.49 59.6833 Z" fill="#000000" fill-rule="nonzero" fill-opacity="1" /><path clip-path="url(#clip260)" d="M1453.73 51.84 L1453.73 49.8946 Q1457.1 49.8946 1457.87 49.4932 Q1458.64 49.0609 1458.64 47.0228 L1458.64 14.1365 Q1458.64 11.7897 1457.81 11.203 Q1457 10.6163 1453.73 10.6163 L1453.73 8.64 L1462.81 7.96066 L1462.81 47.0228 Q1462.81 49.0609 1463.61 49.4932 Q1464.41 49.8946 1467.75 49.8946 L1467.75 51.84 Q1466.98 51.84 1465.37 51.7782 Q1463.77 51.7165 1462.59 51.6856 Q1461.42 51.6547 1460.74 51.6547 Q1460 51.6547 1453.73 51.84 Z" fill="#000000" fill-rule="nonzero" fill-opacity="1" /><path clip-path="url(#clip260)" d="M1470.9 37.9135 Q1470.9 31.9538 1474.73 27.7233 Q1478.56 23.4929 1484.05 23.4929 Q1489.61 23.4929 1492.48 27.1058 Q1495.38 30.7186 1495.38 35.9063 Q1495.38 36.8636 1495.14 37.0489 Q1494.89 37.2341 1493.81 37.2341 L1476.15 37.2341 Q1476.15 43.6879 1478.06 46.7141 Q1480.72 50.9445 1485.19 50.9445 Q1485.81 50.9445 1486.55 50.821 Q1487.29 50.6975 1488.81 50.1725 Q1490.32 49.6167 1491.65 48.1654 Q1492.98 46.7141 1493.75 44.429 Q1493.93 43.5335 1494.55 43.5644 Q1495.38 43.5644 1495.38 44.3055 Q1495.38 44.8613 1494.77 46.1273 Q1494.18 47.3625 1493.04 48.8447 Q1491.89 50.3269 1489.67 51.4386 Q1487.48 52.5502 1484.82 52.5502 Q1479.27 52.5502 1475.07 48.3507 Q1470.9 44.1202 1470.9 37.9135 M1476.21 35.9063 L1491.22 35.9063 Q1491.22 34.5785 1490.97 33.0963 Q1490.75 31.6141 1490.07 29.5761 Q1489.42 27.5072 1487.88 26.2103 Q1486.34 24.9133 1484.05 24.9133 Q1483.03 24.9133 1481.92 25.3456 Q1480.84 25.778 1479.51 26.8278 Q1478.19 27.8777 1477.26 30.2554 Q1476.33 32.6331 1476.21 35.9063 Z" fill="#000000" fill-rule="nonzero" fill-opacity="1" /><path clip-path="url(#clip260)" d="M1498.41 26.5499 L1498.41 24.5737 Q1501.25 24.7589 1504.55 24.7589 Q1505.76 24.7589 1511.44 24.5737 L1511.44 26.5499 Q1507.83 26.5499 1507.83 28.1865 Q1507.83 28.4336 1508.2 29.2673 L1515.3 46.8993 L1521.75 30.7804 Q1522.12 29.6996 1522.12 29.2673 Q1522.12 28.1865 1521.38 27.4146 Q1520.67 26.6117 1519.1 26.5499 L1519.1 24.5737 Q1522.31 24.7589 1524.59 24.7589 Q1527.19 24.7589 1529.32 24.5737 L1529.32 26.5499 Q1527.43 26.5499 1526.11 27.4146 Q1524.78 28.2483 1524.35 28.9894 Q1523.94 29.6996 1523.51 30.7804 L1515.24 51.3459 Q1514.74 52.5502 1513.91 52.5502 Q1513.35 52.5502 1513.11 52.3032 Q1512.89 52.087 1512.58 51.3459 L1503.47 28.8968 Q1502.86 27.3219 1502.05 26.9514 Q1501.25 26.5499 1498.41 26.5499 Z" fill="#000000" fill-rule="nonzero" fill-opacity="1" /><path clip-path="url(#clip260)" d="M1530.52 37.9135 Q1530.52 31.9538 1534.35 27.7233 Q1538.18 23.4929 1543.67 23.4929 Q1549.23 23.4929 1552.1 27.1058 Q1555.01 30.7186 1555.01 35.9063 Q1555.01 36.8636 1554.76 37.0489 Q1554.51 37.2341 1553.43 37.2341 L1535.77 37.2341 Q1535.77 43.6879 1537.68 46.7141 Q1540.34 50.9445 1544.82 50.9445 Q1545.43 50.9445 1546.18 50.821 Q1546.92 50.6975 1548.43 50.1725 Q1549.94 49.6167 1551.27 48.1654 Q1552.6 46.7141 1553.37 44.429 Q1553.55 43.5335 1554.17 43.5644 Q1555.01 43.5644 1555.01 44.3055 Q1555.01 44.8613 1554.39 46.1273 Q1553.8 47.3625 1552.66 48.8447 Q1551.52 50.3269 1549.29 51.4386 Q1547.1 52.5502 1544.45 52.5502 Q1538.89 52.5502 1534.69 48.3507 Q1530.52 44.1202 1530.52 37.9135 M1535.83 35.9063 L1550.84 35.9063 Q1550.84 34.5785 1550.59 33.0963 Q1550.37 31.6141 1549.7 29.5761 Q1549.05 27.5072 1547.5 26.2103 Q1545.96 24.9133 1543.67 24.9133 Q1542.66 24.9133 1541.54 25.3456 Q1540.46 25.778 1539.14 26.8278 Q1537.81 27.8777 1536.88 30.2554 Q1535.96 32.6331 1535.83 35.9063 Z" fill="#000000" fill-rule="nonzero" fill-opacity="1" /><path clip-path="url(#clip260)" d="M1558.93 51.84 L1558.93 49.8946 Q1562.29 49.8946 1563.06 49.4932 Q1563.84 49.0609 1563.84 47.0228 L1563.84 14.1365 Q1563.84 11.7897 1563 11.203 Q1562.2 10.6163 1558.93 10.6163 L1558.93 8.64 L1568.01 7.96066 L1568.01 47.0228 Q1568.01 49.0609 1568.81 49.4932 Q1569.61 49.8946 1572.95 49.8946 L1572.95 51.84 Q1572.17 51.84 1570.57 51.7782 Q1568.96 51.7165 1567.79 51.6856 Q1566.62 51.6547 1565.94 51.6547 Q1565.2 51.6547 1558.93 51.84 Z" fill="#000000" fill-rule="nonzero" fill-opacity="1" /><path clip-path="url(#clip260)" d="M1576.43 51.0063 L1576.43 42.6689 Q1576.43 41.9587 1576.47 41.7116 Q1576.5 41.4646 1576.68 41.2793 Q1576.87 41.094 1577.24 41.094 Q1577.67 41.094 1577.82 41.2793 Q1578.01 41.4646 1578.13 42.1748 Q1579.09 46.5288 1581.13 48.8447 Q1583.2 51.1298 1586.93 51.1298 Q1590.48 51.1298 1592.27 49.5549 Q1594.06 47.9801 1594.06 45.3862 Q1594.06 40.7544 1587.49 39.581 Q1583.69 38.809 1582.12 38.3149 Q1580.54 37.79 1579.15 36.6474 Q1576.43 34.4241 1576.43 31.2745 Q1576.43 28.1248 1578.81 25.8088 Q1581.22 23.4929 1586.53 23.4929 Q1590.08 23.4929 1592.49 25.2839 Q1593.2 24.7281 1593.57 24.2649 Q1594.4 23.4929 1594.84 23.4929 Q1595.33 23.4929 1595.42 23.8326 Q1595.52 24.1414 1595.52 25.0369 L1595.52 31.398 Q1595.52 32.1082 1595.49 32.3552 Q1595.45 32.6023 1595.27 32.7875 Q1595.08 32.9419 1594.68 32.9419 Q1593.97 32.9419 1593.94 32.3552 Q1593.45 24.6972 1586.53 24.6972 Q1582.8 24.6972 1581.13 26.1485 Q1579.46 27.5689 1579.46 29.5143 Q1579.46 30.5951 1579.95 31.4288 Q1580.48 32.2317 1581.13 32.7258 Q1581.81 33.189 1583.04 33.6522 Q1584.28 34.0845 1585.02 34.2389 Q1585.79 34.3933 1587.24 34.702 Q1592.3 35.6593 1594.44 37.7282 Q1597.09 40.3838 1597.09 43.7496 Q1597.09 47.486 1594.56 50.0181 Q1592.03 52.5502 1586.93 52.5502 Q1582.83 52.5502 1579.95 49.802 Q1579.58 50.1725 1579.31 50.5122 Q1579.03 50.821 1578.9 50.9445 Q1578.81 51.068 1578.78 51.1607 Q1578.75 51.2224 1578.69 51.2842 Q1577.42 52.5502 1577.11 52.5502 Q1576.62 52.5502 1576.53 52.2106 Q1576.43 51.9018 1576.43 51.0063 Z" fill="#000000" fill-rule="nonzero" fill-opacity="1" /><polyline clip-path="url(#clip262)" style="stroke:#0173b2; stroke-linecap:round; stroke-linejoin:round; stroke-width:4; stroke-opacity:1; fill:none" points="334.283,1164.69 424.185,1164.6 514.087,1164.46 603.989,1164.31 693.891,1164.14 783.794,1163.75 873.696,1163.67 963.598,1163.26 1053.5,1162.96 1143.4,1162.25 1233.3,1161.77 1323.21,1158.7 1413.11,1153.1 1503.01,1143.81 1592.91,1131.46 1682.81,1101.31 1772.72,1024.73 1862.62,802.794 1952.52,493.361 2042.42,200.681 2132.33,137.19 "/>
<circle clip-path="url(#clip262)" cx="334.283" cy="1164.69" r="7.2" fill="#0173b2" fill-rule="evenodd" fill-opacity="1" stroke="none"/>
<circle clip-path="url(#clip262)" cx="424.185" cy="1164.6" r="7.2" fill="#0173b2" fill-rule="evenodd" fill-opacity="1" stroke="none"/>
<circle clip-path="url(#clip262)" cx="514.087" cy="1164.46" r="7.2" fill="#0173b2" fill-rule="evenodd" fill-opacity="1" stroke="none"/>
<circle clip-path="url(#clip262)" cx="603.989" cy="1164.31" r="7.2" fill="#0173b2" fill-rule="evenodd" fill-opacity="1" stroke="none"/>
<circle clip-path="url(#clip262)" cx="693.891" cy="1164.14" r="7.2" fill="#0173b2" fill-rule="evenodd" fill-opacity="1" stroke="none"/>
<circle clip-path="url(#clip262)" cx="783.794" cy="1163.75" r="7.2" fill="#0173b2" fill-rule="evenodd" fill-opacity="1" stroke="none"/>
<circle clip-path="url(#clip262)" cx="873.696" cy="1163.67" r="7.2" fill="#0173b2" fill-rule="evenodd" fill-opacity="1" stroke="none"/>
<circle clip-path="url(#clip262)" cx="963.598" cy="1163.26" r="7.2" fill="#0173b2" fill-rule="evenodd" fill-opacity="1" stroke="none"/>
<circle clip-path="url(#clip262)" cx="1053.5" cy="1162.96" r="7.2" fill="#0173b2" fill-rule="evenodd" fill-opacity="1" stroke="none"/>
<circle clip-path="url(#clip262)" cx="1143.4" cy="1162.25" r="7.2" fill="#0173b2" fill-rule="evenodd" fill-opacity="1" stroke="none"/>
<circle clip-path="url(#clip262)" cx="1233.3" cy="1161.77" r="7.2" fill="#0173b2" fill-rule="evenodd" fill-opacity="1" stroke="none"/>
<circle clip-path="url(#clip262)" cx="1323.21" cy="1158.7" r="7.2" fill="#0173b2" fill-rule="evenodd" fill-opacity="1" stroke="none"/>
<circle clip-path="url(#clip262)" cx="1413.11" cy="1153.1" r="7.2" fill="#0173b2" fill-rule="evenodd" fill-opacity="1" stroke="none"/>
<circle clip-path="url(#clip262)" cx="1503.01" cy="1143.81" r="7.2" fill="#0173b2" fill-rule="evenodd" fill-opacity="1" stroke="none"/>
<circle clip-path="url(#clip262)" cx="1592.91" cy="1131.46" r="7.2" fill="#0173b2" fill-rule="evenodd" fill-opacity="1" stroke="none"/>
<circle clip-path="url(#clip262)" cx="1682.81" cy="1101.31" r="7.2" fill="#0173b2" fill-rule="evenodd" fill-opacity="1" stroke="none"/>
<circle clip-path="url(#clip262)" cx="1772.72" cy="1024.73" r="7.2" fill="#0173b2" fill-rule="evenodd" fill-opacity="1" stroke="none"/>
<circle clip-path="url(#clip262)" cx="1862.62" cy="802.794" r="7.2" fill="#0173b2" fill-rule="evenodd" fill-opacity="1" stroke="none"/>
<circle clip-path="url(#clip262)" cx="1952.52" cy="493.361" r="7.2" fill="#0173b2" fill-rule="evenodd" fill-opacity="1" stroke="none"/>
<circle clip-path="url(#clip262)" cx="2042.42" cy="200.681" r="7.2" fill="#0173b2" fill-rule="evenodd" fill-opacity="1" stroke="none"/>
<circle clip-path="url(#clip262)" cx="2132.33" cy="137.19" r="7.2" fill="#0173b2" fill-rule="evenodd" fill-opacity="1" stroke="none"/>
<polyline clip-path="url(#clip262)" style="stroke:#de8f05; stroke-linecap:round; stroke-linejoin:round; stroke-width:4; stroke-opacity:1; fill:none" points="334.283,1164.74 424.185,1164.6 514.087,1164.44 603.989,1164.36 693.891,1164.29 783.794,1164.16 873.696,1163.96 963.598,1163.77 1053.5,1163.36 1143.4,1162.98 1233.3,1162 1323.21,1161.57 1413.11,1157.04 1503.01,1151.86 1592.91,1143.81 1682.81,1121.86 1772.72,1030.55 1862.62,819.207 1952.52,492.759 2042.42,240.299 2132.33,133.965 "/>
<circle clip-path="url(#clip262)" cx="334.283" cy="1164.74" r="7.2" fill="#de8f05" fill-rule="evenodd" fill-opacity="1" stroke="none"/>
<circle clip-path="url(#clip262)" cx="424.185" cy="1164.6" r="7.2" fill="#de8f05" fill-rule="evenodd" fill-opacity="1" stroke="none"/>
<circle clip-path="url(#clip262)" cx="514.087" cy="1164.44" r="7.2" fill="#de8f05" fill-rule="evenodd" fill-opacity="1" stroke="none"/>
<circle clip-path="url(#clip262)" cx="603.989" cy="1164.36" r="7.2" fill="#de8f05" fill-rule="evenodd" fill-opacity="1" stroke="none"/>
<circle clip-path="url(#clip262)" cx="693.891" cy="1164.29" r="7.2" fill="#de8f05" fill-rule="evenodd" fill-opacity="1" stroke="none"/>
<circle clip-path="url(#clip262)" cx="783.794" cy="1164.16" r="7.2" fill="#de8f05" fill-rule="evenodd" fill-opacity="1" stroke="none"/>
<circle clip-path="url(#clip262)" cx="873.696" cy="1163.96" r="7.2" fill="#de8f05" fill-rule="evenodd" fill-opacity="1" stroke="none"/>
<circle clip-path="url(#clip262)" cx="963.598" cy="1163.77" r="7.2" fill="#de8f05" fill-rule="evenodd" fill-opacity="1" stroke="none"/>
<circle clip-path="url(#clip262)" cx="1053.5" cy="1163.36" r="7.2" fill="#de8f05" fill-rule="evenodd" fill-opacity="1" stroke="none"/>
<circle clip-path="url(#clip262)" cx="1143.4" cy="1162.98" r="7.2" fill="#de8f05" fill-rule="evenodd" fill-opacity="1" stroke="none"/>
<circle clip-path="url(#clip262)" cx="1233.3" cy="1162" r="7.2" fill="#de8f05" fill-rule="evenodd" fill-opacity="1" stroke="none"/>
<circle clip-path="url(#clip262)" cx="1323.21" cy="1161.57" r="7.2" fill="#de8f05" fill-rule="evenodd" fill-opacity="1" stroke="none"/>
<circle clip-path="url(#clip262)" cx="1413.11" cy="1157.04" r="7.2" fill="#de8f05" fill-rule="evenodd" fill-opacity="1" stroke="none"/>
<circle clip-path="url(#clip262)" cx="1503.01" cy="1151.86" r="7.2" fill="#de8f05" fill-rule="evenodd" fill-opacity="1" stroke="none"/>
<circle clip-path="url(#clip262)" cx="1592.91" cy="1143.81" r="7.2" fill="#de8f05" fill-rule="evenodd" fill-opacity="1" stroke="none"/>
<circle clip-path="url(#clip262)" cx="1682.81" cy="1121.86" r="7.2" fill="#de8f05" fill-rule="evenodd" fill-opacity="1" stroke="none"/>
<circle clip-path="url(#clip262)" cx="1772.72" cy="1030.55" r="7.2" fill="#de8f05" fill-rule="evenodd" fill-opacity="1" stroke="none"/>
<circle clip-path="url(#clip262)" cx="1862.62" cy="819.207" r="7.2" fill="#de8f05" fill-rule="evenodd" fill-opacity="1" stroke="none"/>
<circle clip-path="url(#clip262)" cx="1952.52" cy="492.759" r="7.2" fill="#de8f05" fill-rule="evenodd" fill-opacity="1" stroke="none"/>
<circle clip-path="url(#clip262)" cx="2042.42" cy="240.299" r="7.2" fill="#de8f05" fill-rule="evenodd" fill-opacity="1" stroke="none"/>
<circle clip-path="url(#clip262)" cx="2132.33" cy="133.965" r="7.2" fill="#de8f05" fill-rule="evenodd" fill-opacity="1" stroke="none"/>
</svg>
