<?xml version="1.0" encoding="utf-8"?>
<svg xmlns="http://www.w3.org/2000/svg" xmlns:xlink="http://www.w3.org/1999/xlink" width="566.25" height="350" viewBox="0 0 2265 1400">
<defs>
  <clipPath id="clip300">
    <rect x="0" y="0" width="2265" height="1400"/>
  </clipPath>
</defs>
<path clip-path="url(#clip300)" d="M0 1400 L2265 1400 L2265 0 L0 0  Z" fill="#ffffff" fill-rule="evenodd" fill-opacity="1"/>
<defs>
  <clipPath id="clip301">
    <rect x="453" y="0" width="1587" height="1400"/>
  </clipPath>
</defs>
<path clip-path="url(#clip300)" d="M231.866 1195.66 L2186.27 1195.66 L2186.27 103.042 L231.866 103.042  Z" fill="#ffffff" fill-rule="evenodd" fill-opacity="1"/>
<defs>
  <clipPath id="clip302">
    <rect x="231" y="103" width="1955" height="1094"/>
  </clipPath>
</defs>
<polyline clip-path="url(#clip302)" style="stroke:#000000; stroke-linecap:round; stroke-linejoin:round; stroke-width:2; stroke-opacity:0.1; fill:none" points="268.365,1195.66 268.365,103.042 "/>
<polyline clip-path="url(#clip302)" style="stroke:#000000; stroke-linecap:round; stroke-linejoin:round; stroke-width:2; stroke-opacity:0.1; fill:none" points="738.715,1195.66 738.715,103.042 "/>
<polyline clip-path="url(#clip302)" style="stroke:#000000; stroke-linecap:round; stroke-linejoin:round; stroke-width:2; stroke-opacity:0.1; fill:none" points="1209.07,1195.66 1209.07,103.042 "/>
<polyline clip-path="url(#clip302)" style="stroke:#000000; stroke-linecap:round; stroke-linejoin:round; stroke-width:2; stroke-opacity:0.1; fill:none" points="1679.42,1195.66 1679.42,103.042 "/>
<polyline clip-path="url(#clip302)" style="stroke:#000000; stroke-linecap:round; stroke-linejoin:round; stroke-width:2; stroke-opacity:0.1; fill:none" points="2149.77,1195.66 2149.77,103.042 "/>
<polyline clip-path="url(#clip300)" style="stroke:#000000; stroke-linecap:round; stroke-linejoin:round; stroke-width:4; stroke-opacity:1; fill:none" points="231.866,1195.66 2186.27,1195.66 "/>
<polyline clip-path="url(#clip300)" style="stroke:#000000; stroke-linecap:round; stroke-linejoin:round; stroke-width:4; stroke-opacity:1; fill:none" points="231.866,103.042 2186.27,103.042 "/>
<polyline clip-path="url(#clip300)" style="stroke:#000000; stroke-linecap:round; stroke-linejoin:round; stroke-width:4; stroke-opacity:1; fill:none" points="268.365,1195.66 268.365,1176.77 "/>
<polyline clip-path="url(#clip300)" style="stroke:#000000; stroke-linecap:round; stroke-linejoin:round; stroke-width:4; stroke-opacity:1; fill:none" points="738.715,1195.66 738.715,1176.77 "/>
<polyline clip-path="url(#clip300)" style="stroke:#000000; stroke-linecap:round; stroke-linejoin:round; stroke-width:4; stroke-opacity:1; fill:none" points="1209.07,1195.66 1209.07,1176.77 "/>
<polyline clip-path="url(#clip300)" style="stroke:#000000; stroke-linecap:round; stroke-linejoin:round; stroke-width:4; stroke-opacity:1; fill:none" points="1679.42,1195.66 1679.42,1176.77 "/>
<polyline clip-path="url(#clip300)" style="stroke:#000000; stroke-linecap:round; stroke-linejoin:round; stroke-width:4; stroke-opacity:1; fill:none" points="2149.77,1195.66 2149.77,1176.77 "/>
<path clip-path="url(#clip300)" d="M255.057 1247.56 Q255.057 1238.27 257.404 1233.2 Q260.677 1225.67 268.396 1225.67 Q270.032 1225.67 271.73 1226.13 Q273.459 1226.56 275.621 1228.26 Q277.813 1229.96 279.141 1232.74 Q281.673 1238.11 281.673 1247.56 Q281.673 1256.79 279.326 1261.83 Q275.899 1269.18 268.334 1269.18 Q265.493 1269.18 262.591 1267.72 Q259.719 1266.27 257.898 1262.78 Q255.057 1257.57 255.057 1247.56 M260.306 1246.79 Q260.306 1256.33 260.985 1260.13 Q261.757 1264.24 263.857 1266.03 Q265.987 1267.79 268.334 1267.79 Q270.866 1267.79 272.965 1265.9 Q275.096 1263.99 275.744 1259.88 Q276.454 1255.84 276.424 1246.79 Q276.424 1237.99 275.806 1234.47 Q274.972 1230.36 272.749 1228.72 Q270.557 1227.06 268.334 1227.06 Q267.5 1227.06 266.605 1227.3 Q265.74 1227.55 264.474 1228.26 Q263.208 1228.97 262.22 1230.73 Q261.263 1232.49 260.8 1235.15 Q260.306 1238.57 260.306 1246.79 Z" fill="#000000" fill-rule="nonzero" fill-opacity="1" /><path clip-path="url(#clip300)" d="M710.278 1267.79 Q710.278 1266.64 710.371 1266.3 Q710.494 1265.96 710.988 1265.44 L723.123 1251.91 Q729.761 1244.44 729.761 1237.93 Q729.761 1233.7 727.538 1230.67 Q725.346 1227.64 721.301 1227.64 Q718.522 1227.64 716.176 1229.34 Q713.829 1231.04 712.748 1234.07 Q712.934 1234 713.582 1234 Q715.157 1234 716.021 1234.99 Q716.917 1235.98 716.917 1237.31 Q716.917 1239.01 715.805 1239.84 Q714.724 1240.64 713.644 1240.64 Q713.212 1240.64 712.625 1240.55 Q712.069 1240.46 711.174 1239.59 Q710.278 1238.7 710.278 1237.12 Q710.278 1232.71 713.613 1229.19 Q716.978 1225.67 722.104 1225.67 Q727.909 1225.67 731.707 1229.13 Q735.535 1232.55 735.535 1237.93 Q735.535 1239.81 734.949 1241.54 Q734.393 1243.24 733.621 1244.57 Q732.88 1245.89 730.842 1248.02 Q728.804 1250.15 727.168 1251.67 Q725.531 1253.18 721.857 1256.39 L715.157 1262.91 L726.55 1262.91 Q732.108 1262.91 732.54 1262.41 Q733.158 1261.52 733.93 1256.79 L735.535 1256.79 L733.744 1267.79 L710.278 1267.79 Z" fill="#000000" fill-rule="nonzero" fill-opacity="1" /><path clip-path="url(#clip300)" d="M741.896 1257.6 Q741.896 1255.71 742.915 1255 Q743.934 1254.26 745.014 1254.26 Q746.465 1254.26 747.299 1255.19 Q748.164 1256.08 748.164 1257.35 Q748.164 1258.62 747.299 1259.54 Q746.465 1260.44 745.014 1260.44 Q744.304 1260.44 743.934 1260.31 Q744.767 1263.22 747.299 1265.32 Q749.862 1267.42 753.227 1267.42 Q757.458 1267.42 759.989 1263.31 Q761.502 1260.65 761.502 1254.63 Q761.502 1249.32 760.36 1246.67 Q758.6 1242.62 754.987 1242.62 Q749.862 1242.62 746.836 1247.04 Q746.465 1247.59 746.033 1247.62 Q745.416 1247.62 745.261 1247.28 Q745.138 1246.91 745.138 1245.95 L745.138 1227.24 Q745.138 1225.73 745.755 1225.73 Q746.002 1225.73 746.527 1225.91 Q750.51 1227.67 754.926 1227.71 Q759.464 1227.71 763.54 1225.85 Q763.849 1225.67 764.034 1225.67 Q764.652 1225.67 764.683 1226.38 Q764.683 1226.62 764.158 1227.37 Q763.664 1228.08 762.583 1229.03 Q761.502 1229.96 760.113 1230.85 Q758.723 1231.75 756.686 1232.37 Q754.679 1232.95 752.456 1232.95 Q749.8 1232.95 747.083 1232.12 L747.083 1244.44 Q750.356 1241.23 755.111 1241.23 Q760.175 1241.23 763.664 1245.31 Q767.153 1249.38 767.153 1255.06 Q767.153 1261.02 763.015 1265.1 Q758.909 1269.18 753.351 1269.18 Q748.287 1269.18 745.076 1265.56 Q741.896 1261.95 741.896 1257.6 Z" fill="#000000" fill-rule="nonzero" fill-opacity="1" /><path clip-path="url(#clip300)" d="M1180.29 1257.6 Q1180.29 1255.71 1181.31 1255 Q1182.33 1254.26 1183.41 1254.26 Q1184.86 1254.26 1185.69 1255.19 Q1186.56 1256.08 1186.56 1257.35 Q1186.56 1258.62 1185.69 1259.54 Q1184.86 1260.44 1183.41 1260.44 Q1182.7 1260.44 1182.33 1260.31 Q1183.16 1263.22 1185.69 1265.32 Q1188.26 1267.42 1191.62 1267.42 Q1195.85 1267.42 1198.38 1263.31 Q1199.9 1260.65 1199.9 1254.63 Q1199.9 1249.32 1198.75 1246.67 Q1196.99 1242.62 1193.38 1242.62 Q1188.26 1242.62 1185.23 1247.04 Q1184.86 1247.59 1184.43 1247.62 Q1183.81 1247.62 1183.65 1247.28 Q1183.53 1246.91 1183.53 1245.95 L1183.53 1227.24 Q1183.53 1225.73 1184.15 1225.73 Q1184.4 1225.73 1184.92 1225.91 Q1188.9 1227.67 1193.32 1227.71 Q1197.86 1227.71 1201.93 1225.85 Q1202.24 1225.67 1202.43 1225.67 Q1203.05 1225.67 1203.08 1226.38 Q1203.08 1226.62 1202.55 1227.37 Q1202.06 1228.08 1200.98 1229.03 Q1199.9 1229.96 1198.51 1230.85 Q1197.12 1231.75 1195.08 1232.37 Q1193.07 1232.95 1190.85 1232.95 Q1188.19 1232.95 1185.48 1232.12 L1185.48 1244.44 Q1188.75 1241.23 1193.5 1241.23 Q1198.57 1241.23 1202.06 1245.31 Q1205.55 1249.38 1205.55 1255.06 Q1205.55 1261.02 1201.41 1265.1 Q1197.3 1269.18 1191.74 1269.18 Q1186.68 1269.18 1183.47 1265.56 Q1180.29 1261.95 1180.29 1257.6 Z" fill="#000000" fill-rule="nonzero" fill-opacity="1" /><path clip-path="url(#clip300)" d="M1211.23 1247.56 Q1211.23 1238.27 1213.57 1233.2 Q1216.85 1225.67 1224.57 1225.67 Q1226.2 1225.67 1227.9 1226.13 Q1229.63 1226.56 1231.79 1228.26 Q1233.98 1229.96 1235.31 1232.74 Q1237.84 1238.11 1237.84 1247.56 Q1237.84 1256.79 1235.5 1261.83 Q1232.07 1269.18 1224.5 1269.18 Q1221.66 1269.18 1218.76 1267.72 Q1215.89 1266.27 1214.07 1262.78 Q1211.23 1257.57 1211.23 1247.56 M1216.48 1246.79 Q1216.48 1256.33 1217.16 1260.13 Q1217.93 1264.24 1220.03 1266.03 Q1222.16 1267.79 1224.5 1267.79 Q1227.04 1267.79 1229.14 1265.9 Q1231.27 1263.99 1231.91 1259.88 Q1232.62 1255.84 1232.59 1246.79 Q1232.59 1237.99 1231.98 1234.47 Q1231.14 1230.36 1228.92 1228.72 Q1226.73 1227.06 1224.5 1227.06 Q1223.67 1227.06 1222.78 1227.3 Q1221.91 1227.55 1220.64 1228.26 Q1219.38 1228.97 1218.39 1230.73 Q1217.43 1232.49 1216.97 1235.15 Q1216.48 1238.57 1216.48 1246.79 Z" fill="#000000" fill-rule="nonzero" fill-opacity="1" /><path clip-path="url(#clip300)" d="M1651.18 1238.05 L1653.25 1225.05 L1654.82 1225.05 Q1655.01 1225.82 1655.32 1226.16 Q1655.66 1226.5 1657.45 1226.78 Q1659.27 1227.06 1662.94 1227.06 L1678.29 1227.06 Q1678.29 1228.51 1677.73 1229.28 L1669.18 1241.29 Q1666.46 1245.09 1665.26 1252.1 Q1664.55 1256.79 1664.58 1262.48 L1664.58 1265.69 Q1664.58 1269.18 1661.65 1269.18 Q1658.75 1269.18 1658.75 1265.69 Q1658.75 1253.61 1666.53 1241.91 Q1667.36 1240.71 1670.42 1236.41 Q1673.5 1232.12 1673.63 1231.94 L1660.54 1231.94 Q1654.79 1231.94 1654.33 1232.31 Q1653.71 1232.86 1652.76 1238.05 L1651.18 1238.05 Z" fill="#000000" fill-rule="nonzero" fill-opacity="1" /><path clip-path="url(#clip300)" d="M1682.4 1257.6 Q1682.4 1255.71 1683.42 1255 Q1684.43 1254.26 1685.51 1254.26 Q1686.97 1254.26 1687.8 1255.19 Q1688.66 1256.08 1688.66 1257.35 Q1688.66 1258.62 1687.8 1259.54 Q1686.97 1260.44 1685.51 1260.44 Q1684.8 1260.44 1684.43 1260.31 Q1685.27 1263.22 1687.8 1265.32 Q1690.36 1267.42 1693.73 1267.42 Q1697.96 1267.42 1700.49 1263.31 Q1702 1260.65 1702 1254.63 Q1702 1249.32 1700.86 1246.67 Q1699.1 1242.62 1695.49 1242.62 Q1690.36 1242.62 1687.34 1247.04 Q1686.97 1247.59 1686.53 1247.62 Q1685.92 1247.62 1685.76 1247.28 Q1685.64 1246.91 1685.64 1245.95 L1685.64 1227.24 Q1685.64 1225.73 1686.26 1225.73 Q1686.5 1225.73 1687.03 1225.91 Q1691.01 1227.67 1695.43 1227.71 Q1699.97 1227.71 1704.04 1225.85 Q1704.35 1225.67 1704.53 1225.67 Q1705.15 1225.67 1705.18 1226.38 Q1705.18 1226.62 1704.66 1227.37 Q1704.16 1228.08 1703.08 1229.03 Q1702 1229.96 1700.61 1230.85 Q1699.22 1231.75 1697.19 1232.37 Q1695.18 1232.95 1692.96 1232.95 Q1690.3 1232.95 1687.58 1232.12 L1687.58 1244.44 Q1690.86 1241.23 1695.61 1241.23 Q1700.68 1241.23 1704.16 1245.31 Q1707.65 1249.38 1707.65 1255.06 Q1707.65 1261.02 1703.52 1265.1 Q1699.41 1269.18 1693.85 1269.18 Q1688.79 1269.18 1685.58 1265.56 Q1682.4 1261.95 1682.4 1257.6 Z" fill="#000000" fill-rule="nonzero" fill-opacity="1" /><path clip-path="url(#clip300)" d="M2106.42 1231.69 L2106.42 1229.71 Q2114.01 1229.71 2117.93 1225.67 Q2119.01 1225.67 2119.2 1225.91 Q2119.39 1226.16 2119.39 1227.3 L2119.39 1262.78 Q2119.39 1264.67 2120.31 1265.25 Q2121.24 1265.84 2125.28 1265.84 L2127.29 1265.84 L2127.29 1267.79 Q2125.07 1267.6 2117.04 1267.6 Q2109.01 1267.6 2106.82 1267.79 L2106.82 1265.84 L2108.83 1265.84 Q2112.81 1265.84 2113.77 1265.29 Q2114.72 1264.7 2114.72 1262.78 L2114.72 1230.02 Q2111.42 1231.69 2106.42 1231.69 Z" fill="#000000" fill-rule="nonzero" fill-opacity="1" /><path clip-path="url(#clip300)" d="M2134.89 1247.56 Q2134.89 1238.27 2137.23 1233.2 Q2140.5 1225.67 2148.22 1225.67 Q2149.86 1225.67 2151.56 1226.13 Q2153.29 1226.56 2155.45 1228.26 Q2157.64 1229.96 2158.97 1232.74 Q2161.5 1238.11 2161.5 1247.56 Q2161.5 1256.79 2159.15 1261.83 Q2155.73 1269.18 2148.16 1269.18 Q2145.32 1269.18 2142.42 1267.72 Q2139.55 1266.27 2137.73 1262.78 Q2134.89 1257.57 2134.89 1247.56 M2140.13 1246.79 Q2140.13 1256.33 2140.81 1260.13 Q2141.59 1264.24 2143.68 1266.03 Q2145.82 1267.79 2148.16 1267.79 Q2150.69 1267.79 2152.79 1265.9 Q2154.92 1263.99 2155.57 1259.88 Q2156.28 1255.84 2156.25 1246.79 Q2156.25 1237.99 2155.63 1234.47 Q2154.8 1230.36 2152.58 1228.72 Q2150.39 1227.06 2148.16 1227.06 Q2147.33 1227.06 2146.43 1227.3 Q2145.57 1227.55 2144.3 1228.26 Q2143.04 1228.97 2142.05 1230.73 Q2141.09 1232.49 2140.63 1235.15 Q2140.13 1238.57 2140.13 1246.79 Z" fill="#000000" fill-rule="nonzero" fill-opacity="1" /><path clip-path="url(#clip300)" d="M2166.5 1247.56 Q2166.5 1238.27 2168.85 1233.2 Q2172.12 1225.67 2179.84 1225.67 Q2181.48 1225.67 2183.18 1226.13 Q2184.91 1226.56 2187.07 1228.26 Q2189.26 1229.96 2190.59 1232.74 Q2193.12 1238.11 2193.12 1247.56 Q2193.12 1256.79 2190.77 1261.83 Q2187.34 1269.18 2179.78 1269.18 Q2176.94 1269.18 2174.04 1267.72 Q2171.16 1266.27 2169.34 1262.78 Q2166.5 1257.57 2166.5 1247.56 M2171.75 1246.79 Q2171.75 1256.33 2172.43 1260.13 Q2173.2 1264.24 2175.3 1266.03 Q2177.43 1267.79 2179.78 1267.79 Q2182.31 1267.79 2184.41 1265.9 Q2186.54 1263.99 2187.19 1259.88 Q2187.9 1255.84 2187.87 1246.79 Q2187.87 1237.99 2187.25 1234.47 Q2186.42 1230.36 2184.19 1228.72 Q2182 1227.06 2179.78 1227.06 Q2178.95 1227.06 2178.05 1227.3 Q2177.19 1227.55 2175.92 1228.26 Q2174.65 1228.97 2173.67 1230.73 Q2172.71 1232.49 2172.25 1235.15 Q2171.75 1238.57 2171.75 1246.79 Z" fill="#000000" fill-rule="nonzero" fill-opacity="1" /><path clip-path="url(#clip300)" d="M988.176 1346.28 L988.176 1344.34 L989.689 1344.34 Q993.116 1344.34 993.888 1343.78 Q994.691 1343.19 994.691 1341.34 L994.691 1308.02 Q994.691 1306.2 993.888 1305.65 Q993.085 1305.06 989.689 1305.06 L988.176 1305.06 L988.176 1303.08 L1010.5 1303.08 Q1016.89 1303.08 1021.15 1306.6 Q1025.41 1310.12 1025.41 1314.85 Q1025.41 1319.54 1021.06 1322.94 Q1016.74 1326.3 1010.99 1326.3 L1000.31 1326.3 L1000.31 1341.34 Q1000.31 1343.16 1001.08 1343.75 Q1001.89 1344.34 1005.31 1344.34 L1006.83 1344.34 L1006.83 1346.28 Q1004.6 1346.1 997.47 1346.1 Q990.399 1346.1 988.176 1346.28 M1000.13 1324.67 L1008.83 1324.67 Q1011.67 1324.67 1013.74 1323.86 Q1015.81 1323.06 1016.74 1322.1 Q1017.69 1321.12 1018.22 1319.54 Q1018.77 1317.94 1018.84 1317.07 Q1018.9 1316.18 1018.9 1314.85 Q1018.9 1313.46 1018.84 1312.59 Q1018.77 1311.7 1018.22 1310.12 Q1017.69 1308.52 1016.74 1307.56 Q1015.81 1306.57 1013.74 1305.83 Q1011.7 1305.06 1008.83 1305.06 L1003.21 1305.06 Q1001.05 1305.06 1000.59 1305.49 Q1000.13 1305.92 1000.13 1307.59 L1000.13 1324.67 Z" fill="#000000" fill-rule="nonzero" fill-opacity="1" /><path clip-path="url(#clip300)" d="M1030.69 1346.28 L1030.69 1344.34 Q1034.06 1344.34 1034.83 1343.94 Q1035.63 1343.5 1035.63 1341.47 L1035.63 1324.51 Q1035.63 1322.17 1034.8 1321.58 Q1034 1320.99 1030.69 1320.99 L1030.69 1319.02 L1039.49 1318.34 L1039.49 1325.29 Q1040.39 1322.57 1042.27 1320.47 Q1044.19 1318.34 1047.27 1318.34 Q1049.31 1318.34 1050.61 1319.48 Q1051.94 1320.62 1051.94 1322.2 Q1051.94 1323.59 1051.07 1324.3 Q1050.24 1324.98 1049.22 1324.98 Q1048.08 1324.98 1047.27 1324.27 Q1046.5 1323.52 1046.5 1322.26 Q1046.5 1321.49 1046.84 1320.9 Q1047.21 1320.28 1047.49 1320.07 Q1047.77 1319.85 1047.95 1319.79 Q1047.83 1319.73 1047.27 1319.73 Q1043.78 1319.73 1041.78 1323.22 Q1039.8 1326.67 1039.8 1331.62 L1039.8 1341.34 Q1039.8 1343.16 1040.54 1343.75 Q1041.31 1344.34 1044.62 1344.34 L1045.95 1344.34 L1045.95 1346.28 Q1043.41 1346.1 1037.92 1346.1 Q1037.15 1346.1 1035.94 1346.13 Q1034.74 1346.16 1033.16 1346.22 Q1031.59 1346.28 1030.69 1346.28 Z" fill="#000000" fill-rule="nonzero" fill-opacity="1" /><path clip-path="url(#clip300)" d="M1059.56 1342.89 Q1055.39 1338.75 1055.39 1332.76 Q1055.39 1326.74 1059.47 1322.35 Q1063.58 1317.94 1069.44 1317.94 Q1075.19 1317.94 1079.29 1322.32 Q1083.43 1326.67 1083.43 1332.76 Q1083.43 1338.72 1079.26 1342.86 Q1075.12 1346.99 1069.38 1346.99 Q1063.76 1346.99 1059.56 1342.89 M1060.64 1332.23 Q1060.64 1338.38 1062.25 1341.16 Q1064.72 1345.39 1069.44 1345.39 Q1071.79 1345.39 1073.73 1344.12 Q1075.71 1342.86 1076.79 1340.72 Q1078.18 1337.95 1078.18 1332.23 Q1078.18 1326.15 1076.51 1323.46 Q1074.04 1319.36 1069.38 1319.36 Q1067.34 1319.36 1065.34 1320.44 Q1063.36 1321.49 1062.16 1323.59 Q1060.64 1326.37 1060.64 1332.23 Z" fill="#000000" fill-rule="nonzero" fill-opacity="1" /><path clip-path="url(#clip300)" d="M1087.01 1305.06 L1087.01 1303.08 L1096.12 1302.4 L1096.12 1322.44 Q1099.79 1318.34 1104.8 1318.34 Q1110.23 1318.34 1114.21 1322.51 Q1118.2 1326.67 1118.2 1332.63 Q1118.2 1338.66 1114.03 1342.82 Q1109.86 1346.99 1104.09 1346.99 Q1098.84 1346.99 1095.81 1342.36 Q1093.59 1346.22 1093.53 1346.28 L1091.95 1346.28 L1091.95 1308.58 Q1091.95 1306.23 1091.12 1305.65 Q1090.28 1305.06 1087.01 1305.06 M1096.31 1339.09 Q1096.31 1340.42 1097.2 1341.74 Q1099.7 1345.57 1103.78 1345.57 Q1103.81 1345.57 1103.84 1345.57 Q1108.25 1345.57 1111 1341.53 Q1112.95 1338.5 1112.95 1332.57 Q1112.95 1326.71 1111.13 1323.77 Q1108.59 1319.73 1104.49 1319.73 Q1099.86 1319.73 1097.02 1323.77 Q1096.31 1324.79 1096.31 1326.06 L1096.31 1339.09 Z" fill="#000000" fill-rule="nonzero" fill-opacity="1" /><path clip-path="url(#clip300)" d="M1122.98 1340.26 Q1122.98 1334.89 1129.31 1332.05 Q1133.11 1330.23 1140.95 1329.76 L1140.95 1327.45 Q1140.95 1323.52 1138.88 1321.46 Q1136.85 1319.36 1134.25 1319.36 Q1129.62 1319.36 1127.4 1322.26 Q1129.28 1322.32 1129.96 1323.28 Q1130.64 1324.2 1130.64 1325.16 Q1130.64 1326.43 1129.84 1327.26 Q1129.07 1328.06 1127.74 1328.06 Q1126.47 1328.06 1125.64 1327.29 Q1124.8 1326.49 1124.8 1325.1 Q1124.8 1322.01 1127.58 1319.97 Q1130.39 1317.94 1134.38 1317.94 Q1139.56 1317.94 1143.02 1321.43 Q1144.1 1322.51 1144.63 1323.9 Q1145.18 1325.29 1145.24 1326.21 Q1145.31 1327.11 1145.31 1328.9 L1145.31 1341.53 Q1145.31 1341.9 1145.43 1342.52 Q1145.55 1343.13 1146.11 1343.94 Q1146.7 1344.71 1147.65 1344.71 Q1149.94 1344.71 1149.91 1340.66 L1149.91 1337.11 L1151.51 1337.11 L1151.51 1340.66 Q1151.51 1344.03 1149.72 1345.36 Q1147.96 1346.65 1146.33 1346.65 Q1144.23 1346.65 1142.9 1345.11 Q1141.57 1343.57 1141.38 1341.47 Q1140.43 1343.87 1138.24 1345.45 Q1136.07 1346.99 1133.11 1346.99 Q1130.83 1346.99 1128.66 1346.41 Q1126.53 1345.85 1124.74 1344.28 Q1122.98 1342.67 1122.98 1340.26 M1127.86 1340.2 Q1127.86 1342.55 1129.53 1344.06 Q1131.2 1345.57 1133.54 1345.57 Q1136.2 1345.57 1138.58 1343.53 Q1140.95 1341.47 1140.95 1337.42 L1140.95 1331.09 Q1133.94 1331.34 1130.89 1334.15 Q1127.86 1336.93 1127.86 1340.2 Z" fill="#000000" fill-rule="nonzero" fill-opacity="1" /><path clip-path="url(#clip300)" d="M1153.7 1305.06 L1153.7 1303.08 L1162.81 1302.4 L1162.81 1322.44 Q1166.49 1318.34 1171.49 1318.34 Q1176.92 1318.34 1180.91 1322.51 Q1184.89 1326.67 1184.89 1332.63 Q1184.89 1338.66 1180.72 1342.82 Q1176.55 1346.99 1170.78 1346.99 Q1165.53 1346.99 1162.5 1342.36 Q1160.28 1346.22 1160.22 1346.28 L1158.64 1346.28 L1158.64 1308.58 Q1158.64 1306.23 1157.81 1305.65 Q1156.98 1305.06 1153.7 1305.06 M1163 1339.09 Q1163 1340.42 1163.89 1341.74 Q1166.39 1345.57 1170.47 1345.57 Q1170.5 1345.57 1170.53 1345.57 Q1174.95 1345.57 1177.7 1341.53 Q1179.64 1338.5 1179.64 1332.57 Q1179.64 1326.71 1177.82 1323.77 Q1175.29 1319.73 1171.18 1319.73 Q1166.55 1319.73 1163.71 1323.77 Q1163 1324.79 1163 1326.06 L1163 1339.09 Z" fill="#000000" fill-rule="nonzero" fill-opacity="1" /><path clip-path="url(#clip300)" d="M1189.12 1346.28 L1189.12 1344.34 Q1192.49 1344.34 1193.26 1343.94 Q1194.03 1343.5 1194.03 1341.47 L1194.03 1324.45 Q1194.03 1322.1 1193.23 1321.55 Q1192.45 1320.99 1189.37 1320.99 L1189.37 1319.02 L1198.2 1318.34 L1198.2 1341.53 Q1198.2 1343.41 1198.88 1343.87 Q1199.56 1344.34 1202.64 1344.34 L1202.64 1346.28 Q1196.19 1346.1 1196.07 1346.1 Q1195.2 1346.1 1189.12 1346.28 M1191.78 1307.31 Q1191.78 1306.05 1192.73 1305.03 Q1193.72 1303.98 1195.11 1303.98 Q1196.5 1303.98 1197.49 1304.94 Q1198.48 1305.86 1198.48 1307.34 Q1198.48 1308.8 1197.49 1309.75 Q1196.5 1310.68 1195.11 1310.68 Q1193.66 1310.68 1192.7 1309.66 Q1191.78 1308.64 1191.78 1307.31 Z" fill="#000000" fill-rule="nonzero" fill-opacity="1" /><path clip-path="url(#clip300)" d="M1206.63 1346.28 L1206.63 1344.34 Q1209.99 1344.34 1210.76 1343.94 Q1211.54 1343.5 1211.54 1341.47 L1211.54 1308.58 Q1211.54 1306.23 1210.7 1305.65 Q1209.9 1305.06 1206.63 1305.06 L1206.63 1303.08 L1215.7 1302.4 L1215.7 1341.47 Q1215.7 1343.5 1216.51 1343.94 Q1217.31 1344.34 1220.64 1344.34 L1220.64 1346.28 Q1219.87 1346.28 1218.27 1346.22 Q1216.66 1346.16 1215.49 1346.13 Q1214.32 1346.1 1213.64 1346.1 Q1212.89 1346.1 1206.63 1346.28 Z" fill="#000000" fill-rule="nonzero" fill-opacity="1" /><path clip-path="url(#clip300)" d="M1224.13 1346.28 L1224.13 1344.34 Q1227.5 1344.34 1228.27 1343.94 Q1229.04 1343.5 1229.04 1341.47 L1229.04 1324.45 Q1229.04 1322.1 1228.24 1321.55 Q1227.47 1320.99 1224.38 1320.99 L1224.38 1319.02 L1233.21 1318.34 L1233.21 1341.53 Q1233.21 1343.41 1233.89 1343.87 Q1234.57 1344.34 1237.66 1344.34 L1237.66 1346.28 Q1231.2 1346.1 1231.08 1346.1 Q1230.22 1346.1 1224.13 1346.28 M1226.79 1307.31 Q1226.79 1306.05 1227.75 1305.03 Q1228.73 1303.98 1230.12 1303.98 Q1231.51 1303.98 1232.5 1304.94 Q1233.49 1305.86 1233.49 1307.34 Q1233.49 1308.8 1232.5 1309.75 Q1231.51 1310.68 1230.12 1310.68 Q1228.67 1310.68 1227.72 1309.66 Q1226.79 1308.64 1226.79 1307.31 Z" fill="#000000" fill-rule="nonzero" fill-opacity="1" /><path clip-path="url(#clip300)" d="M1240.75 1320.99 L1240.75 1319.6 Q1243.65 1319.48 1245.56 1317.44 Q1247.51 1315.37 1248.16 1312.84 Q1248.84 1310.31 1248.9 1307.38 L1250.47 1307.38 L1250.47 1319.02 L1259.52 1319.02 L1259.52 1320.99 L1250.47 1320.99 L1250.47 1338.56 Q1250.47 1345.39 1254.73 1345.39 Q1256.55 1345.39 1257.76 1343.53 Q1258.96 1341.65 1258.96 1338.32 L1258.96 1334.83 L1260.54 1334.83 L1260.54 1338.44 Q1260.54 1341.87 1258.96 1344.43 Q1257.39 1346.99 1254.27 1346.99 Q1253.13 1346.99 1251.98 1346.68 Q1250.87 1346.41 1249.39 1345.67 Q1247.94 1344.89 1247.01 1343.04 Q1246.12 1341.16 1246.12 1338.44 L1246.12 1320.99 L1240.75 1320.99 Z" fill="#000000" fill-rule="nonzero" fill-opacity="1" /><path clip-path="url(#clip300)" d="M1266.16 1346.28 L1266.16 1344.34 Q1269.52 1344.34 1270.29 1343.94 Q1271.07 1343.5 1271.07 1341.47 L1271.07 1324.45 Q1271.07 1322.1 1270.26 1321.55 Q1269.49 1320.99 1266.4 1320.99 L1266.4 1319.02 L1275.23 1318.34 L1275.23 1341.53 Q1275.23 1343.41 1275.91 1343.87 Q1276.59 1344.34 1279.68 1344.34 L1279.68 1346.28 Q1273.23 1346.1 1273.1 1346.1 Q1272.24 1346.1 1266.16 1346.28 M1268.81 1307.31 Q1268.81 1306.05 1269.77 1305.03 Q1270.76 1303.98 1272.15 1303.98 Q1273.54 1303.98 1274.52 1304.94 Q1275.51 1305.86 1275.51 1307.34 Q1275.51 1308.8 1274.52 1309.75 Q1273.54 1310.68 1272.15 1310.68 Q1270.7 1310.68 1269.74 1309.66 Q1268.81 1308.64 1268.81 1307.31 Z" fill="#000000" fill-rule="nonzero" fill-opacity="1" /><path clip-path="url(#clip300)" d="M1283.32 1332.36 Q1283.32 1326.4 1287.15 1322.17 Q1290.98 1317.94 1296.48 1317.94 Q1302.04 1317.94 1304.91 1321.55 Q1307.81 1325.16 1307.81 1330.35 Q1307.81 1331.31 1307.56 1331.49 Q1307.32 1331.68 1306.23 1331.68 L1288.57 1331.68 Q1288.57 1338.13 1290.49 1341.16 Q1293.14 1345.39 1297.62 1345.39 Q1298.24 1345.39 1298.98 1345.26 Q1299.72 1345.14 1301.23 1344.62 Q1302.75 1344.06 1304.07 1342.61 Q1305.4 1341.16 1306.17 1338.87 Q1306.36 1337.98 1306.98 1338.01 Q1307.81 1338.01 1307.81 1338.75 Q1307.81 1339.3 1307.19 1340.57 Q1306.6 1341.81 1305.46 1343.29 Q1304.32 1344.77 1302.1 1345.88 Q1299.9 1346.99 1297.25 1346.99 Q1291.69 1346.99 1287.49 1342.79 Q1283.32 1338.56 1283.32 1332.36 M1288.63 1330.35 L1303.64 1330.35 Q1303.64 1329.02 1303.39 1327.54 Q1303.18 1326.06 1302.5 1324.02 Q1301.85 1321.95 1300.31 1320.65 Q1298.76 1319.36 1296.48 1319.36 Q1295.46 1319.36 1294.35 1319.79 Q1293.27 1320.22 1291.94 1321.27 Q1290.61 1322.32 1289.68 1324.7 Q1288.76 1327.08 1288.63 1330.35 Z" fill="#000000" fill-rule="nonzero" fill-opacity="1" /><path clip-path="url(#clip300)" d="M1311.73 1345.45 L1311.73 1337.11 Q1311.73 1336.4 1311.76 1336.15 Q1311.79 1335.91 1311.98 1335.72 Q1312.16 1335.54 1312.53 1335.54 Q1312.97 1335.54 1313.12 1335.72 Q1313.31 1335.91 1313.43 1336.62 Q1314.39 1340.97 1316.42 1343.29 Q1318.49 1345.57 1322.23 1345.57 Q1325.78 1345.57 1327.57 1344 Q1329.36 1342.42 1329.36 1339.83 Q1329.36 1335.2 1322.78 1334.02 Q1318.99 1333.25 1317.41 1332.76 Q1315.84 1332.23 1314.45 1331.09 Q1311.73 1328.87 1311.73 1325.72 Q1311.73 1322.57 1314.11 1320.25 Q1316.52 1317.94 1321.83 1317.94 Q1325.38 1317.94 1327.79 1319.73 Q1328.5 1319.17 1328.87 1318.71 Q1329.7 1317.94 1330.13 1317.94 Q1330.63 1317.94 1330.72 1318.28 Q1330.81 1318.58 1330.81 1319.48 L1330.81 1325.84 Q1330.81 1326.55 1330.78 1326.8 Q1330.75 1327.05 1330.57 1327.23 Q1330.38 1327.38 1329.98 1327.38 Q1329.27 1327.38 1329.24 1326.8 Q1328.74 1319.14 1321.83 1319.14 Q1318.09 1319.14 1316.42 1320.59 Q1314.76 1322.01 1314.76 1323.96 Q1314.76 1325.04 1315.25 1325.87 Q1315.78 1326.67 1316.42 1327.17 Q1317.1 1327.63 1318.34 1328.1 Q1319.57 1328.53 1320.31 1328.68 Q1321.09 1328.84 1322.54 1329.14 Q1327.6 1330.1 1329.73 1332.17 Q1332.39 1334.83 1332.39 1338.19 Q1332.39 1341.93 1329.85 1344.46 Q1327.32 1346.99 1322.23 1346.99 Q1318.12 1346.99 1315.25 1344.24 Q1314.88 1344.62 1314.6 1344.96 Q1314.32 1345.26 1314.2 1345.39 Q1314.11 1345.51 1314.08 1345.6 Q1314.05 1345.67 1313.98 1345.73 Q1312.72 1346.99 1312.41 1346.99 Q1311.92 1346.99 1311.82 1346.65 Q1311.73 1346.34 1311.73 1345.45 Z" fill="#000000" fill-rule="nonzero" fill-opacity="1" /><path clip-path="url(#clip300)" d="M1361.81 1330.47 Q1361.81 1319.79 1365.8 1311.17 Q1367.49 1307.56 1369.87 1304.53 Q1372.25 1301.51 1373.82 1300.18 Q1375.4 1298.85 1375.83 1298.85 Q1376.45 1298.85 1376.48 1299.47 Q1376.48 1299.78 1375.64 1300.55 Q1365.46 1310.93 1365.49 1330.47 Q1365.49 1350.08 1375.4 1360.06 Q1376.48 1361.14 1376.48 1361.48 Q1376.48 1362.09 1375.83 1362.09 Q1375.4 1362.09 1373.88 1360.83 Q1372.37 1359.56 1370.03 1356.66 Q1367.68 1353.76 1365.98 1350.2 Q1361.81 1341.59 1361.81 1330.47 Z" fill="#000000" fill-rule="nonzero" fill-opacity="1" /><path clip-path="url(#clip300)" d="M1382.65 1332.7 Q1382.65 1326.61 1385.49 1322.51 Q1388.33 1318.4 1392.26 1318.4 Q1393.83 1318.4 1395.13 1319.2 Q1396.42 1319.97 1397.29 1321.02 Q1398.15 1322.07 1398.96 1323.93 Q1399.79 1325.78 1400.22 1327.11 Q1400.69 1328.43 1401.3 1330.72 Q1402.38 1327.94 1403.16 1325.44 Q1403.96 1322.94 1404.21 1321.8 Q1404.48 1320.62 1404.82 1319.73 Q1405.16 1318.83 1405.5 1318.62 Q1405.87 1318.4 1406.55 1318.4 L1408.31 1318.4 Q1409.7 1318.4 1409.73 1319.2 Q1409.73 1319.63 1408.87 1322.6 Q1408 1325.53 1406.49 1329.79 Q1404.98 1334.02 1403.65 1336.8 Q1403.4 1337.57 1403.4 1337.67 Q1403.4 1338.04 1403.87 1339.18 Q1404.33 1340.32 1405.53 1341.59 Q1406.74 1342.86 1408.25 1342.86 Q1409.39 1342.86 1409.98 1342.21 Q1410.6 1341.53 1410.84 1341.53 Q1411.68 1341.53 1411.68 1342.55 Q1411.68 1344.06 1410.69 1345.48 Q1409.73 1346.9 1408.07 1346.9 Q1404.51 1346.9 1402.2 1339.71 Q1399.54 1343.57 1397.63 1345.08 Q1395.16 1346.96 1392.32 1346.99 Q1388.15 1346.99 1385.4 1342.73 Q1382.65 1338.44 1382.65 1332.7 M1384.29 1332.7 Q1384.29 1337.17 1386.42 1340.01 Q1388.58 1342.86 1392.13 1342.86 Q1396.18 1342.86 1399.91 1334.21 Q1400.16 1333.44 1400.16 1333.25 Q1400.16 1332.7 1399.76 1331.18 Q1399.36 1329.64 1398.49 1327.6 Q1397.63 1325.53 1395.96 1324.02 Q1394.29 1322.51 1392.13 1322.51 Q1388.58 1322.51 1386.42 1325.35 Q1384.29 1328.16 1384.29 1332.7 Z" fill="#000000" fill-rule="nonzero" fill-opacity="1" /><path clip-path="url(#clip300)" d="M1415.29 1361.48 Q1415.29 1361.17 1416.09 1360.39 Q1426.28 1350.02 1426.28 1330.47 Q1426.28 1310.86 1416.49 1300.95 Q1415.29 1299.81 1415.29 1299.47 Q1415.29 1298.85 1415.91 1298.85 Q1416.34 1298.85 1417.85 1300.12 Q1419.4 1301.38 1421.71 1304.29 Q1424.06 1307.19 1425.79 1310.74 Q1429.96 1319.36 1429.96 1330.47 Q1429.96 1341.16 1425.97 1349.77 Q1424.28 1353.39 1421.9 1356.41 Q1419.52 1359.44 1417.95 1360.77 Q1416.37 1362.09 1415.91 1362.09 Q1415.29 1362.09 1415.29 1361.48 Z" fill="#000000" fill-rule="nonzero" fill-opacity="1" /><polyline clip-path="url(#clip302)" style="stroke:#000000; stroke-linecap:round; stroke-linejoin:round; stroke-width:2; stroke-opacity:0.1; fill:none" points="231.866,1169.29 2186.27,1169.29 "/>
<polyline clip-path="url(#clip302)" style="stroke:#000000; stroke-linecap:round; stroke-linejoin:round; stroke-width:2; stroke-opacity:0.1; fill:none" points="231.866,960.298 2186.27,960.298 "/>
<polyline clip-path="url(#clip302)" style="stroke:#000000; stroke-linecap:round; stroke-linejoin:round; stroke-width:2; stroke-opacity:0.1; fill:none" points="231.866,751.308 2186.27,751.308 "/>
<polyline clip-path="url(#clip302)" style="stroke:#000000; stroke-linecap:round; stroke-linejoin:round; stroke-width:2; stroke-opacity:0.1; fill:none" points="231.866,542.317 2186.27,542.317 "/>
<polyline clip-path="url(#clip302)" style="stroke:#000000; stroke-linecap:round; stroke-linejoin:round; stroke-width:2; stroke-opacity:0.1; fill:none" points="231.866,333.326 2186.27,333.326 "/>
<polyline clip-path="url(#clip302)" style="stroke:#000000; stroke-linecap:round; stroke-linejoin:round; stroke-width:2; stroke-opacity:0.1; fill:none" points="231.866,124.336 2186.27,124.336 "/>
<polyline clip-path="url(#clip300)" style="stroke:#000000; stroke-linecap:round; stroke-linejoin:round; stroke-width:4; stroke-opacity:1; fill:none" points="231.866,1195.66 231.866,103.042 "/>
<polyline clip-path="url(#clip300)" style="stroke:#000000; stroke-linecap:round; stroke-linejoin:round; stroke-width:4; stroke-opacity:1; fill:none" points="2186.27,1195.66 2186.27,103.042 "/>
<polyline clip-path="url(#clip300)" style="stroke:#000000; stroke-linecap:round; stroke-linejoin:round; stroke-width:4; stroke-opacity:1; fill:none" points="231.866,1169.29 250.762,1169.29 "/>
<polyline clip-path="url(#clip300)" style="stroke:#000000; stroke-linecap:round; stroke-linejoin:round; stroke-width:4; stroke-opacity:1; fill:none" points="231.866,960.298 250.762,960.298 "/>
<polyline clip-path="url(#clip300)" style="stroke:#000000; stroke-linecap:round; stroke-linejoin:round; stroke-width:4; stroke-opacity:1; fill:none" points="231.866,751.308 250.762,751.308 "/>
<polyline clip-path="url(#clip300)" style="stroke:#000000; stroke-linecap:round; stroke-linejoin:round; stroke-width:4; stroke-opacity:1; fill:none" points="231.866,542.317 250.762,542.317 "/>
<polyline clip-path="url(#clip300)" style="stroke:#000000; stroke-linecap:round; stroke-linejoin:round; stroke-width:4; stroke-opacity:1; fill:none" points="231.866,333.326 250.762,333.326 "/>
<polyline clip-path="url(#clip300)" style="stroke:#000000; stroke-linecap:round; stroke-linejoin:round; stroke-width:4; stroke-opacity:1; fill:none" points="231.866,124.336 250.762,124.336 "/>
<path clip-path="url(#clip300)" d="M138.947 1180.45 L138.947 1178.51 L158.369 1148.83 Q158.863 1148.06 159.635 1148.09 Q160.345 1148.09 160.499 1148.37 Q160.654 1148.65 160.654 1149.73 L160.654 1178.51 L166.983 1178.51 L166.983 1180.45 L160.654 1180.45 L160.654 1185.95 Q160.654 1187.77 161.395 1188.36 Q162.167 1188.94 165.439 1188.94 L166.767 1188.94 L166.767 1190.89 Q164.173 1190.7 158.183 1190.7 Q152.224 1190.7 149.631 1190.89 L149.631 1188.94 L150.958 1188.94 Q154.231 1188.94 155.003 1188.39 Q155.775 1187.8 155.775 1185.95 L155.775 1180.45 L138.947 1180.45 M140.738 1178.51 L156.146 1178.51 L156.146 1154.91 L140.738 1178.51 Z" fill="#000000" fill-rule="nonzero" fill-opacity="1" /><path clip-path="url(#clip300)" d="M171.275 1170.66 Q171.275 1161.37 173.622 1156.3 Q176.895 1148.77 184.614 1148.77 Q186.25 1148.77 187.948 1149.23 Q189.677 1149.67 191.839 1151.36 Q194.031 1153.06 195.359 1155.84 Q197.891 1161.21 197.891 1170.66 Q197.891 1179.9 195.544 1184.93 Q192.117 1192.28 184.552 1192.28 Q181.711 1192.28 178.809 1190.83 Q175.937 1189.38 174.116 1185.89 Q171.275 1180.67 171.275 1170.66 M176.524 1169.89 Q176.524 1179.43 177.203 1183.23 Q177.975 1187.34 180.075 1189.13 Q182.205 1190.89 184.552 1190.89 Q187.084 1190.89 189.183 1189.01 Q191.314 1187.09 191.962 1182.98 Q192.672 1178.94 192.642 1169.89 Q192.642 1161.09 192.024 1157.57 Q191.19 1153.46 188.967 1151.83 Q186.775 1150.16 184.552 1150.16 Q183.718 1150.16 182.823 1150.41 Q181.958 1150.65 180.692 1151.36 Q179.426 1152.07 178.438 1153.83 Q177.481 1155.59 177.018 1158.25 Q176.524 1161.68 176.524 1169.89 Z" fill="#000000" fill-rule="nonzero" fill-opacity="1" /><path clip-path="url(#clip300)" d="M140.337 971.708 Q140.337 969.824 141.356 969.114 Q142.375 968.373 143.455 968.373 Q144.907 968.373 145.74 969.299 Q146.605 970.195 146.605 971.461 Q146.605 972.727 145.74 973.653 Q144.907 974.549 143.455 974.549 Q142.745 974.549 142.375 974.425 Q143.208 977.328 145.74 979.428 Q148.303 981.528 151.669 981.528 Q155.899 981.528 158.43 977.421 Q159.943 974.765 159.943 968.744 Q159.943 963.432 158.801 960.777 Q157.041 956.732 153.428 956.732 Q148.303 956.732 145.277 961.147 Q144.907 961.703 144.474 961.734 Q143.857 961.734 143.702 961.394 Q143.579 961.024 143.579 960.067 L143.579 941.354 Q143.579 939.841 144.196 939.841 Q144.443 939.841 144.968 940.026 Q148.951 941.786 153.367 941.817 Q157.906 941.817 161.981 939.964 Q162.29 939.779 162.475 939.779 Q163.093 939.779 163.124 940.489 Q163.124 940.736 162.599 941.477 Q162.105 942.188 161.024 943.145 Q159.943 944.071 158.554 944.967 Q157.165 945.862 155.127 946.48 Q153.12 947.066 150.897 947.066 Q148.241 947.066 145.524 946.233 L145.524 958.554 Q148.797 955.342 153.552 955.342 Q158.616 955.342 162.105 959.418 Q165.594 963.494 165.594 969.176 Q165.594 975.136 161.456 979.212 Q157.35 983.288 151.792 983.288 Q146.728 983.288 143.517 979.675 Q140.337 976.062 140.337 971.708 Z" fill="#000000" fill-rule="nonzero" fill-opacity="1" /><path clip-path="url(#clip300)" d="M171.275 961.672 Q171.275 952.378 173.622 947.313 Q176.895 939.779 184.614 939.779 Q186.25 939.779 187.948 940.242 Q189.677 940.674 191.839 942.373 Q194.031 944.071 195.359 946.85 Q197.891 952.223 197.891 961.672 Q197.891 970.905 195.544 975.939 Q192.117 983.288 184.552 983.288 Q181.711 983.288 178.809 981.836 Q175.937 980.385 174.116 976.896 Q171.275 971.677 171.275 961.672 M176.524 960.9 Q176.524 970.442 177.203 974.24 Q177.975 978.347 180.075 980.138 Q182.205 981.898 184.552 981.898 Q187.084 981.898 189.183 980.015 Q191.314 978.1 191.962 973.993 Q192.672 969.948 192.642 960.9 Q192.642 952.1 192.024 948.58 Q191.19 944.473 188.967 942.836 Q186.775 941.169 184.552 941.169 Q183.718 941.169 182.823 941.416 Q181.958 941.663 180.692 942.373 Q179.426 943.083 178.438 944.843 Q177.481 946.603 177.018 949.259 Q176.524 952.686 176.524 960.9 Z" fill="#000000" fill-rule="nonzero" fill-opacity="1" /><path clip-path="url(#clip300)" d="M139.843 752.929 Q139.843 742.986 144.907 736.902 Q149.97 730.788 156.485 730.788 Q160.283 730.788 162.383 732.734 Q164.513 734.648 164.513 737.613 Q164.513 739.249 163.556 739.959 Q162.599 740.67 161.611 740.67 Q160.468 740.67 159.573 739.898 Q158.677 739.126 158.677 737.736 Q158.677 734.895 162.167 734.895 Q160.53 732.363 156.609 732.363 Q155.405 732.363 154.169 732.734 Q152.934 733.073 151.329 734.247 Q149.723 735.42 148.488 737.273 Q147.253 739.126 146.389 742.615 Q145.524 746.104 145.524 750.644 L145.524 752.157 Q148.118 745.888 153.428 745.919 Q158.739 745.919 162.414 749.964 Q166.088 754.009 166.088 760 Q166.088 766.145 162.259 770.221 Q158.43 774.297 153.058 774.297 Q150.65 774.297 148.457 773.278 Q146.296 772.29 144.258 770.005 Q142.251 767.72 141.047 763.335 Q139.843 758.95 139.843 752.929 M145.648 758.61 Q145.648 764.817 146.79 767.782 Q146.975 768.276 147.377 768.955 Q147.809 769.634 148.519 770.53 Q149.26 771.394 150.464 771.981 Q151.669 772.537 153.058 772.537 Q157.288 772.537 159.326 768.43 Q160.407 766.145 160.407 759.938 Q160.407 753.608 159.264 751.292 Q157.319 747.37 153.367 747.37 Q150.711 747.37 148.859 749.192 Q147.037 751.014 146.327 753.454 Q145.648 755.893 145.648 758.61 Z" fill="#000000" fill-rule="nonzero" fill-opacity="1" /><path clip-path="url(#clip300)" d="M171.275 752.682 Q171.275 743.387 173.622 738.323 Q176.895 730.788 184.614 730.788 Q186.25 730.788 187.948 731.251 Q189.677 731.684 191.839 733.382 Q194.031 735.081 195.359 737.86 Q197.891 743.233 197.891 752.682 Q197.891 761.915 195.544 766.948 Q192.117 774.297 184.552 774.297 Q181.711 774.297 178.809 772.846 Q175.937 771.394 174.116 767.905 Q171.275 762.687 171.275 752.682 M176.524 751.91 Q176.524 761.451 177.203 765.249 Q177.975 769.356 180.075 771.147 Q182.205 772.908 184.552 772.908 Q187.084 772.908 189.183 771.024 Q191.314 769.109 191.962 765.002 Q192.672 760.957 192.642 751.91 Q192.642 743.109 192.024 739.589 Q191.19 735.482 188.967 733.845 Q186.775 732.178 184.552 732.178 Q183.718 732.178 182.823 732.425 Q181.958 732.672 180.692 733.382 Q179.426 734.092 178.438 735.852 Q177.481 737.613 177.018 740.268 Q176.524 743.696 176.524 751.91 Z" fill="#000000" fill-rule="nonzero" fill-opacity="1" /><path clip-path="url(#clip300)" d="M140.738 534.18 L142.807 521.18 L144.382 521.18 Q144.567 521.952 144.876 522.292 Q145.215 522.631 147.006 522.909 Q148.828 523.187 152.502 523.187 L167.848 523.187 Q167.848 524.639 167.292 525.411 L158.739 537.423 Q156.022 541.221 154.818 548.23 Q154.108 552.924 154.139 558.606 L154.139 561.817 Q154.139 565.306 151.205 565.306 Q148.303 565.306 148.303 561.817 Q148.303 549.743 156.084 538.04 Q156.918 536.836 159.974 532.544 Q163.062 528.251 163.185 528.066 L150.094 528.066 Q144.351 528.066 143.888 528.437 Q143.27 528.992 142.313 534.18 L140.738 534.18 Z" fill="#000000" fill-rule="nonzero" fill-opacity="1" /><path clip-path="url(#clip300)" d="M171.275 543.691 Q171.275 534.396 173.622 529.332 Q176.895 521.798 184.614 521.798 Q186.25 521.798 187.948 522.261 Q189.677 522.693 191.839 524.391 Q194.031 526.09 195.359 528.869 Q197.891 534.242 197.891 543.691 Q197.891 552.924 195.544 557.957 Q192.117 565.306 184.552 565.306 Q181.711 565.306 178.809 563.855 Q175.937 562.404 174.116 558.914 Q171.275 553.696 171.275 543.691 M176.524 542.919 Q176.524 552.461 177.203 556.259 Q177.975 560.366 180.075 562.157 Q182.205 563.917 184.552 563.917 Q187.084 563.917 189.183 562.033 Q191.314 560.119 191.962 556.012 Q192.672 551.967 192.642 542.919 Q192.642 534.118 192.024 530.598 Q191.19 526.491 188.967 524.855 Q186.775 523.187 184.552 523.187 Q183.718 523.187 182.823 523.434 Q181.958 523.681 180.692 524.391 Q179.426 525.102 178.438 526.862 Q177.481 528.622 177.018 531.278 Q176.524 534.705 176.524 542.919 Z" fill="#000000" fill-rule="nonzero" fill-opacity="1" /><path clip-path="url(#clip300)" d="M139.843 345.385 Q139.843 338.313 148.951 333.743 Q145.03 331.087 144.32 330.315 Q141.541 327.228 141.541 323.368 Q141.541 318.952 144.876 315.895 Q148.241 312.807 152.996 312.807 Q157.535 312.807 160.962 315.432 Q164.39 318.056 164.39 322.225 Q164.39 328.092 156.732 332.045 Q161.796 335.194 163 336.522 Q166.088 339.95 166.088 344.304 Q166.088 349.368 162.197 352.857 Q158.307 356.316 152.934 356.316 Q147.685 356.316 143.764 353.259 Q139.843 350.202 139.843 345.385 M142.992 345.385 Q142.992 349.306 145.925 351.931 Q148.89 354.556 152.996 354.556 Q156.979 354.556 159.943 352.271 Q162.938 349.986 162.938 346.589 Q162.938 345.261 162.475 344.118 Q162.043 342.976 161.148 342.08 Q160.283 341.154 159.727 340.753 Q159.202 340.32 158.183 339.61 L150.403 334.7 Q142.992 338.807 142.992 345.385 M144.32 320.897 Q144.32 323.923 147.5 326.023 L155.343 331.087 Q161.611 327.413 161.611 322.225 Q161.611 318.859 159.048 316.636 Q156.485 314.382 152.934 314.382 Q149.445 314.382 146.883 316.235 Q144.32 318.056 144.32 320.897 Z" fill="#000000" fill-rule="nonzero" fill-opacity="1" /><path clip-path="url(#clip300)" d="M171.275 334.7 Q171.275 325.406 173.622 320.341 Q176.895 312.807 184.614 312.807 Q186.25 312.807 187.948 313.27 Q189.677 313.702 191.839 315.401 Q194.031 317.099 195.359 319.878 Q197.891 325.251 197.891 334.7 Q197.891 343.933 195.544 348.967 Q192.117 356.316 184.552 356.316 Q181.711 356.316 178.809 354.864 Q175.937 353.413 174.116 349.924 Q171.275 344.705 171.275 334.7 M176.524 333.928 Q176.524 343.47 177.203 347.268 Q177.975 351.375 180.075 353.166 Q182.205 354.926 184.552 354.926 Q187.084 354.926 189.183 353.043 Q191.314 351.128 191.962 347.021 Q192.672 342.976 192.642 333.928 Q192.642 325.128 192.024 321.608 Q191.19 317.501 188.967 315.864 Q186.775 314.197 184.552 314.197 Q183.718 314.197 182.823 314.444 Q181.958 314.691 180.692 315.401 Q179.426 316.111 178.438 317.871 Q177.481 319.631 177.018 322.287 Q176.524 325.714 176.524 333.928 Z" fill="#000000" fill-rule="nonzero" fill-opacity="1" /><path clip-path="url(#clip300)" d="M139.843 118.052 Q139.843 114.686 140.831 112.401 Q141.819 110.085 143.888 107.8 Q147.685 103.816 153.181 103.816 Q155.528 103.816 157.597 104.804 Q159.696 105.793 161.672 108.047 Q163.679 110.27 164.884 114.686 Q166.088 119.071 166.088 125.123 Q166.088 134.912 161.333 141.118 Q156.609 147.325 150.217 147.325 Q146.172 147.325 143.795 145.503 Q141.418 143.65 141.418 140.501 Q141.418 138.864 142.344 138.185 Q143.27 137.475 144.32 137.475 Q145.462 137.475 146.358 138.247 Q147.253 138.988 147.253 140.377 Q147.253 141.52 146.512 142.415 Q145.802 143.28 143.949 143.28 Q145.771 145.565 150.156 145.565 Q151.73 145.565 153.305 144.855 Q154.88 144.114 156.578 142.354 Q158.307 140.563 159.357 136.826 Q160.407 133.09 160.407 127.84 L160.407 125.833 Q157.875 132.163 152.502 132.163 Q147.191 132.163 143.517 128.087 Q139.843 124.011 139.843 118.052 M145.524 118.113 Q145.524 124.382 146.667 126.698 Q148.612 130.681 152.564 130.681 Q156.423 130.681 158.338 127.254 Q160.283 123.795 160.283 119.318 Q160.283 113.111 159.264 110.394 Q157.381 105.391 153.181 105.391 Q149.013 105.391 146.852 109.375 Q145.524 111.721 145.524 118.113 Z" fill="#000000" fill-rule="nonzero" fill-opacity="1" /><path clip-path="url(#clip300)" d="M171.275 125.71 Q171.275 116.415 173.622 111.351 Q176.895 103.816 184.614 103.816 Q186.25 103.816 187.948 104.279 Q189.677 104.712 191.839 106.41 Q194.031 108.109 195.359 110.888 Q197.891 116.261 197.891 125.71 Q197.891 134.943 195.544 139.976 Q192.117 147.325 184.552 147.325 Q181.711 147.325 178.809 145.874 Q175.937 144.422 174.116 140.933 Q171.275 135.715 171.275 125.71 M176.524 124.938 Q176.524 134.479 177.203 138.277 Q177.975 142.384 180.075 144.175 Q182.205 145.936 184.552 145.936 Q187.084 145.936 189.183 144.052 Q191.314 142.137 191.962 138.03 Q192.672 133.985 192.642 124.938 Q192.642 116.137 192.024 112.617 Q191.19 108.51 188.967 106.873 Q186.775 105.206 184.552 105.206 Q183.718 105.206 182.823 105.453 Q181.958 105.7 180.692 106.41 Q179.426 107.12 178.438 108.88 Q177.481 110.641 177.018 113.296 Q176.524 116.724 176.524 124.938 Z" fill="#000000" fill-rule="nonzero" fill-opacity="1" /><path clip-path="url(#clip300)" d="M92.0135 717.998 L90.0683 717.998 L90.0683 716.485 Q90.0683 713.057 89.5125 712.285 Q88.9259 711.482 87.0733 711.482 L53.7576 711.482 Q51.9359 711.482 51.3801 712.285 Q50.7934 713.088 50.7934 716.485 L50.7934 717.998 L48.8174 717.998 L48.8174 695.672 Q48.8174 689.28 52.3373 685.019 Q55.8572 680.757 60.5813 680.757 Q65.2745 680.757 68.6709 685.111 Q72.0365 689.434 72.0365 695.178 L72.0365 705.862 L87.0733 705.862 Q88.895 705.862 89.4817 705.09 Q90.0683 704.287 90.0683 700.86 L90.0683 699.347 L92.0135 699.347 Q91.8283 701.57 91.8283 708.703 Q91.8283 715.774 92.0135 717.998 M70.4 706.047 L70.4 697.34 Q70.4 694.499 69.5972 692.43 Q68.7944 690.361 67.8373 689.434 Q66.8492 688.477 65.2745 687.952 Q63.6689 687.396 62.8044 687.335 Q61.909 687.273 60.5813 687.273 Q59.1918 687.273 58.3273 687.335 Q57.4319 687.396 55.8572 687.952 Q54.2516 688.477 53.2944 689.434 Q52.3064 690.361 51.5654 692.43 Q50.7934 694.468 50.7934 697.34 L50.7934 702.96 Q50.7934 705.121 51.2257 705.584 Q51.658 706.047 53.3253 706.047 L70.4 706.047 Z" fill="#000000" fill-rule="nonzero" fill-opacity="1" /><path clip-path="url(#clip300)" d="M92.0135 675.477 L90.0683 675.477 Q90.0683 672.111 89.6669 671.339 Q89.2347 670.536 87.1968 670.536 L70.2456 670.536 Q67.899 670.536 67.3124 671.37 Q66.7257 672.173 66.7257 675.477 L64.7496 675.477 L64.0703 666.676 L71.0175 666.676 Q68.3004 665.781 66.2008 663.897 Q64.0703 661.983 64.0703 658.895 Q64.0703 656.857 65.2128 655.56 Q66.3552 654.232 67.9299 654.232 Q69.3193 654.232 70.0295 655.097 Q70.7088 655.931 70.7088 656.95 Q70.7088 658.092 69.9986 658.895 Q69.2576 659.667 67.9916 659.667 Q67.2197 659.667 66.6331 659.327 Q66.0155 658.957 65.7994 658.679 Q65.5833 658.401 65.5215 658.216 Q65.4598 658.339 65.4598 658.895 Q65.4598 662.384 68.9488 664.391 Q72.407 666.368 77.3472 666.368 L87.0733 666.368 Q88.895 666.368 89.4817 665.627 Q90.0683 664.855 90.0683 661.551 L90.0683 660.223 L92.0135 660.223 Q91.8283 662.755 91.8283 668.251 Q91.8283 669.023 91.8592 670.228 Q91.89 671.432 91.9518 673.007 Q92.0135 674.582 92.0135 675.477 Z" fill="#000000" fill-rule="nonzero" fill-opacity="1" /><path clip-path="url(#clip300)" d="M92.0135 650.434 L90.0683 650.434 Q90.0683 647.068 89.6669 646.296 Q89.2347 645.524 87.1968 645.524 L70.1839 645.524 Q67.8373 645.524 67.2815 646.327 Q66.7257 647.099 66.7257 650.187 L64.7496 650.187 L64.0703 641.356 L87.2586 641.356 Q89.142 641.356 89.6052 640.676 Q90.0683 639.997 90.0683 636.909 L92.0135 636.909 Q91.8283 643.363 91.8283 643.486 Q91.8283 644.351 92.0135 650.434 M53.0474 647.778 Q51.7815 647.778 50.7626 646.821 Q49.7128 645.833 49.7128 644.443 Q49.7128 643.054 50.6699 642.066 Q51.5962 641.078 53.0783 641.078 Q54.5295 641.078 55.4867 642.066 Q56.413 643.054 56.413 644.443 Q56.413 645.895 55.394 646.852 Q54.3751 647.778 53.0474 647.778 Z" fill="#000000" fill-rule="nonzero" fill-opacity="1" /><path clip-path="url(#clip300)" d="M88.5554 628.849 Q84.3562 632.864 78.3661 632.864 Q72.3452 632.864 68.0225 628.911 Q63.6689 624.959 63.6689 619.153 Q63.6689 615.293 65.5215 612.391 Q67.3432 609.488 70.4618 609.488 Q71.8512 609.488 72.654 610.322 Q73.4259 611.125 73.4259 612.391 Q73.4259 613.719 72.6231 614.521 Q71.7894 615.293 70.5235 615.293 Q69.9677 615.293 69.412 615.108 Q68.8562 614.923 68.2695 614.244 Q67.6829 613.533 67.5902 612.329 Q65.2745 614.583 65.2745 618.968 Q65.2745 619.03 65.2745 619.092 Q65.2745 622.303 68.3004 624.959 Q71.3263 627.614 78.2426 627.614 Q81.8552 627.614 84.5106 626.75 Q87.1351 625.854 88.4936 624.403 Q89.8522 622.952 90.5006 621.531 Q91.1181 620.111 91.1181 618.721 Q91.1181 612.514 84.4797 610.415 Q83.8622 610.229 83.8622 609.612 Q83.8622 608.778 84.4797 608.778 Q84.7884 608.778 85.5912 609.025 Q86.394 609.272 87.66 610.044 Q88.9259 610.816 90.0374 611.928 Q91.1181 613.008 91.9209 614.954 Q92.7237 616.868 92.7237 619.277 Q92.7237 624.835 88.5554 628.849 Z" fill="#000000" fill-rule="nonzero" fill-opacity="1" /><path clip-path="url(#clip300)" d="M78.0883 605.196 Q72.1291 605.196 67.899 601.367 Q63.6689 597.538 63.6689 592.041 Q63.6689 586.483 67.2815 583.611 Q70.894 580.709 76.0813 580.709 Q77.0384 580.709 77.2237 580.956 Q77.409 581.203 77.409 582.284 L77.409 599.947 Q83.8622 599.947 86.888 598.032 Q91.1181 595.376 91.1181 590.899 Q91.1181 590.281 90.9946 589.54 Q90.8711 588.799 90.3462 587.286 Q89.7904 585.773 88.3392 584.445 Q86.888 583.117 84.6032 582.345 Q83.7078 582.16 83.7386 581.543 Q83.7386 580.709 84.4797 580.709 Q85.0355 580.709 86.3014 581.326 Q87.5365 581.913 89.0185 583.056 Q90.5006 584.198 91.6121 586.421 Q92.7237 588.614 92.7237 591.269 Q92.7237 596.828 88.5245 601.027 Q84.2944 605.196 78.0883 605.196 M76.0813 599.885 L76.0813 584.877 Q74.7536 584.877 73.2715 585.124 Q71.7894 585.341 69.7516 586.02 Q67.6829 586.668 66.3861 588.212 Q65.0893 589.756 65.0893 592.041 Q65.0893 593.06 65.5215 594.172 Q65.9538 595.253 67.0036 596.581 Q68.0534 597.908 70.4309 598.835 Q72.8084 599.761 76.0813 599.885 Z" fill="#000000" fill-rule="nonzero" fill-opacity="1" /><path clip-path="url(#clip300)" d="M964.216 30.4098 Q964.216 20.7446 970.391 14.013 Q976.597 7.25044 985.212 7.25044 Q993.888 7.25044 1000.06 14.013 Q1006.27 20.7755 1006.27 30.4098 Q1006.27 37.4194 1002.69 43.1321 Q999.106 48.8138 993.425 51.4077 Q994.629 54.6191 995.988 56.1013 Q997.346 57.5835 999.477 57.5835 Q1001.64 57.5835 1003.31 56.1631 Q1005 54.7426 1005.25 52.2723 Q1005.37 51.1298 1005.93 51.1298 Q1006.64 51.1298 1006.64 52.4576 Q1006.64 53.9707 1006.3 55.669 Q1005.99 57.3983 1005.22 59.4054 Q1004.48 61.4434 1002.87 62.7712 Q1001.27 64.099 998.983 64.099 Q997.284 64.099 996.019 63.3579 Q994.753 62.6477 994.012 61.7522 Q993.301 60.8876 992.684 58.9731 Q992.097 57.0895 991.881 55.8852 Q991.665 54.6809 991.264 52.2723 Q988.238 53.2296 985.274 53.2296 Q976.597 53.2296 970.391 46.5905 Q964.216 39.9515 964.216 30.4098 M970.515 30.4098 Q970.515 35.5358 971.626 39.4883 Q972.738 43.4409 974.528 45.695 Q976.35 47.9183 977.894 49.0918 Q979.438 50.2652 981.013 50.821 Q980.117 49.0609 980.148 47.7948 Q980.148 45.695 981.599 44.0893 Q983.05 42.4836 985.335 42.4836 Q989.812 42.4836 992.468 49.1844 Q999.94 43.6879 999.94 30.4098 Q999.94 24.6663 998.52 20.3123 Q997.099 15.9275 994.814 13.5189 Q992.529 11.1103 990.09 9.96781 Q987.651 8.82528 985.212 8.82528 Q982.803 8.82528 980.395 9.93693 Q977.987 11.0486 975.702 13.3954 Q973.448 15.7422 971.966 20.1888 Q970.515 24.6045 970.515 30.4098 M981.537 47.7948 Q981.537 48.505 981.754 49.277 Q981.97 50.0181 982.896 50.8519 Q983.822 51.6547 985.274 51.6547 Q988.238 51.6547 990.831 50.2034 Q989.627 43.8732 985.335 43.8732 Q983.637 43.8732 982.587 45.0775 Q981.537 46.2817 981.537 47.7948 Z" fill="#000000" fill-rule="nonzero" fill-opacity="1" /><path clip-path="url(#clip300)" d="M1011.83 26.5499 L1011.83 24.5737 L1021.12 23.8943 L1021.12 44.8922 Q1021.12 46.4053 1021.24 47.3008 Q1021.37 48.1654 1021.86 49.1844 Q1022.39 50.2034 1023.56 50.6666 Q1024.76 51.1298 1026.68 51.1298 Q1030.11 51.1298 1032.21 48.3198 Q1034.34 45.5098 1034.34 41.3411 L1034.34 30.0702 Q1034.34 27.7233 1033.5 27.1366 Q1032.67 26.5499 1029.4 26.5499 L1029.4 24.5737 L1038.69 23.8943 L1038.69 46.3435 Q1038.69 48.6903 1039.49 49.3079 Q1040.33 49.8946 1043.63 49.8946 L1043.63 51.84 L1034.52 52.5502 L1034.52 46.8376 Q1031.87 52.5193 1026.37 52.5502 Q1023.59 52.5502 1021.68 51.84 Q1019.79 51.1298 1018.84 50.2652 Q1017.88 49.3697 1017.35 47.6713 Q1016.86 45.973 1016.8 44.9231 Q1016.74 43.8732 1016.74 41.8351 L1016.74 32.3552 Q1016.74 28.063 1016.12 27.3219 Q1015.5 26.5499 1011.83 26.5499 Z" fill="#000000" fill-rule="nonzero" fill-opacity="1" /><path clip-path="url(#clip300)" d="M1047.52 45.8186 Q1047.52 40.4456 1053.85 37.6047 Q1057.65 35.7828 1065.49 35.3196 L1065.49 33.0037 Q1065.49 29.082 1063.42 27.0131 Q1061.38 24.9133 1058.79 24.9133 Q1054.16 24.9133 1051.94 27.816 Q1053.82 27.8777 1054.5 28.835 Q1055.18 29.7614 1055.18 30.7186 Q1055.18 31.9847 1054.38 32.8184 Q1053.6 33.6213 1052.28 33.6213 Q1051.01 33.6213 1050.18 32.8493 Q1049.34 32.0464 1049.34 30.6569 Q1049.34 27.5689 1052.12 25.5309 Q1054.93 23.4929 1058.91 23.4929 Q1064.1 23.4929 1067.56 26.9822 Q1068.64 28.063 1069.16 29.4526 Q1069.72 30.8421 1069.78 31.7685 Q1069.84 32.664 1069.84 34.455 L1069.84 47.0846 Q1069.84 47.4552 1069.97 48.0727 Q1070.09 48.6903 1070.65 49.4932 Q1071.23 50.2652 1072.19 50.2652 Q1074.48 50.2652 1074.44 46.22 L1074.44 42.6689 L1076.05 42.6689 L1076.05 46.22 Q1076.05 49.5858 1074.26 50.9136 Q1072.5 52.2106 1070.86 52.2106 Q1068.76 52.2106 1067.44 50.6666 Q1066.11 49.1226 1065.92 47.0228 Q1064.97 49.4314 1062.77 51.0063 Q1060.61 52.5502 1057.65 52.5502 Q1055.36 52.5502 1053.2 51.9635 Q1051.07 51.4077 1049.28 49.8329 Q1047.52 48.2271 1047.52 45.8186 M1052.4 45.7568 Q1052.4 48.1036 1054.07 49.6167 Q1055.73 51.1298 1058.08 51.1298 Q1060.74 51.1298 1063.11 49.0918 Q1065.49 47.0228 1065.49 42.9777 L1065.49 36.6474 Q1058.48 36.8945 1055.42 39.7045 Q1052.4 42.4836 1052.4 45.7568 Z" fill="#000000" fill-rule="nonzero" fill-opacity="1" /><path clip-path="url(#clip300)" d="M1078.52 51.84 L1078.52 49.8946 Q1081.89 49.8946 1082.66 49.4932 Q1083.43 49.0609 1083.43 47.0228 L1083.43 30.0702 Q1083.43 27.7233 1082.6 27.1366 Q1081.79 26.5499 1078.52 26.5499 L1078.52 24.5737 L1087.41 23.8943 L1087.41 30.5334 Q1090.38 23.8943 1096.77 23.8943 Q1101.52 23.8943 1103.41 26.2411 Q1104.8 27.816 1105.07 29.5761 Q1105.38 31.3362 1105.38 35.9063 L1105.38 47.9801 Q1105.44 49.3079 1106.46 49.6167 Q1107.48 49.8946 1110.32 49.8946 L1110.32 51.84 Q1103.87 51.6547 1103.22 51.6547 Q1102.73 51.6547 1096.09 51.84 L1096.09 49.8946 Q1099.45 49.8946 1100.23 49.4932 Q1101.03 49.0609 1101.03 47.0228 L1101.03 32.2935 Q1101.03 29.082 1100.04 27.1984 Q1099.05 25.2839 1096.34 25.2839 Q1093.06 25.2839 1090.44 28.0321 Q1087.81 30.7804 1087.81 35.4123 L1087.81 47.0228 Q1087.81 49.0609 1088.59 49.4932 Q1089.39 49.8946 1092.72 49.8946 L1092.72 51.84 Q1086.27 51.6547 1085.65 51.6547 Q1085.16 51.6547 1078.52 51.84 Z" fill="#000000" fill-rule="nonzero" fill-opacity="1" /><path clip-path="url(#clip300)" d="M1111 26.5499 L1111 25.1604 Q1113.9 25.0369 1115.82 22.9988 Q1117.76 20.9299 1118.41 18.3978 Q1119.09 15.8657 1119.15 12.9322 L1120.73 12.9322 L1120.73 24.5737 L1129.78 24.5737 L1129.78 26.5499 L1120.73 26.5499 L1120.73 44.1202 Q1120.73 50.9445 1124.99 50.9445 Q1126.81 50.9445 1128.02 49.0918 Q1129.22 47.2081 1129.22 43.8732 L1129.22 40.3838 L1130.79 40.3838 L1130.79 43.9967 Q1130.79 47.4243 1129.22 49.9872 Q1127.64 52.5502 1124.53 52.5502 Q1123.38 52.5502 1122.24 52.2414 Q1121.13 51.9635 1119.65 51.2224 Q1118.2 50.4504 1117.27 48.5977 Q1116.38 46.7141 1116.38 43.9967 L1116.38 26.5499 L1111 26.5499 Z" fill="#000000" fill-rule="nonzero" fill-opacity="1" /><path clip-path="url(#clip300)" d="M1136.41 51.84 L1136.41 49.8946 Q1139.78 49.8946 1140.55 49.4932 Q1141.32 49.0609 1141.32 47.0228 L1141.32 30.0084 Q1141.32 27.6616 1140.52 27.1058 Q1139.75 26.5499 1136.66 26.5499 L1136.66 24.5737 L1145.49 23.8943 L1145.49 47.0846 Q1145.49 48.9682 1146.17 49.4314 Q1146.85 49.8946 1149.94 49.8946 L1149.94 51.84 Q1143.48 51.6547 1143.36 51.6547 Q1142.5 51.6547 1136.41 51.84 M1139.07 12.8705 Q1139.07 11.6044 1140.03 10.5854 Q1141.01 9.5355 1142.4 9.5355 Q1143.79 9.5355 1144.78 10.4928 Q1145.77 11.4191 1145.77 12.9013 Q1145.77 14.3527 1144.78 15.3099 Q1143.79 16.2363 1142.4 16.2363 Q1140.95 16.2363 1140 15.2173 Q1139.07 14.1983 1139.07 12.8705 Z" fill="#000000" fill-rule="nonzero" fill-opacity="1" /><path clip-path="url(#clip300)" d="M1153.92 51.84 L1153.92 49.8946 Q1157.29 49.8946 1158.06 49.4932 Q1158.83 49.0609 1158.83 47.0228 L1158.83 14.1365 Q1158.83 11.7897 1158 11.203 Q1157.19 10.6163 1153.92 10.6163 L1153.92 8.64 L1163 7.96066 L1163 47.0228 Q1163 49.0609 1163.8 49.4932 Q1164.6 49.8946 1167.94 49.8946 L1167.94 51.84 Q1167.17 51.84 1165.56 51.7782 Q1163.96 51.7165 1162.78 51.6856 Q1161.61 51.6547 1160.93 51.6547 Q1160.19 51.6547 1153.92 51.84 Z" fill="#000000" fill-rule="nonzero" fill-opacity="1" /><path clip-path="url(#clip300)" d="M1171.09 37.9135 Q1171.09 31.9538 1174.92 27.7233 Q1178.75 23.4929 1184.24 23.4929 Q1189.8 23.4929 1192.67 27.1058 Q1195.57 30.7186 1195.57 35.9063 Q1195.57 36.8636 1195.33 37.0489 Q1195.08 37.2341 1194 37.2341 L1176.34 37.2341 Q1176.34 43.6879 1178.25 46.7141 Q1180.91 50.9445 1185.38 50.9445 Q1186 50.9445 1186.74 50.821 Q1187.48 50.6975 1189 50.1725 Q1190.51 49.6167 1191.84 48.1654 Q1193.16 46.7141 1193.94 44.429 Q1194.12 43.5335 1194.74 43.5644 Q1195.57 43.5644 1195.57 44.3055 Q1195.57 44.8613 1194.96 46.1273 Q1194.37 47.3625 1193.23 48.8447 Q1192.08 50.3269 1189.86 51.4386 Q1187.67 52.5502 1185.01 52.5502 Q1179.46 52.5502 1175.26 48.3507 Q1171.09 44.1202 1171.09 37.9135 M1176.4 35.9063 L1191.4 35.9063 Q1191.4 34.5785 1191.16 33.0963 Q1190.94 31.6141 1190.26 29.5761 Q1189.61 27.5072 1188.07 26.2103 Q1186.53 24.9133 1184.24 24.9133 Q1183.22 24.9133 1182.11 25.3456 Q1181.03 25.778 1179.7 26.8278 Q1178.37 27.8777 1177.45 30.2554 Q1176.52 32.6331 1176.4 35.9063 Z" fill="#000000" fill-rule="nonzero" fill-opacity="1" /><path clip-path="url(#clip300)" d="M1220.52 26.5499 L1220.52 24.5737 L1225.49 24.5737 L1225.49 17.3171 Q1225.49 12.6234 1228.52 9.93693 Q1231.58 7.25044 1235.31 7.25044 Q1237.78 7.25044 1239.39 8.57824 Q1240.99 9.90605 1240.99 11.697 Q1240.99 12.9013 1240.25 13.7042 Q1239.54 14.4762 1238.21 14.4762 Q1236.95 14.4762 1236.21 13.6733 Q1235.5 12.8705 1235.5 11.7588 Q1235.5 9.72077 1237.38 9.10319 Q1236.42 8.67088 1235.31 8.64 Q1233.03 8.64 1231.24 10.9868 Q1229.48 13.3336 1229.48 17.2553 L1229.48 24.5737 L1236.89 24.5737 L1236.89 26.5499 L1229.69 26.5499 L1229.69 46.8993 Q1229.69 48.7212 1230.43 49.3079 Q1231.2 49.8946 1234.48 49.8946 L1235.81 49.8946 L1235.81 51.84 Q1233.27 51.6547 1227.78 51.6547 Q1227.01 51.6547 1225.8 51.6856 Q1224.63 51.7165 1223.02 51.7782 Q1221.45 51.84 1220.58 51.84 L1220.58 49.8946 Q1223.95 49.8946 1224.72 49.4932 Q1225.49 49.0609 1225.49 47.0228 L1225.49 26.5499 L1220.52 26.5499 Z" fill="#000000" fill-rule="nonzero" fill-opacity="1" /><path clip-path="url(#clip300)" d="M1243.62 48.4433 Q1239.45 44.3055 1239.45 38.3149 Q1239.45 32.2935 1243.52 27.9086 Q1247.63 23.4929 1253.5 23.4929 Q1259.24 23.4929 1263.35 27.8777 Q1267.48 32.2317 1267.48 38.3149 Q1267.48 44.2746 1263.32 48.4124 Q1259.18 52.5502 1253.44 52.5502 Q1247.82 52.5502 1243.62 48.4433 M1244.7 37.79 Q1244.7 43.9349 1246.3 46.7141 Q1248.77 50.9445 1253.5 50.9445 Q1255.84 50.9445 1257.79 49.6785 Q1259.77 48.4124 1260.85 46.2817 Q1262.24 43.5026 1262.24 37.79 Q1262.24 31.7068 1260.57 29.0203 Q1258.1 24.9133 1253.44 24.9133 Q1251.4 24.9133 1249.39 25.9941 Q1247.41 27.044 1246.21 29.1438 Q1244.7 31.9229 1244.7 37.79 Z" fill="#000000" fill-rule="nonzero" fill-opacity="1" /><path clip-path="url(#clip300)" d="M1271.07 51.84 L1271.07 49.8946 Q1274.43 49.8946 1275.2 49.4932 Q1276.01 49.0609 1276.01 47.0228 L1276.01 30.0702 Q1276.01 27.7233 1275.17 27.1366 Q1274.37 26.5499 1271.07 26.5499 L1271.07 24.5737 L1279.87 23.8943 L1279.87 30.8421 Q1280.76 28.1248 1282.64 26.025 Q1284.56 23.8943 1287.65 23.8943 Q1289.68 23.8943 1290.98 25.0369 Q1292.31 26.1794 1292.31 27.7542 Q1292.31 29.1438 1291.44 29.854 Q1290.61 30.5334 1289.59 30.5334 Q1288.45 30.5334 1287.65 29.8231 Q1286.87 29.082 1286.87 27.816 Q1286.87 27.044 1287.21 26.4573 Q1287.59 25.8397 1287.86 25.6236 Q1288.14 25.4074 1288.33 25.3456 Q1288.2 25.2839 1287.65 25.2839 Q1284.16 25.2839 1282.15 28.7732 Q1280.17 32.2317 1280.17 37.1724 L1280.17 46.8993 Q1280.17 48.7212 1280.92 49.3079 Q1281.69 49.8946 1284.99 49.8946 L1286.32 49.8946 L1286.32 51.84 Q1283.79 51.6547 1278.29 51.6547 Q1277.52 51.6547 1276.32 51.6856 Q1275.11 51.7165 1273.54 51.7782 Q1271.96 51.84 1271.07 51.84 Z" fill="#000000" fill-rule="nonzero" fill-opacity="1" /><path clip-path="url(#clip300)" d="M1295.77 37.9135 Q1295.77 31.9538 1299.6 27.7233 Q1303.42 23.4929 1308.92 23.4929 Q1314.48 23.4929 1317.35 27.1058 Q1320.25 30.7186 1320.25 35.9063 Q1320.25 36.8636 1320.01 37.0489 Q1319.76 37.2341 1318.68 37.2341 L1301.02 37.2341 Q1301.02 43.6879 1302.93 46.7141 Q1305.59 50.9445 1310.06 50.9445 Q1310.68 50.9445 1311.42 50.821 Q1312.16 50.6975 1313.68 50.1725 Q1315.19 49.6167 1316.52 48.1654 Q1317.84 46.7141 1318.62 44.429 Q1318.8 43.5335 1319.42 43.5644 Q1320.25 43.5644 1320.25 44.3055 Q1320.25 44.8613 1319.63 46.1273 Q1319.05 47.3625 1317.91 48.8447 Q1316.76 50.3269 1314.54 51.4386 Q1312.35 52.5502 1309.69 52.5502 Q1304.13 52.5502 1299.94 48.3507 Q1295.77 44.1202 1295.77 37.9135 M1301.08 35.9063 L1316.08 35.9063 Q1316.08 34.5785 1315.84 33.0963 Q1315.62 31.6141 1314.94 29.5761 Q1314.29 27.5072 1312.75 26.2103 Q1311.21 24.9133 1308.92 24.9133 Q1307.9 24.9133 1306.79 25.3456 Q1305.71 25.778 1304.38 26.8278 Q1303.05 27.8777 1302.13 30.2554 Q1301.2 32.6331 1301.08 35.9063 Z" fill="#000000" fill-rule="nonzero" fill-opacity="1" /><path clip-path="url(#clip300)" d="M1328.25 48.3815 Q1324.24 44.182 1324.24 38.1914 Q1324.24 32.1699 1328.19 27.8469 Q1332.14 23.4929 1337.94 23.4929 Q1341.8 23.4929 1344.71 25.3456 Q1347.61 27.1675 1347.61 30.2863 Q1347.61 31.6759 1346.78 32.4787 Q1345.97 33.2507 1344.71 33.2507 Q1343.38 33.2507 1342.58 32.4479 Q1341.8 31.6141 1341.8 30.3481 Q1341.8 29.7923 1341.99 29.2364 Q1342.17 28.6806 1342.85 28.0939 Q1343.56 27.5072 1344.77 27.4146 Q1342.51 25.0986 1338.13 25.0986 Q1338.07 25.0986 1338.01 25.0986 Q1334.8 25.0986 1332.14 28.1248 Q1329.48 31.1509 1329.48 38.0679 Q1329.48 41.6807 1330.35 44.3364 Q1331.24 46.9611 1332.7 48.3198 Q1334.15 49.6785 1335.57 50.3269 Q1336.99 50.9445 1338.38 50.9445 Q1344.58 50.9445 1346.68 44.3055 Q1346.87 43.6879 1347.49 43.6879 Q1348.32 43.6879 1348.32 44.3055 Q1348.32 44.6143 1348.07 45.4171 Q1347.83 46.22 1347.05 47.486 Q1346.28 48.7521 1345.17 49.8637 Q1344.09 50.9445 1342.14 51.7474 Q1340.23 52.5502 1337.82 52.5502 Q1332.26 52.5502 1328.25 48.3815 Z" fill="#000000" fill-rule="nonzero" fill-opacity="1" /><path clip-path="url(#clip300)" d="M1352.8 45.8186 Q1352.8 40.4456 1359.13 37.6047 Q1362.92 35.7828 1370.77 35.3196 L1370.77 33.0037 Q1370.77 29.082 1368.7 27.0131 Q1366.66 24.9133 1364.07 24.9133 Q1359.43 24.9133 1357.21 27.816 Q1359.09 27.8777 1359.77 28.835 Q1360.45 29.7614 1360.45 30.7186 Q1360.45 31.9847 1359.65 32.8184 Q1358.88 33.6213 1357.55 33.6213 Q1356.29 33.6213 1355.45 32.8493 Q1354.62 32.0464 1354.62 30.6569 Q1354.62 27.5689 1357.4 25.5309 Q1360.21 23.4929 1364.19 23.4929 Q1369.38 23.4929 1372.84 26.9822 Q1373.92 28.063 1374.44 29.4526 Q1375 30.8421 1375.06 31.7685 Q1375.12 32.664 1375.12 34.455 L1375.12 47.0846 Q1375.12 47.4552 1375.24 48.0727 Q1375.37 48.6903 1375.92 49.4932 Q1376.51 50.2652 1377.47 50.2652 Q1379.75 50.2652 1379.72 46.22 L1379.72 42.6689 L1381.33 42.6689 L1381.33 46.22 Q1381.33 49.5858 1379.54 50.9136 Q1377.78 52.2106 1376.14 52.2106 Q1374.04 52.2106 1372.71 50.6666 Q1371.38 49.1226 1371.2 47.0228 Q1370.24 49.4314 1368.05 51.0063 Q1365.89 52.5502 1362.92 52.5502 Q1360.64 52.5502 1358.48 51.9635 Q1356.35 51.4077 1354.56 49.8329 Q1352.8 48.2271 1352.8 45.8186 M1357.67 45.7568 Q1357.67 48.1036 1359.34 49.6167 Q1361.01 51.1298 1363.36 51.1298 Q1366.01 51.1298 1368.39 49.0918 Q1370.77 47.0228 1370.77 42.9777 L1370.77 36.6474 Q1363.76 36.8945 1360.7 39.7045 Q1357.67 42.4836 1357.67 45.7568 Z" fill="#000000" fill-rule="nonzero" fill-opacity="1" /><path clip-path="url(#clip300)" d="M1383.86 51.0063 L1383.86 42.6689 Q1383.86 41.9587 1383.89 41.7116 Q1383.92 41.4646 1384.1 41.2793 Q1384.29 41.094 1384.66 41.094 Q1385.09 41.094 1385.25 41.2793 Q1385.43 41.4646 1385.56 42.1748 Q1386.51 46.5288 1388.55 48.8447 Q1390.62 51.1298 1394.36 51.1298 Q1397.91 51.1298 1399.7 49.5549 Q1401.49 47.9801 1401.49 45.3862 Q1401.49 40.7544 1394.91 39.581 Q1391.11 38.809 1389.54 38.3149 Q1387.96 37.79 1386.58 36.6474 Q1383.86 34.4241 1383.86 31.2745 Q1383.86 28.1248 1386.24 25.8088 Q1388.64 23.4929 1393.95 23.4929 Q1397.51 23.4929 1399.91 25.2839 Q1400.62 24.7281 1400.99 24.2649 Q1401.83 23.4929 1402.26 23.4929 Q1402.75 23.4929 1402.85 23.8326 Q1402.94 24.1414 1402.94 25.0369 L1402.94 31.398 Q1402.94 32.1082 1402.91 32.3552 Q1402.88 32.6023 1402.69 32.7875 Q1402.51 32.9419 1402.11 32.9419 Q1401.4 32.9419 1401.36 32.3552 Q1400.87 24.6972 1393.95 24.6972 Q1390.22 24.6972 1388.55 26.1485 Q1386.88 27.5689 1386.88 29.5143 Q1386.88 30.5951 1387.38 31.4288 Q1387.9 32.2317 1388.55 32.7258 Q1389.23 33.189 1390.47 33.6522 Q1391.7 34.0845 1392.44 34.2389 Q1393.21 34.3933 1394.66 34.702 Q1399.73 35.6593 1401.86 37.7282 Q1404.51 40.3838 1404.51 43.7496 Q1404.51 47.486 1401.98 50.0181 Q1399.45 52.5502 1394.36 52.5502 Q1390.25 52.5502 1387.38 49.802 Q1387.01 50.1725 1386.73 50.5122 Q1386.45 50.821 1386.33 50.9445 Q1386.24 51.068 1386.2 51.1607 Q1386.17 51.2224 1386.11 51.2842 Q1384.85 52.5502 1384.54 52.5502 Q1384.04 52.5502 1383.95 52.2106 Q1383.86 51.9018 1383.86 51.0063 Z" fill="#000000" fill-rule="nonzero" fill-opacity="1" /><path clip-path="url(#clip300)" d="M1407.85 26.5499 L1407.85 25.1604 Q1410.75 25.0369 1412.67 22.9988 Q1414.61 20.9299 1415.26 18.3978 Q1415.94 15.8657 1416 12.9322 L1417.58 12.9322 L1417.58 24.5737 L1426.62 24.5737 L1426.62 26.5499 L1417.58 26.5499 L1417.58 44.1202 Q1417.58 50.9445 1421.84 50.9445 Q1423.66 50.9445 1424.86 49.0918 Q1426.07 47.2081 1426.07 43.8732 L1426.07 40.3838 L1427.64 40.3838 L1427.64 43.9967 Q1427.64 47.4243 1426.07 49.9872 Q1424.49 52.5502 1421.37 52.5502 Q1420.23 52.5502 1419.09 52.2414 Q1417.98 51.9635 1416.49 51.2224 Q1415.04 50.4504 1414.12 48.5977 Q1413.22 46.7141 1413.22 43.9967 L1413.22 26.5499 L1407.85 26.5499 Z" fill="#000000" fill-rule="nonzero" fill-opacity="1" /><path clip-path="url(#clip300)" d="M1433.26 51.0063 L1433.26 42.6689 Q1433.26 41.9587 1433.29 41.7116 Q1433.32 41.4646 1433.51 41.2793 Q1433.69 41.094 1434.06 41.094 Q1434.5 41.094 1434.65 41.2793 Q1434.83 41.4646 1434.96 42.1748 Q1435.92 46.5288 1437.95 48.8447 Q1440.02 51.1298 1443.76 51.1298 Q1447.31 51.1298 1449.1 49.5549 Q1450.89 47.9801 1450.89 45.3862 Q1450.89 40.7544 1444.31 39.581 Q1440.52 38.809 1438.94 38.3149 Q1437.37 37.79 1435.98 36.6474 Q1433.26 34.4241 1433.26 31.2745 Q1433.26 28.1248 1435.64 25.8088 Q1438.05 23.4929 1443.36 23.4929 Q1446.91 23.4929 1449.32 25.2839 Q1450.03 24.7281 1450.4 24.2649 Q1451.23 23.4929 1451.66 23.4929 Q1452.16 23.4929 1452.25 23.8326 Q1452.34 24.1414 1452.34 25.0369 L1452.34 31.398 Q1452.34 32.1082 1452.31 32.3552 Q1452.28 32.6023 1452.09 32.7875 Q1451.91 32.9419 1451.51 32.9419 Q1450.8 32.9419 1450.77 32.3552 Q1450.27 24.6972 1443.36 24.6972 Q1439.62 24.6972 1437.95 26.1485 Q1436.29 27.5689 1436.29 29.5143 Q1436.29 30.5951 1436.78 31.4288 Q1437.31 32.2317 1437.95 32.7258 Q1438.63 33.189 1439.87 33.6522 Q1441.1 34.0845 1441.84 34.2389 Q1442.62 34.3933 1444.07 34.702 Q1449.13 35.6593 1451.26 37.7282 Q1453.92 40.3838 1453.92 43.7496 Q1453.92 47.486 1451.38 50.0181 Q1448.85 52.5502 1443.76 52.5502 Q1439.65 52.5502 1436.78 49.802 Q1436.41 50.1725 1436.13 50.5122 Q1435.85 50.821 1435.73 50.9445 Q1435.64 51.068 1435.61 51.1607 Q1435.58 51.2224 1435.51 51.2842 Q1434.25 52.5502 1433.94 52.5502 Q1433.45 52.5502 1433.35 52.2106 Q1433.26 51.9018 1433.26 51.0063 Z" fill="#000000" fill-rule="nonzero" fill-opacity="1" /><polyline clip-path="url(#clip302)" style="stroke:#0173b2; stroke-linecap:round; stroke-linejoin:round; stroke-width:4; stroke-opacity:1; fill:none" points="287.179,1164.74 305.993,1111.05 324.807,1074.33 343.621,1057.58 362.435,1045.92 381.249,1037.09 400.063,1029.51 418.877,1022.54 437.691,1016.09 456.505,1010.12 475.319,1004.51 494.133,999.228 512.947,994.178 531.761,989.271 550.575,984.403 569.389,979.55 588.203,974.734 607.017,969.977 625.831,965.304 644.645,960.728 663.459,956.241 682.273,951.882 701.087,947.655 719.901,943.508 738.715,939.515 757.53,935.635 776.344,931.832 795.158,928.196 813.972,924.598 832.786,921.17 851.6,917.776 870.414,914.527 889.228,911.307 908.042,908.283 926.856,905.304 945.67,902.506 964.484,899.779 983.298,897.171 1002.11,894.659 1020.93,892.203 1039.74,889.784 1058.55,887.414 1077.37,885.097 1096.18,882.78 1115,880.493 1133.81,878.231 1152.62,875.963 1171.44,873.701 1190.25,871.444 1209.07,869.181 1227.88,866.9 1246.69,864.601 1265.51,862.296 1284.32,859.951 1303.14,857.561 1321.95,855.163 1340.76,852.692 1359.58,850.147 1378.39,847.593 1397.21,844.883 1416.02,842.097 1434.83,839.265 1453.65,836.12 1472.46,832.962 1491.28,829.526 1510.09,826.01 1528.9,822.402 1547.72,818.749 1566.53,814.992 1585.35,811.188 1604.16,807.253 1622.97,803.258 1641.79,799.127 1660.6,794.895 1679.42,790.552 1698.23,786.037 1717.04,781.393 1735.86,776.6 1754.67,771.575 1773.49,766.374 1792.3,760.93 1811.12,755.27 1829.93,749.271 1848.74,742.946 1867.56,736.248 1886.37,729.071 1905.19,721.375 1924,713.06 1942.81,703.938 1961.63,693.879 1980.44,682.48 1999.26,668.901 2018.07,651.357 2036.88,630.199 2055.7,604.638 2074.51,572.039 2093.33,525.809 2112.14,437.562 2130.95,133.965 "/>
<circle clip-path="url(#clip302)" cx="287.179" cy="1164.74" r="7.2" fill="#0173b2" fill-rule="evenodd" fill-opacity="1" stroke="none"/>
<circle clip-path="url(#clip302)" cx="305.993" cy="1111.05" r="7.2" fill="#0173b2" fill-rule="evenodd" fill-opacity="1" stroke="none"/>
<circle clip-path="url(#clip302)" cx="324.807" cy="1074.33" r="7.2" fill="#0173b2" fill-rule="evenodd" fill-opacity="1" stroke="none"/>
<circle clip-path="url(#clip302)" cx="343.621" cy="1057.58" r="7.2" fill="#0173b2" fill-rule="evenodd" fill-opacity="1" stroke="none"/>
<circle clip-path="url(#clip302)" cx="362.435" cy="1045.92" r="7.2" fill="#0173b2" fill-rule="evenodd" fill-opacity="1" stroke="none"/>
<circle clip-path="url(#clip302)" cx="381.249" cy="1037.09" r="7.2" fill="#0173b2" fill-rule="evenodd" fill-opacity="1" stroke="none"/>
<circle clip-path="url(#clip302)" cx="400.063" cy="1029.51" r="7.2" fill="#0173b2" fill-rule="evenodd" fill-opacity="1" stroke="none"/>
<circle clip-path="url(#clip302)" cx="418.877" cy="1022.54" r="7.2" fill="#0173b2" fill-rule="evenodd" fill-opacity="1" stroke="none"/>
<circle clip-path="url(#clip302)" cx="437.691" cy="1016.09" r="7.2" fill="#0173b2" fill-rule="evenodd" fill-opacity="1" stroke="none"/>
<circle clip-path="url(#clip302)" cx="456.505" cy="1010.12" r="7.2" fill="#0173b2" fill-rule="evenodd" fill-opacity="1" stroke="none"/>
<circle clip-path="url(#clip302)" cx="475.319" cy="1004.51" r="7.2" fill="#0173b2" fill-rule="evenodd" fill-opacity="1" stroke="none"/>
<circle clip-path="url(#clip302)" cx="494.133" cy="999.228" r="7.2" fill="#0173b2" fill-rule="evenodd" fill-opacity="1" stroke="none"/>
<circle clip-path="url(#clip302)" cx="512.947" cy="994.178" r="7.2" fill="#0173b2" fill-rule="evenodd" fill-opacity="1" stroke="none"/>
<circle clip-path="url(#clip302)" cx="531.761" cy="989.271" r="7.2" fill="#0173b2" fill-rule="evenodd" fill-opacity="1" stroke="none"/>
<circle clip-path="url(#clip302)" cx="550.575" cy="984.403" r="7.2" fill="#0173b2" fill-rule="evenodd" fill-opacity="1" stroke="none"/>
<circle clip-path="url(#clip302)" cx="569.389" cy="979.55" r="7.2" fill="#0173b2" fill-rule="evenodd" fill-opacity="1" stroke="none"/>
<circle clip-path="url(#clip302)" cx="588.203" cy="974.734" r="7.2" fill="#0173b2" fill-rule="evenodd" fill-opacity="1" stroke="none"/>
<circle clip-path="url(#clip302)" cx="607.017" cy="969.977" r="7.2" fill="#0173b2" fill-rule="evenodd" fill-opacity="1" stroke="none"/>
<circle clip-path="url(#clip302)" cx="625.831" cy="965.304" r="7.2" fill="#0173b2" fill-rule="evenodd" fill-opacity="1" stroke="none"/>
<circle clip-path="url(#clip302)" cx="644.645" cy="960.728" r="7.2" fill="#0173b2" fill-rule="evenodd" fill-opacity="1" stroke="none"/>
<circle clip-path="url(#clip302)" cx="663.459" cy="956.241" r="7.2" fill="#0173b2" fill-rule="evenodd" fill-opacity="1" stroke="none"/>
<circle clip-path="url(#clip302)" cx="682.273" cy="951.882" r="7.2" fill="#0173b2" fill-rule="evenodd" fill-opacity="1" stroke="none"/>
<circle clip-path="url(#clip302)" cx="701.087" cy="947.655" r="7.2" fill="#0173b2" fill-rule="evenodd" fill-opacity="1" stroke="none"/>
<circle clip-path="url(#clip302)" cx="719.901" cy="943.508" r="7.2" fill="#0173b2" fill-rule="evenodd" fill-opacity="1" stroke="none"/>
<circle clip-path="url(#clip302)" cx="738.715" cy="939.515" r="7.2" fill="#0173b2" fill-rule="evenodd" fill-opacity="1" stroke="none"/>
<circle clip-path="url(#clip302)" cx="757.53" cy="935.635" r="7.2" fill="#0173b2" fill-rule="evenodd" fill-opacity="1" stroke="none"/>
<circle clip-path="url(#clip302)" cx="776.344" cy="931.832" r="7.2" fill="#0173b2" fill-rule="evenodd" fill-opacity="1" stroke="none"/>
<circle clip-path="url(#clip302)" cx="795.158" cy="928.196" r="7.2" fill="#0173b2" fill-rule="evenodd" fill-opacity="1" stroke="none"/>
<circle clip-path="url(#clip302)" cx="813.972" cy="924.598" r="7.2" fill="#0173b2" fill-rule="evenodd" fill-opacity="1" stroke="none"/>
<circle clip-path="url(#clip302)" cx="832.786" cy="921.17" r="7.2" fill="#0173b2" fill-rule="evenodd" fill-opacity="1" stroke="none"/>
<circle clip-path="url(#clip302)" cx="851.6" cy="917.776" r="7.2" fill="#0173b2" fill-rule="evenodd" fill-opacity="1" stroke="none"/>
<circle clip-path="url(#clip302)" cx="870.414" cy="914.527" r="7.2" fill="#0173b2" fill-rule="evenodd" fill-opacity="1" stroke="none"/>
<circle clip-path="url(#clip302)" cx="889.228" cy="911.307" r="7.2" fill="#0173b2" fill-rule="evenodd" fill-opacity="1" stroke="none"/>
<circle clip-path="url(#clip302)" cx="908.042" cy="908.283" r="7.2" fill="#0173b2" fill-rule="evenodd" fill-opacity="1" stroke="none"/>
<circle clip-path="url(#clip302)" cx="926.856" cy="905.304" r="7.2" fill="#0173b2" fill-rule="evenodd" fill-opacity="1" stroke="none"/>
<circle clip-path="url(#clip302)" cx="945.67" cy="902.506" r="7.2" fill="#0173b2" fill-rule="evenodd" fill-opacity="1" stroke="none"/>
<circle clip-path="url(#clip302)" cx="964.484" cy="899.779" r="7.2" fill="#0173b2" fill-rule="evenodd" fill-opacity="1" stroke="none"/>
<circle clip-path="url(#clip302)" cx="983.298" cy="897.171" r="7.2" fill="#0173b2" fill-rule="evenodd" fill-opacity="1" stroke="none"/>
<circle clip-path="url(#clip302)" cx="1002.11" cy="894.659" r="7.2" fill="#0173b2" fill-rule="evenodd" fill-opacity="1" stroke="none"/>
<circle clip-path="url(#clip302)" cx="1020.93" cy="892.203" r="7.2" fill="#0173b2" fill-rule="evenodd" fill-opacity="1" stroke="none"/>
<circle clip-path="url(#clip302)" cx="1039.74" cy="889.784" r="7.2" fill="#0173b2" fill-rule="evenodd" fill-opacity="1" stroke="none"/>
<circle clip-path="url(#clip302)" cx="1058.55" cy="887.414" r="7.2" fill="#0173b2" fill-rule="evenodd" fill-opacity="1" stroke="none"/>
<circle clip-path="url(#clip302)" cx="1077.37" cy="885.097" r="7.2" fill="#0173b2" fill-rule="evenodd" fill-opacity="1" stroke="none"/>
<circle clip-path="url(#clip302)" cx="1096.18" cy="882.78" r="7.2" fill="#0173b2" fill-rule="evenodd" fill-opacity="1" stroke="none"/>
<circle clip-path="url(#clip302)" cx="1115" cy="880.493" r="7.2" fill="#0173b2" fill-rule="evenodd" fill-opacity="1" stroke="none"/>
<circle clip-path="url(#clip302)" cx="1133.81" cy="878.231" r="7.2" fill="#0173b2" fill-rule="evenodd" fill-opacity="1" stroke="none"/>
<circle clip-path="url(#clip302)" cx="1152.62" cy="875.963" r="7.2" fill="#0173b2" fill-rule="evenodd" fill-opacity="1" stroke="none"/>
<circle clip-path="url(#clip302)" cx="1171.44" cy="873.701" r="7.2" fill="#0173b2" fill-rule="evenodd" fill-opacity="1" stroke="none"/>
<circle clip-path="url(#clip302)" cx="1190.25" cy="871.444" r="7.2" fill="#0173b2" fill-rule="evenodd" fill-opacity="1" stroke="none"/>
<circle clip-path="url(#clip302)" cx="1209.07" cy="869.181" r="7.2" fill="#0173b2" fill-rule="evenodd" fill-opacity="1" stroke="none"/>
<circle clip-path="url(#clip302)" cx="1227.88" cy="866.9" r="7.2" fill="#0173b2" fill-rule="evenodd" fill-opacity="1" stroke="none"/>
<circle clip-path="url(#clip302)" cx="1246.69" cy="864.601" r="7.2" fill="#0173b2" fill-rule="evenodd" fill-opacity="1" stroke="none"/>
<circle clip-path="url(#clip302)" cx="1265.51" cy="862.296" r="7.2" fill="#0173b2" fill-rule="evenodd" fill-opacity="1" stroke="none"/>
<circle clip-path="url(#clip302)" cx="1284.32" cy="859.951" r="7.2" fill="#0173b2" fill-rule="evenodd" fill-opacity="1" stroke="none"/>
<circle clip-path="url(#clip302)" cx="1303.14" cy="857.561" r="7.2" fill="#0173b2" fill-rule="evenodd" fill-opacity="1" stroke="none"/>
<circle clip-path="url(#clip302)" cx="1321.95" cy="855.163" r="7.2" fill="#0173b2" fill-rule="evenodd" fill-opacity="1" stroke="none"/>
<circle clip-path="url(#clip302)" cx="1340.76" cy="852.692" r="7.2" fill="#0173b2" fill-rule="evenodd" fill-opacity="1" stroke="none"/>
<circle clip-path="url(#clip302)" cx="1359.58" cy="850.147" r="7.2" fill="#0173b2" fill-rule="evenodd" fill-opacity="1" stroke="none"/>
<circle clip-path="url(#clip302)" cx="1378.39" cy="847.593" r="7.2" fill="#0173b2" fill-rule="evenodd" fill-opacity="1" stroke="none"/>
<circle clip-path="url(#clip302)" cx="1397.21" cy="844.883" r="7.2" fill="#0173b2" fill-rule="evenodd" fill-opacity="1" stroke="none"/>
<circle clip-path="url(#clip302)" cx="1416.02" cy="842.097" r="7.2" fill="#0173b2" fill-rule="evenodd" fill-opacity="1" stroke="none"/>
<circle clip-path="url(#clip302)" cx="1434.83" cy="839.265" r="7.2" fill="#0173b2" fill-rule="evenodd" fill-opacity="1" stroke="none"/>
<circle clip-path="url(#clip302)" cx="1453.65" cy="836.12" r="7.2" fill="#0173b2" fill-rule="evenodd" fill-opacity="1" stroke="none"/>
<circle clip-path="url(#clip302)" cx="1472.46" cy="832.962" r="7.2" fill="#0173b2" fill-rule="evenodd" fill-opacity="1" stroke="none"/>
<circle clip-path="url(#clip302)" cx="1491.28" cy="829.526" r="7.2" fill="#0173b2" fill-rule="evenodd" fill-opacity="1" stroke="none"/>
<circle clip-path="url(#clip302)" cx="1510.09" cy="826.01" r="7.2" fill="#0173b2" fill-rule="evenodd" fill-opacity="1" stroke="none"/>
<circle clip-path="url(#clip302)" cx="1528.9" cy="822.402" r="7.2" fill="#0173b2" fill-rule="evenodd" fill-opacity="1" stroke="none"/>
<circle clip-path="url(#clip302)" cx="1547.72" cy="818.749" r="7.2" fill="#0173b2" fill-rule="evenodd" fill-opacity="1" stroke="none"/>
<circle clip-path="url(#clip302)" cx="1566.53" cy="814.992" r="7.2" fill="#0173b2" fill-rule="evenodd" fill-opacity="1" stroke="none"/>
<circle clip-path="url(#clip302)" cx="1585.35" cy="811.188" r="7.2" fill="#0173b2" fill-rule="evenodd" fill-opacity="1" stroke="none"/>
<circle clip-path="url(#clip302)" cx="1604.16" cy="807.253" r="7.2" fill="#0173b2" fill-rule="evenodd" fill-opacity="1" stroke="none"/>
<circle clip-path="url(#clip302)" cx="1622.97" cy="803.258" r="7.2" fill="#0173b2" fill-rule="evenodd" fill-opacity="1" stroke="none"/>
<circle clip-path="url(#clip302)" cx="1641.79" cy="799.127" r="7.2" fill="#0173b2" fill-rule="evenodd" fill-opacity="1" stroke="none"/>
<circle clip-path="url(#clip302)" cx="1660.6" cy="794.895" r="7.2" fill="#0173b2" fill-rule="evenodd" fill-opacity="1" stroke="none"/>
<circle clip-path="url(#clip302)" cx="1679.42" cy="790.552" r="7.2" fill="#0173b2" fill-rule="evenodd" fill-opacity="1" stroke="none"/>
<circle clip-path="url(#clip302)" cx="1698.23" cy="786.037" r="7.2" fill="#0173b2" fill-rule="evenodd" fill-opacity="1" stroke="none"/>
<circle clip-path="url(#clip302)" cx="1717.04" cy="781.393" r="7.2" fill="#0173b2" fill-rule="evenodd" fill-opacity="1" stroke="none"/>
<circle clip-path="url(#clip302)" cx="1735.86" cy="776.6" r="7.2" fill="#0173b2" fill-rule="evenodd" fill-opacity="1" stroke="none"/>
<circle clip-path="url(#clip302)" cx="1754.67" cy="771.575" r="7.2" fill="#0173b2" fill-rule="evenodd" fill-opacity="1" stroke="none"/>
<circle clip-path="url(#clip302)" cx="1773.49" cy="766.374" r="7.2" fill="#0173b2" fill-rule="evenodd" fill-opacity="1" stroke="none"/>
<circle clip-path="url(#clip302)" cx="1792.3" cy="760.93" r="7.2" fill="#0173b2" fill-rule="evenodd" fill-opacity="1" stroke="none"/>
<circle clip-path="url(#clip302)" cx="1811.12" cy="755.27" r="7.2" fill="#0173b2" fill-rule="evenodd" fill-opacity="1" stroke="none"/>
<circle clip-path="url(#clip302)" cx="1829.93" cy="749.271" r="7.2" fill="#0173b2" fill-rule="evenodd" fill-opacity="1" stroke="none"/>
<circle clip-path="url(#clip302)" cx="1848.74" cy="742.946" r="7.2" fill="#0173b2" fill-rule="evenodd" fill-opacity="1" stroke="none"/>
<circle clip-path="url(#clip302)" cx="1867.56" cy="736.248" r="7.2" fill="#0173b2" fill-rule="evenodd" fill-opacity="1" stroke="none"/>
<circle clip-path="url(#clip302)" cx="1886.37" cy="729.071" r="7.2" fill="#0173b2" fill-rule="evenodd" fill-opacity="1" stroke="none"/>
<circle clip-path="url(#clip302)" cx="1905.19" cy="721.375" r="7.2" fill="#0173b2" fill-rule="evenodd" fill-opacity="1" stroke="none"/>
<circle clip-path="url(#clip302)" cx="1924" cy="713.06" r="7.2" fill="#0173b2" fill-rule="evenodd" fill-opacity="1" stroke="none"/>
<circle clip-path="url(#clip302)" cx="1942.81" cy="703.938" r="7.2" fill="#0173b2" fill-rule="evenodd" fill-opacity="1" stroke="none"/>
<circle clip-path="url(#clip302)" cx="1961.63" cy="693.879" r="7.2" fill="#0173b2" fill-rule="evenodd" fill-opacity="1" stroke="none"/>
<circle clip-path="url(#clip302)" cx="1980.44" cy="682.48" r="7.2" fill="#0173b2" fill-rule="evenodd" fill-opacity="1" stroke="none"/>
<circle clip-path="url(#clip302)" cx="1999.26" cy="668.901" r="7.2" fill="#0173b2" fill-rule="evenodd" fill-opacity="1" stroke="none"/>
<circle clip-path="url(#clip302)" cx="2018.07" cy="651.357" r="7.2" fill="#0173b2" fill-rule="evenodd" fill-opacity="1" stroke="none"/>
<circle clip-path="url(#clip302)" cx="2036.88" cy="630.199" r="7.2" fill="#0173b2" fill-rule="evenodd" fill-opacity="1" stroke="none"/>
<circle clip-path="url(#clip302)" cx="2055.7" cy="604.638" r="7.2" fill="#0173b2" fill-rule="evenodd" fill-opacity="1" stroke="none"/>
<circle clip-path="url(#clip302)" cx="2074.51" cy="572.039" r="7.2" fill="#0173b2" fill-rule="evenodd" fill-opacity="1" stroke="none"/>
<circle clip-path="url(#clip302)" cx="2093.33" cy="525.809" r="7.2" fill="#0173b2" fill-rule="evenodd" fill-opacity="1" stroke="none"/>
<circle clip-path="url(#clip302)" cx="2112.14" cy="437.562" r="7.2" fill="#0173b2" fill-rule="evenodd" fill-opacity="1" stroke="none"/>
<circle clip-path="url(#clip302)" cx="2130.95" cy="133.965" r="7.2" fill="#0173b2" fill-rule="evenodd" fill-opacity="1" stroke="none"/>
<polyline clip-path="url(#clip302)" style="stroke:#de8f05; stroke-linecap:round; stroke-linejoin:round; stroke-width:4; stroke-opacity:1; fill:none" points="-1722.54,876.911 4140.67,876.911 "/>
<path clip-path="url(#clip300)" d="M297.012 269.062 L771.02 269.062 L771.02 139.462 L297.012 139.462  Z" fill="#ffffff" fill-rule="evenodd" fill-opacity="1"/>
<polyline clip-path="url(#clip300)" style="stroke:#000000; stroke-linecap:round; stroke-linejoin:round; stroke-width:4; stroke-opacity:1; fill:none" points="297.012,269.062 771.02,269.062 771.02,139.462 297.012,139.462 297.012,269.062 "/>
<polyline clip-path="url(#clip300)" style="stroke:#de8f05; stroke-linecap:round; stroke-linejoin:round; stroke-width:5; stroke-opacity:1; fill:none" points="318.728,204.262 449.021,204.262 "/>
<path clip-path="url(#clip300)" d="M470.737 197.268 L471.941 183.064 L510.567 183.064 L511.772 197.268 L510.197 197.268 Q509.95 194.427 509.703 192.791 Q509.487 191.154 508.931 189.61 Q508.406 188.035 507.727 187.294 Q507.078 186.522 505.813 185.936 Q504.547 185.318 502.91 185.164 Q501.274 185.009 498.804 185.009 Q495.901 185.009 495.191 185.133 Q494.419 185.318 494.234 185.874 Q494.049 186.399 494.049 187.541 L494.049 220.86 Q494.049 222.126 494.296 222.651 Q494.573 223.145 496.025 223.546 Q497.476 223.917 500.687 223.917 L503.219 223.917 L503.219 225.862 Q500.625 225.677 491.208 225.677 Q481.852 225.677 479.259 225.862 L479.259 223.917 L481.791 223.917 Q485.002 223.917 486.453 223.546 Q487.935 223.145 488.182 222.651 Q488.429 222.126 488.429 220.86 L488.429 187.541 Q488.429 186.646 488.367 186.275 Q488.306 185.905 488.028 185.596 Q487.75 185.256 487.101 185.133 Q486.484 185.009 483.705 185.009 Q481.235 185.009 479.568 185.164 Q477.931 185.318 476.665 185.936 Q475.399 186.522 474.72 187.294 Q474.072 188.035 473.516 189.61 Q472.991 191.154 472.775 192.791 Q472.559 194.427 472.312 197.268 L470.737 197.268 Z" fill="#000000" fill-rule="nonzero" fill-opacity="1" /><path clip-path="url(#clip300)" d="M510.598 225.862 L510.598 223.917 Q513.964 223.917 514.736 223.516 Q515.539 223.083 515.539 221.045 L515.539 204.093 Q515.539 201.746 514.705 201.159 Q513.902 200.572 510.598 200.572 L510.598 198.596 L519.398 197.917 L519.398 204.864 Q520.294 202.147 522.177 200.047 Q524.091 197.917 527.179 197.917 Q529.217 197.917 530.514 199.059 Q531.841 200.202 531.841 201.777 Q531.841 203.166 530.977 203.876 Q530.143 204.556 529.124 204.556 Q527.982 204.556 527.179 203.845 Q526.407 203.104 526.407 201.838 Q526.407 201.066 526.747 200.48 Q527.117 199.862 527.395 199.646 Q527.673 199.43 527.858 199.368 Q527.735 199.306 527.179 199.306 Q523.69 199.306 521.683 202.796 Q519.707 206.254 519.707 211.195 L519.707 220.922 Q519.707 222.744 520.448 223.33 Q521.22 223.917 524.524 223.917 L525.851 223.917 L525.851 225.862 Q523.319 225.677 517.823 225.677 Q517.052 225.677 515.847 225.708 Q514.643 225.739 513.068 225.801 Q511.494 225.862 510.598 225.862 Z" fill="#000000" fill-rule="nonzero" fill-opacity="1" /><path clip-path="url(#clip300)" d="M535.577 200.572 L535.577 198.596 L544.871 197.917 L544.871 218.915 Q544.871 220.428 544.995 221.323 Q545.118 222.188 545.612 223.207 Q546.137 224.226 547.31 224.689 Q548.515 225.152 550.429 225.152 Q553.856 225.152 555.956 222.342 Q558.086 219.532 558.086 215.363 L558.086 204.093 Q558.086 201.746 557.253 201.159 Q556.419 200.572 553.146 200.572 L553.146 198.596 L562.44 197.917 L562.44 220.366 Q562.44 222.713 563.243 223.33 Q564.076 223.917 567.38 223.917 L567.38 225.862 L558.272 226.573 L558.272 220.86 Q555.616 226.542 550.12 226.573 Q547.341 226.573 545.427 225.862 Q543.544 225.152 542.586 224.288 Q541.629 223.392 541.104 221.694 Q540.61 219.995 540.549 218.945 Q540.487 217.896 540.487 215.857 L540.487 206.378 Q540.487 202.085 539.869 201.344 Q539.252 200.572 535.577 200.572 Z" fill="#000000" fill-rule="nonzero" fill-opacity="1" /><path clip-path="url(#clip300)" d="M570.375 211.936 Q570.375 205.976 574.204 201.746 Q578.033 197.515 583.529 197.515 Q589.086 197.515 591.958 201.128 Q594.86 204.741 594.86 209.929 Q594.86 210.886 594.613 211.071 Q594.366 211.256 593.286 211.256 L575.624 211.256 Q575.624 217.71 577.539 220.736 Q580.194 224.967 584.671 224.967 Q585.289 224.967 586.03 224.843 Q586.771 224.72 588.284 224.195 Q589.797 223.639 591.124 222.188 Q592.452 220.736 593.224 218.451 Q593.409 217.556 594.027 217.587 Q594.86 217.587 594.86 218.328 Q594.86 218.884 594.243 220.15 Q593.656 221.385 592.514 222.867 Q591.371 224.349 589.148 225.461 Q586.956 226.573 584.301 226.573 Q578.743 226.573 574.544 222.373 Q570.375 218.143 570.375 211.936 M575.686 209.929 L590.692 209.929 Q590.692 208.601 590.445 207.119 Q590.229 205.636 589.55 203.598 Q588.901 201.53 587.357 200.233 Q585.813 198.936 583.529 198.936 Q582.51 198.936 581.398 199.368 Q580.317 199.8 578.99 200.85 Q577.662 201.9 576.736 204.278 Q575.809 206.655 575.686 209.929 Z" fill="#000000" fill-rule="nonzero" fill-opacity="1" /><path clip-path="url(#clip300)" d="M619.469 236.176 Q622.834 236.176 623.606 235.744 Q624.409 235.342 624.409 233.335 L624.409 203.722 Q624.409 201.622 623.606 201.097 Q622.834 200.572 619.469 200.572 L619.469 198.596 L628.577 197.917 L628.577 202.085 Q632.375 197.917 637.439 197.917 Q642.811 197.917 646.733 202.085 Q650.654 206.254 650.654 212.214 Q650.654 218.235 646.486 222.404 Q642.317 226.573 636.544 226.573 Q633.394 226.573 631.264 224.967 Q629.164 223.33 628.763 222.126 L628.763 222.713 L628.763 233.335 Q628.763 235.373 629.565 235.775 Q630.368 236.176 633.703 236.176 L633.703 238.121 Q627.064 237.936 626.57 237.936 Q625.953 237.936 619.469 238.121 L619.469 236.176 M628.763 218.667 Q628.763 219.625 628.886 219.964 Q629.041 220.304 629.658 221.323 Q632.159 225.152 636.235 225.152 Q636.266 225.152 636.296 225.152 Q639.909 225.152 642.657 221.478 Q645.405 217.772 645.405 212.214 Q645.405 206.903 642.904 203.197 Q640.403 199.492 636.945 199.492 Q634.475 199.492 632.313 200.819 Q630.152 202.147 628.763 204.556 L628.763 218.667 Z" fill="#000000" fill-rule="nonzero" fill-opacity="1" /><path clip-path="url(#clip300)" d="M654.544 225.862 L654.544 223.917 Q657.91 223.917 658.682 223.516 Q659.485 223.083 659.485 221.045 L659.485 204.093 Q659.485 201.746 658.651 201.159 Q657.848 200.572 654.544 200.572 L654.544 198.596 L663.344 197.917 L663.344 204.864 Q664.24 202.147 666.123 200.047 Q668.038 197.917 671.125 197.917 Q673.163 197.917 674.46 199.059 Q675.787 200.202 675.787 201.777 Q675.787 203.166 674.923 203.876 Q674.089 204.556 673.07 204.556 Q671.928 204.556 671.125 203.845 Q670.353 203.104 670.353 201.838 Q670.353 201.066 670.693 200.48 Q671.063 199.862 671.341 199.646 Q671.619 199.43 671.804 199.368 Q671.681 199.306 671.125 199.306 Q667.636 199.306 665.629 202.796 Q663.653 206.254 663.653 211.195 L663.653 220.922 Q663.653 222.744 664.394 223.33 Q665.166 223.917 668.47 223.917 L669.797 223.917 L669.797 225.862 Q667.266 225.677 661.77 225.677 Q660.998 225.677 659.793 225.708 Q658.589 225.739 657.015 225.801 Q655.44 225.862 654.544 225.862 Z" fill="#000000" fill-rule="nonzero" fill-opacity="1" /><path clip-path="url(#clip300)" d="M679.585 225.862 L679.585 223.917 Q682.951 223.917 683.723 223.516 Q684.495 223.083 684.495 221.045 L684.495 204.031 Q684.495 201.684 683.692 201.128 Q682.92 200.572 679.832 200.572 L679.832 198.596 L688.663 197.917 L688.663 221.107 Q688.663 222.991 689.342 223.454 Q690.022 223.917 693.109 223.917 L693.109 225.862 Q686.656 225.677 686.533 225.677 Q685.668 225.677 679.585 225.862 M682.241 186.893 Q682.241 185.627 683.198 184.608 Q684.186 183.558 685.575 183.558 Q686.965 183.558 687.953 184.515 Q688.941 185.441 688.941 186.924 Q688.941 188.375 687.953 189.332 Q686.965 190.259 685.575 190.259 Q684.124 190.259 683.167 189.24 Q682.241 188.221 682.241 186.893 Z" fill="#000000" fill-rule="nonzero" fill-opacity="1" /><path clip-path="url(#clip300)" d="M701.168 222.404 Q697.154 218.204 697.154 212.214 Q697.154 206.192 701.106 201.869 Q705.058 197.515 710.863 197.515 Q714.723 197.515 717.625 199.368 Q720.528 201.19 720.528 204.309 Q720.528 205.698 719.694 206.501 Q718.891 207.273 717.625 207.273 Q716.297 207.273 715.495 206.47 Q714.723 205.636 714.723 204.37 Q714.723 203.815 714.908 203.259 Q715.093 202.703 715.773 202.116 Q716.483 201.53 717.687 201.437 Q715.433 199.121 711.048 199.121 Q710.987 199.121 710.925 199.121 Q707.714 199.121 705.058 202.147 Q702.403 205.173 702.403 212.09 Q702.403 215.703 703.268 218.359 Q704.163 220.983 705.614 222.342 Q707.065 223.701 708.486 224.349 Q709.906 224.967 711.295 224.967 Q717.502 224.967 719.601 218.328 Q719.786 217.71 720.404 217.71 Q721.238 217.71 721.238 218.328 Q721.238 218.637 720.991 219.439 Q720.744 220.242 719.972 221.508 Q719.2 222.774 718.088 223.886 Q717.008 224.967 715.062 225.77 Q713.148 226.573 710.74 226.573 Q705.182 226.573 701.168 222.404 Z" fill="#000000" fill-rule="nonzero" fill-opacity="1" /><path clip-path="url(#clip300)" d="M724.819 211.936 Q724.819 205.976 728.648 201.746 Q732.477 197.515 737.973 197.515 Q743.53 197.515 746.402 201.128 Q749.304 204.741 749.304 209.929 Q749.304 210.886 749.057 211.071 Q748.81 211.256 747.73 211.256 L730.068 211.256 Q730.068 217.71 731.983 220.736 Q734.638 224.967 739.115 224.967 Q739.733 224.967 740.474 224.843 Q741.215 224.72 742.728 224.195 Q744.241 223.639 745.568 222.188 Q746.896 220.736 747.668 218.451 Q747.853 217.556 748.471 217.587 Q749.304 217.587 749.304 218.328 Q749.304 218.884 748.687 220.15 Q748.1 221.385 746.958 222.867 Q745.815 224.349 743.592 225.461 Q741.4 226.573 738.745 226.573 Q733.187 226.573 728.988 222.373 Q724.819 218.143 724.819 211.936 M730.13 209.929 L745.136 209.929 Q745.136 208.601 744.889 207.119 Q744.673 205.636 743.994 203.598 Q743.345 201.53 741.801 200.233 Q740.258 198.936 737.973 198.936 Q736.954 198.936 735.842 199.368 Q734.762 199.8 733.434 200.85 Q732.106 201.9 731.18 204.278 Q730.254 206.655 730.13 209.929 Z" fill="#000000" fill-rule="nonzero" fill-opacity="1" /></svg>
