<?xml version="1.0" encoding="utf-8"?>
<svg xmlns="http://www.w3.org/2000/svg" xmlns:xlink="http://www.w3.org/1999/xlink" width="566.25" height="350" viewBox="0 0 2265 1400">
<defs>
  <clipPath id="clip080">
    <rect x="0" y="0" width="2265" height="1400"/>
  </clipPath>
</defs>
<path clip-path="url(#clip080)" d="M0 1400 L2265 1400 L2265 0 L0 0  Z" fill="#ffffff" fill-rule="evenodd" fill-opacity="1"/>
<defs>
  <clipPath id="clip081">
    <rect x="453" y="0" width="1587" height="1400"/>
  </clipPath>
</defs>
<path clip-path="url(#clip080)" d="M248.724 1195.66 L2186.27 1195.66 L2186.27 47.2441 L248.724 47.2441  Z" fill="#ffffff" fill-rule="evenodd" fill-opacity="1"/>
<defs>
  <clipPath id="clip082">
    <rect x="248" y="47" width="1939" height="1149"/>
  </clipPath>
</defs>
<polyline clip-path="url(#clip082)" style="stroke:#000000; stroke-linecap:round; stroke-linejoin:round; stroke-width:2; stroke-opacity:0.1; fill:none" points="284.909,1195.66 284.909,47.2441 "/>
<polyline clip-path="url(#clip082)" style="stroke:#000000; stroke-linecap:round; stroke-linejoin:round; stroke-width:2; stroke-opacity:0.1; fill:none" points="751.202,1195.66 751.202,47.2441 "/>
<polyline clip-path="url(#clip082)" style="stroke:#000000; stroke-linecap:round; stroke-linejoin:round; stroke-width:2; stroke-opacity:0.1; fill:none" points="1217.5,1195.66 1217.5,47.2441 "/>
<polyline clip-path="url(#clip082)" style="stroke:#000000; stroke-linecap:round; stroke-linejoin:round; stroke-width:2; stroke-opacity:0.1; fill:none" points="1683.79,1195.66 1683.79,47.2441 "/>
<polyline clip-path="url(#clip082)" style="stroke:#000000; stroke-linecap:round; stroke-linejoin:round; stroke-width:2; stroke-opacity:0.1; fill:none" points="2150.08,1195.66 2150.08,47.2441 "/>
<polyline clip-path="url(#clip080)" style="stroke:#000000; stroke-linecap:round; stroke-linejoin:round; stroke-width:4; stroke-opacity:1; fill:none" points="248.724,1195.66 2186.27,1195.66 "/>
<polyline clip-path="url(#clip080)" style="stroke:#000000; stroke-linecap:round; stroke-linejoin:round; stroke-width:4; stroke-opacity:1; fill:none" points="248.724,47.2441 2186.27,47.2441 "/>
<polyline clip-path="url(#clip080)" style="stroke:#000000; stroke-linecap:round; stroke-linejoin:round; stroke-width:4; stroke-opacity:1; fill:none" points="284.909,1195.66 284.909,1176.77 "/>
<polyline clip-path="url(#clip080)" style="stroke:#000000; stroke-linecap:round; stroke-linejoin:round; stroke-width:4; stroke-opacity:1; fill:none" points="751.202,1195.66 751.202,1176.77 "/>
<polyline clip-path="url(#clip080)" style="stroke:#000000; stroke-linecap:round; stroke-linejoin:round; stroke-width:4; stroke-opacity:1; fill:none" points="1217.5,1195.66 1217.5,1176.77 "/>
<polyline clip-path="url(#clip080)" style="stroke:#000000; stroke-linecap:round; stroke-linejoin:round; stroke-width:4; stroke-opacity:1; fill:none" points="1683.79,1195.66 1683.79,1176.77 "/>
<polyline clip-path="url(#clip080)" style="stroke:#000000; stroke-linecap:round; stroke-linejoin:round; stroke-width:4; stroke-opacity:1; fill:none" points="2150.08,1195.66 2150.08,1176.77 "/>
<path clip-path="url(#clip080)" d="M231.199 1247.56 Q231.199 1238.27 233.545 1233.2 Q236.818 1225.67 244.538 1225.67 Q246.174 1225.67 247.872 1226.13 Q249.601 1226.56 251.763 1228.26 Q253.955 1229.96 255.283 1232.74 Q257.814 1238.11 257.814 1247.56 Q257.814 1256.79 255.468 1261.83 Q252.041 1269.18 244.476 1269.18 Q241.635 1269.18 238.733 1267.72 Q235.861 1266.27 234.04 1262.78 Q231.199 1257.57 231.199 1247.56 M236.448 1246.79 Q236.448 1256.33 237.127 1260.13 Q237.899 1264.24 239.999 1266.03 Q242.129 1267.79 244.476 1267.79 Q247.008 1267.79 249.107 1265.9 Q251.238 1263.99 251.886 1259.88 Q252.596 1255.84 252.565 1246.79 Q252.565 1237.99 251.948 1234.47 Q251.114 1230.36 248.891 1228.72 Q246.699 1227.06 244.476 1227.06 Q243.642 1227.06 242.747 1227.3 Q241.882 1227.55 240.616 1228.26 Q239.35 1228.97 238.362 1230.73 Q237.405 1232.49 236.942 1235.15 Q236.448 1238.57 236.448 1246.79 Z" fill="#000000" fill-rule="nonzero" fill-opacity="1" /><path clip-path="url(#clip080)" d="M266.676 1266.77 Q265.719 1265.75 265.719 1264.42 Q265.719 1263.09 266.676 1262.14 Q267.633 1261.15 269.084 1261.15 Q270.474 1261.15 271.4 1262.07 Q272.357 1262.97 272.357 1264.45 Q272.357 1265.9 271.338 1266.86 Q270.35 1267.79 269.084 1267.79 Q267.633 1267.79 266.676 1266.77 Z" fill="#000000" fill-rule="nonzero" fill-opacity="1" /><path clip-path="url(#clip080)" d="M280.385 1247.56 Q280.385 1238.27 282.732 1233.2 Q286.005 1225.67 293.724 1225.67 Q295.36 1225.67 297.058 1226.13 Q298.787 1226.56 300.949 1228.26 Q303.141 1229.96 304.469 1232.74 Q307.001 1238.11 307.001 1247.56 Q307.001 1256.79 304.654 1261.83 Q301.227 1269.18 293.662 1269.18 Q290.821 1269.18 287.919 1267.72 Q285.047 1266.27 283.226 1262.78 Q280.385 1257.57 280.385 1247.56 M285.634 1246.79 Q285.634 1256.33 286.313 1260.13 Q287.085 1264.24 289.185 1266.03 Q291.315 1267.79 293.662 1267.79 Q296.194 1267.79 298.293 1265.9 Q300.424 1263.99 301.072 1259.88 Q301.783 1255.84 301.752 1246.79 Q301.752 1237.99 301.134 1234.47 Q300.3 1230.36 298.077 1228.72 Q295.885 1227.06 293.662 1227.06 Q292.828 1227.06 291.933 1227.3 Q291.068 1227.55 289.802 1228.26 Q288.536 1228.97 287.548 1230.73 Q286.591 1232.49 286.128 1235.15 Q285.634 1238.57 285.634 1246.79 Z" fill="#000000" fill-rule="nonzero" fill-opacity="1" /><path clip-path="url(#clip080)" d="M312.003 1247.56 Q312.003 1238.27 314.349 1233.2 Q317.622 1225.67 325.341 1225.67 Q326.978 1225.67 328.676 1226.13 Q330.405 1226.56 332.566 1228.26 Q334.759 1229.96 336.086 1232.74 Q338.618 1238.11 338.618 1247.56 Q338.618 1256.79 336.272 1261.83 Q332.844 1269.18 325.279 1269.18 Q322.439 1269.18 319.536 1267.72 Q316.665 1266.27 314.843 1262.78 Q312.003 1257.57 312.003 1247.56 M317.252 1246.79 Q317.252 1256.33 317.931 1260.13 Q318.703 1264.24 320.802 1266.03 Q322.933 1267.79 325.279 1267.79 Q327.811 1267.79 329.911 1265.9 Q332.041 1263.99 332.69 1259.88 Q333.4 1255.84 333.369 1246.79 Q333.369 1237.99 332.752 1234.47 Q331.918 1230.36 329.695 1228.72 Q327.503 1227.06 325.279 1227.06 Q324.446 1227.06 323.55 1227.3 Q322.686 1227.55 321.42 1228.26 Q320.154 1228.97 319.166 1230.73 Q318.209 1232.49 317.746 1235.15 Q317.252 1238.57 317.252 1246.79 Z" fill="#000000" fill-rule="nonzero" fill-opacity="1" /><path clip-path="url(#clip080)" d="M697.832 1247.56 Q697.832 1238.27 700.179 1233.2 Q703.452 1225.67 711.171 1225.67 Q712.807 1225.67 714.505 1226.13 Q716.234 1226.56 718.396 1228.26 Q720.588 1229.96 721.916 1232.74 Q724.448 1238.11 724.448 1247.56 Q724.448 1256.79 722.101 1261.83 Q718.674 1269.18 711.109 1269.18 Q708.268 1269.18 705.366 1267.72 Q702.494 1266.27 700.673 1262.78 Q697.832 1257.57 697.832 1247.56 M703.081 1246.79 Q703.081 1256.33 703.76 1260.13 Q704.532 1264.24 706.632 1266.03 Q708.762 1267.79 711.109 1267.79 Q713.641 1267.79 715.74 1265.9 Q717.871 1263.99 718.519 1259.88 Q719.229 1255.84 719.199 1246.79 Q719.199 1237.99 718.581 1234.47 Q717.747 1230.36 715.524 1228.72 Q713.332 1227.06 711.109 1227.06 Q710.275 1227.06 709.38 1227.3 Q708.515 1227.55 707.249 1228.26 Q705.983 1228.97 704.995 1230.73 Q704.038 1232.49 703.575 1235.15 Q703.081 1238.57 703.081 1246.79 Z" fill="#000000" fill-rule="nonzero" fill-opacity="1" /><path clip-path="url(#clip080)" d="M733.309 1266.77 Q732.352 1265.75 732.352 1264.42 Q732.352 1263.09 733.309 1262.14 Q734.266 1261.15 735.717 1261.15 Q737.107 1261.15 738.033 1262.07 Q738.99 1262.97 738.99 1264.45 Q738.99 1265.9 737.971 1266.86 Q736.983 1267.79 735.717 1267.79 Q734.266 1267.79 733.309 1266.77 Z" fill="#000000" fill-rule="nonzero" fill-opacity="1" /><path clip-path="url(#clip080)" d="M747.698 1267.79 Q747.698 1266.64 747.79 1266.3 Q747.914 1265.96 748.408 1265.44 L760.542 1251.91 Q767.181 1244.44 767.181 1237.93 Q767.181 1233.7 764.957 1230.67 Q762.765 1227.64 758.72 1227.64 Q755.942 1227.64 753.595 1229.34 Q751.248 1231.04 750.168 1234.07 Q750.353 1234 751.001 1234 Q752.576 1234 753.441 1234.99 Q754.336 1235.98 754.336 1237.31 Q754.336 1239.01 753.224 1239.84 Q752.144 1240.64 751.063 1240.64 Q750.631 1240.64 750.044 1240.55 Q749.488 1240.46 748.593 1239.59 Q747.698 1238.7 747.698 1237.12 Q747.698 1232.71 751.032 1229.19 Q754.398 1225.67 759.523 1225.67 Q765.328 1225.67 769.126 1229.13 Q772.954 1232.55 772.954 1237.93 Q772.954 1239.81 772.368 1241.54 Q771.812 1243.24 771.04 1244.57 Q770.299 1245.89 768.261 1248.02 Q766.223 1250.15 764.587 1251.67 Q762.95 1253.18 759.276 1256.39 L752.576 1262.91 L763.969 1262.91 Q769.527 1262.91 769.959 1262.41 Q770.577 1261.52 771.349 1256.79 L772.954 1256.79 L771.164 1267.79 L747.698 1267.79 Z" fill="#000000" fill-rule="nonzero" fill-opacity="1" /><path clip-path="url(#clip080)" d="M779.315 1257.6 Q779.315 1255.71 780.334 1255 Q781.353 1254.26 782.434 1254.26 Q783.885 1254.26 784.718 1255.19 Q785.583 1256.08 785.583 1257.35 Q785.583 1258.62 784.718 1259.54 Q783.885 1260.44 782.434 1260.44 Q781.723 1260.44 781.353 1260.31 Q782.187 1263.22 784.718 1265.32 Q787.281 1267.42 790.647 1267.42 Q794.877 1267.42 797.409 1263.31 Q798.922 1260.65 798.922 1254.63 Q798.922 1249.32 797.779 1246.67 Q796.019 1242.62 792.407 1242.62 Q787.281 1242.62 784.255 1247.04 Q783.885 1247.59 783.452 1247.62 Q782.835 1247.62 782.681 1247.28 Q782.557 1246.91 782.557 1245.95 L782.557 1227.24 Q782.557 1225.73 783.175 1225.73 Q783.422 1225.73 783.946 1225.91 Q787.93 1227.67 792.345 1227.71 Q796.884 1227.71 800.959 1225.85 Q801.268 1225.67 801.453 1225.67 Q802.071 1225.67 802.102 1226.38 Q802.102 1226.62 801.577 1227.37 Q801.083 1228.08 800.002 1229.03 Q798.922 1229.96 797.532 1230.85 Q796.143 1231.75 794.105 1232.37 Q792.098 1232.95 789.875 1232.95 Q787.219 1232.95 784.502 1232.12 L784.502 1244.44 Q787.775 1241.23 792.53 1241.23 Q797.594 1241.23 801.083 1245.31 Q804.572 1249.38 804.572 1255.06 Q804.572 1261.02 800.435 1265.1 Q796.328 1269.18 790.77 1269.18 Q785.706 1269.18 782.495 1265.56 Q779.315 1261.95 779.315 1257.6 Z" fill="#000000" fill-rule="nonzero" fill-opacity="1" /><path clip-path="url(#clip080)" d="M1163.79 1247.56 Q1163.79 1238.27 1166.13 1233.2 Q1169.41 1225.67 1177.12 1225.67 Q1178.76 1225.67 1180.46 1226.13 Q1182.19 1226.56 1184.35 1228.26 Q1186.54 1229.96 1187.87 1232.74 Q1190.4 1238.11 1190.4 1247.56 Q1190.4 1256.79 1188.05 1261.83 Q1184.63 1269.18 1177.06 1269.18 Q1174.22 1269.18 1171.32 1267.72 Q1168.45 1266.27 1166.63 1262.78 Q1163.79 1257.57 1163.79 1247.56 M1169.03 1246.79 Q1169.03 1256.33 1169.71 1260.13 Q1170.49 1264.24 1172.59 1266.03 Q1174.72 1267.79 1177.06 1267.79 Q1179.59 1267.79 1181.69 1265.9 Q1183.82 1263.99 1184.47 1259.88 Q1185.18 1255.84 1185.15 1246.79 Q1185.15 1237.99 1184.53 1234.47 Q1183.7 1230.36 1181.48 1228.72 Q1179.29 1227.06 1177.06 1227.06 Q1176.23 1227.06 1175.33 1227.3 Q1174.47 1227.55 1173.2 1228.26 Q1171.94 1228.97 1170.95 1230.73 Q1169.99 1232.49 1169.53 1235.15 Q1169.03 1238.57 1169.03 1246.79 Z" fill="#000000" fill-rule="nonzero" fill-opacity="1" /><path clip-path="url(#clip080)" d="M1199.26 1266.77 Q1198.31 1265.75 1198.31 1264.42 Q1198.31 1263.09 1199.26 1262.14 Q1200.22 1261.15 1201.67 1261.15 Q1203.06 1261.15 1203.99 1262.07 Q1204.94 1262.97 1204.94 1264.45 Q1204.94 1265.9 1203.93 1266.86 Q1202.94 1267.79 1201.67 1267.79 Q1200.22 1267.79 1199.26 1266.77 Z" fill="#000000" fill-rule="nonzero" fill-opacity="1" /><path clip-path="url(#clip080)" d="M1213.65 1257.6 Q1213.65 1255.71 1214.67 1255 Q1215.69 1254.26 1216.77 1254.26 Q1218.22 1254.26 1219.05 1255.19 Q1219.92 1256.08 1219.92 1257.35 Q1219.92 1258.62 1219.05 1259.54 Q1218.22 1260.44 1216.77 1260.44 Q1216.06 1260.44 1215.69 1260.31 Q1216.52 1263.22 1219.05 1265.32 Q1221.62 1267.42 1224.98 1267.42 Q1229.21 1267.42 1231.74 1263.31 Q1233.26 1260.65 1233.26 1254.63 Q1233.26 1249.32 1232.12 1246.67 Q1230.36 1242.62 1226.74 1242.62 Q1221.62 1242.62 1218.59 1247.04 Q1218.22 1247.59 1217.79 1247.62 Q1217.17 1247.62 1217.02 1247.28 Q1216.89 1246.91 1216.89 1245.95 L1216.89 1227.24 Q1216.89 1225.73 1217.51 1225.73 Q1217.76 1225.73 1218.28 1225.91 Q1222.27 1227.67 1226.68 1227.71 Q1231.22 1227.71 1235.3 1225.85 Q1235.6 1225.67 1235.79 1225.67 Q1236.41 1225.67 1236.44 1226.38 Q1236.44 1226.62 1235.91 1227.37 Q1235.42 1228.08 1234.34 1229.03 Q1233.26 1229.96 1231.87 1230.85 Q1230.48 1231.75 1228.44 1232.37 Q1226.43 1232.95 1224.21 1232.95 Q1221.56 1232.95 1218.84 1232.12 L1218.84 1244.44 Q1222.11 1241.23 1226.87 1241.23 Q1231.93 1241.23 1235.42 1245.31 Q1238.91 1249.38 1238.91 1255.06 Q1238.91 1261.02 1234.77 1265.1 Q1230.66 1269.18 1225.11 1269.18 Q1220.04 1269.18 1216.83 1265.56 Q1213.65 1261.95 1213.65 1257.6 Z" fill="#000000" fill-rule="nonzero" fill-opacity="1" /><path clip-path="url(#clip080)" d="M1244.59 1247.56 Q1244.59 1238.27 1246.94 1233.2 Q1250.21 1225.67 1257.93 1225.67 Q1259.56 1225.67 1261.26 1226.13 Q1262.99 1226.56 1265.15 1228.26 Q1267.35 1229.96 1268.67 1232.74 Q1271.21 1238.11 1271.21 1247.56 Q1271.21 1256.79 1268.86 1261.83 Q1265.43 1269.18 1257.87 1269.18 Q1255.03 1269.18 1252.12 1267.72 Q1249.25 1266.27 1247.43 1262.78 Q1244.59 1257.57 1244.59 1247.56 M1249.84 1246.79 Q1249.84 1256.33 1250.52 1260.13 Q1251.29 1264.24 1253.39 1266.03 Q1255.52 1267.79 1257.87 1267.79 Q1260.4 1267.79 1262.5 1265.9 Q1264.63 1263.99 1265.28 1259.88 Q1265.99 1255.84 1265.96 1246.79 Q1265.96 1237.99 1265.34 1234.47 Q1264.5 1230.36 1262.28 1228.72 Q1260.09 1227.06 1257.87 1227.06 Q1257.03 1227.06 1256.14 1227.3 Q1255.27 1227.55 1254.01 1228.26 Q1252.74 1228.97 1251.75 1230.73 Q1250.8 1232.49 1250.33 1235.15 Q1249.84 1238.57 1249.84 1246.79 Z" fill="#000000" fill-rule="nonzero" fill-opacity="1" /><path clip-path="url(#clip080)" d="M1630.42 1247.56 Q1630.42 1238.27 1632.77 1233.2 Q1636.04 1225.67 1643.76 1225.67 Q1645.39 1225.67 1647.09 1226.13 Q1648.82 1226.56 1650.98 1228.26 Q1653.17 1229.96 1654.5 1232.74 Q1657.03 1238.11 1657.03 1247.56 Q1657.03 1256.79 1654.69 1261.83 Q1651.26 1269.18 1643.7 1269.18 Q1640.86 1269.18 1637.95 1267.72 Q1635.08 1266.27 1633.26 1262.78 Q1630.42 1257.57 1630.42 1247.56 M1635.67 1246.79 Q1635.67 1256.33 1636.35 1260.13 Q1637.12 1264.24 1639.22 1266.03 Q1641.35 1267.79 1643.7 1267.79 Q1646.23 1267.79 1648.33 1265.9 Q1650.46 1263.99 1651.11 1259.88 Q1651.82 1255.84 1651.79 1246.79 Q1651.79 1237.99 1651.17 1234.47 Q1650.33 1230.36 1648.11 1228.72 Q1645.92 1227.06 1643.7 1227.06 Q1642.86 1227.06 1641.97 1227.3 Q1641.1 1227.55 1639.84 1228.26 Q1638.57 1228.97 1637.58 1230.73 Q1636.63 1232.49 1636.16 1235.15 Q1635.67 1238.57 1635.67 1246.79 Z" fill="#000000" fill-rule="nonzero" fill-opacity="1" /><path clip-path="url(#clip080)" d="M1665.9 1266.77 Q1664.94 1265.75 1664.94 1264.42 Q1664.94 1263.09 1665.9 1262.14 Q1666.85 1261.15 1668.3 1261.15 Q1669.69 1261.15 1670.62 1262.07 Q1671.58 1262.97 1671.58 1264.45 Q1671.58 1265.9 1670.56 1266.86 Q1669.57 1267.79 1668.3 1267.79 Q1666.85 1267.79 1665.9 1266.77 Z" fill="#000000" fill-rule="nonzero" fill-opacity="1" /><path clip-path="url(#clip080)" d="M1680.69 1238.05 L1682.75 1225.05 L1684.33 1225.05 Q1684.51 1225.82 1684.82 1226.16 Q1685.16 1226.5 1686.95 1226.78 Q1688.78 1227.06 1692.45 1227.06 L1707.8 1227.06 Q1707.8 1228.51 1707.24 1229.28 L1698.69 1241.29 Q1695.97 1245.09 1694.77 1252.1 Q1694.06 1256.79 1694.09 1262.48 L1694.09 1265.69 Q1694.09 1269.18 1691.15 1269.18 Q1688.25 1269.18 1688.25 1265.69 Q1688.25 1253.61 1696.03 1241.91 Q1696.87 1240.71 1699.92 1236.41 Q1703.01 1232.12 1703.13 1231.94 L1690.04 1231.94 Q1684.3 1231.94 1683.84 1232.31 Q1683.22 1232.86 1682.26 1238.05 L1680.69 1238.05 Z" fill="#000000" fill-rule="nonzero" fill-opacity="1" /><path clip-path="url(#clip080)" d="M1711.9 1257.6 Q1711.9 1255.71 1712.92 1255 Q1713.94 1254.26 1715.02 1254.26 Q1716.47 1254.26 1717.31 1255.19 Q1718.17 1256.08 1718.17 1257.35 Q1718.17 1258.62 1717.31 1259.54 Q1716.47 1260.44 1715.02 1260.44 Q1714.31 1260.44 1713.94 1260.31 Q1714.77 1263.22 1717.31 1265.32 Q1719.87 1267.42 1723.23 1267.42 Q1727.46 1267.42 1730 1263.31 Q1731.51 1260.65 1731.51 1254.63 Q1731.51 1249.32 1730.37 1246.67 Q1728.61 1242.62 1724.99 1242.62 Q1719.87 1242.62 1716.84 1247.04 Q1716.47 1247.59 1716.04 1247.62 Q1715.42 1247.62 1715.27 1247.28 Q1715.14 1246.91 1715.14 1245.95 L1715.14 1227.24 Q1715.14 1225.73 1715.76 1225.73 Q1716.01 1225.73 1716.53 1225.91 Q1720.52 1227.67 1724.93 1227.71 Q1729.47 1227.71 1733.55 1225.85 Q1733.86 1225.67 1734.04 1225.67 Q1734.66 1225.67 1734.69 1226.38 Q1734.69 1226.62 1734.16 1227.37 Q1733.67 1228.08 1732.59 1229.03 Q1731.51 1229.96 1730.12 1230.85 Q1728.73 1231.75 1726.69 1232.37 Q1724.68 1232.95 1722.46 1232.95 Q1719.81 1232.95 1717.09 1232.12 L1717.09 1244.44 Q1720.36 1241.23 1725.12 1241.23 Q1730.18 1241.23 1733.67 1245.31 Q1737.16 1249.38 1737.16 1255.06 Q1737.16 1261.02 1733.02 1265.1 Q1728.91 1269.18 1723.36 1269.18 Q1718.29 1269.18 1715.08 1265.56 Q1711.9 1261.95 1711.9 1257.6 Z" fill="#000000" fill-rule="nonzero" fill-opacity="1" /><path clip-path="url(#clip080)" d="M2097.95 1231.69 L2097.95 1229.71 Q2105.54 1229.71 2109.46 1225.67 Q2110.55 1225.67 2110.73 1225.91 Q2110.92 1226.16 2110.92 1227.3 L2110.92 1262.78 Q2110.92 1264.67 2111.84 1265.25 Q2112.77 1265.84 2116.81 1265.84 L2118.82 1265.84 L2118.82 1267.79 Q2116.6 1267.6 2108.57 1267.6 Q2100.54 1267.6 2098.35 1267.79 L2098.35 1265.84 L2100.36 1265.84 Q2104.34 1265.84 2105.3 1265.29 Q2106.25 1264.7 2106.25 1262.78 L2106.25 1230.02 Q2102.95 1231.69 2097.95 1231.69 Z" fill="#000000" fill-rule="nonzero" fill-opacity="1" /><path clip-path="url(#clip080)" d="M2130.28 1266.77 Q2129.32 1265.75 2129.32 1264.42 Q2129.32 1263.09 2130.28 1262.14 Q2131.23 1261.15 2132.68 1261.15 Q2134.07 1261.15 2135 1262.07 Q2135.96 1262.97 2135.96 1264.45 Q2135.96 1265.9 2134.94 1266.86 Q2133.95 1267.79 2132.68 1267.79 Q2131.23 1267.79 2130.28 1266.77 Z" fill="#000000" fill-rule="nonzero" fill-opacity="1" /><path clip-path="url(#clip080)" d="M2143.98 1247.56 Q2143.98 1238.27 2146.33 1233.2 Q2149.6 1225.67 2157.32 1225.67 Q2158.96 1225.67 2160.66 1226.13 Q2162.39 1226.56 2164.55 1228.26 Q2166.74 1229.96 2168.07 1232.74 Q2170.6 1238.11 2170.6 1247.56 Q2170.6 1256.79 2168.25 1261.83 Q2164.83 1269.18 2157.26 1269.18 Q2154.42 1269.18 2151.52 1267.72 Q2148.65 1266.27 2146.82 1262.78 Q2143.98 1257.57 2143.98 1247.56 M2149.23 1246.79 Q2149.23 1256.33 2149.91 1260.13 Q2150.68 1264.24 2152.78 1266.03 Q2154.91 1267.79 2157.26 1267.79 Q2159.79 1267.79 2161.89 1265.9 Q2164.02 1263.99 2164.67 1259.88 Q2165.38 1255.84 2165.35 1246.79 Q2165.35 1237.99 2164.73 1234.47 Q2163.9 1230.36 2161.68 1228.72 Q2159.48 1227.06 2157.26 1227.06 Q2156.43 1227.06 2155.53 1227.3 Q2154.67 1227.55 2153.4 1228.26 Q2152.14 1228.97 2151.15 1230.73 Q2150.19 1232.49 2149.73 1235.15 Q2149.23 1238.57 2149.23 1246.79 Z" fill="#000000" fill-rule="nonzero" fill-opacity="1" /><path clip-path="url(#clip080)" d="M2175.6 1247.56 Q2175.6 1238.27 2177.95 1233.2 Q2181.22 1225.67 2188.94 1225.67 Q2190.58 1225.67 2192.28 1226.13 Q2194 1226.56 2196.17 1228.26 Q2198.36 1229.96 2199.69 1232.74 Q2202.22 1238.11 2202.22 1247.56 Q2202.22 1256.79 2199.87 1261.83 Q2196.44 1269.18 2188.88 1269.18 Q2186.04 1269.18 2183.14 1267.72 Q2180.26 1266.27 2178.44 1262.78 Q2175.6 1257.57 2175.6 1247.56 M2180.85 1246.79 Q2180.85 1256.33 2181.53 1260.13 Q2182.3 1264.24 2184.4 1266.03 Q2186.53 1267.79 2188.88 1267.79 Q2191.41 1267.79 2193.51 1265.9 Q2195.64 1263.99 2196.29 1259.88 Q2197 1255.84 2196.97 1246.79 Q2196.97 1237.99 2196.35 1234.47 Q2195.52 1230.36 2193.29 1228.72 Q2191.1 1227.06 2188.88 1227.06 Q2188.05 1227.06 2187.15 1227.3 Q2186.29 1227.55 2185.02 1228.26 Q2183.75 1228.97 2182.77 1230.73 Q2181.81 1232.49 2181.34 1235.15 Q2180.85 1238.57 2180.85 1246.79 Z" fill="#000000" fill-rule="nonzero" fill-opacity="1" /><path clip-path="url(#clip080)" d="M1016.06 1346.28 L1016.06 1344.34 L1017.57 1344.34 Q1021 1344.34 1021.77 1343.78 Q1022.57 1343.19 1022.57 1341.34 L1022.57 1308.02 Q1022.57 1306.2 1021.77 1305.65 Q1020.97 1305.06 1017.57 1305.06 L1016.06 1305.06 L1016.06 1303.08 L1038.38 1303.08 Q1044.77 1303.08 1049.03 1306.6 Q1053.29 1310.12 1053.29 1314.85 Q1053.29 1319.54 1048.94 1322.94 Q1044.62 1326.3 1038.88 1326.3 L1028.19 1326.3 L1028.19 1341.34 Q1028.19 1343.16 1028.96 1343.75 Q1029.77 1344.34 1033.19 1344.34 L1034.71 1344.34 L1034.71 1346.28 Q1032.48 1346.1 1025.35 1346.1 Q1018.28 1346.1 1016.06 1346.28 M1028.01 1324.67 L1036.71 1324.67 Q1039.55 1324.67 1041.62 1323.86 Q1043.69 1323.06 1044.62 1322.1 Q1045.58 1321.12 1046.1 1319.54 Q1046.66 1317.94 1046.72 1317.07 Q1046.78 1316.18 1046.78 1314.85 Q1046.78 1313.46 1046.72 1312.59 Q1046.66 1311.7 1046.1 1310.12 Q1045.58 1308.52 1044.62 1307.56 Q1043.69 1306.57 1041.62 1305.83 Q1039.59 1305.06 1036.71 1305.06 L1031.09 1305.06 Q1028.93 1305.06 1028.47 1305.49 Q1028.01 1305.92 1028.01 1307.59 L1028.01 1324.67 Z" fill="#000000" fill-rule="nonzero" fill-opacity="1" /><path clip-path="url(#clip080)" d="M1058.57 1346.28 L1058.57 1344.34 Q1061.94 1344.34 1062.71 1343.94 Q1063.51 1343.5 1063.51 1341.47 L1063.51 1324.51 Q1063.51 1322.17 1062.68 1321.58 Q1061.88 1320.99 1058.57 1320.99 L1058.57 1319.02 L1067.37 1318.34 L1067.37 1325.29 Q1068.27 1322.57 1070.15 1320.47 Q1072.07 1318.34 1075.15 1318.34 Q1077.19 1318.34 1078.49 1319.48 Q1079.82 1320.62 1079.82 1322.2 Q1079.82 1323.59 1078.95 1324.3 Q1078.12 1324.98 1077.1 1324.98 Q1075.96 1324.98 1075.15 1324.27 Q1074.38 1323.52 1074.38 1322.26 Q1074.38 1321.49 1074.72 1320.9 Q1075.09 1320.28 1075.37 1320.07 Q1075.65 1319.85 1075.83 1319.79 Q1075.71 1319.73 1075.15 1319.73 Q1071.67 1319.73 1069.66 1323.22 Q1067.68 1326.67 1067.68 1331.62 L1067.68 1341.34 Q1067.68 1343.16 1068.42 1343.75 Q1069.2 1344.34 1072.5 1344.34 L1073.83 1344.34 L1073.83 1346.28 Q1071.3 1346.1 1065.8 1346.1 Q1065.03 1346.1 1063.82 1346.13 Q1062.62 1346.16 1061.04 1346.22 Q1059.47 1346.28 1058.57 1346.28 Z" fill="#000000" fill-rule="nonzero" fill-opacity="1" /><path clip-path="url(#clip080)" d="M1087.44 1342.89 Q1083.28 1338.75 1083.28 1332.76 Q1083.28 1326.74 1087.35 1322.35 Q1091.46 1317.94 1097.32 1317.94 Q1103.07 1317.94 1107.17 1322.32 Q1111.31 1326.67 1111.31 1332.76 Q1111.31 1338.72 1107.14 1342.86 Q1103.01 1346.99 1097.26 1346.99 Q1091.64 1346.99 1087.44 1342.89 M1088.52 1332.23 Q1088.52 1338.38 1090.13 1341.16 Q1092.6 1345.39 1097.32 1345.39 Q1099.67 1345.39 1101.62 1344.12 Q1103.59 1342.86 1104.67 1340.72 Q1106.06 1337.95 1106.06 1332.23 Q1106.06 1326.15 1104.39 1323.46 Q1101.92 1319.36 1097.26 1319.36 Q1095.22 1319.36 1093.22 1320.44 Q1091.24 1321.49 1090.04 1323.59 Q1088.52 1326.37 1088.52 1332.23 Z" fill="#000000" fill-rule="nonzero" fill-opacity="1" /><path clip-path="url(#clip080)" d="M1114.89 1305.06 L1114.89 1303.08 L1124 1302.4 L1124 1322.44 Q1127.68 1318.34 1132.68 1318.34 Q1138.11 1318.34 1142.1 1322.51 Q1146.08 1326.67 1146.08 1332.63 Q1146.08 1338.66 1141.91 1342.82 Q1137.74 1346.99 1131.97 1346.99 Q1126.72 1346.99 1123.69 1342.36 Q1121.47 1346.22 1121.41 1346.28 L1119.83 1346.28 L1119.83 1308.58 Q1119.83 1306.23 1119 1305.65 Q1118.17 1305.06 1114.89 1305.06 M1124.19 1339.09 Q1124.19 1340.42 1125.08 1341.74 Q1127.58 1345.57 1131.66 1345.57 Q1131.69 1345.57 1131.72 1345.57 Q1136.14 1345.57 1138.88 1341.53 Q1140.83 1338.5 1140.83 1332.57 Q1140.83 1326.71 1139.01 1323.77 Q1136.48 1319.73 1132.37 1319.73 Q1127.74 1319.73 1124.9 1323.77 Q1124.19 1324.79 1124.19 1326.06 L1124.19 1339.09 Z" fill="#000000" fill-rule="nonzero" fill-opacity="1" /><path clip-path="url(#clip080)" d="M1150.86 1340.26 Q1150.86 1334.89 1157.19 1332.05 Q1160.99 1330.23 1168.83 1329.76 L1168.83 1327.45 Q1168.83 1323.52 1166.77 1321.46 Q1164.73 1319.36 1162.13 1319.36 Q1157.5 1319.36 1155.28 1322.26 Q1157.16 1322.32 1157.84 1323.28 Q1158.52 1324.2 1158.52 1325.16 Q1158.52 1326.43 1157.72 1327.26 Q1156.95 1328.06 1155.62 1328.06 Q1154.35 1328.06 1153.52 1327.29 Q1152.69 1326.49 1152.69 1325.1 Q1152.69 1322.01 1155.46 1319.97 Q1158.27 1317.94 1162.26 1317.94 Q1167.44 1317.94 1170.9 1321.43 Q1171.98 1322.51 1172.51 1323.9 Q1173.06 1325.29 1173.13 1326.21 Q1173.19 1327.11 1173.19 1328.9 L1173.19 1341.53 Q1173.19 1341.9 1173.31 1342.52 Q1173.43 1343.13 1173.99 1343.94 Q1174.58 1344.71 1175.53 1344.71 Q1177.82 1344.71 1177.79 1340.66 L1177.79 1337.11 L1179.39 1337.11 L1179.39 1340.66 Q1179.39 1344.03 1177.6 1345.36 Q1175.84 1346.65 1174.21 1346.65 Q1172.11 1346.65 1170.78 1345.11 Q1169.45 1343.57 1169.27 1341.47 Q1168.31 1343.87 1166.12 1345.45 Q1163.96 1346.99 1160.99 1346.99 Q1158.71 1346.99 1156.55 1346.41 Q1154.41 1345.85 1152.62 1344.28 Q1150.86 1342.67 1150.86 1340.26 M1155.74 1340.2 Q1155.74 1342.55 1157.41 1344.06 Q1159.08 1345.57 1161.42 1345.57 Q1164.08 1345.57 1166.46 1343.53 Q1168.83 1341.47 1168.83 1337.42 L1168.83 1331.09 Q1161.83 1331.34 1158.77 1334.15 Q1155.74 1336.93 1155.74 1340.2 Z" fill="#000000" fill-rule="nonzero" fill-opacity="1" /><path clip-path="url(#clip080)" d="M1181.59 1305.06 L1181.59 1303.08 L1190.69 1302.4 L1190.69 1322.44 Q1194.37 1318.34 1199.37 1318.34 Q1204.81 1318.34 1208.79 1322.51 Q1212.77 1326.67 1212.77 1332.63 Q1212.77 1338.66 1208.6 1342.82 Q1204.43 1346.99 1198.66 1346.99 Q1193.41 1346.99 1190.39 1342.36 Q1188.16 1346.22 1188.1 1346.28 L1186.53 1346.28 L1186.53 1308.58 Q1186.53 1306.23 1185.69 1305.65 Q1184.86 1305.06 1181.59 1305.06 M1190.88 1339.09 Q1190.88 1340.42 1191.78 1341.74 Q1194.28 1345.57 1198.35 1345.57 Q1198.38 1345.57 1198.41 1345.57 Q1202.83 1345.57 1205.58 1341.53 Q1207.52 1338.5 1207.52 1332.57 Q1207.52 1326.71 1205.7 1323.77 Q1203.17 1319.73 1199.06 1319.73 Q1194.43 1319.73 1191.59 1323.77 Q1190.88 1324.79 1190.88 1326.06 L1190.88 1339.09 Z" fill="#000000" fill-rule="nonzero" fill-opacity="1" /><path clip-path="url(#clip080)" d="M1217 1346.28 L1217 1344.34 Q1220.37 1344.34 1221.14 1343.94 Q1221.91 1343.5 1221.91 1341.47 L1221.91 1324.45 Q1221.91 1322.1 1221.11 1321.55 Q1220.34 1320.99 1217.25 1320.99 L1217.25 1319.02 L1226.08 1318.34 L1226.08 1341.53 Q1226.08 1343.41 1226.76 1343.87 Q1227.44 1344.34 1230.53 1344.34 L1230.53 1346.28 Q1224.07 1346.1 1223.95 1346.1 Q1223.08 1346.1 1217 1346.28 M1219.66 1307.31 Q1219.66 1306.05 1220.61 1305.03 Q1221.6 1303.98 1222.99 1303.98 Q1224.38 1303.98 1225.37 1304.94 Q1226.36 1305.86 1226.36 1307.34 Q1226.36 1308.8 1225.37 1309.75 Q1224.38 1310.68 1222.99 1310.68 Q1221.54 1310.68 1220.58 1309.66 Q1219.66 1308.64 1219.66 1307.31 Z" fill="#000000" fill-rule="nonzero" fill-opacity="1" /><path clip-path="url(#clip080)" d="M1234.51 1346.28 L1234.51 1344.34 Q1237.87 1344.34 1238.65 1343.94 Q1239.42 1343.5 1239.42 1341.47 L1239.42 1308.58 Q1239.42 1306.23 1238.58 1305.65 Q1237.78 1305.06 1234.51 1305.06 L1234.51 1303.08 L1243.59 1302.4 L1243.59 1341.47 Q1243.59 1343.5 1244.39 1343.94 Q1245.19 1344.34 1248.53 1344.34 L1248.53 1346.28 Q1247.75 1346.28 1246.15 1346.22 Q1244.54 1346.16 1243.37 1346.13 Q1242.2 1346.1 1241.52 1346.1 Q1240.78 1346.1 1234.51 1346.28 Z" fill="#000000" fill-rule="nonzero" fill-opacity="1" /><path clip-path="url(#clip080)" d="M1252.02 1346.28 L1252.02 1344.34 Q1255.38 1344.34 1256.15 1343.94 Q1256.92 1343.5 1256.92 1341.47 L1256.92 1324.45 Q1256.92 1322.1 1256.12 1321.55 Q1255.35 1320.99 1252.26 1320.99 L1252.26 1319.02 L1261.09 1318.34 L1261.09 1341.53 Q1261.09 1343.41 1261.77 1343.87 Q1262.45 1344.34 1265.54 1344.34 L1265.54 1346.28 Q1259.09 1346.1 1258.96 1346.1 Q1258.1 1346.1 1252.02 1346.28 M1254.67 1307.31 Q1254.67 1306.05 1255.63 1305.03 Q1256.62 1303.98 1258.01 1303.98 Q1259.39 1303.98 1260.38 1304.94 Q1261.37 1305.86 1261.37 1307.34 Q1261.37 1308.8 1260.38 1309.75 Q1259.39 1310.68 1258.01 1310.68 Q1256.55 1310.68 1255.6 1309.66 Q1254.67 1308.64 1254.67 1307.31 Z" fill="#000000" fill-rule="nonzero" fill-opacity="1" /><path clip-path="url(#clip080)" d="M1268.63 1320.99 L1268.63 1319.6 Q1271.53 1319.48 1273.44 1317.44 Q1275.39 1315.37 1276.04 1312.84 Q1276.72 1310.31 1276.78 1307.38 L1278.35 1307.38 L1278.35 1319.02 L1287.4 1319.02 L1287.4 1320.99 L1278.35 1320.99 L1278.35 1338.56 Q1278.35 1345.39 1282.61 1345.39 Q1284.44 1345.39 1285.64 1343.53 Q1286.84 1341.65 1286.84 1338.32 L1286.84 1334.83 L1288.42 1334.83 L1288.42 1338.44 Q1288.42 1341.87 1286.84 1344.43 Q1285.27 1346.99 1282.15 1346.99 Q1281.01 1346.99 1279.87 1346.68 Q1278.75 1346.41 1277.27 1345.67 Q1275.82 1344.89 1274.89 1343.04 Q1274 1341.16 1274 1338.44 L1274 1320.99 L1268.63 1320.99 Z" fill="#000000" fill-rule="nonzero" fill-opacity="1" /><path clip-path="url(#clip080)" d="M1291.38 1354.13 Q1291.38 1352.8 1292.15 1352.09 Q1292.96 1351.41 1294.04 1351.41 Q1295.18 1351.41 1295.92 1352.12 Q1296.69 1352.86 1296.69 1354.06 Q1296.69 1356.41 1294.22 1356.72 Q1295.43 1357.86 1297.19 1357.86 Q1299.07 1357.86 1300.58 1356.47 Q1302.13 1355.08 1302.78 1353.76 Q1303.46 1352.43 1304.41 1350.02 Q1305.31 1348.14 1305.99 1346.28 L1296.51 1323.19 Q1295.89 1321.67 1294.93 1321.33 Q1293.98 1320.99 1291.38 1320.99 L1291.38 1319.02 Q1294.22 1319.2 1297.53 1319.2 Q1299.47 1319.2 1304.41 1319.02 L1304.41 1320.99 Q1300.86 1320.99 1300.86 1322.63 Q1300.86 1322.81 1301.23 1323.77 L1308.27 1340.79 L1314.66 1325.22 Q1315.03 1324.33 1315.03 1323.71 Q1315.03 1321.12 1312.07 1320.99 L1312.07 1319.02 Q1316.24 1319.2 1317.57 1319.2 Q1320.16 1319.2 1322.29 1319.02 L1322.29 1320.99 Q1318.06 1320.99 1316.42 1325.04 L1305.28 1352.03 Q1302.25 1359.22 1297.19 1359.25 Q1294.78 1359.25 1293.08 1357.77 Q1291.38 1356.29 1291.38 1354.13 Z" fill="#000000" fill-rule="nonzero" fill-opacity="1" /><path clip-path="url(#clip080)" d="M1350.79 1330.47 Q1350.79 1319.79 1354.77 1311.17 Q1356.47 1307.56 1358.85 1304.53 Q1361.23 1301.51 1362.8 1300.18 Q1364.37 1298.85 1364.81 1298.85 Q1365.42 1298.85 1365.46 1299.47 Q1365.46 1299.78 1364.62 1300.55 Q1354.43 1310.93 1354.46 1330.47 Q1354.46 1350.08 1364.37 1360.06 Q1365.46 1361.14 1365.46 1361.48 Q1365.46 1362.09 1364.81 1362.09 Q1364.37 1362.09 1362.86 1360.83 Q1361.35 1359.56 1359 1356.66 Q1356.66 1353.76 1354.96 1350.2 Q1350.79 1341.59 1350.79 1330.47 Z" fill="#000000" fill-rule="nonzero" fill-opacity="1" /><path clip-path="url(#clip080)" d="M1371.63 1332.7 Q1371.63 1326.61 1374.47 1322.51 Q1377.31 1318.4 1381.23 1318.4 Q1382.81 1318.4 1384.1 1319.2 Q1385.4 1319.97 1386.27 1321.02 Q1387.13 1322.07 1387.93 1323.93 Q1388.77 1325.78 1389.2 1327.11 Q1389.66 1328.43 1390.28 1330.72 Q1391.36 1327.94 1392.13 1325.44 Q1392.94 1322.94 1393.18 1321.8 Q1393.46 1320.62 1393.8 1319.73 Q1394.14 1318.83 1394.48 1318.62 Q1394.85 1318.4 1395.53 1318.4 L1397.29 1318.4 Q1398.68 1318.4 1398.71 1319.2 Q1398.71 1319.63 1397.84 1322.6 Q1396.98 1325.53 1395.47 1329.79 Q1393.95 1334.02 1392.63 1336.8 Q1392.38 1337.57 1392.38 1337.67 Q1392.38 1338.04 1392.84 1339.18 Q1393.31 1340.32 1394.51 1341.59 Q1395.71 1342.86 1397.23 1342.86 Q1398.37 1342.86 1398.96 1342.21 Q1399.57 1341.53 1399.82 1341.53 Q1400.65 1341.53 1400.65 1342.55 Q1400.65 1344.06 1399.67 1345.48 Q1398.71 1346.9 1397.04 1346.9 Q1393.49 1346.9 1391.18 1339.71 Q1388.52 1343.57 1386.61 1345.08 Q1384.14 1346.96 1381.3 1346.99 Q1377.13 1346.99 1374.38 1342.73 Q1371.63 1338.44 1371.63 1332.7 M1373.27 1332.7 Q1373.27 1337.17 1375.4 1340.01 Q1377.56 1342.86 1381.11 1342.86 Q1385.15 1342.86 1388.89 1334.21 Q1389.14 1333.44 1389.14 1333.25 Q1389.14 1332.7 1388.74 1331.18 Q1388.33 1329.64 1387.47 1327.6 Q1386.61 1325.53 1384.94 1324.02 Q1383.27 1322.51 1381.11 1322.51 Q1377.56 1322.51 1375.4 1325.35 Q1373.27 1328.16 1373.27 1332.7 Z" fill="#000000" fill-rule="nonzero" fill-opacity="1" /><path clip-path="url(#clip080)" d="M1404.27 1361.48 Q1404.27 1361.17 1405.07 1360.39 Q1415.26 1350.02 1415.26 1330.47 Q1415.26 1310.86 1405.47 1300.95 Q1404.27 1299.81 1404.27 1299.47 Q1404.27 1298.85 1404.88 1298.85 Q1405.32 1298.85 1406.83 1300.12 Q1408.37 1301.38 1410.69 1304.29 Q1413.04 1307.19 1414.77 1310.74 Q1418.93 1319.36 1418.93 1330.47 Q1418.93 1341.16 1414.95 1349.77 Q1413.25 1353.39 1410.87 1356.41 Q1408.5 1359.44 1406.92 1360.77 Q1405.35 1362.09 1404.88 1362.09 Q1404.27 1362.09 1404.27 1361.48 Z" fill="#000000" fill-rule="nonzero" fill-opacity="1" /><polyline clip-path="url(#clip082)" style="stroke:#000000; stroke-linecap:round; stroke-linejoin:round; stroke-width:2; stroke-opacity:0.1; fill:none" points="248.724,1173.31 2186.27,1173.31 "/>
<polyline clip-path="url(#clip082)" style="stroke:#000000; stroke-linecap:round; stroke-linejoin:round; stroke-width:2; stroke-opacity:0.1; fill:none" points="248.724,946.859 2186.27,946.859 "/>
<polyline clip-path="url(#clip082)" style="stroke:#000000; stroke-linecap:round; stroke-linejoin:round; stroke-width:2; stroke-opacity:0.1; fill:none" points="248.724,720.409 2186.27,720.409 "/>
<polyline clip-path="url(#clip082)" style="stroke:#000000; stroke-linecap:round; stroke-linejoin:round; stroke-width:2; stroke-opacity:0.1; fill:none" points="248.724,493.958 2186.27,493.958 "/>
<polyline clip-path="url(#clip082)" style="stroke:#000000; stroke-linecap:round; stroke-linejoin:round; stroke-width:2; stroke-opacity:0.1; fill:none" points="248.724,267.507 2186.27,267.507 "/>
<polyline clip-path="url(#clip080)" style="stroke:#000000; stroke-linecap:round; stroke-linejoin:round; stroke-width:4; stroke-opacity:1; fill:none" points="248.724,1195.66 248.724,47.2441 "/>
<polyline clip-path="url(#clip080)" style="stroke:#000000; stroke-linecap:round; stroke-linejoin:round; stroke-width:4; stroke-opacity:1; fill:none" points="2186.27,1195.66 2186.27,47.2441 "/>
<polyline clip-path="url(#clip080)" style="stroke:#000000; stroke-linecap:round; stroke-linejoin:round; stroke-width:4; stroke-opacity:1; fill:none" points="248.724,1173.31 267.62,1173.31 "/>
<polyline clip-path="url(#clip080)" style="stroke:#000000; stroke-linecap:round; stroke-linejoin:round; stroke-width:4; stroke-opacity:1; fill:none" points="248.724,946.859 267.62,946.859 "/>
<polyline clip-path="url(#clip080)" style="stroke:#000000; stroke-linecap:round; stroke-linejoin:round; stroke-width:4; stroke-opacity:1; fill:none" points="248.724,720.409 267.62,720.409 "/>
<polyline clip-path="url(#clip080)" style="stroke:#000000; stroke-linecap:round; stroke-linejoin:round; stroke-width:4; stroke-opacity:1; fill:none" points="248.724,493.958 267.62,493.958 "/>
<polyline clip-path="url(#clip080)" style="stroke:#000000; stroke-linecap:round; stroke-linejoin:round; stroke-width:4; stroke-opacity:1; fill:none" points="248.724,267.507 267.62,267.507 "/>
<path clip-path="url(#clip080)" d="M138.947 1174.68 Q138.947 1165.39 141.294 1160.33 Q144.567 1152.79 152.286 1152.79 Q153.922 1152.79 155.621 1153.25 Q157.35 1153.69 159.511 1155.38 Q161.703 1157.08 163.031 1159.86 Q165.563 1165.23 165.563 1174.68 Q165.563 1183.92 163.216 1188.95 Q159.789 1196.3 152.224 1196.3 Q149.384 1196.3 146.481 1194.85 Q143.61 1193.4 141.788 1189.91 Q138.947 1184.69 138.947 1174.68 M144.196 1173.91 Q144.196 1183.45 144.876 1187.25 Q145.648 1191.36 147.747 1193.15 Q149.878 1194.91 152.224 1194.91 Q154.756 1194.91 156.856 1193.03 Q158.986 1191.11 159.635 1187 Q160.345 1182.96 160.314 1173.91 Q160.314 1165.11 159.696 1161.59 Q158.863 1157.48 156.64 1155.85 Q154.447 1154.18 152.224 1154.18 Q151.391 1154.18 150.495 1154.43 Q149.631 1154.67 148.365 1155.38 Q147.099 1156.09 146.111 1157.85 Q145.154 1159.61 144.69 1162.27 Q144.196 1165.7 144.196 1173.91 Z" fill="#000000" fill-rule="nonzero" fill-opacity="1" /><path clip-path="url(#clip080)" d="M174.424 1193.89 Q173.467 1192.87 173.467 1191.54 Q173.467 1190.22 174.424 1189.26 Q175.382 1188.27 176.833 1188.27 Q178.222 1188.27 179.149 1189.2 Q180.106 1190.09 180.106 1191.57 Q180.106 1193.03 179.087 1193.98 Q178.099 1194.91 176.833 1194.91 Q175.382 1194.91 174.424 1193.89 Z" fill="#000000" fill-rule="nonzero" fill-opacity="1" /><path clip-path="url(#clip080)" d="M188.134 1174.68 Q188.134 1165.39 190.48 1160.33 Q193.753 1152.79 201.472 1152.79 Q203.109 1152.79 204.807 1153.25 Q206.536 1153.69 208.697 1155.38 Q210.89 1157.08 212.217 1159.86 Q214.749 1165.23 214.749 1174.68 Q214.749 1183.92 212.403 1188.95 Q208.975 1196.3 201.411 1196.3 Q198.57 1196.3 195.667 1194.85 Q192.796 1193.4 190.974 1189.91 Q188.134 1184.69 188.134 1174.68 M193.383 1173.91 Q193.383 1183.45 194.062 1187.25 Q194.834 1191.36 196.933 1193.15 Q199.064 1194.91 201.411 1194.91 Q203.942 1194.91 206.042 1193.03 Q208.172 1191.11 208.821 1187 Q209.531 1182.96 209.5 1173.91 Q209.5 1165.11 208.883 1161.59 Q208.049 1157.48 205.826 1155.85 Q203.634 1154.18 201.411 1154.18 Q200.577 1154.18 199.681 1154.43 Q198.817 1154.67 197.551 1155.38 Q196.285 1156.09 195.297 1157.85 Q194.34 1159.61 193.877 1162.27 Q193.383 1165.7 193.383 1173.91 Z" fill="#000000" fill-rule="nonzero" fill-opacity="1" /><path clip-path="url(#clip080)" d="M139.133 948.233 Q139.133 938.939 141.479 933.874 Q144.752 926.34 152.471 926.34 Q154.108 926.34 155.806 926.803 Q157.535 927.235 159.696 928.934 Q161.889 930.632 163.216 933.411 Q165.748 938.784 165.748 948.233 Q165.748 957.466 163.402 962.499 Q159.974 969.849 152.41 969.849 Q149.569 969.849 146.667 968.397 Q143.795 966.946 141.973 963.457 Q139.133 958.238 139.133 948.233 M144.382 947.461 Q144.382 957.003 145.061 960.801 Q145.833 964.908 147.932 966.699 Q150.063 968.459 152.41 968.459 Q154.941 968.459 157.041 966.576 Q159.171 964.661 159.82 960.554 Q160.53 956.509 160.499 947.461 Q160.499 938.661 159.882 935.14 Q159.048 931.034 156.825 929.397 Q154.633 927.729 152.41 927.729 Q151.576 927.729 150.68 927.977 Q149.816 928.224 148.55 928.934 Q147.284 929.644 146.296 931.404 Q145.339 933.164 144.876 935.82 Q144.382 939.247 144.382 947.461 Z" fill="#000000" fill-rule="nonzero" fill-opacity="1" /><path clip-path="url(#clip080)" d="M174.61 967.44 Q173.653 966.421 173.653 965.093 Q173.653 963.766 174.61 962.808 Q175.567 961.82 177.018 961.82 Q178.408 961.82 179.334 962.746 Q180.291 963.642 180.291 965.124 Q180.291 966.576 179.272 967.533 Q178.284 968.459 177.018 968.459 Q175.567 968.459 174.61 967.44 Z" fill="#000000" fill-rule="nonzero" fill-opacity="1" /><path clip-path="url(#clip080)" d="M188.504 959.936 Q188.504 958.053 189.585 957.157 Q190.665 956.262 192.055 956.262 Q193.506 956.262 194.525 957.219 Q195.575 958.145 195.575 959.782 Q195.575 961.542 194.34 962.53 Q193.136 963.518 191.407 963.271 Q192.919 965.804 195.698 966.946 Q198.508 968.089 201.102 968.089 Q203.819 968.089 206.011 965.742 Q208.234 963.395 208.234 957.651 Q208.234 952.773 206.32 949.963 Q204.436 947.152 200.7 947.152 L197.921 947.152 Q196.964 947.152 196.686 947.06 Q196.409 946.967 196.409 946.442 Q196.409 945.825 197.366 945.701 Q198.323 945.701 199.836 945.516 Q203.51 945.392 205.455 942.212 Q207.215 939.247 207.215 935.017 Q207.215 931.157 205.363 929.551 Q203.541 927.915 201.163 927.915 Q198.94 927.915 196.501 928.841 Q194.062 929.768 192.734 931.836 Q196.656 931.836 196.656 935.017 Q196.656 936.407 195.76 937.333 Q194.896 938.228 193.444 938.228 Q192.055 938.228 191.129 937.364 Q190.202 936.468 190.202 934.955 Q190.202 931.342 193.413 928.841 Q196.656 926.34 201.411 926.34 Q206.104 926.34 209.562 928.81 Q213.051 931.281 213.051 935.079 Q213.051 938.815 210.581 941.872 Q208.111 944.929 204.189 946.195 Q209.006 947.152 211.878 950.426 Q214.749 953.668 214.749 957.651 Q214.749 962.592 210.859 966.236 Q206.968 969.849 201.287 969.849 Q196.038 969.849 192.271 967.008 Q188.504 964.167 188.504 959.936 Z" fill="#000000" fill-rule="nonzero" fill-opacity="1" /><path clip-path="url(#clip080)" d="M139.133 721.783 Q139.133 712.488 141.479 707.424 Q144.752 699.889 152.471 699.889 Q154.108 699.889 155.806 700.352 Q157.535 700.785 159.696 702.483 Q161.889 704.181 163.216 706.961 Q165.748 712.334 165.748 721.783 Q165.748 731.016 163.402 736.049 Q159.974 743.398 152.41 743.398 Q149.569 743.398 146.667 741.947 Q143.795 740.495 141.973 737.006 Q139.133 731.787 139.133 721.783 M144.382 721.011 Q144.382 730.552 145.061 734.35 Q145.833 738.457 147.932 740.248 Q150.063 742.009 152.41 742.009 Q154.941 742.009 157.041 740.125 Q159.171 738.21 159.82 734.103 Q160.53 730.058 160.499 721.011 Q160.499 712.21 159.882 708.69 Q159.048 704.583 156.825 702.946 Q154.633 701.279 152.41 701.279 Q151.576 701.279 150.68 701.526 Q149.816 701.773 148.55 702.483 Q147.284 703.193 146.296 704.953 Q145.339 706.714 144.876 709.369 Q144.382 712.797 144.382 721.011 Z" fill="#000000" fill-rule="nonzero" fill-opacity="1" /><path clip-path="url(#clip080)" d="M174.61 740.99 Q173.653 739.97 173.653 738.643 Q173.653 737.315 174.61 736.358 Q175.567 735.369 177.018 735.369 Q178.408 735.369 179.334 736.296 Q180.291 737.191 180.291 738.674 Q180.291 740.125 179.272 741.082 Q178.284 742.009 177.018 742.009 Q175.567 742.009 174.61 740.99 Z" fill="#000000" fill-rule="nonzero" fill-opacity="1" /><path clip-path="url(#clip080)" d="M188.504 722.03 Q188.504 712.087 193.568 706.003 Q198.632 699.889 205.147 699.889 Q208.944 699.889 211.044 701.835 Q213.174 703.749 213.174 706.714 Q213.174 708.35 212.217 709.06 Q211.26 709.771 210.272 709.771 Q209.13 709.771 208.234 708.999 Q207.339 708.227 207.339 706.837 Q207.339 703.996 210.828 703.996 Q209.191 701.464 205.27 701.464 Q204.066 701.464 202.831 701.835 Q201.596 702.174 199.99 703.348 Q198.385 704.521 197.15 706.374 Q195.914 708.227 195.05 711.716 Q194.185 715.205 194.185 719.745 L194.185 721.258 Q196.779 714.989 202.09 715.02 Q207.401 715.02 211.075 719.065 Q214.749 723.11 214.749 729.101 Q214.749 735.246 210.92 739.322 Q207.092 743.398 201.719 743.398 Q199.311 743.398 197.119 742.379 Q194.957 741.391 192.919 739.106 Q190.912 736.821 189.708 732.436 Q188.504 728.051 188.504 722.03 M194.309 727.711 Q194.309 733.918 195.451 736.883 Q195.637 737.377 196.038 738.056 Q196.47 738.735 197.18 739.631 Q197.921 740.495 199.126 741.082 Q200.33 741.638 201.719 741.638 Q205.949 741.638 207.987 737.531 Q209.068 735.246 209.068 729.039 Q209.068 722.709 207.925 720.393 Q205.98 716.471 202.028 716.471 Q199.373 716.471 197.52 718.293 Q195.698 720.115 194.988 722.555 Q194.309 724.994 194.309 727.711 Z" fill="#000000" fill-rule="nonzero" fill-opacity="1" /><path clip-path="url(#clip080)" d="M139.133 495.332 Q139.133 486.037 141.479 480.973 Q144.752 473.439 152.471 473.439 Q154.108 473.439 155.806 473.902 Q157.535 474.334 159.696 476.033 Q161.889 477.731 163.216 480.51 Q165.748 485.883 165.748 495.332 Q165.748 504.565 163.402 509.598 Q159.974 516.947 152.41 516.947 Q149.569 516.947 146.667 515.496 Q143.795 514.045 141.973 510.555 Q139.133 505.337 139.133 495.332 M144.382 494.56 Q144.382 504.102 145.061 507.9 Q145.833 512.007 147.932 513.798 Q150.063 515.558 152.41 515.558 Q154.941 515.558 157.041 513.674 Q159.171 511.76 159.82 507.653 Q160.53 503.608 160.499 494.56 Q160.499 485.759 159.882 482.239 Q159.048 478.132 156.825 476.496 Q154.633 474.828 152.41 474.828 Q151.576 474.828 150.68 475.075 Q149.816 475.322 148.55 476.033 Q147.284 476.743 146.296 478.503 Q145.339 480.263 144.876 482.919 Q144.382 486.346 144.382 494.56 Z" fill="#000000" fill-rule="nonzero" fill-opacity="1" /><path clip-path="url(#clip080)" d="M174.61 514.539 Q173.653 513.52 173.653 512.192 Q173.653 510.864 174.61 509.907 Q175.567 508.919 177.018 508.919 Q178.408 508.919 179.334 509.845 Q180.291 510.741 180.291 512.223 Q180.291 513.674 179.272 514.632 Q178.284 515.558 177.018 515.558 Q175.567 515.558 174.61 514.539 Z" fill="#000000" fill-rule="nonzero" fill-opacity="1" /><path clip-path="url(#clip080)" d="M188.504 487.674 Q188.504 484.308 189.492 482.023 Q190.48 479.707 192.549 477.422 Q196.347 473.439 201.843 473.439 Q204.189 473.439 206.258 474.427 Q208.358 475.415 210.334 477.669 Q212.341 479.892 213.545 484.308 Q214.749 488.693 214.749 494.745 Q214.749 504.534 209.994 510.741 Q205.27 516.947 198.879 516.947 Q194.834 516.947 192.456 515.126 Q190.079 513.273 190.079 510.123 Q190.079 508.487 191.005 507.807 Q191.931 507.097 192.981 507.097 Q194.124 507.097 195.019 507.869 Q195.914 508.61 195.914 510 Q195.914 511.142 195.173 512.038 Q194.463 512.902 192.611 512.902 Q194.432 515.187 198.817 515.187 Q200.392 515.187 201.966 514.477 Q203.541 513.736 205.239 511.976 Q206.968 510.185 208.018 506.449 Q209.068 502.712 209.068 497.463 L209.068 495.456 Q206.536 501.786 201.163 501.786 Q195.853 501.786 192.178 497.71 Q188.504 493.634 188.504 487.674 M194.185 487.736 Q194.185 494.004 195.328 496.32 Q197.273 500.304 201.225 500.304 Q205.085 500.304 206.999 496.876 Q208.944 493.417 208.944 488.94 Q208.944 482.733 207.925 480.016 Q206.042 475.013 201.843 475.013 Q197.674 475.013 195.513 478.997 Q194.185 481.344 194.185 487.736 Z" fill="#000000" fill-rule="nonzero" fill-opacity="1" /><path clip-path="url(#clip080)" d="M142.776 253.009 L142.776 251.033 Q150.372 251.033 154.293 246.988 Q155.374 246.988 155.559 247.235 Q155.744 247.482 155.744 248.625 L155.744 284.105 Q155.744 285.988 156.67 286.575 Q157.597 287.162 161.642 287.162 L163.649 287.162 L163.649 289.107 Q161.425 288.922 153.398 288.922 Q145.37 288.922 143.177 289.107 L143.177 287.162 L145.184 287.162 Q149.168 287.162 150.125 286.606 Q151.082 286.019 151.082 284.105 L151.082 251.342 Q147.778 253.009 142.776 253.009 Z" fill="#000000" fill-rule="nonzero" fill-opacity="1" /><path clip-path="url(#clip080)" d="M175.104 288.088 Q174.147 287.069 174.147 285.741 Q174.147 284.414 175.104 283.456 Q176.061 282.468 177.512 282.468 Q178.902 282.468 179.828 283.395 Q180.785 284.29 180.785 285.772 Q180.785 287.224 179.766 288.181 Q178.778 289.107 177.512 289.107 Q176.061 289.107 175.104 288.088 Z" fill="#000000" fill-rule="nonzero" fill-opacity="1" /><path clip-path="url(#clip080)" d="M189.492 289.107 Q189.492 287.965 189.585 287.625 Q189.708 287.285 190.202 286.76 L202.337 273.235 Q208.975 265.763 208.975 259.247 Q208.975 255.017 206.752 251.99 Q204.56 248.964 200.515 248.964 Q197.736 248.964 195.39 250.663 Q193.043 252.361 191.962 255.387 Q192.148 255.325 192.796 255.325 Q194.371 255.325 195.235 256.314 Q196.131 257.302 196.131 258.629 Q196.131 260.328 195.019 261.162 Q193.938 261.964 192.858 261.964 Q192.425 261.964 191.839 261.872 Q191.283 261.779 190.388 260.915 Q189.492 260.019 189.492 258.444 Q189.492 254.028 192.827 250.508 Q196.192 246.988 201.318 246.988 Q207.123 246.988 210.92 250.446 Q214.749 253.874 214.749 259.247 Q214.749 261.131 214.162 262.86 Q213.607 264.558 212.835 265.886 Q212.094 267.214 210.056 269.345 Q208.018 271.475 206.382 272.988 Q204.745 274.501 201.071 277.713 L194.371 284.228 L205.764 284.228 Q211.322 284.228 211.754 283.734 Q212.372 282.839 213.144 278.114 L214.749 278.114 L212.958 289.107 L189.492 289.107 Z" fill="#000000" fill-rule="nonzero" fill-opacity="1" /><path clip-path="url(#clip080)" d="M92.0135 777.008 L90.0683 777.008 L90.0683 775.495 Q90.0683 772.068 89.5125 771.296 Q88.9259 770.493 87.0733 770.493 L53.7576 770.493 Q51.9359 770.493 51.3801 771.296 Q50.7934 772.099 50.7934 775.495 L50.7934 777.008 L48.8174 777.008 L48.8174 754.683 Q48.8174 748.291 52.3373 744.029 Q55.8572 739.768 60.5813 739.768 Q65.2745 739.768 68.6709 744.122 Q72.0365 748.445 72.0365 754.189 L72.0365 764.873 L87.0733 764.873 Q88.895 764.873 89.4817 764.101 Q90.0683 763.298 90.0683 759.871 L90.0683 758.357 L92.0135 758.357 Q91.8283 760.581 91.8283 767.714 Q91.8283 774.785 92.0135 777.008 M70.4 765.058 L70.4 756.35 Q70.4 753.509 69.5972 751.44 Q68.7944 749.372 67.8373 748.445 Q66.8492 747.488 65.2745 746.963 Q63.6689 746.407 62.8044 746.345 Q61.909 746.284 60.5813 746.284 Q59.1918 746.284 58.3273 746.345 Q57.4319 746.407 55.8572 746.963 Q54.2516 747.488 53.2944 748.445 Q52.3064 749.372 51.5654 751.44 Q50.7934 753.479 50.7934 756.35 L50.7934 761.97 Q50.7934 764.132 51.2257 764.595 Q51.658 765.058 53.3253 765.058 L70.4 765.058 Z" fill="#000000" fill-rule="nonzero" fill-opacity="1" /><path clip-path="url(#clip080)" d="M92.0135 734.148 L90.0683 734.148 Q90.0683 730.782 89.6669 730.01 Q89.2347 729.238 87.1968 729.238 L70.1839 729.238 Q67.8373 729.238 67.2815 730.041 Q66.7257 730.813 66.7257 733.901 L64.7496 733.901 L64.0703 725.07 L87.2586 725.07 Q89.142 725.07 89.6052 724.39 Q90.0683 723.711 90.0683 720.623 L92.0135 720.623 Q91.8283 727.077 91.8283 727.2 Q91.8283 728.065 92.0135 734.148 M53.0474 731.493 Q51.7815 731.493 50.7626 730.535 Q49.7128 729.547 49.7128 728.158 Q49.7128 726.768 50.6699 725.78 Q51.5962 724.792 53.0783 724.792 Q54.5295 724.792 55.4867 725.78 Q56.413 726.768 56.413 728.158 Q56.413 729.609 55.394 730.566 Q54.3751 731.493 53.0474 731.493 Z" fill="#000000" fill-rule="nonzero" fill-opacity="1" /><path clip-path="url(#clip080)" d="M92.0135 716.701 L90.0683 716.701 Q90.0683 713.336 89.6669 712.564 Q89.2347 711.792 87.1968 711.792 L70.2456 711.792 Q67.899 711.792 67.3124 712.625 Q66.7257 713.428 66.7257 716.701 L64.7496 716.701 L64.0703 707.808 L70.7088 707.808 Q64.0703 704.844 64.0703 698.452 Q64.0703 693.696 66.4169 691.813 Q67.9916 690.423 69.7516 690.145 Q71.5116 689.836 76.0813 689.836 L88.154 689.836 Q89.4817 689.775 89.7904 688.756 Q90.0683 687.737 90.0683 684.896 L92.0135 684.896 Q91.8283 691.35 91.8283 691.998 Q91.8283 692.492 92.0135 699.131 L90.0683 699.131 Q90.0683 695.765 89.6669 694.993 Q89.2347 694.19 87.1968 694.19 L72.4687 694.19 Q69.2576 694.19 67.3741 695.179 Q65.4598 696.167 65.4598 698.884 Q65.4598 702.157 68.2078 704.782 Q70.9558 707.407 75.5873 707.407 L87.1968 707.407 Q89.2347 707.407 89.6669 706.635 Q90.0683 705.832 90.0683 702.497 L92.0135 702.497 Q91.8283 708.951 91.8283 709.568 Q91.8283 710.062 92.0135 716.701 Z" fill="#000000" fill-rule="nonzero" fill-opacity="1" /><path clip-path="url(#clip080)" d="M50.7934 683.661 L48.8174 683.661 L48.1381 674.551 L68.1769 674.551 Q64.0703 670.877 64.0703 665.874 Q64.0703 660.439 68.2387 656.456 Q72.407 652.473 78.3661 652.473 Q84.3871 652.473 88.5554 656.641 Q92.7237 660.81 92.7237 666.584 Q92.7237 671.834 88.0922 674.86 Q91.9518 677.083 92.0135 677.145 L92.0135 678.72 L54.3134 678.72 Q51.9668 678.72 51.3801 679.554 Q50.7934 680.387 50.7934 683.661 M84.8193 674.366 Q86.147 674.366 87.4747 673.471 Q91.3034 670.969 91.3034 666.893 Q91.3034 666.862 91.3034 666.831 Q91.3034 662.416 87.2586 659.668 Q84.2327 657.722 78.3044 657.722 Q72.4379 657.722 69.5046 659.544 Q65.4598 662.076 65.4598 666.183 Q65.4598 670.815 69.5046 673.656 Q70.5235 674.366 71.7894 674.366 L84.8193 674.366 Z" fill="#000000" fill-rule="nonzero" fill-opacity="1" /><path clip-path="url(#clip080)" d="M85.9926 647.686 Q80.6201 647.686 77.7795 641.356 Q75.9578 637.558 75.4946 629.715 L73.1789 629.715 Q69.2576 629.715 67.1889 631.784 Q65.0893 633.822 65.0893 636.415 Q65.0893 641.047 67.9916 643.271 Q68.0534 641.387 69.0106 640.708 Q69.9369 640.028 70.894 640.028 Q72.16 640.028 72.9936 640.831 Q73.7964 641.603 73.7964 642.931 Q73.7964 644.197 73.0245 645.031 Q72.2217 645.865 70.8323 645.865 Q67.7446 645.865 65.7068 643.085 Q63.6689 640.275 63.6689 636.292 Q63.6689 631.104 67.158 627.646 Q68.2387 626.565 69.6281 626.04 Q71.0175 625.484 71.9438 625.422 Q72.8392 625.361 74.6301 625.361 L87.2586 625.361 Q87.6291 625.361 88.2466 625.237 Q88.8641 625.114 89.6669 624.558 Q90.4388 623.971 90.4388 623.014 Q90.4388 620.729 86.394 620.76 L82.8432 620.76 L82.8432 619.154 L86.394 619.154 Q89.7596 619.154 91.0872 620.945 Q92.3841 622.705 92.3841 624.342 Q92.3841 626.441 90.8402 627.769 Q89.2964 629.097 87.1968 629.282 Q89.6052 630.24 91.1799 632.432 Q92.7237 634.594 92.7237 637.558 Q92.7237 639.843 92.137 642.005 Q91.5813 644.135 90.0066 645.926 Q88.401 647.686 85.9926 647.686 M85.9309 642.807 Q88.2775 642.807 89.7904 641.14 Q91.3034 639.473 91.3034 637.126 Q91.3034 634.47 89.2655 632.092 Q87.1968 629.715 83.152 629.715 L76.8223 629.715 Q77.0693 636.724 79.8791 639.781 Q82.658 642.807 85.9309 642.807 Z" fill="#000000" fill-rule="nonzero" fill-opacity="1" /><path clip-path="url(#clip080)" d="M92.0135 616.622 L90.0683 616.622 Q90.0683 613.256 89.6669 612.484 Q89.2347 611.712 87.1968 611.712 L54.3134 611.712 Q51.9668 611.712 51.3801 612.546 Q50.7934 613.349 50.7934 616.622 L48.8174 616.622 L48.1381 607.543 L87.1968 607.543 Q89.2347 607.543 89.6669 606.741 Q90.0683 605.938 90.0683 602.603 L92.0135 602.603 Q92.0135 603.375 91.9518 604.98 Q91.89 606.586 91.8592 607.76 Q91.8283 608.933 91.8283 609.612 Q91.8283 610.353 92.0135 616.622 Z" fill="#000000" fill-rule="nonzero" fill-opacity="1" /><path clip-path="url(#clip080)" d="M92.0135 599.113 L90.0683 599.113 Q90.0683 595.748 89.6669 594.976 Q89.2347 594.204 87.1968 594.204 L54.3134 594.204 Q51.9668 594.204 51.3801 595.037 Q50.7934 595.84 50.7934 599.113 L48.8174 599.113 L48.1381 590.035 L87.1968 590.035 Q89.2347 590.035 89.6669 589.232 Q90.0683 588.429 90.0683 585.094 L92.0135 585.094 Q92.0135 585.866 91.9518 587.472 Q91.89 589.078 91.8592 590.251 Q91.8283 591.424 91.8283 592.104 Q91.8283 592.845 92.0135 599.113 Z" fill="#000000" fill-rule="nonzero" fill-opacity="1" /><path clip-path="url(#clip080)" d="M92.0135 560.576 L90.0683 560.576 Q90.0683 557.21 89.6669 556.438 Q89.2347 555.666 87.1968 555.666 L54.3134 555.666 Q51.9668 555.666 51.3801 556.5 Q50.7934 557.303 50.7934 560.576 L48.8174 560.576 L48.1381 551.498 L87.1968 551.498 Q89.2347 551.498 89.6669 550.695 Q90.0683 549.892 90.0683 546.557 L92.0135 546.557 Q92.0135 547.329 91.9518 548.935 Q91.89 550.54 91.8592 551.714 Q91.8283 552.887 91.8283 553.567 Q91.8283 554.308 92.0135 560.576 Z" fill="#000000" fill-rule="nonzero" fill-opacity="1" /><path clip-path="url(#clip080)" d="M88.6171 539.239 Q84.4797 543.407 78.4896 543.407 Q72.4687 543.407 68.0843 539.331 Q63.6689 535.224 63.6689 529.357 Q63.6689 523.614 68.0534 519.507 Q72.407 515.369 78.4896 515.369 Q84.4488 515.369 88.5863 519.538 Q92.7237 523.676 92.7237 529.419 Q92.7237 535.039 88.6171 539.239 M77.9647 538.158 Q84.1092 538.158 86.888 536.552 Q91.1181 534.082 91.1181 529.357 Q91.1181 527.01 89.8522 525.065 Q88.5863 523.089 86.4558 522.008 Q83.6769 520.618 77.9647 520.618 Q71.8821 520.618 69.1958 522.286 Q65.0893 524.756 65.0893 529.419 Q65.0893 531.457 66.1699 533.464 Q67.2197 535.44 69.3193 536.645 Q72.0982 538.158 77.9647 538.158 Z" fill="#000000" fill-rule="nonzero" fill-opacity="1" /><path clip-path="url(#clip080)" d="M91.1799 511.447 L82.8432 511.447 Q82.1331 511.447 81.8861 511.416 Q81.639 511.386 81.4538 511.2 Q81.2685 511.015 81.2685 510.644 Q81.2685 510.212 81.4538 510.058 Q81.639 509.873 82.3492 509.749 Q86.7028 508.792 89.0185 506.754 Q91.3034 504.685 91.3034 500.948 Q91.3034 497.397 89.7287 495.606 Q88.154 493.815 85.5604 493.815 Q80.9289 493.815 79.7556 500.393 Q78.9837 504.191 78.4896 505.766 Q77.9647 507.34 76.8223 508.73 Q74.5992 511.447 71.4498 511.447 Q68.3004 511.447 65.9847 509.07 Q63.6689 506.661 63.6689 501.35 Q63.6689 497.799 65.4598 495.39 Q64.904 494.68 64.4408 494.309 Q63.6689 493.476 63.6689 493.043 Q63.6689 492.549 64.0086 492.457 Q64.3173 492.364 65.2128 492.364 L71.5733 492.364 Q72.2835 492.364 72.5305 492.395 Q72.7775 492.426 72.9628 492.611 Q73.1171 492.796 73.1171 493.198 Q73.1171 493.908 72.5305 493.939 Q64.8731 494.433 64.8731 501.35 Q64.8731 505.086 66.3243 506.754 Q67.7446 508.421 69.6898 508.421 Q70.7705 508.421 71.6042 507.927 Q72.407 507.402 72.901 506.754 Q73.3641 506.074 73.8273 504.839 Q74.2596 503.604 74.4139 502.863 Q74.5683 502.091 74.8771 500.64 Q75.8343 495.575 77.903 493.445 Q80.5584 490.789 83.9239 490.789 Q87.66 490.789 90.1918 493.321 Q92.7237 495.853 92.7237 500.948 Q92.7237 505.055 89.9757 507.927 Q90.3462 508.298 90.6859 508.576 Q90.9946 508.853 91.1181 508.977 Q91.2416 509.07 91.3343 509.101 Q91.396 509.131 91.4578 509.193 Q92.7237 510.459 92.7237 510.768 Q92.7237 511.262 92.3841 511.355 Q92.0753 511.447 91.1799 511.447 Z" fill="#000000" fill-rule="nonzero" fill-opacity="1" /><path clip-path="url(#clip080)" d="M91.1799 486.559 L82.8432 486.559 Q82.1331 486.559 81.8861 486.528 Q81.639 486.497 81.4538 486.312 Q81.2685 486.126 81.2685 485.756 Q81.2685 485.324 81.4538 485.169 Q81.639 484.984 82.3492 484.86 Q86.7028 483.903 89.0185 481.865 Q91.3034 479.796 91.3034 476.06 Q91.3034 472.509 89.7287 470.718 Q88.154 468.927 85.5604 468.927 Q80.9289 468.927 79.7556 475.504 Q78.9837 479.302 78.4896 480.877 Q77.9647 482.452 76.8223 483.841 Q74.5992 486.559 71.4498 486.559 Q68.3004 486.559 65.9847 484.181 Q63.6689 481.772 63.6689 476.461 Q63.6689 472.91 65.4598 470.502 Q64.904 469.791 64.4408 469.421 Q63.6689 468.587 63.6689 468.155 Q63.6689 467.661 64.0086 467.568 Q64.3173 467.475 65.2128 467.475 L71.5733 467.475 Q72.2835 467.475 72.5305 467.506 Q72.7775 467.537 72.9628 467.722 Q73.1171 467.908 73.1171 468.309 Q73.1171 469.019 72.5305 469.05 Q64.8731 469.544 64.8731 476.461 Q64.8731 480.198 66.3243 481.865 Q67.7446 483.533 69.6898 483.533 Q70.7705 483.533 71.6042 483.038 Q72.407 482.514 72.901 481.865 Q73.3641 481.186 73.8273 479.951 Q74.2596 478.715 74.4139 477.974 Q74.5683 477.202 74.8771 475.751 Q75.8343 470.687 77.903 468.556 Q80.5584 465.901 83.9239 465.901 Q87.66 465.901 90.1918 468.433 Q92.7237 470.965 92.7237 476.06 Q92.7237 480.167 89.9757 483.038 Q90.3462 483.409 90.6859 483.687 Q90.9946 483.965 91.1181 484.088 Q91.2416 484.181 91.3343 484.212 Q91.396 484.243 91.4578 484.305 Q92.7237 485.571 92.7237 485.879 Q92.7237 486.373 92.3841 486.466 Q92.0753 486.559 91.1799 486.559 Z" fill="#000000" fill-rule="nonzero" fill-opacity="1" /><polyline clip-path="url(#clip082)" style="stroke:#0173b2; stroke-linecap:round; stroke-linejoin:round; stroke-width:4; stroke-opacity:1; fill:none" points="303.56,861.444 322.212,832.821 340.864,803.861 359.515,765.001 378.167,765.672 396.819,732.05 415.471,698.056 434.122,661.073 452.774,621.819 471.426,585.265 490.078,555.982 508.729,555.552 527.381,549.097 546.033,534.013 564.685,524.996 583.336,525.722 601.988,529.932 620.64,534.235 639.292,543.669 657.943,557.756 676.595,575.514 695.247,594.993 713.899,613.692 732.55,633.347 751.202,656.065 769.854,681.023 788.505,707.411 807.157,735.359 825.809,764.949 844.461,794.581 863.112,825.909 881.764,858.204 900.416,892.574 919.068,928.757 937.719,967.798 956.371,1010.54 975.023,1055.99 993.675,1107.31 1012.33,1163.16 1030.98,1097.24 1049.63,1005.1 1068.28,914.25 1086.93,827.37 1105.59,746.443 1124.24,670.03 1142.89,595.857 1161.54,522.04 1180.19,451.735 1198.84,387.579 1217.5,331.27 1236.15,283.515 1254.8,243.679 1273.45,209.803 1292.1,184.334 1310.75,163.302 1329.41,147.81 1348.06,134.786 1366.71,124.428 1385.36,115.732 1404.01,107.82 1422.66,101.213 1441.32,94.4994 1459.97,89.5292 1478.62,85.0323 1497.27,82.088 1515.92,80.3012 1534.58,79.7466 1553.23,80.9343 1571.88,83.4521 1590.53,87.9061 1609.18,94.438 1627.83,102.899 1646.49,112.666 1665.14,123.845 1683.79,136.011 1702.44,148.044 1721.09,160.312 1739.74,171.164 1758.4,179.934 1777.05,187.125 1795.7,194.399 1814.35,204.703 1833,218.414 1851.65,233.717 1870.31,251.298 1888.96,273.376 1907.61,301.292 1926.26,334.447 1944.91,371.746 1963.57,412.013 1982.22,451.819 2000.87,495.636 2019.52,546.651 2038.17,605.783 2056.82,670.694 2075.48,722 2094.13,783.082 2112.78,827.747 2131.43,892.383 "/>
<path clip-path="url(#clip080)" d="M313.309 215.125 L565.667 215.125 L565.667 85.5248 L313.309 85.5248  Z" fill="#ffffff" fill-rule="evenodd" fill-opacity="1"/>
<polyline clip-path="url(#clip080)" style="stroke:#000000; stroke-linecap:round; stroke-linejoin:round; stroke-width:4; stroke-opacity:1; fill:none" points="313.309,215.125 565.667,215.125 565.667,85.5248 313.309,85.5248 313.309,215.125 "/>
<polyline clip-path="url(#clip080)" style="stroke:#0173b2; stroke-linecap:round; stroke-linejoin:round; stroke-width:5; stroke-opacity:1; fill:none" points="334.837,150.325 464.007,150.325 "/>
<path clip-path="url(#clip080)" d="M485.535 179.768 Q485.535 178.44 486.307 177.73 Q487.11 177.051 488.19 177.051 Q489.333 177.051 490.074 177.761 Q490.846 178.502 490.846 179.706 Q490.846 182.053 488.376 182.362 Q489.58 183.504 491.34 183.504 Q493.223 183.504 494.736 182.115 Q496.28 180.725 496.928 179.398 Q497.608 178.07 498.565 175.661 Q499.46 173.778 500.139 171.925 L490.66 148.827 Q490.043 147.314 489.086 146.974 Q488.129 146.635 485.535 146.635 L485.535 144.658 Q488.376 144.844 491.679 144.844 Q493.625 144.844 498.565 144.658 L498.565 146.635 Q495.014 146.635 495.014 148.271 Q495.014 148.457 495.385 149.414 L502.424 166.428 L508.816 150.865 Q509.186 149.97 509.186 149.352 Q509.186 146.758 506.222 146.635 L506.222 144.658 Q510.39 144.844 511.718 144.844 Q514.312 144.844 516.442 144.658 L516.442 146.635 Q512.212 146.635 510.576 150.68 L499.429 177.668 Q496.403 184.863 491.34 184.894 Q488.931 184.894 487.233 183.412 Q485.535 181.93 485.535 179.768 Z" fill="#000000" fill-rule="nonzero" fill-opacity="1" /><path clip-path="url(#clip080)" d="M523.266 135.827 L523.266 133.851 Q530.862 133.851 534.783 129.806 Q535.864 129.806 536.049 130.053 Q536.234 130.3 536.234 131.442 L536.234 166.922 Q536.234 168.806 537.16 169.393 Q538.087 169.979 542.131 169.979 L544.138 169.979 L544.138 171.925 Q541.915 171.74 533.887 171.74 Q525.86 171.74 523.667 171.925 L523.667 169.979 L525.674 169.979 Q529.657 169.979 530.615 169.424 Q531.572 168.837 531.572 166.922 L531.572 134.16 Q528.268 135.827 523.266 135.827 Z" fill="#000000" fill-rule="nonzero" fill-opacity="1" /></svg>
